<?xml version="1.0" encoding="UTF-8" standalone="no"?>
<!-- Created with Inkscape (http://www.inkscape.org/) -->

<svg
   xmlns:dc="http://purl.org/dc/elements/1.1/"
   xmlns:cc="http://creativecommons.org/ns#"
   xmlns:rdf="http://www.w3.org/1999/02/22-rdf-syntax-ns#"
   xmlns:svg="http://www.w3.org/2000/svg"
   xmlns="http://www.w3.org/2000/svg"
   xmlns:sodipodi="http://sodipodi.sourceforge.net/DTD/sodipodi-0.dtd"
   xmlns:inkscape="http://www.inkscape.org/namespaces/inkscape"
   width="841mm"
   height="594mm"
   viewBox="0 0 841 594"
   version="1.1"
   id="svg5"
   inkscape:version="0.92.4 (5da689c313, 2019-01-14)"
   sodipodi:docname="boitier.svg">
  <metadata
     id="metadata45">
    <rdf:RDF>
      <cc:Work
         rdf:about="">
        <dc:format>image/svg+xml</dc:format>
        <dc:type
           rdf:resource="http://purl.org/dc/dcmitype/StillImage" />
      </cc:Work>
    </rdf:RDF>
  </metadata>
  <sodipodi:namedview
     id="namedview7"
     pagecolor="#ffffff"
     bordercolor="#666666"
     borderopacity="1.0"
     inkscape:showpageshadow="2"
     inkscape:pageopacity="0.0"
     inkscape:pagecheckerboard="0"
     inkscape:deskcolor="#d1d1d1"
     inkscape:document-units="mm"
     showgrid="false"
     inkscape:zoom="0.5225"
     inkscape:cx="1770.5568"
     inkscape:cy="2477.8806"
     inkscape:window-width="1920"
     inkscape:window-height="1017"
     inkscape:window-x="-8"
     inkscape:window-y="-8"
     inkscape:window-maximized="1"
     inkscape:current-layer="layer1"
     showguides="true"
     inkscape:snap-bbox="true"
     inkscape:snap-intersection-paths="true"
     inkscape:snap-object-midpoints="true">
    <inkscape:grid
       type="xygrid"
       id="grid783" />
  </sodipodi:namedview>
  <defs
     id="defs2" />
  <g
     inkscape:label="Calque 1"
     inkscape:groupmode="layer"
     id="layer1">
    <g
       id="box3849"
       transform="translate(86.848234,-116.66888)">
      <path
         style="fill:none;stroke:#0000ff;stroke-width:0.1;stroke-linecap:butt;stroke-linejoin:miter"
         id="box3849-lid"
         d="m 0,0 h 4.5 v -3 h 9 v 3 h 4.5 4.5 v -3 h 9 v 3 h 4.5 4.5 v -3 h 9 v 3 h 4.5 4.5 v -3 h 9 v 3 h 4.5 4.5 v -3 h 9 v 3 h 4.5 4.5 v -3 h 9 v 3 h 4.5 4.5 v -3 h 9 v 3 h 4.5 4.5 v -3 h 9 v 3 h 4.5 4.5 v -3 h 9 v 3 h 4.5 4.5 v -3 h 9 v 3 h 4.5 4.5 v -3 h 9 v 3 h 4.5 4.5 v -3 h 9 v 3 h 4.5 4.5 v -3 h 9 v 3 h 4.5 4.5 v -3 h 9 v 3 h 4.5 4.5 v -3 h 9 v 3 h 4.5 4.5 v -3 h 9 v 3 h 4.5 4.5 v -3 h 9 v 3 h 4.5 4.5 v -3 h 9 v 3 h 4.5 4.5 v -3 h 9 v 3 h 4.5 4.5 v -3 h 9 v 3 h 4.5 v 4.16667 h 3 V 12.5 h -3 v 4.16667 4.16667 h 3 v 8.33333 h -3 v 4.16667 4.16667 h 3 v 8.33333 h -3 v 4.16667 h -4.5 v 3 h -9 v -3 h -4.5 -4.5 v 3 h -9 v -3 h -4.5 -4.5 v 3 h -9 v -3 h -4.5 -4.5 v 3 h -9 v -3 h -4.5 -4.5 v 3 h -9 v -3 h -4.5 -4.5 v 3 h -9 v -3 h -4.5 -4.5 v 3 h -9 v -3 h -4.5 -4.5 v 3 h -9 v -3 h -4.5 -4.5 v 3 h -9 v -3 h -4.5 -4.5 v 3 h -9 v -3 h -4.5 -4.5 v 3 h -9 v -3 h -4.5 -4.5 v 3 h -9 v -3 h -4.5 -4.5 v 3 h -9 v -3 h -4.5 -4.5 v 3 h -9 v -3 h -4.5 -4.5 v 3 h -9 v -3 H 90 85.5 v 3 h -9 v -3 H 72 67.5 v 3 h -9 v -3 H 54 49.5 v 3 h -9 v -3 H 36 31.5 v 3 h -9 v -3 H 18 13.5 v 3 h -9 v -3 H 0 V 45.83334 H -3 V 37.50001 H 0 V 33.33334 29.16667 H -3 V 20.83334 H 0 V 16.66667 12.5 H -3 V 4.16667 H 0 V 0" />
      <path
         style="fill:none;stroke:#0000ff;stroke-width:0.1;stroke-linecap:butt;stroke-linejoin:miter"
         id="box3849-longside1"
         d="m -3,53 v -3 h 3 m 363,0 v 3 4.25 h -3 v 8.5 h 3 V 70 74.25 h -3 v 8.5 h 3 V 87 91.25 h -3 v 8.5 h 3 v 4.25 4.25 h -3 v 8.5 h 3 v 4.25 4.25 h -3 v 8.5 h 3 v 4.25 4.25 h -3 v 8.5 h 3 v 4.25 4.25 h -3 v 8.5 h 3 v 4.25 4.25 h -3 v 8.5 h 3 v 4.25 4.25 h -3 v 8.5 h 3 v 4.25 4.25 h -3 v 8.5 h 3 v 4.25 4.25 h -3 v 8.5 h 3 v 4.25 4.25 h -3 v 8.5 h 3 v 4.25 4.25 h -3 v 8.5 h 3 v 4.25 4.25 h -3 v 8.5 h 3 v 4.25 4.25 h -3 v 8.5 h 3 v 4.25 4.25 h -3 v 8.5 h 3 v 4.25 4.25 h -3 v 8.5 h 3 v 4.25 4.25 h -3 v 8.5 h 3 v 4.25 4.25 h -3 v 8.5 h 3 v 4.25 4.25 h -3 v 8.5 h 3 v 4.25 3 h -3 -4.5 v -3 h -9 v 3 h -4.5 -4.5 v -3 h -9 v 3 h -4.5 -4.5 v -3 h -9 v 3 h -4.5 -4.5 v -3 h -9 v 3 h -4.5 -4.5 v -3 h -9 v 3 h -4.5 -4.5 v -3 h -9 v 3 h -4.5 -4.5 v -3 h -9 v 3 h -4.5 -4.5 v -3 h -9 v 3 h -4.5 -4.5 v -3 h -9 v 3 h -4.5 -4.5 v -3 h -9 v 3 h -4.5 -4.5 v -3 h -9 v 3 h -4.5 -4.5 v -3 h -9 v 3 h -4.5 -4.5 v -3 h -9 v 3 h -4.5 -4.5 v -3 h -9 v 3 h -4.5 -4.5 v -3 h -9 v 3 H 90 85.5 v -3 h -9 v 3 H 72 67.5 v -3 h -9 v 3 H 54 49.5 v -3 h -9 v 3 H 36 31.5 v -3 h -9 v 3 H 18 13.5 v -3 h -9 v 3 H 0 -3 v -3 -4.25 h 3 v -8.5 H -3 V 376 371.75 h 3 v -8.5 H -3 V 359 354.75 h 3 v -8.5 H -3 V 342 337.75 h 3 v -8.5 H -3 V 325 320.75 h 3 v -8.5 H -3 V 308 303.75 h 3 v -8.5 H -3 V 291 286.75 h 3 v -8.5 H -3 V 274 269.75 h 3 v -8.5 H -3 V 257 252.75 h 3 v -8.5 H -3 V 240 235.75 h 3 v -8.5 H -3 V 223 218.75 h 3 v -8.5 H -3 V 206 201.75 h 3 v -8.5 H -3 V 189 184.75 h 3 v -8.5 H -3 V 172 167.75 h 3 v -8.5 H -3 V 155 150.75 h 3 v -8.5 H -3 V 138 133.75 h 3 v -8.5 H -3 V 121 116.75 h 3 v -8.5 H -3 V 104 99.75 h 3 v -8.5 H -3 V 87 82.75 h 3 v -8.5 H -3 V 70 65.75 h 3 v -8.5 H -3 V 53" />
      <path
         style="fill:none;stroke:#0000ff;stroke-width:0.1;stroke-linecap:butt;stroke-linejoin:miter"
         id="box3849-base"
         d="m 0,396 m 360,0 v 4.16667 h 3 V 408.5 h -3 v 4.16667 4.16667 h 3 v 8.33333 h -3 v 4.16667 4.16667 h 3 v 8.33333 h -3 v 4.16667 h -4.5 v 3 h -9 v -3 h -4.5 -4.5 v 3 h -9 v -3 h -4.5 -4.5 v 3 h -9 v -3 h -4.5 -4.5 v 3 h -9 v -3 h -4.5 -4.5 v 3 h -9 v -3 h -4.5 -4.5 v 3 h -9 v -3 h -4.5 -4.5 v 3 h -9 v -3 h -4.5 -4.5 v 3 h -9 v -3 h -4.5 -4.5 v 3 h -9 v -3 h -4.5 -4.5 v 3 h -9 v -3 h -4.5 -4.5 v 3 h -9 v -3 h -4.5 -4.5 v 3 h -9 v -3 h -4.5 -4.5 v 3 h -9 v -3 h -4.5 -4.5 v 3 h -9 v -3 h -4.5 -4.5 v 3 h -9 v -3 H 90 85.5 v 3 h -9 v -3 H 72 67.5 v 3 h -9 v -3 H 54 49.5 v 3 h -9 v -3 H 36 31.5 v 3 h -9 v -3 H 18 13.5 v 3 h -9 v -3 H 0 v -4.16667 h -3 v -8.33333 h 3 v -4.16667 -4.16667 h -3 v -8.33333 H 0 V 412.66667 408.5 h -3 v -8.33333 H 0 V 396" />
      <path
         style="fill:none;stroke:#0000ff;stroke-width:0.1;stroke-linecap:butt;stroke-linejoin:miter"
         id="box3849-longside2"
         d="m -3,449 v -3 h 3 m 363,0 v 3 4.25 h -3 v 8.5 h 3 v 4.25 4.25 h -3 v 8.5 h 3 v 4.25 4.25 h -3 v 8.5 h 3 v 4.25 4.25 h -3 v 8.5 h 3 v 4.25 4.25 h -3 v 8.5 h 3 v 4.25 4.25 h -3 v 8.5 h 3 v 4.25 4.25 h -3 v 8.5 h 3 v 4.25 4.25 h -3 v 8.5 h 3 v 4.25 4.25 h -3 v 8.5 h 3 v 4.25 4.25 h -3 v 8.5 h 3 v 4.25 4.25 h -3 v 8.5 h 3 v 4.25 4.25 h -3 v 8.5 h 3 v 4.25 4.25 h -3 v 8.5 h 3 v 4.25 4.25 h -3 v 8.5 h 3 v 4.25 4.25 h -3 v 8.5 h 3 v 4.25 4.25 h -3 v 8.5 h 3 v 4.25 4.25 h -3 v 8.5 h 3 v 4.25 4.25 h -3 v 8.5 h 3 v 4.25 4.25 h -3 v 8.5 h 3 v 4.25 4.25 h -3 v 8.5 h 3 v 4.25 3 h -3 -4.5 v -3 h -9 v 3 h -4.5 -4.5 v -3 h -9 v 3 h -4.5 -4.5 v -3 h -9 v 3 h -4.5 -4.5 v -3 h -9 v 3 h -4.5 -4.5 v -3 h -9 v 3 h -4.5 -4.5 v -3 h -9 v 3 h -4.5 -4.5 v -3 h -9 v 3 h -4.5 -4.5 v -3 h -9 v 3 h -4.5 -4.5 v -3 h -9 v 3 h -4.5 -4.5 v -3 h -9 v 3 h -4.5 -4.5 v -3 h -9 v 3 h -4.5 -4.5 v -3 h -9 v 3 h -4.5 -4.5 v -3 h -9 v 3 h -4.5 -4.5 v -3 h -9 v 3 h -4.5 -4.5 v -3 h -9 v 3 H 90 85.5 v -3 h -9 v 3 H 72 67.5 v -3 h -9 v 3 H 54 49.5 v -3 h -9 v 3 H 36 31.5 v -3 h -9 v 3 H 18 13.5 v -3 h -9 v 3 H 0 -3 v -3 -4.25 h 3 v -8.5 H -3 V 772 767.75 h 3 v -8.5 H -3 V 755 750.75 h 3 v -8.5 H -3 V 738 733.75 h 3 v -8.5 H -3 V 721 716.75 h 3 v -8.5 H -3 V 704 699.75 h 3 v -8.5 H -3 V 687 682.75 h 3 v -8.5 H -3 V 670 665.75 h 3 v -8.5 H -3 V 653 648.75 h 3 v -8.5 H -3 V 636 631.75 h 3 v -8.5 H -3 V 619 614.75 h 3 v -8.5 H -3 V 602 597.75 h 3 v -8.5 H -3 V 585 580.75 h 3 v -8.5 H -3 V 568 563.75 h 3 v -8.5 H -3 V 551 546.75 h 3 v -8.5 H -3 V 534 529.75 h 3 v -8.5 H -3 V 517 512.75 h 3 v -8.5 H -3 V 500 495.75 h 3 v -8.5 H -3 V 483 478.75 h 3 v -8.5 H -3 V 466 461.75 h 3 v -8.5 H -3 V 449" />
      <path
         style="fill:none;stroke:#0000ff;stroke-width:0.1;stroke-linecap:butt;stroke-linejoin:miter"
         id="box3849-endface2"
         d="m 360,0 h 3 4.25 v -3 h 8.5 v 3 h 4.25 4.25 v -3 h 8.5 v 3 h 4.25 4.25 v -3 h 8.5 v 3 h 4.25 4.25 v -3 h 8.5 v 3 h 4.25 4.25 v -3 h 8.5 v 3 h 4.25 4.25 v -3 h 8.5 v 3 h 4.25 4.25 v -3 h 8.5 v 3 h 4.25 4.25 v -3 h 8.5 v 3 h 4.25 4.25 v -3 h 8.5 v 3 h 4.25 4.25 v -3 h 8.5 v 3 h 4.25 4.25 v -3 h 8.5 v 3 h 4.25 4.25 v -3 h 8.5 v 3 h 4.25 4.25 v -3 h 8.5 v 3 h 4.25 4.25 v -3 h 8.5 v 3 h 4.25 4.25 v -3 h 8.5 v 3 h 4.25 4.25 v -3 h 8.5 v 3 h 4.25 4.25 v -3 h 8.5 v 3 h 4.25 4.25 v -3 h 8.5 v 3 h 4.25 4.25 v -3 h 8.5 v 3 h 4.25 4.25 v -3 h 8.5 v 3 h 4.25 3 v 4.16667 h -3 V 12.5 h 3 v 4.16667 4.16667 h -3 v 8.33333 h 3 v 4.16667 4.16667 h -3 v 8.33333 h 3 v 4.16667 h -3 -4.25 v 3 h -8.5 v -3 H 686 681.75 v 3 h -8.5 v -3 H 669 664.75 v 3 h -8.5 v -3 H 652 647.75 v 3 h -8.5 v -3 H 635 630.75 v 3 h -8.5 v -3 H 618 613.75 v 3 h -8.5 v -3 H 601 596.75 v 3 h -8.5 v -3 H 584 579.75 v 3 h -8.5 v -3 H 567 562.75 v 3 h -8.5 v -3 H 550 545.75 v 3 h -8.5 v -3 H 533 528.75 v 3 h -8.5 v -3 H 516 511.75 v 3 h -8.5 v -3 H 499 494.75 v 3 h -8.5 v -3 H 482 477.75 v 3 h -8.5 v -3 H 465 460.75 v 3 h -8.5 v -3 H 448 443.75 v 3 h -8.5 v -3 H 431 426.75 v 3 h -8.5 v -3 H 414 409.75 v 3 h -8.5 v -3 H 397 392.75 v 3 h -8.5 v -3 H 380 375.75 v 3 h -8.5 v -3 H 363 360" />
      <path
         style="fill:none;stroke:#0000ff;stroke-width:0.1;stroke-linecap:butt;stroke-linejoin:miter"
         id="box3849-endface1"
         d="m 360,396 m 3,0 h 4.25 v -3 h 8.5 v 3 h 4.25 4.25 v -3 h 8.5 v 3 h 4.25 4.25 v -3 h 8.5 v 3 h 4.25 4.25 v -3 h 8.5 v 3 h 4.25 4.25 v -3 h 8.5 v 3 h 4.25 4.25 v -3 h 8.5 v 3 h 4.25 4.25 v -3 h 8.5 v 3 h 4.25 4.25 v -3 h 8.5 v 3 h 4.25 4.25 v -3 h 8.5 v 3 h 4.25 4.25 v -3 h 8.5 v 3 h 4.25 4.25 v -3 h 8.5 v 3 h 4.25 4.25 v -3 h 8.5 v 3 h 4.25 4.25 v -3 h 8.5 v 3 h 4.25 4.25 v -3 h 8.5 v 3 h 4.25 4.25 v -3 h 8.5 v 3 h 4.25 4.25 v -3 h 8.5 v 3 h 4.25 4.25 v -3 h 8.5 v 3 h 4.25 4.25 v -3 h 8.5 v 3 h 4.25 4.25 v -3 h 8.5 v 3 h 4.25 4.25 v -3 h 8.5 v 3 h 4.25 3 v 4.16667 h -3 V 408.5 h 3 v 4.16667 4.16667 h -3 v 8.33333 h 3 v 4.16667 4.16667 h -3 v 8.33333 h 3 v 4.16667 h -3 -4.25 v 3 h -8.5 v -3 H 686 681.75 v 3 h -8.5 v -3 H 669 664.75 v 3 h -8.5 v -3 H 652 647.75 v 3 h -8.5 v -3 H 635 630.75 v 3 h -8.5 v -3 H 618 613.75 v 3 h -8.5 v -3 H 601 596.75 v 3 h -8.5 v -3 H 584 579.75 v 3 h -8.5 v -3 H 567 562.75 v 3 h -8.5 v -3 H 550 545.75 v 3 h -8.5 v -3 H 533 528.75 v 3 h -8.5 v -3 H 516 511.75 v 3 h -8.5 v -3 H 499 494.75 v 3 h -8.5 v -3 H 482 477.75 v 3 h -8.5 v -3 H 465 460.75 v 3 h -8.5 v -3 H 448 443.75 v 3 h -8.5 v -3 H 431 426.75 v 3 h -8.5 v -3 H 414 409.75 v 3 h -8.5 v -3 H 397 392.75 v 3 h -8.5 v -3 H 380 375.75 v 3 h -8.5 v -3 H 363 360" />
    </g>
    <circle
       style="fill:none;stroke:#000000;stroke-width:0.45052007"
       id="path593"
       cx="115.72903"
       cy="-92.742638"
       r="4.7747397" />
    <circle
       style="fill:none;stroke:#000000;stroke-width:0.40546718"
       id="path593-5"
       cx="154.16133"
       cy="-92.565331"
       r="4.2972665" />
    <rect
       style="fill:none;stroke:#000000;stroke-width:0.23759003"
       id="rect647-9-4-7"
       width="28.762409"
       height="47.762413"
       x="291.53702"
       y="-767.1214"
       transform="rotate(90)" />
    <text
       xml:space="preserve"
       style="font-style:normal;font-weight:normal;font-size:5.64444px;line-height:1.25;font-family:sans-serif;letter-spacing:0px;word-spacing:0px;fill:#000000;fill-opacity:1;stroke:none;stroke-width:0.264583"
       x="105.86671"
       y="-76.489136"
       id="text814"><tspan
         sodipodi:role="line"
         id="tspan812"
         style="font-style:normal;font-variant:normal;font-weight:normal;font-stretch:normal;font-size:5.64444px;font-family:Alef;-inkscape-font-specification:Alef;stroke-width:0.264583"
         x="105.86671"
         y="-76.489136">Volume</tspan></text>
    <text
       xml:space="preserve"
       style="font-style:normal;font-weight:normal;font-size:5.64444px;line-height:1.25;font-family:sans-serif;letter-spacing:0px;word-spacing:0px;fill:#000000;fill-opacity:1;stroke:none;stroke-width:0.264583"
       x="139.65294"
       y="-76.331917"
       id="text814-7"><tspan
         sodipodi:role="line"
         id="tspan812-1"
         style="font-style:normal;font-variant:normal;font-weight:normal;font-stretch:normal;font-size:5.64444px;font-family:Alef;-inkscape-font-specification:Alef;stroke-width:0.264583"
         x="139.65294"
         y="-76.331917">Luminosity</tspan></text>
    <circle
       style="fill:none;stroke:#000000;stroke-width:0.56314832"
       id="path593-5-5"
       cx="406.35556"
       cy="-92.404045"
       r="5.9684258" />
    <circle
       style="fill:none;stroke:#000000;stroke-width:0.157682"
       id="path593-5-5-6"
       cx="211.77284"
       cy="270.70163"
       r="1.6711593" />
    <circle
       style="fill:none;stroke:#000000;stroke-width:0.157682"
       id="path593-5-5-6-1"
       cx="334.10175"
       cy="185.37273"
       r="1.6711593" />
    <circle
       style="fill:none;stroke:#000000;stroke-width:0.157682"
       id="path593-5-5-6-5"
       cx="213.60173"
       cy="308.42303"
       r="1.6711593" />
    <circle
       style="fill:none;stroke:#000000;stroke-width:0.157682"
       id="path593-5-5-6-5-8"
       cx="239.10173"
       cy="298.92307"
       r="1.6711593" />
    <circle
       style="fill:none;stroke:#000000;stroke-width:0.157682"
       id="path593-5-5-6-5-8-3"
       cx="316.10172"
       cy="307.92303"
       r="1.6711593" />
    <circle
       style="fill:none;stroke:#000000;stroke-width:0.157682"
       id="path593-5-5-6-5-8-3-1"
       cx="316.10172"
       cy="289.92303"
       r="1.6711593" />
    <circle
       style="fill:none;stroke:#000000;stroke-width:0.157682"
       id="path593-5-5-6-8"
       cx="284.69247"
       cy="242.45917"
       r="1.6711593" />
    <circle
       style="fill:none;stroke:#000000;stroke-width:0.157682"
       id="path593-5-5-6-8-7"
       cx="284.6925"
       cy="209.45915"
       r="1.6711593" />
    <ellipse
       style="fill:none;stroke:#000000;stroke-width:0.13065"
       id="path593-5-5-6-8-7-1-5"
       cx="185.6028"
       cy="145.57654"
       rx="1.3846748"
       ry="1.3846747" />
    <text
       xml:space="preserve"
       style="font-style:normal;font-weight:normal;font-size:5.64444px;line-height:1.25;font-family:sans-serif;letter-spacing:0px;word-spacing:0px;fill:#000000;fill-opacity:1;stroke:none;stroke-width:0.264583"
       x="398.71036"
       y="-75.920654"
       id="text814-7-8"><tspan
         sodipodi:role="line"
         id="tspan812-1-0"
         style="font-style:normal;font-variant:normal;font-weight:normal;font-stretch:normal;font-size:5.64444px;font-family:Alef;-inkscape-font-specification:Alef;stroke-width:0.264583"
         x="398.71036"
         y="-75.920654">Mode</tspan></text>
    <rect
       style="fill:none;fill-opacity:1;stroke:#00a500;stroke-width:0;stroke-miterlimit:10;stroke-dasharray:none;stroke-opacity:0.76020406"
       id="rect854"
       width="82.354813"
       height="51.203205"
       x="227.01285"
       y="87.696877" />
    <ellipse
       style="fill:none;stroke:#000000;stroke-width:0.13065"
       id="path593-5-5-6-8-7-1-5-6"
       cx="346.08224"
       cy="150.56512"
       rx="1.3846748"
       ry="1.3846747" />
    <ellipse
       style="fill:none;stroke:#000000;stroke-width:0.13065"
       id="path593-5-5-6-8-7-1-5-6-8"
       cx="342.98108"
       cy="38.69828"
       rx="1.3846748"
       ry="1.3846747" />
    <ellipse
       style="fill:none;stroke:#000000;stroke-width:0.13065"
       id="path593-5-5-6-8-7-1-5-8"
       cx="188.7392"
       cy="36.222076"
       rx="1.3846748"
       ry="1.3846747" />
    <circle
       style="fill:none;fill-opacity:1;stroke:#000000;stroke-width:0.1052205;stroke-miterlimit:10;stroke-dasharray:none;stroke-opacity:0.76020406"
       id="path843"
       cx="133.72037"
       cy="-6.7967415"
       r="2.6973898" />
    <ellipse
       style="fill:none;fill-opacity:1;stroke:#000000;stroke-width:0.10625502;stroke-miterlimit:10;stroke-dasharray:none;stroke-opacity:0.76020406"
       id="path843-8"
       cx="133.72003"
       cy="5.8477354"
       rx="5.5468721"
       ry="5.5468726" />
    <rect
       style="fill:none;fill-opacity:1;stroke:#000000;stroke-width:0.0984887;stroke-miterlimit:10;stroke-dasharray:none;stroke-opacity:0.76020406"
       id="rect860"
       width="5.4015112"
       height="7.9015112"
       x="131.01627"
       y="-6.7967415" />
    <circle
       style="fill:none;fill-opacity:1;stroke:#000000;stroke-width:0.1052205;stroke-miterlimit:10;stroke-dasharray:none;stroke-opacity:0.76020406"
       id="path843-6"
       cx="399.9761"
       cy="-6.7967415"
       r="2.6973901" />
    <ellipse
       style="fill:none;fill-opacity:1;stroke:#000000;stroke-width:0.10625502;stroke-miterlimit:10;stroke-dasharray:none;stroke-opacity:0.76020406"
       id="path843-8-8"
       cx="399.97577"
       cy="5.8477364"
       rx="5.5468721"
       ry="5.5468726" />
    <rect
       style="fill:none;fill-opacity:1;stroke:#000000;stroke-width:0.0984887;stroke-miterlimit:10;stroke-dasharray:none;stroke-opacity:0.76020406"
       id="rect860-2"
       width="5.4015112"
       height="7.9015112"
       x="397.272"
       y="-6.7967415" />
  </g>
</svg>
