G04 #@! TF.GenerationSoftware,KiCad,Pcbnew,(5.1.6)-1*
G04 #@! TF.CreationDate,2024-02-15T07:59:17+01:00*
G04 #@! TF.ProjectId,AetS_Spectrum_1way,41657453-5f53-4706-9563-7472756d5f31,rev?*
G04 #@! TF.SameCoordinates,Original*
G04 #@! TF.FileFunction,Soldermask,Bot*
G04 #@! TF.FilePolarity,Negative*
%FSLAX46Y46*%
G04 Gerber Fmt 4.6, Leading zero omitted, Abs format (unit mm)*
G04 Created by KiCad (PCBNEW (5.1.6)-1) date 2024-02-15 07:59:17*
%MOMM*%
%LPD*%
G01*
G04 APERTURE LIST*
%ADD10C,0.100000*%
G04 APERTURE END LIST*
D10*
G36*
X186883351Y-76065743D02*
G01*
X187028941Y-76126048D01*
X187159970Y-76213599D01*
X187271401Y-76325030D01*
X187358952Y-76456059D01*
X187419257Y-76601649D01*
X187450000Y-76756206D01*
X187450000Y-76913794D01*
X187419257Y-77068351D01*
X187358952Y-77213941D01*
X187271401Y-77344970D01*
X187159970Y-77456401D01*
X187028941Y-77543952D01*
X186883351Y-77604257D01*
X186728794Y-77635000D01*
X186571206Y-77635000D01*
X186416649Y-77604257D01*
X186271059Y-77543952D01*
X186140030Y-77456401D01*
X186028599Y-77344970D01*
X185941048Y-77213941D01*
X185880743Y-77068351D01*
X185850000Y-76913794D01*
X185850000Y-76756206D01*
X185880743Y-76601649D01*
X185941048Y-76456059D01*
X186028599Y-76325030D01*
X186140030Y-76213599D01*
X186271059Y-76126048D01*
X186416649Y-76065743D01*
X186571206Y-76035000D01*
X186728794Y-76035000D01*
X186883351Y-76065743D01*
G37*
G36*
X192003351Y-76065743D02*
G01*
X192148941Y-76126048D01*
X192279970Y-76213599D01*
X192391401Y-76325030D01*
X192478952Y-76456059D01*
X192539257Y-76601649D01*
X192570000Y-76756206D01*
X192570000Y-76913794D01*
X192539257Y-77068351D01*
X192478952Y-77213941D01*
X192391401Y-77344970D01*
X192279970Y-77456401D01*
X192148941Y-77543952D01*
X192003351Y-77604257D01*
X191848794Y-77635000D01*
X191691206Y-77635000D01*
X191536649Y-77604257D01*
X191391059Y-77543952D01*
X191260030Y-77456401D01*
X191148599Y-77344970D01*
X191061048Y-77213941D01*
X191000743Y-77068351D01*
X190970000Y-76913794D01*
X190970000Y-76756206D01*
X191000743Y-76601649D01*
X191061048Y-76456059D01*
X191148599Y-76325030D01*
X191260030Y-76213599D01*
X191391059Y-76126048D01*
X191536649Y-76065743D01*
X191691206Y-76035000D01*
X191848794Y-76035000D01*
X192003351Y-76065743D01*
G37*
G36*
X207243351Y-76065743D02*
G01*
X207388941Y-76126048D01*
X207519970Y-76213599D01*
X207631401Y-76325030D01*
X207718952Y-76456059D01*
X207779257Y-76601649D01*
X207810000Y-76756206D01*
X207810000Y-76913794D01*
X207779257Y-77068351D01*
X207718952Y-77213941D01*
X207631401Y-77344970D01*
X207519970Y-77456401D01*
X207388941Y-77543952D01*
X207243351Y-77604257D01*
X207088794Y-77635000D01*
X206931206Y-77635000D01*
X206776649Y-77604257D01*
X206631059Y-77543952D01*
X206500030Y-77456401D01*
X206388599Y-77344970D01*
X206301048Y-77213941D01*
X206240743Y-77068351D01*
X206210000Y-76913794D01*
X206210000Y-76756206D01*
X206240743Y-76601649D01*
X206301048Y-76456059D01*
X206388599Y-76325030D01*
X206500030Y-76213599D01*
X206631059Y-76126048D01*
X206776649Y-76065743D01*
X206931206Y-76035000D01*
X207088794Y-76035000D01*
X207243351Y-76065743D01*
G37*
G36*
X184383351Y-76065743D02*
G01*
X184528941Y-76126048D01*
X184659970Y-76213599D01*
X184771401Y-76325030D01*
X184858952Y-76456059D01*
X184919257Y-76601649D01*
X184950000Y-76756206D01*
X184950000Y-76913794D01*
X184919257Y-77068351D01*
X184858952Y-77213941D01*
X184771401Y-77344970D01*
X184659970Y-77456401D01*
X184528941Y-77543952D01*
X184383351Y-77604257D01*
X184228794Y-77635000D01*
X184071206Y-77635000D01*
X183916649Y-77604257D01*
X183771059Y-77543952D01*
X183640030Y-77456401D01*
X183528599Y-77344970D01*
X183441048Y-77213941D01*
X183380743Y-77068351D01*
X183350000Y-76913794D01*
X183350000Y-76756206D01*
X183380743Y-76601649D01*
X183441048Y-76456059D01*
X183528599Y-76325030D01*
X183640030Y-76213599D01*
X183771059Y-76126048D01*
X183916649Y-76065743D01*
X184071206Y-76035000D01*
X184228794Y-76035000D01*
X184383351Y-76065743D01*
G37*
G36*
X179383351Y-76065743D02*
G01*
X179528941Y-76126048D01*
X179659970Y-76213599D01*
X179771401Y-76325030D01*
X179858952Y-76456059D01*
X179919257Y-76601649D01*
X179950000Y-76756206D01*
X179950000Y-76913794D01*
X179919257Y-77068351D01*
X179858952Y-77213941D01*
X179771401Y-77344970D01*
X179659970Y-77456401D01*
X179528941Y-77543952D01*
X179383351Y-77604257D01*
X179228794Y-77635000D01*
X179071206Y-77635000D01*
X178916649Y-77604257D01*
X178771059Y-77543952D01*
X178640030Y-77456401D01*
X178528599Y-77344970D01*
X178441048Y-77213941D01*
X178380743Y-77068351D01*
X178350000Y-76913794D01*
X178350000Y-76756206D01*
X178380743Y-76601649D01*
X178441048Y-76456059D01*
X178528599Y-76325030D01*
X178640030Y-76213599D01*
X178771059Y-76126048D01*
X178916649Y-76065743D01*
X179071206Y-76035000D01*
X179228794Y-76035000D01*
X179383351Y-76065743D01*
G37*
G36*
X181814182Y-76161900D02*
G01*
X181941573Y-76214667D01*
X181941574Y-76214668D01*
X182056224Y-76291274D01*
X182153726Y-76388776D01*
X182153727Y-76388778D01*
X182230333Y-76503427D01*
X182283100Y-76630818D01*
X182310000Y-76766055D01*
X182310000Y-76903945D01*
X182283100Y-77039182D01*
X182230333Y-77166573D01*
X182230332Y-77166574D01*
X182153726Y-77281224D01*
X182056224Y-77378726D01*
X181998510Y-77417289D01*
X181941573Y-77455333D01*
X181814182Y-77508100D01*
X181678945Y-77535000D01*
X181541055Y-77535000D01*
X181405818Y-77508100D01*
X181278427Y-77455333D01*
X181221490Y-77417289D01*
X181163776Y-77378726D01*
X181066274Y-77281224D01*
X180989668Y-77166574D01*
X180989667Y-77166573D01*
X180936900Y-77039182D01*
X180910000Y-76903945D01*
X180910000Y-76766055D01*
X180936900Y-76630818D01*
X180989667Y-76503427D01*
X181066273Y-76388778D01*
X181066274Y-76388776D01*
X181163776Y-76291274D01*
X181278426Y-76214668D01*
X181278427Y-76214667D01*
X181405818Y-76161900D01*
X181541055Y-76135000D01*
X181678945Y-76135000D01*
X181814182Y-76161900D01*
G37*
G36*
X214228351Y-73525743D02*
G01*
X214373941Y-73586048D01*
X214504970Y-73673599D01*
X214616401Y-73785030D01*
X214703952Y-73916059D01*
X214764257Y-74061649D01*
X214795000Y-74216206D01*
X214795000Y-74373794D01*
X214764257Y-74528351D01*
X214703952Y-74673941D01*
X214616401Y-74804970D01*
X214504970Y-74916401D01*
X214373941Y-75003952D01*
X214228351Y-75064257D01*
X214073794Y-75095000D01*
X213916206Y-75095000D01*
X213761649Y-75064257D01*
X213616059Y-75003952D01*
X213485030Y-74916401D01*
X213373599Y-74804970D01*
X213286048Y-74673941D01*
X213225743Y-74528351D01*
X213195000Y-74373794D01*
X213195000Y-74216206D01*
X213225743Y-74061649D01*
X213286048Y-73916059D01*
X213373599Y-73785030D01*
X213485030Y-73673599D01*
X213616059Y-73586048D01*
X213761649Y-73525743D01*
X213916206Y-73495000D01*
X214073794Y-73495000D01*
X214228351Y-73525743D01*
G37*
G36*
X229468351Y-73525743D02*
G01*
X229613941Y-73586048D01*
X229744970Y-73673599D01*
X229856401Y-73785030D01*
X229943952Y-73916059D01*
X230004257Y-74061649D01*
X230035000Y-74216206D01*
X230035000Y-74373794D01*
X230004257Y-74528351D01*
X229943952Y-74673941D01*
X229856401Y-74804970D01*
X229744970Y-74916401D01*
X229613941Y-75003952D01*
X229468351Y-75064257D01*
X229313794Y-75095000D01*
X229156206Y-75095000D01*
X229001649Y-75064257D01*
X228856059Y-75003952D01*
X228725030Y-74916401D01*
X228613599Y-74804970D01*
X228526048Y-74673941D01*
X228465743Y-74528351D01*
X228435000Y-74373794D01*
X228435000Y-74216206D01*
X228465743Y-74061649D01*
X228526048Y-73916059D01*
X228613599Y-73785030D01*
X228725030Y-73673599D01*
X228856059Y-73586048D01*
X229001649Y-73525743D01*
X229156206Y-73495000D01*
X229313794Y-73495000D01*
X229468351Y-73525743D01*
G37*
G36*
X170427935Y-72842664D02*
G01*
X170566282Y-72899970D01*
X170582626Y-72906740D01*
X170721844Y-72999762D01*
X170840238Y-73118156D01*
X170888242Y-73190000D01*
X170933261Y-73257376D01*
X170997336Y-73412065D01*
X171030000Y-73576281D01*
X171030000Y-73743719D01*
X170997336Y-73907935D01*
X170933665Y-74061649D01*
X170933260Y-74062626D01*
X170840238Y-74201844D01*
X170721844Y-74320238D01*
X170582626Y-74413260D01*
X170582625Y-74413261D01*
X170582624Y-74413261D01*
X170427935Y-74477336D01*
X170263719Y-74510000D01*
X170096281Y-74510000D01*
X169932065Y-74477336D01*
X169777376Y-74413261D01*
X169777375Y-74413261D01*
X169777374Y-74413260D01*
X169638156Y-74320238D01*
X169519762Y-74201844D01*
X169426740Y-74062626D01*
X169426335Y-74061649D01*
X169362664Y-73907935D01*
X169330000Y-73743719D01*
X169330000Y-73576281D01*
X169362664Y-73412065D01*
X169426739Y-73257376D01*
X169471758Y-73190000D01*
X169519762Y-73118156D01*
X169638156Y-72999762D01*
X169777374Y-72906740D01*
X169793718Y-72899970D01*
X169932065Y-72842664D01*
X170096281Y-72810000D01*
X170263719Y-72810000D01*
X170427935Y-72842664D01*
G37*
G36*
X165950000Y-74510000D02*
G01*
X164250000Y-74510000D01*
X164250000Y-72810000D01*
X165950000Y-72810000D01*
X165950000Y-74510000D01*
G37*
G36*
X167887935Y-72842664D02*
G01*
X168026282Y-72899970D01*
X168042626Y-72906740D01*
X168181844Y-72999762D01*
X168300238Y-73118156D01*
X168348242Y-73190000D01*
X168393261Y-73257376D01*
X168457336Y-73412065D01*
X168490000Y-73576281D01*
X168490000Y-73743719D01*
X168457336Y-73907935D01*
X168393665Y-74061649D01*
X168393260Y-74062626D01*
X168300238Y-74201844D01*
X168181844Y-74320238D01*
X168042626Y-74413260D01*
X168042625Y-74413261D01*
X168042624Y-74413261D01*
X167887935Y-74477336D01*
X167723719Y-74510000D01*
X167556281Y-74510000D01*
X167392065Y-74477336D01*
X167237376Y-74413261D01*
X167237375Y-74413261D01*
X167237374Y-74413260D01*
X167098156Y-74320238D01*
X166979762Y-74201844D01*
X166886740Y-74062626D01*
X166886335Y-74061649D01*
X166822664Y-73907935D01*
X166790000Y-73743719D01*
X166790000Y-73576281D01*
X166822664Y-73412065D01*
X166886739Y-73257376D01*
X166931758Y-73190000D01*
X166979762Y-73118156D01*
X167098156Y-72999762D01*
X167237374Y-72906740D01*
X167253718Y-72899970D01*
X167392065Y-72842664D01*
X167556281Y-72810000D01*
X167723719Y-72810000D01*
X167887935Y-72842664D01*
G37*
G36*
X206608351Y-71620743D02*
G01*
X206753941Y-71681048D01*
X206884970Y-71768599D01*
X206996401Y-71880030D01*
X207083952Y-72011059D01*
X207144257Y-72156649D01*
X207175000Y-72311206D01*
X207175000Y-72468794D01*
X207144257Y-72623351D01*
X207083952Y-72768941D01*
X206996401Y-72899970D01*
X206884970Y-73011401D01*
X206753941Y-73098952D01*
X206608351Y-73159257D01*
X206453794Y-73190000D01*
X206296206Y-73190000D01*
X206141649Y-73159257D01*
X205996059Y-73098952D01*
X205865030Y-73011401D01*
X205753599Y-72899970D01*
X205666048Y-72768941D01*
X205605743Y-72623351D01*
X205575000Y-72468794D01*
X205575000Y-72311206D01*
X205605743Y-72156649D01*
X205666048Y-72011059D01*
X205753599Y-71880030D01*
X205865030Y-71768599D01*
X205996059Y-71681048D01*
X206141649Y-71620743D01*
X206296206Y-71590000D01*
X206453794Y-71590000D01*
X206608351Y-71620743D01*
G37*
G36*
X204068351Y-71620743D02*
G01*
X204213941Y-71681048D01*
X204344970Y-71768599D01*
X204456401Y-71880030D01*
X204543952Y-72011059D01*
X204604257Y-72156649D01*
X204635000Y-72311206D01*
X204635000Y-72468794D01*
X204604257Y-72623351D01*
X204543952Y-72768941D01*
X204456401Y-72899970D01*
X204344970Y-73011401D01*
X204213941Y-73098952D01*
X204068351Y-73159257D01*
X203913794Y-73190000D01*
X203756206Y-73190000D01*
X203601649Y-73159257D01*
X203456059Y-73098952D01*
X203325030Y-73011401D01*
X203213599Y-72899970D01*
X203126048Y-72768941D01*
X203065743Y-72623351D01*
X203035000Y-72468794D01*
X203035000Y-72311206D01*
X203065743Y-72156649D01*
X203126048Y-72011059D01*
X203213599Y-71880030D01*
X203325030Y-71768599D01*
X203456059Y-71681048D01*
X203601649Y-71620743D01*
X203756206Y-71590000D01*
X203913794Y-71590000D01*
X204068351Y-71620743D01*
G37*
G36*
X199108351Y-71620743D02*
G01*
X199253941Y-71681048D01*
X199384970Y-71768599D01*
X199496401Y-71880030D01*
X199583952Y-72011059D01*
X199644257Y-72156649D01*
X199675000Y-72311206D01*
X199675000Y-72468794D01*
X199644257Y-72623351D01*
X199583952Y-72768941D01*
X199496401Y-72899970D01*
X199384970Y-73011401D01*
X199253941Y-73098952D01*
X199108351Y-73159257D01*
X198953794Y-73190000D01*
X198756206Y-73190000D01*
X198601649Y-73159257D01*
X198456059Y-73098952D01*
X198325030Y-73011401D01*
X198213599Y-72899970D01*
X198126048Y-72768941D01*
X198065743Y-72623351D01*
X198035000Y-72468794D01*
X198035000Y-72311206D01*
X198065743Y-72156649D01*
X198126048Y-72011059D01*
X198213599Y-71880030D01*
X198325030Y-71768599D01*
X198456059Y-71681048D01*
X198601649Y-71620743D01*
X198756206Y-71590000D01*
X198953794Y-71590000D01*
X199108351Y-71620743D01*
G37*
G36*
X179303351Y-71620743D02*
G01*
X179448941Y-71681048D01*
X179579970Y-71768599D01*
X179691401Y-71880030D01*
X179778952Y-72011059D01*
X179839257Y-72156649D01*
X179870000Y-72311206D01*
X179870000Y-72468794D01*
X179839257Y-72623351D01*
X179778952Y-72768941D01*
X179691401Y-72899970D01*
X179579970Y-73011401D01*
X179448941Y-73098952D01*
X179303351Y-73159257D01*
X179148794Y-73190000D01*
X178991206Y-73190000D01*
X178836649Y-73159257D01*
X178691059Y-73098952D01*
X178560030Y-73011401D01*
X178448599Y-72899970D01*
X178361048Y-72768941D01*
X178300743Y-72623351D01*
X178270000Y-72468794D01*
X178270000Y-72311206D01*
X178300743Y-72156649D01*
X178361048Y-72011059D01*
X178448599Y-71880030D01*
X178560030Y-71768599D01*
X178691059Y-71681048D01*
X178836649Y-71620743D01*
X178991206Y-71590000D01*
X179148794Y-71590000D01*
X179303351Y-71620743D01*
G37*
G36*
X194543351Y-71620743D02*
G01*
X194688941Y-71681048D01*
X194819970Y-71768599D01*
X194931401Y-71880030D01*
X195018952Y-72011059D01*
X195079257Y-72156649D01*
X195110000Y-72311206D01*
X195110000Y-72468794D01*
X195079257Y-72623351D01*
X195018952Y-72768941D01*
X194931401Y-72899970D01*
X194819970Y-73011401D01*
X194688941Y-73098952D01*
X194543351Y-73159257D01*
X194388794Y-73190000D01*
X194231206Y-73190000D01*
X194076649Y-73159257D01*
X193931059Y-73098952D01*
X193800030Y-73011401D01*
X193688599Y-72899970D01*
X193601048Y-72768941D01*
X193540743Y-72623351D01*
X193510000Y-72468794D01*
X193510000Y-72311206D01*
X193540743Y-72156649D01*
X193601048Y-72011059D01*
X193688599Y-71880030D01*
X193800030Y-71768599D01*
X193931059Y-71681048D01*
X194076649Y-71620743D01*
X194231206Y-71590000D01*
X194388794Y-71590000D01*
X194543351Y-71620743D01*
G37*
G36*
X201459182Y-71716900D02*
G01*
X201586573Y-71769667D01*
X201586574Y-71769668D01*
X201701224Y-71846274D01*
X201798726Y-71943776D01*
X201798727Y-71943778D01*
X201875333Y-72058427D01*
X201928100Y-72185818D01*
X201955000Y-72321055D01*
X201955000Y-72458945D01*
X201928100Y-72594182D01*
X201875333Y-72721573D01*
X201875332Y-72721574D01*
X201798726Y-72836224D01*
X201701224Y-72933726D01*
X201643510Y-72972289D01*
X201586573Y-73010333D01*
X201459182Y-73063100D01*
X201323945Y-73090000D01*
X201186055Y-73090000D01*
X201050818Y-73063100D01*
X200923427Y-73010333D01*
X200866490Y-72972289D01*
X200808776Y-72933726D01*
X200711274Y-72836224D01*
X200634668Y-72721574D01*
X200634667Y-72721573D01*
X200581900Y-72594182D01*
X200555000Y-72458945D01*
X200555000Y-72321055D01*
X200581900Y-72185818D01*
X200634667Y-72058427D01*
X200711273Y-71943778D01*
X200711274Y-71943776D01*
X200808776Y-71846274D01*
X200923426Y-71769668D01*
X200923427Y-71769667D01*
X201050818Y-71716900D01*
X201186055Y-71690000D01*
X201323945Y-71690000D01*
X201459182Y-71716900D01*
G37*
G36*
X207878351Y-66540743D02*
G01*
X208023941Y-66601048D01*
X208154970Y-66688599D01*
X208266401Y-66800030D01*
X208353952Y-66931059D01*
X208414257Y-67076649D01*
X208445000Y-67231206D01*
X208445000Y-67388794D01*
X208414257Y-67543351D01*
X208353952Y-67688941D01*
X208266401Y-67819970D01*
X208154970Y-67931401D01*
X208023941Y-68018952D01*
X207878351Y-68079257D01*
X207723794Y-68110000D01*
X207566206Y-68110000D01*
X207411649Y-68079257D01*
X207266059Y-68018952D01*
X207135030Y-67931401D01*
X207023599Y-67819970D01*
X206936048Y-67688941D01*
X206875743Y-67543351D01*
X206845000Y-67388794D01*
X206845000Y-67231206D01*
X206875743Y-67076649D01*
X206936048Y-66931059D01*
X207023599Y-66800030D01*
X207135030Y-66688599D01*
X207266059Y-66601048D01*
X207411649Y-66540743D01*
X207566206Y-66510000D01*
X207723794Y-66510000D01*
X207878351Y-66540743D01*
G37*
G36*
X192638351Y-66540743D02*
G01*
X192783941Y-66601048D01*
X192914970Y-66688599D01*
X193026401Y-66800030D01*
X193113952Y-66931059D01*
X193174257Y-67076649D01*
X193205000Y-67231206D01*
X193205000Y-67388794D01*
X193174257Y-67543351D01*
X193113952Y-67688941D01*
X193026401Y-67819970D01*
X192914970Y-67931401D01*
X192783941Y-68018952D01*
X192638351Y-68079257D01*
X192483794Y-68110000D01*
X192326206Y-68110000D01*
X192171649Y-68079257D01*
X192026059Y-68018952D01*
X191895030Y-67931401D01*
X191783599Y-67819970D01*
X191696048Y-67688941D01*
X191635743Y-67543351D01*
X191605000Y-67388794D01*
X191605000Y-67231206D01*
X191635743Y-67076649D01*
X191696048Y-66931059D01*
X191783599Y-66800030D01*
X191895030Y-66688599D01*
X192026059Y-66601048D01*
X192171649Y-66540743D01*
X192326206Y-66510000D01*
X192483794Y-66510000D01*
X192638351Y-66540743D01*
G37*
G36*
X214228351Y-65905743D02*
G01*
X214373941Y-65966048D01*
X214504970Y-66053599D01*
X214616401Y-66165030D01*
X214703952Y-66296059D01*
X214764257Y-66441649D01*
X214795000Y-66596206D01*
X214795000Y-66753794D01*
X214764257Y-66908351D01*
X214703952Y-67053941D01*
X214616401Y-67184970D01*
X214504970Y-67296401D01*
X214373941Y-67383952D01*
X214228351Y-67444257D01*
X214073794Y-67475000D01*
X213916206Y-67475000D01*
X213761649Y-67444257D01*
X213616059Y-67383952D01*
X213485030Y-67296401D01*
X213373599Y-67184970D01*
X213286048Y-67053941D01*
X213225743Y-66908351D01*
X213195000Y-66753794D01*
X213195000Y-66596206D01*
X213225743Y-66441649D01*
X213286048Y-66296059D01*
X213373599Y-66165030D01*
X213485030Y-66053599D01*
X213616059Y-65966048D01*
X213761649Y-65905743D01*
X213916206Y-65875000D01*
X214073794Y-65875000D01*
X214228351Y-65905743D01*
G37*
G36*
X229468351Y-65905743D02*
G01*
X229613941Y-65966048D01*
X229744970Y-66053599D01*
X229856401Y-66165030D01*
X229943952Y-66296059D01*
X230004257Y-66441649D01*
X230035000Y-66596206D01*
X230035000Y-66753794D01*
X230004257Y-66908351D01*
X229943952Y-67053941D01*
X229856401Y-67184970D01*
X229744970Y-67296401D01*
X229613941Y-67383952D01*
X229468351Y-67444257D01*
X229313794Y-67475000D01*
X229156206Y-67475000D01*
X229001649Y-67444257D01*
X228856059Y-67383952D01*
X228725030Y-67296401D01*
X228613599Y-67184970D01*
X228526048Y-67053941D01*
X228465743Y-66908351D01*
X228435000Y-66753794D01*
X228435000Y-66596206D01*
X228465743Y-66441649D01*
X228526048Y-66296059D01*
X228613599Y-66165030D01*
X228725030Y-66053599D01*
X228856059Y-65966048D01*
X229001649Y-65905743D01*
X229156206Y-65875000D01*
X229313794Y-65875000D01*
X229468351Y-65905743D01*
G37*
G36*
X187558351Y-64635743D02*
G01*
X187703941Y-64696048D01*
X187834970Y-64783599D01*
X187946401Y-64895030D01*
X188033952Y-65026059D01*
X188094257Y-65171649D01*
X188125000Y-65326206D01*
X188125000Y-65483794D01*
X188094257Y-65638351D01*
X188033952Y-65783941D01*
X187946401Y-65914970D01*
X187834970Y-66026401D01*
X187703941Y-66113952D01*
X187558351Y-66174257D01*
X187403794Y-66205000D01*
X187246206Y-66205000D01*
X187091649Y-66174257D01*
X186946059Y-66113952D01*
X186815030Y-66026401D01*
X186703599Y-65914970D01*
X186616048Y-65783941D01*
X186555743Y-65638351D01*
X186525000Y-65483794D01*
X186525000Y-65326206D01*
X186555743Y-65171649D01*
X186616048Y-65026059D01*
X186703599Y-64895030D01*
X186815030Y-64783599D01*
X186946059Y-64696048D01*
X187091649Y-64635743D01*
X187246206Y-64605000D01*
X187403794Y-64605000D01*
X187558351Y-64635743D01*
G37*
G36*
X176568000Y-65316000D02*
G01*
X174968000Y-65316000D01*
X174968000Y-63716000D01*
X176568000Y-63716000D01*
X176568000Y-65316000D01*
G37*
G36*
X162172935Y-63317664D02*
G01*
X162327624Y-63381739D01*
X162327626Y-63381740D01*
X162466844Y-63474762D01*
X162585238Y-63593156D01*
X162667319Y-63716000D01*
X162678261Y-63732376D01*
X162742336Y-63887065D01*
X162775000Y-64051281D01*
X162775000Y-64218719D01*
X162742336Y-64382935D01*
X162678261Y-64537624D01*
X162678260Y-64537626D01*
X162585238Y-64676844D01*
X162466844Y-64795238D01*
X162327626Y-64888260D01*
X162327625Y-64888261D01*
X162327624Y-64888261D01*
X162172935Y-64952336D01*
X162008719Y-64985000D01*
X161841281Y-64985000D01*
X161677065Y-64952336D01*
X161522376Y-64888261D01*
X161522375Y-64888261D01*
X161522374Y-64888260D01*
X161383156Y-64795238D01*
X161264762Y-64676844D01*
X161171740Y-64537626D01*
X161171739Y-64537624D01*
X161107664Y-64382935D01*
X161075000Y-64218719D01*
X161075000Y-64051281D01*
X161107664Y-63887065D01*
X161171739Y-63732376D01*
X161182681Y-63716000D01*
X161264762Y-63593156D01*
X161383156Y-63474762D01*
X161522374Y-63381740D01*
X161522376Y-63381739D01*
X161677065Y-63317664D01*
X161841281Y-63285000D01*
X162008719Y-63285000D01*
X162172935Y-63317664D01*
G37*
G36*
X162172935Y-60777664D02*
G01*
X162327624Y-60841739D01*
X162327626Y-60841740D01*
X162466844Y-60934762D01*
X162585238Y-61053156D01*
X162663320Y-61170015D01*
X162678261Y-61192376D01*
X162742336Y-61347065D01*
X162775000Y-61511281D01*
X162775000Y-61678719D01*
X162742336Y-61842935D01*
X162678261Y-61997624D01*
X162678260Y-61997626D01*
X162585238Y-62136844D01*
X162466844Y-62255238D01*
X162327626Y-62348260D01*
X162327625Y-62348261D01*
X162327624Y-62348261D01*
X162172935Y-62412336D01*
X162008719Y-62445000D01*
X161841281Y-62445000D01*
X161677065Y-62412336D01*
X161522376Y-62348261D01*
X161522375Y-62348261D01*
X161522374Y-62348260D01*
X161383156Y-62255238D01*
X161264762Y-62136844D01*
X161171740Y-61997626D01*
X161171739Y-61997624D01*
X161107664Y-61842935D01*
X161075000Y-61678719D01*
X161075000Y-61511281D01*
X161107664Y-61347065D01*
X161171739Y-61192376D01*
X161186680Y-61170015D01*
X161264762Y-61053156D01*
X161383156Y-60934762D01*
X161522374Y-60841740D01*
X161522376Y-60841739D01*
X161677065Y-60777664D01*
X161841281Y-60745000D01*
X162008719Y-60745000D01*
X162172935Y-60777664D01*
G37*
G36*
X199546826Y-59771576D02*
G01*
X199697627Y-59817321D01*
X199697629Y-59817322D01*
X199836604Y-59891606D01*
X199836606Y-59891607D01*
X199836605Y-59891607D01*
X199958422Y-59991578D01*
X200040466Y-60091550D01*
X200058394Y-60113395D01*
X200118022Y-60224951D01*
X200132679Y-60252372D01*
X200178424Y-60403173D01*
X200190000Y-60520707D01*
X200190000Y-61399293D01*
X200178424Y-61516827D01*
X200153783Y-61598056D01*
X200132678Y-61667630D01*
X200058394Y-61806605D01*
X199958422Y-61928422D01*
X199836605Y-62028394D01*
X199697630Y-62102678D01*
X199697628Y-62102679D01*
X199546827Y-62148424D01*
X199390000Y-62163870D01*
X199233174Y-62148424D01*
X199082373Y-62102679D01*
X199082371Y-62102678D01*
X198943396Y-62028394D01*
X198821579Y-61928422D01*
X198721607Y-61806605D01*
X198647323Y-61667630D01*
X198626218Y-61598056D01*
X198601577Y-61516827D01*
X198590000Y-61399293D01*
X198590000Y-60520708D01*
X198601576Y-60403174D01*
X198647321Y-60252373D01*
X198647323Y-60252370D01*
X198721606Y-60113396D01*
X198793354Y-60025970D01*
X198821578Y-59991578D01*
X198943394Y-59891607D01*
X198943393Y-59891607D01*
X198943395Y-59891606D01*
X199082370Y-59817322D01*
X199082372Y-59817321D01*
X199233173Y-59771576D01*
X199390000Y-59756130D01*
X199546826Y-59771576D01*
G37*
G36*
X197006826Y-59771576D02*
G01*
X197157627Y-59817321D01*
X197157629Y-59817322D01*
X197296604Y-59891606D01*
X197296606Y-59891607D01*
X197296605Y-59891607D01*
X197418422Y-59991578D01*
X197500466Y-60091550D01*
X197518394Y-60113395D01*
X197578022Y-60224951D01*
X197592679Y-60252372D01*
X197638424Y-60403173D01*
X197650000Y-60520707D01*
X197650000Y-61399293D01*
X197638424Y-61516827D01*
X197613783Y-61598056D01*
X197592678Y-61667630D01*
X197518394Y-61806605D01*
X197418422Y-61928422D01*
X197296605Y-62028394D01*
X197157630Y-62102678D01*
X197157628Y-62102679D01*
X197006827Y-62148424D01*
X196850000Y-62163870D01*
X196693174Y-62148424D01*
X196542373Y-62102679D01*
X196542371Y-62102678D01*
X196403396Y-62028394D01*
X196281579Y-61928422D01*
X196181607Y-61806605D01*
X196107323Y-61667630D01*
X196086218Y-61598056D01*
X196061577Y-61516827D01*
X196050000Y-61399293D01*
X196050000Y-60520708D01*
X196061576Y-60403174D01*
X196107321Y-60252373D01*
X196107323Y-60252370D01*
X196181606Y-60113396D01*
X196253354Y-60025970D01*
X196281578Y-59991578D01*
X196403394Y-59891607D01*
X196403393Y-59891607D01*
X196403395Y-59891606D01*
X196542370Y-59817322D01*
X196542372Y-59817321D01*
X196693173Y-59771576D01*
X196850000Y-59756130D01*
X197006826Y-59771576D01*
G37*
G36*
X202086826Y-59771576D02*
G01*
X202237627Y-59817321D01*
X202237629Y-59817322D01*
X202376604Y-59891606D01*
X202376606Y-59891607D01*
X202376605Y-59891607D01*
X202498422Y-59991578D01*
X202580466Y-60091550D01*
X202598394Y-60113395D01*
X202658022Y-60224951D01*
X202672679Y-60252372D01*
X202718424Y-60403173D01*
X202730000Y-60520707D01*
X202730000Y-61399293D01*
X202718424Y-61516827D01*
X202693783Y-61598056D01*
X202672678Y-61667630D01*
X202598394Y-61806605D01*
X202498422Y-61928422D01*
X202376605Y-62028394D01*
X202237630Y-62102678D01*
X202237628Y-62102679D01*
X202086827Y-62148424D01*
X201930000Y-62163870D01*
X201773174Y-62148424D01*
X201622373Y-62102679D01*
X201622371Y-62102678D01*
X201483396Y-62028394D01*
X201361579Y-61928422D01*
X201261607Y-61806605D01*
X201187323Y-61667630D01*
X201166218Y-61598056D01*
X201141577Y-61516827D01*
X201130000Y-61399293D01*
X201130000Y-60520708D01*
X201141576Y-60403174D01*
X201187321Y-60252373D01*
X201187323Y-60252370D01*
X201261606Y-60113396D01*
X201333354Y-60025970D01*
X201361578Y-59991578D01*
X201483394Y-59891607D01*
X201483393Y-59891607D01*
X201483395Y-59891606D01*
X201622370Y-59817322D01*
X201622372Y-59817321D01*
X201773173Y-59771576D01*
X201930000Y-59756130D01*
X202086826Y-59771576D01*
G37*
G36*
X204626826Y-59771576D02*
G01*
X204777627Y-59817321D01*
X204777629Y-59817322D01*
X204916604Y-59891606D01*
X204916606Y-59891607D01*
X204916605Y-59891607D01*
X205038422Y-59991578D01*
X205120466Y-60091550D01*
X205138394Y-60113395D01*
X205198022Y-60224951D01*
X205212679Y-60252372D01*
X205258424Y-60403173D01*
X205270000Y-60520707D01*
X205270000Y-61399293D01*
X205258424Y-61516827D01*
X205233783Y-61598056D01*
X205212678Y-61667630D01*
X205138394Y-61806605D01*
X205038422Y-61928422D01*
X204916605Y-62028394D01*
X204777630Y-62102678D01*
X204777628Y-62102679D01*
X204626827Y-62148424D01*
X204470000Y-62163870D01*
X204313174Y-62148424D01*
X204162373Y-62102679D01*
X204162371Y-62102678D01*
X204023396Y-62028394D01*
X203901579Y-61928422D01*
X203801607Y-61806605D01*
X203727323Y-61667630D01*
X203706218Y-61598056D01*
X203681577Y-61516827D01*
X203670000Y-61399293D01*
X203670000Y-60520708D01*
X203681576Y-60403174D01*
X203727321Y-60252373D01*
X203727323Y-60252370D01*
X203801606Y-60113396D01*
X203873354Y-60025970D01*
X203901578Y-59991578D01*
X204023394Y-59891607D01*
X204023393Y-59891607D01*
X204023395Y-59891606D01*
X204162370Y-59817322D01*
X204162372Y-59817321D01*
X204313173Y-59771576D01*
X204470000Y-59756130D01*
X204626826Y-59771576D01*
G37*
G36*
X207166826Y-59771576D02*
G01*
X207317627Y-59817321D01*
X207317629Y-59817322D01*
X207456604Y-59891606D01*
X207456606Y-59891607D01*
X207456605Y-59891607D01*
X207578422Y-59991578D01*
X207660466Y-60091550D01*
X207678394Y-60113395D01*
X207738022Y-60224951D01*
X207752679Y-60252372D01*
X207798424Y-60403173D01*
X207810000Y-60520707D01*
X207810000Y-61399293D01*
X207798424Y-61516827D01*
X207773783Y-61598056D01*
X207752678Y-61667630D01*
X207678394Y-61806605D01*
X207578422Y-61928422D01*
X207456605Y-62028394D01*
X207317630Y-62102678D01*
X207317628Y-62102679D01*
X207166827Y-62148424D01*
X207010000Y-62163870D01*
X206853174Y-62148424D01*
X206702373Y-62102679D01*
X206702371Y-62102678D01*
X206563396Y-62028394D01*
X206441579Y-61928422D01*
X206341607Y-61806605D01*
X206267323Y-61667630D01*
X206246218Y-61598056D01*
X206221577Y-61516827D01*
X206210000Y-61399293D01*
X206210000Y-60520708D01*
X206221576Y-60403174D01*
X206267321Y-60252373D01*
X206267323Y-60252370D01*
X206341606Y-60113396D01*
X206413354Y-60025970D01*
X206441578Y-59991578D01*
X206563394Y-59891607D01*
X206563393Y-59891607D01*
X206563395Y-59891606D01*
X206702370Y-59817322D01*
X206702372Y-59817321D01*
X206853173Y-59771576D01*
X207010000Y-59756130D01*
X207166826Y-59771576D01*
G37*
G36*
X194466826Y-59771576D02*
G01*
X194617627Y-59817321D01*
X194617629Y-59817322D01*
X194756604Y-59891606D01*
X194756606Y-59891607D01*
X194756605Y-59891607D01*
X194878422Y-59991578D01*
X194960466Y-60091550D01*
X194978394Y-60113395D01*
X195038022Y-60224951D01*
X195052679Y-60252372D01*
X195098424Y-60403173D01*
X195110000Y-60520707D01*
X195110000Y-61399293D01*
X195098424Y-61516827D01*
X195073783Y-61598056D01*
X195052678Y-61667630D01*
X194978394Y-61806605D01*
X194878422Y-61928422D01*
X194756605Y-62028394D01*
X194617630Y-62102678D01*
X194617628Y-62102679D01*
X194466827Y-62148424D01*
X194310000Y-62163870D01*
X194153174Y-62148424D01*
X194002373Y-62102679D01*
X194002371Y-62102678D01*
X193863396Y-62028394D01*
X193741579Y-61928422D01*
X193641607Y-61806605D01*
X193567323Y-61667630D01*
X193546218Y-61598056D01*
X193521577Y-61516827D01*
X193510000Y-61399293D01*
X193510000Y-60520708D01*
X193521576Y-60403174D01*
X193567321Y-60252373D01*
X193567323Y-60252370D01*
X193641606Y-60113396D01*
X193713354Y-60025970D01*
X193741578Y-59991578D01*
X193863394Y-59891607D01*
X193863393Y-59891607D01*
X193863395Y-59891606D01*
X194002370Y-59817322D01*
X194002372Y-59817321D01*
X194153173Y-59771576D01*
X194310000Y-59756130D01*
X194466826Y-59771576D01*
G37*
G36*
X192570000Y-62160000D02*
G01*
X190970000Y-62160000D01*
X190970000Y-59760000D01*
X192570000Y-59760000D01*
X192570000Y-62160000D01*
G37*
G36*
X217380015Y-60267668D02*
G01*
X217496698Y-60316000D01*
X217511048Y-60321944D01*
X217628973Y-60400739D01*
X217729261Y-60501027D01*
X217808057Y-60618954D01*
X217862332Y-60749985D01*
X217890000Y-60889084D01*
X217890000Y-61030916D01*
X217862332Y-61170015D01*
X217808057Y-61301046D01*
X217808056Y-61301048D01*
X217729261Y-61418973D01*
X217628973Y-61519261D01*
X217511048Y-61598056D01*
X217511047Y-61598057D01*
X217511046Y-61598057D01*
X217380015Y-61652332D01*
X217240916Y-61680000D01*
X217099084Y-61680000D01*
X216959985Y-61652332D01*
X216828954Y-61598057D01*
X216828953Y-61598057D01*
X216828952Y-61598056D01*
X216711027Y-61519261D01*
X216610739Y-61418973D01*
X216531944Y-61301048D01*
X216531943Y-61301046D01*
X216477668Y-61170015D01*
X216450000Y-61030916D01*
X216450000Y-60889084D01*
X216477668Y-60749985D01*
X216531943Y-60618954D01*
X216610739Y-60501027D01*
X216711027Y-60400739D01*
X216828952Y-60321944D01*
X216843302Y-60316000D01*
X216959985Y-60267668D01*
X217099084Y-60240000D01*
X217240916Y-60240000D01*
X217380015Y-60267668D01*
G37*
G36*
X219920015Y-60267668D02*
G01*
X220036698Y-60316000D01*
X220051048Y-60321944D01*
X220168973Y-60400739D01*
X220269261Y-60501027D01*
X220348057Y-60618954D01*
X220402332Y-60749985D01*
X220430000Y-60889084D01*
X220430000Y-61030916D01*
X220402332Y-61170015D01*
X220348057Y-61301046D01*
X220348056Y-61301048D01*
X220269261Y-61418973D01*
X220168973Y-61519261D01*
X220051048Y-61598056D01*
X220051047Y-61598057D01*
X220051046Y-61598057D01*
X219920015Y-61652332D01*
X219780916Y-61680000D01*
X219639084Y-61680000D01*
X219499985Y-61652332D01*
X219368954Y-61598057D01*
X219368953Y-61598057D01*
X219368952Y-61598056D01*
X219251027Y-61519261D01*
X219150739Y-61418973D01*
X219071944Y-61301048D01*
X219071943Y-61301046D01*
X219017668Y-61170015D01*
X218990000Y-61030916D01*
X218990000Y-60889084D01*
X219017668Y-60749985D01*
X219071943Y-60618954D01*
X219150739Y-60501027D01*
X219251027Y-60400739D01*
X219368952Y-60321944D01*
X219383302Y-60316000D01*
X219499985Y-60267668D01*
X219639084Y-60240000D01*
X219780916Y-60240000D01*
X219920015Y-60267668D01*
G37*
G36*
X214840015Y-60267668D02*
G01*
X214956698Y-60316000D01*
X214971048Y-60321944D01*
X215088973Y-60400739D01*
X215189261Y-60501027D01*
X215268057Y-60618954D01*
X215322332Y-60749985D01*
X215350000Y-60889084D01*
X215350000Y-61030916D01*
X215322332Y-61170015D01*
X215268057Y-61301046D01*
X215268056Y-61301048D01*
X215189261Y-61418973D01*
X215088973Y-61519261D01*
X214971048Y-61598056D01*
X214971047Y-61598057D01*
X214971046Y-61598057D01*
X214840015Y-61652332D01*
X214700916Y-61680000D01*
X214559084Y-61680000D01*
X214419985Y-61652332D01*
X214288954Y-61598057D01*
X214288953Y-61598057D01*
X214288952Y-61598056D01*
X214171027Y-61519261D01*
X214070739Y-61418973D01*
X213991944Y-61301048D01*
X213991943Y-61301046D01*
X213937668Y-61170015D01*
X213910000Y-61030916D01*
X213910000Y-60889084D01*
X213937668Y-60749985D01*
X213991943Y-60618954D01*
X214070739Y-60501027D01*
X214171027Y-60400739D01*
X214288952Y-60321944D01*
X214303302Y-60316000D01*
X214419985Y-60267668D01*
X214559084Y-60240000D01*
X214700916Y-60240000D01*
X214840015Y-60267668D01*
G37*
G36*
X176001351Y-58746743D02*
G01*
X176146941Y-58807048D01*
X176277970Y-58894599D01*
X176389401Y-59006030D01*
X176476952Y-59137059D01*
X176537257Y-59282649D01*
X176568000Y-59437206D01*
X176568000Y-59594794D01*
X176537257Y-59749351D01*
X176476952Y-59894941D01*
X176389401Y-60025970D01*
X176277970Y-60137401D01*
X176146941Y-60224952D01*
X176001351Y-60285257D01*
X175846794Y-60316000D01*
X175689206Y-60316000D01*
X175534649Y-60285257D01*
X175389059Y-60224952D01*
X175258030Y-60137401D01*
X175146599Y-60025970D01*
X175059048Y-59894941D01*
X174998743Y-59749351D01*
X174968000Y-59594794D01*
X174968000Y-59437206D01*
X174998743Y-59282649D01*
X175059048Y-59137059D01*
X175146599Y-59006030D01*
X175258030Y-58894599D01*
X175389059Y-58807048D01*
X175534649Y-58746743D01*
X175689206Y-58716000D01*
X175846794Y-58716000D01*
X176001351Y-58746743D01*
G37*
G36*
X162172935Y-58237664D02*
G01*
X162327624Y-58301739D01*
X162327626Y-58301740D01*
X162466844Y-58394762D01*
X162585238Y-58513156D01*
X162678260Y-58652374D01*
X162678261Y-58652376D01*
X162742336Y-58807065D01*
X162775000Y-58971281D01*
X162775000Y-59138719D01*
X162742336Y-59302935D01*
X162686718Y-59437207D01*
X162678260Y-59457626D01*
X162585238Y-59596844D01*
X162466844Y-59715238D01*
X162327626Y-59808260D01*
X162327625Y-59808261D01*
X162327624Y-59808261D01*
X162172935Y-59872336D01*
X162008719Y-59905000D01*
X161841281Y-59905000D01*
X161677065Y-59872336D01*
X161522376Y-59808261D01*
X161522375Y-59808261D01*
X161522374Y-59808260D01*
X161383156Y-59715238D01*
X161264762Y-59596844D01*
X161171740Y-59457626D01*
X161163282Y-59437207D01*
X161107664Y-59302935D01*
X161075000Y-59138719D01*
X161075000Y-58971281D01*
X161107664Y-58807065D01*
X161171739Y-58652376D01*
X161171740Y-58652374D01*
X161264762Y-58513156D01*
X161383156Y-58394762D01*
X161522374Y-58301740D01*
X161522376Y-58301739D01*
X161677065Y-58237664D01*
X161841281Y-58205000D01*
X162008719Y-58205000D01*
X162172935Y-58237664D01*
G37*
G36*
X162172935Y-55697664D02*
G01*
X162327624Y-55761739D01*
X162327626Y-55761740D01*
X162466844Y-55854762D01*
X162585238Y-55973156D01*
X162678260Y-56112374D01*
X162678261Y-56112376D01*
X162742336Y-56267065D01*
X162775000Y-56431281D01*
X162775000Y-56598719D01*
X162742336Y-56762935D01*
X162678261Y-56917624D01*
X162678260Y-56917626D01*
X162585238Y-57056844D01*
X162466844Y-57175238D01*
X162327626Y-57268260D01*
X162327625Y-57268261D01*
X162327624Y-57268261D01*
X162172935Y-57332336D01*
X162008719Y-57365000D01*
X161841281Y-57365000D01*
X161677065Y-57332336D01*
X161522376Y-57268261D01*
X161522375Y-57268261D01*
X161522374Y-57268260D01*
X161383156Y-57175238D01*
X161264762Y-57056844D01*
X161171740Y-56917626D01*
X161171739Y-56917624D01*
X161107664Y-56762935D01*
X161075000Y-56598719D01*
X161075000Y-56431281D01*
X161107664Y-56267065D01*
X161171739Y-56112376D01*
X161171740Y-56112374D01*
X161264762Y-55973156D01*
X161383156Y-55854762D01*
X161522374Y-55761740D01*
X161522376Y-55761739D01*
X161677065Y-55697664D01*
X161841281Y-55665000D01*
X162008719Y-55665000D01*
X162172935Y-55697664D01*
G37*
G36*
X176568000Y-56172000D02*
G01*
X174968000Y-56172000D01*
X174968000Y-54572000D01*
X176568000Y-54572000D01*
X176568000Y-56172000D01*
G37*
G36*
X221190015Y-54552668D02*
G01*
X221321046Y-54606943D01*
X221321048Y-54606944D01*
X221363393Y-54635238D01*
X221438973Y-54685739D01*
X221539261Y-54786027D01*
X221618057Y-54903954D01*
X221672332Y-55034985D01*
X221700000Y-55174084D01*
X221700000Y-55315916D01*
X221672332Y-55455015D01*
X221618057Y-55586046D01*
X221618056Y-55586048D01*
X221539261Y-55703973D01*
X221438973Y-55804261D01*
X221321048Y-55883056D01*
X221321047Y-55883057D01*
X221321046Y-55883057D01*
X221190015Y-55937332D01*
X221050916Y-55965000D01*
X220909084Y-55965000D01*
X220769985Y-55937332D01*
X220638954Y-55883057D01*
X220638953Y-55883057D01*
X220638952Y-55883056D01*
X220521027Y-55804261D01*
X220420739Y-55703973D01*
X220341944Y-55586048D01*
X220341943Y-55586046D01*
X220287668Y-55455015D01*
X220260000Y-55315916D01*
X220260000Y-55174084D01*
X220287668Y-55034985D01*
X220341943Y-54903954D01*
X220420739Y-54786027D01*
X220521027Y-54685739D01*
X220596607Y-54635238D01*
X220638952Y-54606944D01*
X220638954Y-54606943D01*
X220769985Y-54552668D01*
X220909084Y-54525000D01*
X221050916Y-54525000D01*
X221190015Y-54552668D01*
G37*
G36*
X226270015Y-54552668D02*
G01*
X226401046Y-54606943D01*
X226401048Y-54606944D01*
X226443393Y-54635238D01*
X226518973Y-54685739D01*
X226619261Y-54786027D01*
X226698057Y-54903954D01*
X226752332Y-55034985D01*
X226780000Y-55174084D01*
X226780000Y-55315916D01*
X226752332Y-55455015D01*
X226698057Y-55586046D01*
X226698056Y-55586048D01*
X226619261Y-55703973D01*
X226518973Y-55804261D01*
X226401048Y-55883056D01*
X226401047Y-55883057D01*
X226401046Y-55883057D01*
X226270015Y-55937332D01*
X226130916Y-55965000D01*
X225989084Y-55965000D01*
X225849985Y-55937332D01*
X225718954Y-55883057D01*
X225718953Y-55883057D01*
X225718952Y-55883056D01*
X225601027Y-55804261D01*
X225500739Y-55703973D01*
X225421944Y-55586048D01*
X225421943Y-55586046D01*
X225367668Y-55455015D01*
X225340000Y-55315916D01*
X225340000Y-55174084D01*
X225367668Y-55034985D01*
X225421943Y-54903954D01*
X225500739Y-54786027D01*
X225601027Y-54685739D01*
X225676607Y-54635238D01*
X225718952Y-54606944D01*
X225718954Y-54606943D01*
X225849985Y-54552668D01*
X225989084Y-54525000D01*
X226130916Y-54525000D01*
X226270015Y-54552668D01*
G37*
G36*
X223730015Y-54552668D02*
G01*
X223861046Y-54606943D01*
X223861048Y-54606944D01*
X223903393Y-54635238D01*
X223978973Y-54685739D01*
X224079261Y-54786027D01*
X224158057Y-54903954D01*
X224212332Y-55034985D01*
X224240000Y-55174084D01*
X224240000Y-55315916D01*
X224212332Y-55455015D01*
X224158057Y-55586046D01*
X224158056Y-55586048D01*
X224079261Y-55703973D01*
X223978973Y-55804261D01*
X223861048Y-55883056D01*
X223861047Y-55883057D01*
X223861046Y-55883057D01*
X223730015Y-55937332D01*
X223590916Y-55965000D01*
X223449084Y-55965000D01*
X223309985Y-55937332D01*
X223178954Y-55883057D01*
X223178953Y-55883057D01*
X223178952Y-55883056D01*
X223061027Y-55804261D01*
X222960739Y-55703973D01*
X222881944Y-55586048D01*
X222881943Y-55586046D01*
X222827668Y-55455015D01*
X222800000Y-55315916D01*
X222800000Y-55174084D01*
X222827668Y-55034985D01*
X222881943Y-54903954D01*
X222960739Y-54786027D01*
X223061027Y-54685739D01*
X223136607Y-54635238D01*
X223178952Y-54606944D01*
X223178954Y-54606943D01*
X223309985Y-54552668D01*
X223449084Y-54525000D01*
X223590916Y-54525000D01*
X223730015Y-54552668D01*
G37*
G36*
X162172935Y-53157664D02*
G01*
X162327624Y-53221739D01*
X162327626Y-53221740D01*
X162466844Y-53314762D01*
X162585238Y-53433156D01*
X162678260Y-53572374D01*
X162678261Y-53572376D01*
X162742336Y-53727065D01*
X162775000Y-53891281D01*
X162775000Y-54058719D01*
X162742336Y-54222935D01*
X162678261Y-54377624D01*
X162678260Y-54377626D01*
X162585238Y-54516844D01*
X162466844Y-54635238D01*
X162327626Y-54728260D01*
X162327625Y-54728261D01*
X162327624Y-54728261D01*
X162172935Y-54792336D01*
X162008719Y-54825000D01*
X161841281Y-54825000D01*
X161677065Y-54792336D01*
X161522376Y-54728261D01*
X161522375Y-54728261D01*
X161522374Y-54728260D01*
X161383156Y-54635238D01*
X161264762Y-54516844D01*
X161171740Y-54377626D01*
X161171739Y-54377624D01*
X161107664Y-54222935D01*
X161075000Y-54058719D01*
X161075000Y-53891281D01*
X161107664Y-53727065D01*
X161171739Y-53572376D01*
X161171740Y-53572374D01*
X161264762Y-53433156D01*
X161383156Y-53314762D01*
X161522374Y-53221740D01*
X161522376Y-53221739D01*
X161677065Y-53157664D01*
X161841281Y-53125000D01*
X162008719Y-53125000D01*
X162172935Y-53157664D01*
G37*
G36*
X191926826Y-52151576D02*
G01*
X192077627Y-52197321D01*
X192077629Y-52197322D01*
X192216604Y-52271606D01*
X192216606Y-52271607D01*
X192216605Y-52271607D01*
X192338422Y-52371578D01*
X192420466Y-52471550D01*
X192438394Y-52493395D01*
X192512678Y-52632370D01*
X192512679Y-52632372D01*
X192558424Y-52783173D01*
X192570000Y-52900707D01*
X192570000Y-53779293D01*
X192558424Y-53896827D01*
X192512679Y-54047628D01*
X192512678Y-54047630D01*
X192438394Y-54186605D01*
X192338422Y-54308422D01*
X192216605Y-54408394D01*
X192077630Y-54482678D01*
X192077628Y-54482679D01*
X191926827Y-54528424D01*
X191770000Y-54543870D01*
X191613174Y-54528424D01*
X191462373Y-54482679D01*
X191462371Y-54482678D01*
X191323396Y-54408394D01*
X191201579Y-54308422D01*
X191101607Y-54186605D01*
X191027323Y-54047630D01*
X191027322Y-54047628D01*
X190981577Y-53896827D01*
X190970000Y-53779293D01*
X190970000Y-52900708D01*
X190981576Y-52783174D01*
X191027321Y-52632373D01*
X191101607Y-52493395D01*
X191201578Y-52371578D01*
X191323394Y-52271607D01*
X191323393Y-52271607D01*
X191323395Y-52271606D01*
X191462370Y-52197322D01*
X191462372Y-52197321D01*
X191613173Y-52151576D01*
X191770000Y-52136130D01*
X191926826Y-52151576D01*
G37*
G36*
X194466826Y-52151576D02*
G01*
X194617627Y-52197321D01*
X194617629Y-52197322D01*
X194756604Y-52271606D01*
X194756606Y-52271607D01*
X194756605Y-52271607D01*
X194878422Y-52371578D01*
X194960466Y-52471550D01*
X194978394Y-52493395D01*
X195052678Y-52632370D01*
X195052679Y-52632372D01*
X195098424Y-52783173D01*
X195110000Y-52900707D01*
X195110000Y-53779293D01*
X195098424Y-53896827D01*
X195052679Y-54047628D01*
X195052678Y-54047630D01*
X194978394Y-54186605D01*
X194878422Y-54308422D01*
X194756605Y-54408394D01*
X194617630Y-54482678D01*
X194617628Y-54482679D01*
X194466827Y-54528424D01*
X194310000Y-54543870D01*
X194153174Y-54528424D01*
X194002373Y-54482679D01*
X194002371Y-54482678D01*
X193863396Y-54408394D01*
X193741579Y-54308422D01*
X193641607Y-54186605D01*
X193567323Y-54047630D01*
X193567322Y-54047628D01*
X193521577Y-53896827D01*
X193510000Y-53779293D01*
X193510000Y-52900708D01*
X193521576Y-52783174D01*
X193567321Y-52632373D01*
X193641607Y-52493395D01*
X193741578Y-52371578D01*
X193863394Y-52271607D01*
X193863393Y-52271607D01*
X193863395Y-52271606D01*
X194002370Y-52197322D01*
X194002372Y-52197321D01*
X194153173Y-52151576D01*
X194310000Y-52136130D01*
X194466826Y-52151576D01*
G37*
G36*
X202086826Y-52151576D02*
G01*
X202237627Y-52197321D01*
X202237629Y-52197322D01*
X202376604Y-52271606D01*
X202376606Y-52271607D01*
X202376605Y-52271607D01*
X202498422Y-52371578D01*
X202580466Y-52471550D01*
X202598394Y-52493395D01*
X202672678Y-52632370D01*
X202672679Y-52632372D01*
X202718424Y-52783173D01*
X202730000Y-52900707D01*
X202730000Y-53779293D01*
X202718424Y-53896827D01*
X202672679Y-54047628D01*
X202672678Y-54047630D01*
X202598394Y-54186605D01*
X202498422Y-54308422D01*
X202376605Y-54408394D01*
X202237630Y-54482678D01*
X202237628Y-54482679D01*
X202086827Y-54528424D01*
X201930000Y-54543870D01*
X201773174Y-54528424D01*
X201622373Y-54482679D01*
X201622371Y-54482678D01*
X201483396Y-54408394D01*
X201361579Y-54308422D01*
X201261607Y-54186605D01*
X201187323Y-54047630D01*
X201187322Y-54047628D01*
X201141577Y-53896827D01*
X201130000Y-53779293D01*
X201130000Y-52900708D01*
X201141576Y-52783174D01*
X201187321Y-52632373D01*
X201261607Y-52493395D01*
X201361578Y-52371578D01*
X201483394Y-52271607D01*
X201483393Y-52271607D01*
X201483395Y-52271606D01*
X201622370Y-52197322D01*
X201622372Y-52197321D01*
X201773173Y-52151576D01*
X201930000Y-52136130D01*
X202086826Y-52151576D01*
G37*
G36*
X197006826Y-52151576D02*
G01*
X197157627Y-52197321D01*
X197157629Y-52197322D01*
X197296604Y-52271606D01*
X197296606Y-52271607D01*
X197296605Y-52271607D01*
X197418422Y-52371578D01*
X197500466Y-52471550D01*
X197518394Y-52493395D01*
X197592678Y-52632370D01*
X197592679Y-52632372D01*
X197638424Y-52783173D01*
X197650000Y-52900707D01*
X197650000Y-53779293D01*
X197638424Y-53896827D01*
X197592679Y-54047628D01*
X197592678Y-54047630D01*
X197518394Y-54186605D01*
X197418422Y-54308422D01*
X197296605Y-54408394D01*
X197157630Y-54482678D01*
X197157628Y-54482679D01*
X197006827Y-54528424D01*
X196850000Y-54543870D01*
X196693174Y-54528424D01*
X196542373Y-54482679D01*
X196542371Y-54482678D01*
X196403396Y-54408394D01*
X196281579Y-54308422D01*
X196181607Y-54186605D01*
X196107323Y-54047630D01*
X196107322Y-54047628D01*
X196061577Y-53896827D01*
X196050000Y-53779293D01*
X196050000Y-52900708D01*
X196061576Y-52783174D01*
X196107321Y-52632373D01*
X196181607Y-52493395D01*
X196281578Y-52371578D01*
X196403394Y-52271607D01*
X196403393Y-52271607D01*
X196403395Y-52271606D01*
X196542370Y-52197322D01*
X196542372Y-52197321D01*
X196693173Y-52151576D01*
X196850000Y-52136130D01*
X197006826Y-52151576D01*
G37*
G36*
X207166826Y-52151576D02*
G01*
X207317627Y-52197321D01*
X207317629Y-52197322D01*
X207456604Y-52271606D01*
X207456606Y-52271607D01*
X207456605Y-52271607D01*
X207578422Y-52371578D01*
X207660466Y-52471550D01*
X207678394Y-52493395D01*
X207752678Y-52632370D01*
X207752679Y-52632372D01*
X207798424Y-52783173D01*
X207810000Y-52900707D01*
X207810000Y-53779293D01*
X207798424Y-53896827D01*
X207752679Y-54047628D01*
X207752678Y-54047630D01*
X207678394Y-54186605D01*
X207578422Y-54308422D01*
X207456605Y-54408394D01*
X207317630Y-54482678D01*
X207317628Y-54482679D01*
X207166827Y-54528424D01*
X207010000Y-54543870D01*
X206853174Y-54528424D01*
X206702373Y-54482679D01*
X206702371Y-54482678D01*
X206563396Y-54408394D01*
X206441579Y-54308422D01*
X206341607Y-54186605D01*
X206267323Y-54047630D01*
X206267322Y-54047628D01*
X206221577Y-53896827D01*
X206210000Y-53779293D01*
X206210000Y-52900708D01*
X206221576Y-52783174D01*
X206267321Y-52632373D01*
X206341607Y-52493395D01*
X206441578Y-52371578D01*
X206563394Y-52271607D01*
X206563393Y-52271607D01*
X206563395Y-52271606D01*
X206702370Y-52197322D01*
X206702372Y-52197321D01*
X206853173Y-52151576D01*
X207010000Y-52136130D01*
X207166826Y-52151576D01*
G37*
G36*
X204626826Y-52151576D02*
G01*
X204777627Y-52197321D01*
X204777629Y-52197322D01*
X204916604Y-52271606D01*
X204916606Y-52271607D01*
X204916605Y-52271607D01*
X205038422Y-52371578D01*
X205120466Y-52471550D01*
X205138394Y-52493395D01*
X205212678Y-52632370D01*
X205212679Y-52632372D01*
X205258424Y-52783173D01*
X205270000Y-52900707D01*
X205270000Y-53779293D01*
X205258424Y-53896827D01*
X205212679Y-54047628D01*
X205212678Y-54047630D01*
X205138394Y-54186605D01*
X205038422Y-54308422D01*
X204916605Y-54408394D01*
X204777630Y-54482678D01*
X204777628Y-54482679D01*
X204626827Y-54528424D01*
X204470000Y-54543870D01*
X204313174Y-54528424D01*
X204162373Y-54482679D01*
X204162371Y-54482678D01*
X204023396Y-54408394D01*
X203901579Y-54308422D01*
X203801607Y-54186605D01*
X203727323Y-54047630D01*
X203727322Y-54047628D01*
X203681577Y-53896827D01*
X203670000Y-53779293D01*
X203670000Y-52900708D01*
X203681576Y-52783174D01*
X203727321Y-52632373D01*
X203801607Y-52493395D01*
X203901578Y-52371578D01*
X204023394Y-52271607D01*
X204023393Y-52271607D01*
X204023395Y-52271606D01*
X204162370Y-52197322D01*
X204162372Y-52197321D01*
X204313173Y-52151576D01*
X204470000Y-52136130D01*
X204626826Y-52151576D01*
G37*
G36*
X199546826Y-52151576D02*
G01*
X199697627Y-52197321D01*
X199697629Y-52197322D01*
X199836604Y-52271606D01*
X199836606Y-52271607D01*
X199836605Y-52271607D01*
X199958422Y-52371578D01*
X200040466Y-52471550D01*
X200058394Y-52493395D01*
X200132678Y-52632370D01*
X200132679Y-52632372D01*
X200178424Y-52783173D01*
X200190000Y-52900707D01*
X200190000Y-53779293D01*
X200178424Y-53896827D01*
X200132679Y-54047628D01*
X200132678Y-54047630D01*
X200058394Y-54186605D01*
X199958422Y-54308422D01*
X199836605Y-54408394D01*
X199697630Y-54482678D01*
X199697628Y-54482679D01*
X199546827Y-54528424D01*
X199390000Y-54543870D01*
X199233174Y-54528424D01*
X199082373Y-54482679D01*
X199082371Y-54482678D01*
X198943396Y-54408394D01*
X198821579Y-54308422D01*
X198721607Y-54186605D01*
X198647323Y-54047630D01*
X198647322Y-54047628D01*
X198601577Y-53896827D01*
X198590000Y-53779293D01*
X198590000Y-52900708D01*
X198601576Y-52783174D01*
X198647321Y-52632373D01*
X198721607Y-52493395D01*
X198821578Y-52371578D01*
X198943394Y-52271607D01*
X198943393Y-52271607D01*
X198943395Y-52271606D01*
X199082370Y-52197322D01*
X199082372Y-52197321D01*
X199233173Y-52151576D01*
X199390000Y-52136130D01*
X199546826Y-52151576D01*
G37*
G36*
X162775000Y-52285000D02*
G01*
X161075000Y-52285000D01*
X161075000Y-50585000D01*
X162775000Y-50585000D01*
X162775000Y-52285000D01*
G37*
G36*
X176001351Y-49602743D02*
G01*
X176146941Y-49663048D01*
X176277970Y-49750599D01*
X176389401Y-49862030D01*
X176476952Y-49993059D01*
X176537257Y-50138649D01*
X176568000Y-50293206D01*
X176568000Y-50450794D01*
X176537257Y-50605351D01*
X176476952Y-50750941D01*
X176389401Y-50881970D01*
X176277970Y-50993401D01*
X176146941Y-51080952D01*
X176001351Y-51141257D01*
X175846794Y-51172000D01*
X175689206Y-51172000D01*
X175534649Y-51141257D01*
X175389059Y-51080952D01*
X175258030Y-50993401D01*
X175146599Y-50881970D01*
X175059048Y-50750941D01*
X174998743Y-50605351D01*
X174968000Y-50450794D01*
X174968000Y-50293206D01*
X174998743Y-50138649D01*
X175059048Y-49993059D01*
X175146599Y-49862030D01*
X175258030Y-49750599D01*
X175389059Y-49663048D01*
X175534649Y-49602743D01*
X175689206Y-49572000D01*
X175846794Y-49572000D01*
X176001351Y-49602743D01*
G37*
G36*
X187558351Y-49395743D02*
G01*
X187703941Y-49456048D01*
X187834970Y-49543599D01*
X187946401Y-49655030D01*
X188033952Y-49786059D01*
X188094257Y-49931649D01*
X188125000Y-50086206D01*
X188125000Y-50243794D01*
X188094257Y-50398351D01*
X188033952Y-50543941D01*
X187946401Y-50674970D01*
X187834970Y-50786401D01*
X187703941Y-50873952D01*
X187558351Y-50934257D01*
X187403794Y-50965000D01*
X187246206Y-50965000D01*
X187091649Y-50934257D01*
X186946059Y-50873952D01*
X186815030Y-50786401D01*
X186703599Y-50674970D01*
X186616048Y-50543941D01*
X186555743Y-50398351D01*
X186525000Y-50243794D01*
X186525000Y-50086206D01*
X186555743Y-49931649D01*
X186616048Y-49786059D01*
X186703599Y-49655030D01*
X186815030Y-49543599D01*
X186946059Y-49456048D01*
X187091649Y-49395743D01*
X187246206Y-49365000D01*
X187403794Y-49365000D01*
X187558351Y-49395743D01*
G37*
G36*
X223118351Y-48760743D02*
G01*
X223263941Y-48821048D01*
X223394970Y-48908599D01*
X223506401Y-49020030D01*
X223593952Y-49151059D01*
X223654257Y-49296649D01*
X223685000Y-49451206D01*
X223685000Y-49608794D01*
X223654257Y-49763351D01*
X223593952Y-49908941D01*
X223506401Y-50039970D01*
X223394970Y-50151401D01*
X223263941Y-50238952D01*
X223118351Y-50299257D01*
X222963794Y-50330000D01*
X222806206Y-50330000D01*
X222651649Y-50299257D01*
X222506059Y-50238952D01*
X222375030Y-50151401D01*
X222263599Y-50039970D01*
X222176048Y-49908941D01*
X222115743Y-49763351D01*
X222085000Y-49608794D01*
X222085000Y-49451206D01*
X222115743Y-49296649D01*
X222176048Y-49151059D01*
X222263599Y-49020030D01*
X222375030Y-48908599D01*
X222506059Y-48821048D01*
X222651649Y-48760743D01*
X222806206Y-48730000D01*
X222963794Y-48730000D01*
X223118351Y-48760743D01*
G37*
G36*
X238358351Y-48760743D02*
G01*
X238503941Y-48821048D01*
X238634970Y-48908599D01*
X238746401Y-49020030D01*
X238833952Y-49151059D01*
X238894257Y-49296649D01*
X238925000Y-49451206D01*
X238925000Y-49608794D01*
X238894257Y-49763351D01*
X238833952Y-49908941D01*
X238746401Y-50039970D01*
X238634970Y-50151401D01*
X238503941Y-50238952D01*
X238358351Y-50299257D01*
X238203794Y-50330000D01*
X238046206Y-50330000D01*
X237891649Y-50299257D01*
X237746059Y-50238952D01*
X237615030Y-50151401D01*
X237503599Y-50039970D01*
X237416048Y-49908941D01*
X237355743Y-49763351D01*
X237325000Y-49608794D01*
X237325000Y-49451206D01*
X237355743Y-49296649D01*
X237416048Y-49151059D01*
X237503599Y-49020030D01*
X237615030Y-48908599D01*
X237746059Y-48821048D01*
X237891649Y-48760743D01*
X238046206Y-48730000D01*
X238203794Y-48730000D01*
X238358351Y-48760743D01*
G37*
G36*
X192003351Y-46855743D02*
G01*
X192148941Y-46916048D01*
X192279970Y-47003599D01*
X192391401Y-47115030D01*
X192478952Y-47246059D01*
X192539257Y-47391649D01*
X192570000Y-47546206D01*
X192570000Y-47703794D01*
X192539257Y-47858351D01*
X192478952Y-48003941D01*
X192391401Y-48134970D01*
X192279970Y-48246401D01*
X192148941Y-48333952D01*
X192003351Y-48394257D01*
X191848794Y-48425000D01*
X191691206Y-48425000D01*
X191536649Y-48394257D01*
X191391059Y-48333952D01*
X191260030Y-48246401D01*
X191148599Y-48134970D01*
X191061048Y-48003941D01*
X191000743Y-47858351D01*
X190970000Y-47703794D01*
X190970000Y-47546206D01*
X191000743Y-47391649D01*
X191061048Y-47246059D01*
X191148599Y-47115030D01*
X191260030Y-47003599D01*
X191391059Y-46916048D01*
X191536649Y-46855743D01*
X191691206Y-46825000D01*
X191848794Y-46825000D01*
X192003351Y-46855743D01*
G37*
G36*
X207243351Y-46855743D02*
G01*
X207388941Y-46916048D01*
X207519970Y-47003599D01*
X207631401Y-47115030D01*
X207718952Y-47246059D01*
X207779257Y-47391649D01*
X207810000Y-47546206D01*
X207810000Y-47703794D01*
X207779257Y-47858351D01*
X207718952Y-48003941D01*
X207631401Y-48134970D01*
X207519970Y-48246401D01*
X207388941Y-48333952D01*
X207243351Y-48394257D01*
X207088794Y-48425000D01*
X206931206Y-48425000D01*
X206776649Y-48394257D01*
X206631059Y-48333952D01*
X206500030Y-48246401D01*
X206388599Y-48134970D01*
X206301048Y-48003941D01*
X206240743Y-47858351D01*
X206210000Y-47703794D01*
X206210000Y-47546206D01*
X206240743Y-47391649D01*
X206301048Y-47246059D01*
X206388599Y-47115030D01*
X206500030Y-47003599D01*
X206631059Y-46916048D01*
X206776649Y-46855743D01*
X206931206Y-46825000D01*
X207088794Y-46825000D01*
X207243351Y-46855743D01*
G37*
G36*
X162158351Y-44950743D02*
G01*
X162303941Y-45011048D01*
X162434970Y-45098599D01*
X162546401Y-45210030D01*
X162633952Y-45341059D01*
X162694257Y-45486649D01*
X162725000Y-45641206D01*
X162725000Y-45798794D01*
X162694257Y-45953351D01*
X162633952Y-46098941D01*
X162546401Y-46229970D01*
X162434970Y-46341401D01*
X162303941Y-46428952D01*
X162158351Y-46489257D01*
X162003794Y-46520000D01*
X161846206Y-46520000D01*
X161691649Y-46489257D01*
X161546059Y-46428952D01*
X161415030Y-46341401D01*
X161303599Y-46229970D01*
X161216048Y-46098941D01*
X161155743Y-45953351D01*
X161125000Y-45798794D01*
X161125000Y-45641206D01*
X161155743Y-45486649D01*
X161216048Y-45341059D01*
X161303599Y-45210030D01*
X161415030Y-45098599D01*
X161546059Y-45011048D01*
X161691649Y-44950743D01*
X161846206Y-44920000D01*
X162003794Y-44920000D01*
X162158351Y-44950743D01*
G37*
G36*
X177398351Y-44950743D02*
G01*
X177543941Y-45011048D01*
X177674970Y-45098599D01*
X177786401Y-45210030D01*
X177873952Y-45341059D01*
X177934257Y-45486649D01*
X177965000Y-45641206D01*
X177965000Y-45798794D01*
X177934257Y-45953351D01*
X177873952Y-46098941D01*
X177786401Y-46229970D01*
X177674970Y-46341401D01*
X177543941Y-46428952D01*
X177398351Y-46489257D01*
X177243794Y-46520000D01*
X177086206Y-46520000D01*
X176931649Y-46489257D01*
X176786059Y-46428952D01*
X176655030Y-46341401D01*
X176543599Y-46229970D01*
X176456048Y-46098941D01*
X176395743Y-45953351D01*
X176365000Y-45798794D01*
X176365000Y-45641206D01*
X176395743Y-45486649D01*
X176456048Y-45341059D01*
X176543599Y-45210030D01*
X176655030Y-45098599D01*
X176786059Y-45011048D01*
X176931649Y-44950743D01*
X177086206Y-44920000D01*
X177243794Y-44920000D01*
X177398351Y-44950743D01*
G37*
G36*
X220578351Y-41775743D02*
G01*
X220723941Y-41836048D01*
X220854970Y-41923599D01*
X220966401Y-42035030D01*
X221053952Y-42166059D01*
X221114257Y-42311649D01*
X221145000Y-42466206D01*
X221145000Y-42623794D01*
X221114257Y-42778351D01*
X221053952Y-42923941D01*
X220966401Y-43054970D01*
X220854970Y-43166401D01*
X220723941Y-43253952D01*
X220578351Y-43314257D01*
X220423794Y-43345000D01*
X220266206Y-43345000D01*
X220111649Y-43314257D01*
X219966059Y-43253952D01*
X219835030Y-43166401D01*
X219723599Y-43054970D01*
X219636048Y-42923941D01*
X219575743Y-42778351D01*
X219545000Y-42623794D01*
X219545000Y-42466206D01*
X219575743Y-42311649D01*
X219636048Y-42166059D01*
X219723599Y-42035030D01*
X219835030Y-41923599D01*
X219966059Y-41836048D01*
X220111649Y-41775743D01*
X220266206Y-41745000D01*
X220423794Y-41745000D01*
X220578351Y-41775743D01*
G37*
G36*
X205338351Y-41775743D02*
G01*
X205483941Y-41836048D01*
X205614970Y-41923599D01*
X205726401Y-42035030D01*
X205813952Y-42166059D01*
X205874257Y-42311649D01*
X205905000Y-42466206D01*
X205905000Y-42623794D01*
X205874257Y-42778351D01*
X205813952Y-42923941D01*
X205726401Y-43054970D01*
X205614970Y-43166401D01*
X205483941Y-43253952D01*
X205338351Y-43314257D01*
X205183794Y-43345000D01*
X205026206Y-43345000D01*
X204871649Y-43314257D01*
X204726059Y-43253952D01*
X204595030Y-43166401D01*
X204483599Y-43054970D01*
X204396048Y-42923941D01*
X204335743Y-42778351D01*
X204305000Y-42623794D01*
X204305000Y-42466206D01*
X204335743Y-42311649D01*
X204396048Y-42166059D01*
X204483599Y-42035030D01*
X204595030Y-41923599D01*
X204726059Y-41836048D01*
X204871649Y-41775743D01*
X205026206Y-41745000D01*
X205183794Y-41745000D01*
X205338351Y-41775743D01*
G37*
G36*
X198868351Y-41775743D02*
G01*
X199013941Y-41836048D01*
X199144970Y-41923599D01*
X199256401Y-42035030D01*
X199343952Y-42166059D01*
X199404257Y-42311649D01*
X199435000Y-42466206D01*
X199435000Y-42623794D01*
X199404257Y-42778351D01*
X199343952Y-42923941D01*
X199256401Y-43054970D01*
X199144970Y-43166401D01*
X199013941Y-43253952D01*
X198868351Y-43314257D01*
X198713794Y-43345000D01*
X198556206Y-43345000D01*
X198401649Y-43314257D01*
X198256059Y-43253952D01*
X198125030Y-43166401D01*
X198013599Y-43054970D01*
X197926048Y-42923941D01*
X197865743Y-42778351D01*
X197835000Y-42623794D01*
X197835000Y-42466206D01*
X197865743Y-42311649D01*
X197926048Y-42166059D01*
X198013599Y-42035030D01*
X198125030Y-41923599D01*
X198256059Y-41836048D01*
X198401649Y-41775743D01*
X198556206Y-41745000D01*
X198713794Y-41745000D01*
X198868351Y-41775743D01*
G37*
G36*
X196368351Y-41775743D02*
G01*
X196513941Y-41836048D01*
X196644970Y-41923599D01*
X196756401Y-42035030D01*
X196843952Y-42166059D01*
X196904257Y-42311649D01*
X196935000Y-42466206D01*
X196935000Y-42623794D01*
X196904257Y-42778351D01*
X196843952Y-42923941D01*
X196756401Y-43054970D01*
X196644970Y-43166401D01*
X196513941Y-43253952D01*
X196368351Y-43314257D01*
X196213794Y-43345000D01*
X196056206Y-43345000D01*
X195901649Y-43314257D01*
X195756059Y-43253952D01*
X195625030Y-43166401D01*
X195513599Y-43054970D01*
X195426048Y-42923941D01*
X195365743Y-42778351D01*
X195335000Y-42623794D01*
X195335000Y-42466206D01*
X195365743Y-42311649D01*
X195426048Y-42166059D01*
X195513599Y-42035030D01*
X195625030Y-41923599D01*
X195756059Y-41836048D01*
X195901649Y-41775743D01*
X196056206Y-41745000D01*
X196213794Y-41745000D01*
X196368351Y-41775743D01*
G37*
G36*
X191368351Y-41775743D02*
G01*
X191513941Y-41836048D01*
X191644970Y-41923599D01*
X191756401Y-42035030D01*
X191843952Y-42166059D01*
X191904257Y-42311649D01*
X191935000Y-42466206D01*
X191935000Y-42623794D01*
X191904257Y-42778351D01*
X191843952Y-42923941D01*
X191756401Y-43054970D01*
X191644970Y-43166401D01*
X191513941Y-43253952D01*
X191368351Y-43314257D01*
X191213794Y-43345000D01*
X191056206Y-43345000D01*
X190901649Y-43314257D01*
X190756059Y-43253952D01*
X190625030Y-43166401D01*
X190513599Y-43054970D01*
X190426048Y-42923941D01*
X190365743Y-42778351D01*
X190335000Y-42623794D01*
X190335000Y-42466206D01*
X190365743Y-42311649D01*
X190426048Y-42166059D01*
X190513599Y-42035030D01*
X190625030Y-41923599D01*
X190756059Y-41836048D01*
X190901649Y-41775743D01*
X191056206Y-41745000D01*
X191213794Y-41745000D01*
X191368351Y-41775743D01*
G37*
G36*
X193839182Y-41871900D02*
G01*
X193966573Y-41924667D01*
X193966574Y-41924668D01*
X194081224Y-42001274D01*
X194178726Y-42098776D01*
X194178727Y-42098778D01*
X194255333Y-42213427D01*
X194308100Y-42340818D01*
X194335000Y-42476055D01*
X194335000Y-42613945D01*
X194308100Y-42749182D01*
X194255333Y-42876573D01*
X194255332Y-42876574D01*
X194178726Y-42991224D01*
X194081224Y-43088726D01*
X194023510Y-43127289D01*
X193966573Y-43165333D01*
X193839182Y-43218100D01*
X193703945Y-43245000D01*
X193566055Y-43245000D01*
X193430818Y-43218100D01*
X193303427Y-43165333D01*
X193246490Y-43127289D01*
X193188776Y-43088726D01*
X193091274Y-42991224D01*
X193014668Y-42876574D01*
X193014667Y-42876573D01*
X192961900Y-42749182D01*
X192935000Y-42613945D01*
X192935000Y-42476055D01*
X192961900Y-42340818D01*
X193014667Y-42213427D01*
X193091273Y-42098778D01*
X193091274Y-42098776D01*
X193188776Y-42001274D01*
X193303426Y-41924668D01*
X193303427Y-41924667D01*
X193430818Y-41871900D01*
X193566055Y-41845000D01*
X193703945Y-41845000D01*
X193839182Y-41871900D01*
G37*
G36*
X180573351Y-41220743D02*
G01*
X180718941Y-41281048D01*
X180849970Y-41368599D01*
X180961401Y-41480030D01*
X181048952Y-41611059D01*
X181109257Y-41756649D01*
X181140000Y-41911206D01*
X181140000Y-42068794D01*
X181109257Y-42223351D01*
X181048952Y-42368941D01*
X180961401Y-42499970D01*
X180849970Y-42611401D01*
X180718941Y-42698952D01*
X180573351Y-42759257D01*
X180418794Y-42790000D01*
X180261206Y-42790000D01*
X180106649Y-42759257D01*
X179961059Y-42698952D01*
X179830030Y-42611401D01*
X179718599Y-42499970D01*
X179631048Y-42368941D01*
X179570743Y-42223351D01*
X179540000Y-42068794D01*
X179540000Y-41911206D01*
X179570743Y-41756649D01*
X179631048Y-41611059D01*
X179718599Y-41480030D01*
X179830030Y-41368599D01*
X179961059Y-41281048D01*
X180106649Y-41220743D01*
X180261206Y-41190000D01*
X180418794Y-41190000D01*
X180573351Y-41220743D01*
G37*
G36*
X185573351Y-41220743D02*
G01*
X185718941Y-41281048D01*
X185849970Y-41368599D01*
X185961401Y-41480030D01*
X186048952Y-41611059D01*
X186109257Y-41756649D01*
X186140000Y-41911206D01*
X186140000Y-42068794D01*
X186109257Y-42223351D01*
X186048952Y-42368941D01*
X185961401Y-42499970D01*
X185849970Y-42611401D01*
X185718941Y-42698952D01*
X185573351Y-42759257D01*
X185418794Y-42790000D01*
X185261206Y-42790000D01*
X185106649Y-42759257D01*
X184961059Y-42698952D01*
X184830030Y-42611401D01*
X184718599Y-42499970D01*
X184631048Y-42368941D01*
X184570743Y-42223351D01*
X184540000Y-42068794D01*
X184540000Y-41911206D01*
X184570743Y-41756649D01*
X184631048Y-41611059D01*
X184718599Y-41480030D01*
X184830030Y-41368599D01*
X184961059Y-41281048D01*
X185106649Y-41220743D01*
X185261206Y-41190000D01*
X185418794Y-41190000D01*
X185573351Y-41220743D01*
G37*
G36*
X162158351Y-41140743D02*
G01*
X162303941Y-41201048D01*
X162434970Y-41288599D01*
X162546401Y-41400030D01*
X162633952Y-41531059D01*
X162694257Y-41676649D01*
X162725000Y-41831206D01*
X162725000Y-41988794D01*
X162694257Y-42143351D01*
X162633952Y-42288941D01*
X162546401Y-42419970D01*
X162434970Y-42531401D01*
X162303941Y-42618952D01*
X162158351Y-42679257D01*
X162003794Y-42710000D01*
X161846206Y-42710000D01*
X161691649Y-42679257D01*
X161546059Y-42618952D01*
X161415030Y-42531401D01*
X161303599Y-42419970D01*
X161216048Y-42288941D01*
X161155743Y-42143351D01*
X161125000Y-41988794D01*
X161125000Y-41831206D01*
X161155743Y-41676649D01*
X161216048Y-41531059D01*
X161303599Y-41400030D01*
X161415030Y-41288599D01*
X161546059Y-41201048D01*
X161691649Y-41140743D01*
X161846206Y-41110000D01*
X162003794Y-41110000D01*
X162158351Y-41140743D01*
G37*
G36*
X177398351Y-41140743D02*
G01*
X177543941Y-41201048D01*
X177674970Y-41288599D01*
X177786401Y-41400030D01*
X177873952Y-41531059D01*
X177934257Y-41676649D01*
X177965000Y-41831206D01*
X177965000Y-41988794D01*
X177934257Y-42143351D01*
X177873952Y-42288941D01*
X177786401Y-42419970D01*
X177674970Y-42531401D01*
X177543941Y-42618952D01*
X177398351Y-42679257D01*
X177243794Y-42710000D01*
X177086206Y-42710000D01*
X176931649Y-42679257D01*
X176786059Y-42618952D01*
X176655030Y-42531401D01*
X176543599Y-42419970D01*
X176456048Y-42288941D01*
X176395743Y-42143351D01*
X176365000Y-41988794D01*
X176365000Y-41831206D01*
X176395743Y-41676649D01*
X176456048Y-41531059D01*
X176543599Y-41400030D01*
X176655030Y-41288599D01*
X176786059Y-41201048D01*
X176931649Y-41140743D01*
X177086206Y-41110000D01*
X177243794Y-41110000D01*
X177398351Y-41140743D01*
G37*
G36*
X206608351Y-36060743D02*
G01*
X206753941Y-36121048D01*
X206884970Y-36208599D01*
X206996401Y-36320030D01*
X207083952Y-36451059D01*
X207144257Y-36596649D01*
X207175000Y-36751206D01*
X207175000Y-36908794D01*
X207144257Y-37063351D01*
X207083952Y-37208941D01*
X206996401Y-37339970D01*
X206884970Y-37451401D01*
X206753941Y-37538952D01*
X206608351Y-37599257D01*
X206453794Y-37630000D01*
X206296206Y-37630000D01*
X206141649Y-37599257D01*
X205996059Y-37538952D01*
X205865030Y-37451401D01*
X205753599Y-37339970D01*
X205666048Y-37208941D01*
X205605743Y-37063351D01*
X205575000Y-36908794D01*
X205575000Y-36751206D01*
X205605743Y-36596649D01*
X205666048Y-36451059D01*
X205753599Y-36320030D01*
X205865030Y-36208599D01*
X205996059Y-36121048D01*
X206141649Y-36060743D01*
X206296206Y-36030000D01*
X206453794Y-36030000D01*
X206608351Y-36060743D01*
G37*
G36*
X221848351Y-36060743D02*
G01*
X221993941Y-36121048D01*
X222124970Y-36208599D01*
X222236401Y-36320030D01*
X222323952Y-36451059D01*
X222384257Y-36596649D01*
X222415000Y-36751206D01*
X222415000Y-36908794D01*
X222384257Y-37063351D01*
X222323952Y-37208941D01*
X222236401Y-37339970D01*
X222124970Y-37451401D01*
X221993941Y-37538952D01*
X221848351Y-37599257D01*
X221693794Y-37630000D01*
X221536206Y-37630000D01*
X221381649Y-37599257D01*
X221236059Y-37538952D01*
X221105030Y-37451401D01*
X220993599Y-37339970D01*
X220906048Y-37208941D01*
X220845743Y-37063351D01*
X220815000Y-36908794D01*
X220815000Y-36751206D01*
X220845743Y-36596649D01*
X220906048Y-36451059D01*
X220993599Y-36320030D01*
X221105030Y-36208599D01*
X221236059Y-36121048D01*
X221381649Y-36060743D01*
X221536206Y-36030000D01*
X221693794Y-36030000D01*
X221848351Y-36060743D01*
G37*
G36*
X200813351Y-36060743D02*
G01*
X200958941Y-36121048D01*
X201089970Y-36208599D01*
X201201401Y-36320030D01*
X201288952Y-36451059D01*
X201349257Y-36596649D01*
X201380000Y-36751206D01*
X201380000Y-36908794D01*
X201349257Y-37063351D01*
X201288952Y-37208941D01*
X201201401Y-37339970D01*
X201089970Y-37451401D01*
X200958941Y-37538952D01*
X200813351Y-37599257D01*
X200658794Y-37630000D01*
X200501206Y-37630000D01*
X200346649Y-37599257D01*
X200201059Y-37538952D01*
X200070030Y-37451401D01*
X199958599Y-37339970D01*
X199871048Y-37208941D01*
X199810743Y-37063351D01*
X199780000Y-36908794D01*
X199780000Y-36751206D01*
X199810743Y-36596649D01*
X199871048Y-36451059D01*
X199958599Y-36320030D01*
X200070030Y-36208599D01*
X200201059Y-36121048D01*
X200346649Y-36060743D01*
X200501206Y-36030000D01*
X200658794Y-36030000D01*
X200813351Y-36060743D01*
G37*
G36*
X198353351Y-36060743D02*
G01*
X198498941Y-36121048D01*
X198629970Y-36208599D01*
X198741401Y-36320030D01*
X198828952Y-36451059D01*
X198889257Y-36596649D01*
X198920000Y-36751206D01*
X198920000Y-36908794D01*
X198889257Y-37063351D01*
X198828952Y-37208941D01*
X198741401Y-37339970D01*
X198629970Y-37451401D01*
X198498941Y-37538952D01*
X198353351Y-37599257D01*
X198198794Y-37630000D01*
X198041206Y-37630000D01*
X197886649Y-37599257D01*
X197741059Y-37538952D01*
X197610030Y-37451401D01*
X197498599Y-37339970D01*
X197411048Y-37208941D01*
X197350743Y-37063351D01*
X197320000Y-36908794D01*
X197320000Y-36751206D01*
X197350743Y-36596649D01*
X197411048Y-36451059D01*
X197498599Y-36320030D01*
X197610030Y-36208599D01*
X197741059Y-36121048D01*
X197886649Y-36060743D01*
X198041206Y-36030000D01*
X198198794Y-36030000D01*
X198353351Y-36060743D01*
G37*
G36*
X193353351Y-36060743D02*
G01*
X193498941Y-36121048D01*
X193629970Y-36208599D01*
X193741401Y-36320030D01*
X193828952Y-36451059D01*
X193889257Y-36596649D01*
X193920000Y-36751206D01*
X193920000Y-36908794D01*
X193889257Y-37063351D01*
X193828952Y-37208941D01*
X193741401Y-37339970D01*
X193629970Y-37451401D01*
X193498941Y-37538952D01*
X193353351Y-37599257D01*
X193198794Y-37630000D01*
X193001206Y-37630000D01*
X192846649Y-37599257D01*
X192701059Y-37538952D01*
X192570030Y-37451401D01*
X192458599Y-37339970D01*
X192371048Y-37208941D01*
X192310743Y-37063351D01*
X192280000Y-36908794D01*
X192280000Y-36751206D01*
X192310743Y-36596649D01*
X192371048Y-36451059D01*
X192458599Y-36320030D01*
X192570030Y-36208599D01*
X192701059Y-36121048D01*
X192846649Y-36060743D01*
X193001206Y-36030000D01*
X193198794Y-36030000D01*
X193353351Y-36060743D01*
G37*
G36*
X195784182Y-36156900D02*
G01*
X195911573Y-36209667D01*
X195911574Y-36209668D01*
X196026224Y-36286274D01*
X196123726Y-36383776D01*
X196123727Y-36383778D01*
X196200333Y-36498427D01*
X196253100Y-36625818D01*
X196280000Y-36761055D01*
X196280000Y-36898945D01*
X196253100Y-37034182D01*
X196200333Y-37161573D01*
X196200332Y-37161574D01*
X196123726Y-37276224D01*
X196026224Y-37373726D01*
X195968510Y-37412289D01*
X195911573Y-37450333D01*
X195784182Y-37503100D01*
X195648945Y-37530000D01*
X195511055Y-37530000D01*
X195375818Y-37503100D01*
X195248427Y-37450333D01*
X195191490Y-37412289D01*
X195133776Y-37373726D01*
X195036274Y-37276224D01*
X194959668Y-37161574D01*
X194959667Y-37161573D01*
X194906900Y-37034182D01*
X194880000Y-36898945D01*
X194880000Y-36761055D01*
X194906900Y-36625818D01*
X194959667Y-36498427D01*
X195036273Y-36383778D01*
X195036274Y-36383776D01*
X195133776Y-36286274D01*
X195248426Y-36209668D01*
X195248427Y-36209667D01*
X195375818Y-36156900D01*
X195511055Y-36130000D01*
X195648945Y-36130000D01*
X195784182Y-36156900D01*
G37*
M02*
