G04 #@! TF.GenerationSoftware,KiCad,Pcbnew,(5.0.1)-4*
G04 #@! TF.CreationDate,2023-12-05T16:50:23+01:00*
G04 #@! TF.ProjectId,AetS_Spectrum_1way,416574535F537065637472756D5F3177,rev?*
G04 #@! TF.SameCoordinates,Original*
G04 #@! TF.FileFunction,Soldermask,Top*
G04 #@! TF.FilePolarity,Negative*
%FSLAX46Y46*%
G04 Gerber Fmt 4.6, Leading zero omitted, Abs format (unit mm)*
G04 Created by KiCad (PCBNEW (5.0.1)-4) date 05/12/2023 16:50:23*
%MOMM*%
%LPD*%
G01*
G04 APERTURE LIST*
%ADD10C,0.100000*%
G04 APERTURE END LIST*
D10*
G36*
X186883352Y-76065743D02*
X187028941Y-76126048D01*
X187159973Y-76213601D01*
X187271399Y-76325027D01*
X187358952Y-76456059D01*
X187419257Y-76601648D01*
X187450000Y-76756205D01*
X187450000Y-76913795D01*
X187419257Y-77068352D01*
X187358952Y-77213941D01*
X187271399Y-77344973D01*
X187159973Y-77456399D01*
X187028941Y-77543952D01*
X186883352Y-77604257D01*
X186728795Y-77635000D01*
X186571205Y-77635000D01*
X186416648Y-77604257D01*
X186271059Y-77543952D01*
X186140027Y-77456399D01*
X186028601Y-77344973D01*
X185941048Y-77213941D01*
X185880743Y-77068352D01*
X185850000Y-76913795D01*
X185850000Y-76756205D01*
X185880743Y-76601648D01*
X185941048Y-76456059D01*
X186028601Y-76325027D01*
X186140027Y-76213601D01*
X186271059Y-76126048D01*
X186416648Y-76065743D01*
X186571205Y-76035000D01*
X186728795Y-76035000D01*
X186883352Y-76065743D01*
X186883352Y-76065743D01*
G37*
G36*
X192003352Y-76065743D02*
X192148941Y-76126048D01*
X192279973Y-76213601D01*
X192391399Y-76325027D01*
X192478952Y-76456059D01*
X192539257Y-76601648D01*
X192570000Y-76756205D01*
X192570000Y-76913795D01*
X192539257Y-77068352D01*
X192478952Y-77213941D01*
X192391399Y-77344973D01*
X192279973Y-77456399D01*
X192148941Y-77543952D01*
X192003352Y-77604257D01*
X191848795Y-77635000D01*
X191691205Y-77635000D01*
X191536648Y-77604257D01*
X191391059Y-77543952D01*
X191260027Y-77456399D01*
X191148601Y-77344973D01*
X191061048Y-77213941D01*
X191000743Y-77068352D01*
X190970000Y-76913795D01*
X190970000Y-76756205D01*
X191000743Y-76601648D01*
X191061048Y-76456059D01*
X191148601Y-76325027D01*
X191260027Y-76213601D01*
X191391059Y-76126048D01*
X191536648Y-76065743D01*
X191691205Y-76035000D01*
X191848795Y-76035000D01*
X192003352Y-76065743D01*
X192003352Y-76065743D01*
G37*
G36*
X207127649Y-76042717D02*
X207166827Y-76046576D01*
X207230012Y-76065743D01*
X207317629Y-76092321D01*
X207456608Y-76166608D01*
X207578422Y-76266578D01*
X207678392Y-76388392D01*
X207752679Y-76527371D01*
X207798424Y-76678174D01*
X207813870Y-76835000D01*
X207798424Y-76991826D01*
X207752679Y-77142629D01*
X207678392Y-77281608D01*
X207578422Y-77403422D01*
X207456608Y-77503392D01*
X207317629Y-77577679D01*
X207242228Y-77600551D01*
X207166827Y-77623424D01*
X207127649Y-77627283D01*
X207049295Y-77635000D01*
X206970705Y-77635000D01*
X206892351Y-77627283D01*
X206853173Y-77623424D01*
X206777772Y-77600551D01*
X206702371Y-77577679D01*
X206563392Y-77503392D01*
X206441578Y-77403422D01*
X206341608Y-77281608D01*
X206267321Y-77142629D01*
X206221576Y-76991826D01*
X206206130Y-76835000D01*
X206221576Y-76678174D01*
X206267321Y-76527371D01*
X206341608Y-76388392D01*
X206441578Y-76266578D01*
X206563392Y-76166608D01*
X206702371Y-76092321D01*
X206789988Y-76065743D01*
X206853173Y-76046576D01*
X206892351Y-76042717D01*
X206970705Y-76035000D01*
X207049295Y-76035000D01*
X207127649Y-76042717D01*
X207127649Y-76042717D01*
G37*
G36*
X184383352Y-76065743D02*
X184528941Y-76126048D01*
X184659973Y-76213601D01*
X184771399Y-76325027D01*
X184858952Y-76456059D01*
X184919257Y-76601648D01*
X184950000Y-76756205D01*
X184950000Y-76913795D01*
X184919257Y-77068352D01*
X184858952Y-77213941D01*
X184771399Y-77344973D01*
X184659973Y-77456399D01*
X184528941Y-77543952D01*
X184383352Y-77604257D01*
X184228795Y-77635000D01*
X184071205Y-77635000D01*
X183916648Y-77604257D01*
X183771059Y-77543952D01*
X183640027Y-77456399D01*
X183528601Y-77344973D01*
X183441048Y-77213941D01*
X183380743Y-77068352D01*
X183350000Y-76913795D01*
X183350000Y-76756205D01*
X183380743Y-76601648D01*
X183441048Y-76456059D01*
X183528601Y-76325027D01*
X183640027Y-76213601D01*
X183771059Y-76126048D01*
X183916648Y-76065743D01*
X184071205Y-76035000D01*
X184228795Y-76035000D01*
X184383352Y-76065743D01*
X184383352Y-76065743D01*
G37*
G36*
X179383352Y-76065743D02*
X179528941Y-76126048D01*
X179659973Y-76213601D01*
X179771399Y-76325027D01*
X179858952Y-76456059D01*
X179919257Y-76601648D01*
X179950000Y-76756205D01*
X179950000Y-76913795D01*
X179919257Y-77068352D01*
X179858952Y-77213941D01*
X179771399Y-77344973D01*
X179659973Y-77456399D01*
X179528941Y-77543952D01*
X179383352Y-77604257D01*
X179228795Y-77635000D01*
X179071205Y-77635000D01*
X178916648Y-77604257D01*
X178771059Y-77543952D01*
X178640027Y-77456399D01*
X178528601Y-77344973D01*
X178441048Y-77213941D01*
X178380743Y-77068352D01*
X178350000Y-76913795D01*
X178350000Y-76756205D01*
X178380743Y-76601648D01*
X178441048Y-76456059D01*
X178528601Y-76325027D01*
X178640027Y-76213601D01*
X178771059Y-76126048D01*
X178916648Y-76065743D01*
X179071205Y-76035000D01*
X179228795Y-76035000D01*
X179383352Y-76065743D01*
X179383352Y-76065743D01*
G37*
G36*
X181814183Y-76161900D02*
X181941574Y-76214668D01*
X182056225Y-76291275D01*
X182153725Y-76388775D01*
X182230332Y-76503426D01*
X182283100Y-76630817D01*
X182310000Y-76766055D01*
X182310000Y-76903945D01*
X182283100Y-77039183D01*
X182230332Y-77166574D01*
X182153725Y-77281225D01*
X182056225Y-77378725D01*
X181941574Y-77455332D01*
X181814183Y-77508100D01*
X181678945Y-77535000D01*
X181541055Y-77535000D01*
X181405817Y-77508100D01*
X181278426Y-77455332D01*
X181163775Y-77378725D01*
X181066275Y-77281225D01*
X180989668Y-77166574D01*
X180936900Y-77039183D01*
X180910000Y-76903945D01*
X180910000Y-76766055D01*
X180936900Y-76630817D01*
X180989668Y-76503426D01*
X181066275Y-76388775D01*
X181163775Y-76291275D01*
X181278426Y-76214668D01*
X181405817Y-76161900D01*
X181541055Y-76135000D01*
X181678945Y-76135000D01*
X181814183Y-76161900D01*
X181814183Y-76161900D01*
G37*
G36*
X214112649Y-73502717D02*
X214151827Y-73506576D01*
X214215012Y-73525743D01*
X214302629Y-73552321D01*
X214441608Y-73626608D01*
X214563422Y-73726578D01*
X214663392Y-73848392D01*
X214737679Y-73987371D01*
X214737679Y-73987372D01*
X214783424Y-74138173D01*
X214798870Y-74295000D01*
X214783424Y-74451827D01*
X214769508Y-74497701D01*
X214737679Y-74602629D01*
X214663392Y-74741608D01*
X214563422Y-74863422D01*
X214441608Y-74963392D01*
X214302629Y-75037679D01*
X214227227Y-75060552D01*
X214151827Y-75083424D01*
X214112649Y-75087283D01*
X214034295Y-75095000D01*
X213955705Y-75095000D01*
X213877351Y-75087283D01*
X213838173Y-75083424D01*
X213762773Y-75060552D01*
X213687371Y-75037679D01*
X213548392Y-74963392D01*
X213426578Y-74863422D01*
X213326608Y-74741608D01*
X213252321Y-74602629D01*
X213220492Y-74497701D01*
X213206576Y-74451827D01*
X213191130Y-74295000D01*
X213206576Y-74138173D01*
X213252321Y-73987372D01*
X213252321Y-73987371D01*
X213326608Y-73848392D01*
X213426578Y-73726578D01*
X213548392Y-73626608D01*
X213687371Y-73552321D01*
X213774988Y-73525743D01*
X213838173Y-73506576D01*
X213877351Y-73502717D01*
X213955705Y-73495000D01*
X214034295Y-73495000D01*
X214112649Y-73502717D01*
X214112649Y-73502717D01*
G37*
G36*
X229468352Y-73525743D02*
X229613941Y-73586048D01*
X229744973Y-73673601D01*
X229856399Y-73785027D01*
X229943952Y-73916059D01*
X230004257Y-74061648D01*
X230035000Y-74216205D01*
X230035000Y-74373795D01*
X230004257Y-74528352D01*
X229943952Y-74673941D01*
X229856399Y-74804973D01*
X229744973Y-74916399D01*
X229613941Y-75003952D01*
X229468352Y-75064257D01*
X229313795Y-75095000D01*
X229156205Y-75095000D01*
X229001648Y-75064257D01*
X228856059Y-75003952D01*
X228725027Y-74916399D01*
X228613601Y-74804973D01*
X228526048Y-74673941D01*
X228465743Y-74528352D01*
X228435000Y-74373795D01*
X228435000Y-74216205D01*
X228465743Y-74061648D01*
X228526048Y-73916059D01*
X228613601Y-73785027D01*
X228725027Y-73673601D01*
X228856059Y-73586048D01*
X229001648Y-73525743D01*
X229156205Y-73495000D01*
X229313795Y-73495000D01*
X229468352Y-73525743D01*
X229468352Y-73525743D01*
G37*
G36*
X170346630Y-72822299D02*
X170506855Y-72870903D01*
X170654520Y-72949831D01*
X170783949Y-73056051D01*
X170890169Y-73185480D01*
X170969097Y-73333145D01*
X171017701Y-73493370D01*
X171034112Y-73660000D01*
X171017701Y-73826630D01*
X170969097Y-73986855D01*
X170890169Y-74134520D01*
X170783949Y-74263949D01*
X170654520Y-74370169D01*
X170506855Y-74449097D01*
X170346630Y-74497701D01*
X170221752Y-74510000D01*
X170138248Y-74510000D01*
X170013370Y-74497701D01*
X169853145Y-74449097D01*
X169705480Y-74370169D01*
X169576051Y-74263949D01*
X169469831Y-74134520D01*
X169390903Y-73986855D01*
X169342299Y-73826630D01*
X169325888Y-73660000D01*
X169342299Y-73493370D01*
X169390903Y-73333145D01*
X169469831Y-73185480D01*
X169576051Y-73056051D01*
X169705480Y-72949831D01*
X169853145Y-72870903D01*
X170013370Y-72822299D01*
X170138248Y-72810000D01*
X170221752Y-72810000D01*
X170346630Y-72822299D01*
X170346630Y-72822299D01*
G37*
G36*
X165950000Y-74510000D02*
X164250000Y-74510000D01*
X164250000Y-72810000D01*
X165950000Y-72810000D01*
X165950000Y-74510000D01*
X165950000Y-74510000D01*
G37*
G36*
X167806630Y-72822299D02*
X167966855Y-72870903D01*
X168114520Y-72949831D01*
X168243949Y-73056051D01*
X168350169Y-73185480D01*
X168429097Y-73333145D01*
X168477701Y-73493370D01*
X168494112Y-73660000D01*
X168477701Y-73826630D01*
X168429097Y-73986855D01*
X168350169Y-74134520D01*
X168243949Y-74263949D01*
X168114520Y-74370169D01*
X167966855Y-74449097D01*
X167806630Y-74497701D01*
X167681752Y-74510000D01*
X167598248Y-74510000D01*
X167473370Y-74497701D01*
X167313145Y-74449097D01*
X167165480Y-74370169D01*
X167036051Y-74263949D01*
X166929831Y-74134520D01*
X166850903Y-73986855D01*
X166802299Y-73826630D01*
X166785888Y-73660000D01*
X166802299Y-73493370D01*
X166850903Y-73333145D01*
X166929831Y-73185480D01*
X167036051Y-73056051D01*
X167165480Y-72949831D01*
X167313145Y-72870903D01*
X167473370Y-72822299D01*
X167598248Y-72810000D01*
X167681752Y-72810000D01*
X167806630Y-72822299D01*
X167806630Y-72822299D01*
G37*
G36*
X206608352Y-71620743D02*
X206753941Y-71681048D01*
X206884973Y-71768601D01*
X206996399Y-71880027D01*
X207083952Y-72011059D01*
X207144257Y-72156648D01*
X207175000Y-72311205D01*
X207175000Y-72468795D01*
X207144257Y-72623352D01*
X207083952Y-72768941D01*
X206996399Y-72899973D01*
X206884973Y-73011399D01*
X206753941Y-73098952D01*
X206608352Y-73159257D01*
X206453795Y-73190000D01*
X206296205Y-73190000D01*
X206141648Y-73159257D01*
X205996059Y-73098952D01*
X205865027Y-73011399D01*
X205753601Y-72899973D01*
X205666048Y-72768941D01*
X205605743Y-72623352D01*
X205575000Y-72468795D01*
X205575000Y-72311205D01*
X205605743Y-72156648D01*
X205666048Y-72011059D01*
X205753601Y-71880027D01*
X205865027Y-71768601D01*
X205996059Y-71681048D01*
X206141648Y-71620743D01*
X206296205Y-71590000D01*
X206453795Y-71590000D01*
X206608352Y-71620743D01*
X206608352Y-71620743D01*
G37*
G36*
X204068352Y-71620743D02*
X204213941Y-71681048D01*
X204344973Y-71768601D01*
X204456399Y-71880027D01*
X204543952Y-72011059D01*
X204604257Y-72156648D01*
X204635000Y-72311205D01*
X204635000Y-72468795D01*
X204604257Y-72623352D01*
X204543952Y-72768941D01*
X204456399Y-72899973D01*
X204344973Y-73011399D01*
X204213941Y-73098952D01*
X204068352Y-73159257D01*
X203913795Y-73190000D01*
X203756205Y-73190000D01*
X203601648Y-73159257D01*
X203456059Y-73098952D01*
X203325027Y-73011399D01*
X203213601Y-72899973D01*
X203126048Y-72768941D01*
X203065743Y-72623352D01*
X203035000Y-72468795D01*
X203035000Y-72311205D01*
X203065743Y-72156648D01*
X203126048Y-72011059D01*
X203213601Y-71880027D01*
X203325027Y-71768601D01*
X203456059Y-71681048D01*
X203601648Y-71620743D01*
X203756205Y-71590000D01*
X203913795Y-71590000D01*
X204068352Y-71620743D01*
X204068352Y-71620743D01*
G37*
G36*
X199108352Y-71620743D02*
X199253941Y-71681048D01*
X199384973Y-71768601D01*
X199496399Y-71880027D01*
X199583952Y-72011059D01*
X199644257Y-72156648D01*
X199675000Y-72311205D01*
X199675000Y-72468795D01*
X199644257Y-72623352D01*
X199583952Y-72768941D01*
X199496399Y-72899973D01*
X199384973Y-73011399D01*
X199253941Y-73098952D01*
X199108352Y-73159257D01*
X198953795Y-73190000D01*
X198756205Y-73190000D01*
X198601648Y-73159257D01*
X198456059Y-73098952D01*
X198325027Y-73011399D01*
X198213601Y-72899973D01*
X198126048Y-72768941D01*
X198065743Y-72623352D01*
X198035000Y-72468795D01*
X198035000Y-72311205D01*
X198065743Y-72156648D01*
X198126048Y-72011059D01*
X198213601Y-71880027D01*
X198325027Y-71768601D01*
X198456059Y-71681048D01*
X198601648Y-71620743D01*
X198756205Y-71590000D01*
X198953795Y-71590000D01*
X199108352Y-71620743D01*
X199108352Y-71620743D01*
G37*
G36*
X179187649Y-71597717D02*
X179226827Y-71601576D01*
X179290012Y-71620743D01*
X179377629Y-71647321D01*
X179516608Y-71721608D01*
X179638422Y-71821578D01*
X179738392Y-71943392D01*
X179812679Y-72082371D01*
X179858424Y-72233174D01*
X179873870Y-72390000D01*
X179858424Y-72546826D01*
X179812679Y-72697629D01*
X179738392Y-72836608D01*
X179638422Y-72958422D01*
X179516608Y-73058392D01*
X179377629Y-73132679D01*
X179302228Y-73155551D01*
X179226827Y-73178424D01*
X179187649Y-73182283D01*
X179109295Y-73190000D01*
X179030705Y-73190000D01*
X178952351Y-73182283D01*
X178913173Y-73178424D01*
X178837772Y-73155551D01*
X178762371Y-73132679D01*
X178623392Y-73058392D01*
X178501578Y-72958422D01*
X178401608Y-72836608D01*
X178327321Y-72697629D01*
X178281576Y-72546826D01*
X178266130Y-72390000D01*
X178281576Y-72233174D01*
X178327321Y-72082371D01*
X178401608Y-71943392D01*
X178501578Y-71821578D01*
X178623392Y-71721608D01*
X178762371Y-71647321D01*
X178849988Y-71620743D01*
X178913173Y-71601576D01*
X178952351Y-71597717D01*
X179030705Y-71590000D01*
X179109295Y-71590000D01*
X179187649Y-71597717D01*
X179187649Y-71597717D01*
G37*
G36*
X194543352Y-71620743D02*
X194688941Y-71681048D01*
X194819973Y-71768601D01*
X194931399Y-71880027D01*
X195018952Y-72011059D01*
X195079257Y-72156648D01*
X195110000Y-72311205D01*
X195110000Y-72468795D01*
X195079257Y-72623352D01*
X195018952Y-72768941D01*
X194931399Y-72899973D01*
X194819973Y-73011399D01*
X194688941Y-73098952D01*
X194543352Y-73159257D01*
X194388795Y-73190000D01*
X194231205Y-73190000D01*
X194076648Y-73159257D01*
X193931059Y-73098952D01*
X193800027Y-73011399D01*
X193688601Y-72899973D01*
X193601048Y-72768941D01*
X193540743Y-72623352D01*
X193510000Y-72468795D01*
X193510000Y-72311205D01*
X193540743Y-72156648D01*
X193601048Y-72011059D01*
X193688601Y-71880027D01*
X193800027Y-71768601D01*
X193931059Y-71681048D01*
X194076648Y-71620743D01*
X194231205Y-71590000D01*
X194388795Y-71590000D01*
X194543352Y-71620743D01*
X194543352Y-71620743D01*
G37*
G36*
X201459183Y-71716900D02*
X201586574Y-71769668D01*
X201701225Y-71846275D01*
X201798725Y-71943775D01*
X201875332Y-72058426D01*
X201928100Y-72185817D01*
X201955000Y-72321055D01*
X201955000Y-72458945D01*
X201928100Y-72594183D01*
X201875332Y-72721574D01*
X201808030Y-72822300D01*
X201798725Y-72836225D01*
X201701225Y-72933725D01*
X201586574Y-73010332D01*
X201459183Y-73063100D01*
X201323945Y-73090000D01*
X201186055Y-73090000D01*
X201050817Y-73063100D01*
X200923426Y-73010332D01*
X200808775Y-72933725D01*
X200711275Y-72836225D01*
X200701971Y-72822300D01*
X200634668Y-72721574D01*
X200581900Y-72594183D01*
X200555000Y-72458945D01*
X200555000Y-72321055D01*
X200581900Y-72185817D01*
X200634668Y-72058426D01*
X200711275Y-71943775D01*
X200808775Y-71846275D01*
X200923426Y-71769668D01*
X201050817Y-71716900D01*
X201186055Y-71690000D01*
X201323945Y-71690000D01*
X201459183Y-71716900D01*
X201459183Y-71716900D01*
G37*
G36*
X207878352Y-66540743D02*
X208023941Y-66601048D01*
X208154973Y-66688601D01*
X208266399Y-66800027D01*
X208353952Y-66931059D01*
X208414257Y-67076648D01*
X208445000Y-67231205D01*
X208445000Y-67388795D01*
X208414257Y-67543352D01*
X208353952Y-67688941D01*
X208266399Y-67819973D01*
X208154973Y-67931399D01*
X208023941Y-68018952D01*
X207878352Y-68079257D01*
X207723795Y-68110000D01*
X207566205Y-68110000D01*
X207411648Y-68079257D01*
X207266059Y-68018952D01*
X207135027Y-67931399D01*
X207023601Y-67819973D01*
X206936048Y-67688941D01*
X206875743Y-67543352D01*
X206845000Y-67388795D01*
X206845000Y-67231205D01*
X206875743Y-67076648D01*
X206936048Y-66931059D01*
X207023601Y-66800027D01*
X207135027Y-66688601D01*
X207266059Y-66601048D01*
X207411648Y-66540743D01*
X207566205Y-66510000D01*
X207723795Y-66510000D01*
X207878352Y-66540743D01*
X207878352Y-66540743D01*
G37*
G36*
X192522649Y-66517717D02*
X192561827Y-66521576D01*
X192625012Y-66540743D01*
X192712629Y-66567321D01*
X192851608Y-66641608D01*
X192973422Y-66741578D01*
X193073392Y-66863392D01*
X193147679Y-67002371D01*
X193147679Y-67002372D01*
X193193424Y-67153173D01*
X193208870Y-67310000D01*
X193193424Y-67466827D01*
X193170552Y-67542227D01*
X193147679Y-67617629D01*
X193073392Y-67756608D01*
X192973422Y-67878422D01*
X192851608Y-67978392D01*
X192712629Y-68052679D01*
X192637227Y-68075552D01*
X192561827Y-68098424D01*
X192522649Y-68102283D01*
X192444295Y-68110000D01*
X192365705Y-68110000D01*
X192287351Y-68102283D01*
X192248173Y-68098424D01*
X192172773Y-68075552D01*
X192097371Y-68052679D01*
X191958392Y-67978392D01*
X191836578Y-67878422D01*
X191736608Y-67756608D01*
X191662321Y-67617629D01*
X191639448Y-67542227D01*
X191616576Y-67466827D01*
X191601130Y-67310000D01*
X191616576Y-67153173D01*
X191662321Y-67002372D01*
X191662321Y-67002371D01*
X191736608Y-66863392D01*
X191836578Y-66741578D01*
X191958392Y-66641608D01*
X192097371Y-66567321D01*
X192184988Y-66540743D01*
X192248173Y-66521576D01*
X192287351Y-66517717D01*
X192365705Y-66510000D01*
X192444295Y-66510000D01*
X192522649Y-66517717D01*
X192522649Y-66517717D01*
G37*
G36*
X214112649Y-65882717D02*
X214151827Y-65886576D01*
X214215012Y-65905743D01*
X214302629Y-65932321D01*
X214441608Y-66006608D01*
X214563422Y-66106578D01*
X214663392Y-66228392D01*
X214737679Y-66367371D01*
X214737679Y-66367372D01*
X214783424Y-66518173D01*
X214795581Y-66641607D01*
X214798870Y-66675000D01*
X214783424Y-66831826D01*
X214737679Y-66982629D01*
X214663392Y-67121608D01*
X214563422Y-67243422D01*
X214441608Y-67343392D01*
X214302629Y-67417679D01*
X214227228Y-67440551D01*
X214151827Y-67463424D01*
X214117286Y-67466826D01*
X214034295Y-67475000D01*
X213955705Y-67475000D01*
X213872714Y-67466826D01*
X213838173Y-67463424D01*
X213762773Y-67440552D01*
X213687371Y-67417679D01*
X213548392Y-67343392D01*
X213426578Y-67243422D01*
X213326608Y-67121608D01*
X213252321Y-66982629D01*
X213206576Y-66831826D01*
X213191130Y-66675000D01*
X213194419Y-66641607D01*
X213206576Y-66518173D01*
X213252321Y-66367372D01*
X213252321Y-66367371D01*
X213326608Y-66228392D01*
X213426578Y-66106578D01*
X213548392Y-66006608D01*
X213687371Y-65932321D01*
X213774988Y-65905743D01*
X213838173Y-65886576D01*
X213877351Y-65882717D01*
X213955705Y-65875000D01*
X214034295Y-65875000D01*
X214112649Y-65882717D01*
X214112649Y-65882717D01*
G37*
G36*
X229468352Y-65905743D02*
X229613941Y-65966048D01*
X229744973Y-66053601D01*
X229856399Y-66165027D01*
X229943952Y-66296059D01*
X230004257Y-66441648D01*
X230035000Y-66596205D01*
X230035000Y-66753795D01*
X230004257Y-66908352D01*
X229943952Y-67053941D01*
X229856399Y-67184973D01*
X229744973Y-67296399D01*
X229613941Y-67383952D01*
X229468352Y-67444257D01*
X229313795Y-67475000D01*
X229156205Y-67475000D01*
X229001648Y-67444257D01*
X228856059Y-67383952D01*
X228725027Y-67296399D01*
X228613601Y-67184973D01*
X228526048Y-67053941D01*
X228465743Y-66908352D01*
X228435000Y-66753795D01*
X228435000Y-66596205D01*
X228465743Y-66441648D01*
X228526048Y-66296059D01*
X228613601Y-66165027D01*
X228725027Y-66053601D01*
X228856059Y-65966048D01*
X229001648Y-65905743D01*
X229156205Y-65875000D01*
X229313795Y-65875000D01*
X229468352Y-65905743D01*
X229468352Y-65905743D01*
G37*
G36*
X187442649Y-64612717D02*
X187481827Y-64616576D01*
X187557227Y-64639448D01*
X187632629Y-64662321D01*
X187771608Y-64736608D01*
X187893422Y-64836578D01*
X187993392Y-64958392D01*
X188067679Y-65097371D01*
X188113424Y-65248174D01*
X188128870Y-65405000D01*
X188113424Y-65561826D01*
X188067679Y-65712629D01*
X187993392Y-65851608D01*
X187893422Y-65973422D01*
X187771608Y-66073392D01*
X187632629Y-66147679D01*
X187557228Y-66170551D01*
X187481827Y-66193424D01*
X187442649Y-66197283D01*
X187364295Y-66205000D01*
X187285705Y-66205000D01*
X187207351Y-66197283D01*
X187168173Y-66193424D01*
X187092773Y-66170552D01*
X187017371Y-66147679D01*
X186878392Y-66073392D01*
X186756578Y-65973422D01*
X186656608Y-65851608D01*
X186582321Y-65712629D01*
X186536576Y-65561826D01*
X186521130Y-65405000D01*
X186536576Y-65248174D01*
X186582321Y-65097371D01*
X186656608Y-64958392D01*
X186756578Y-64836578D01*
X186878392Y-64736608D01*
X187017371Y-64662321D01*
X187092773Y-64639448D01*
X187168173Y-64616576D01*
X187207351Y-64612717D01*
X187285705Y-64605000D01*
X187364295Y-64605000D01*
X187442649Y-64612717D01*
X187442649Y-64612717D01*
G37*
G36*
X162091630Y-63297299D02*
X162251855Y-63345903D01*
X162399520Y-63424831D01*
X162528949Y-63531051D01*
X162635169Y-63660480D01*
X162714097Y-63808145D01*
X162762701Y-63968370D01*
X162779112Y-64135000D01*
X162762701Y-64301630D01*
X162714097Y-64461855D01*
X162635169Y-64609520D01*
X162528949Y-64738949D01*
X162399520Y-64845169D01*
X162251855Y-64924097D01*
X162091630Y-64972701D01*
X161966752Y-64985000D01*
X161883248Y-64985000D01*
X161758370Y-64972701D01*
X161598145Y-64924097D01*
X161450480Y-64845169D01*
X161321051Y-64738949D01*
X161214831Y-64609520D01*
X161135903Y-64461855D01*
X161087299Y-64301630D01*
X161070888Y-64135000D01*
X161087299Y-63968370D01*
X161135903Y-63808145D01*
X161214831Y-63660480D01*
X161321051Y-63531051D01*
X161450480Y-63424831D01*
X161598145Y-63345903D01*
X161758370Y-63297299D01*
X161883248Y-63285000D01*
X161966752Y-63285000D01*
X162091630Y-63297299D01*
X162091630Y-63297299D01*
G37*
G36*
X174155000Y-64855000D02*
X172555000Y-64855000D01*
X172555000Y-63255000D01*
X174155000Y-63255000D01*
X174155000Y-64855000D01*
X174155000Y-64855000D01*
G37*
G36*
X162091630Y-60757299D02*
X162251855Y-60805903D01*
X162399520Y-60884831D01*
X162528949Y-60991051D01*
X162635169Y-61120480D01*
X162714097Y-61268145D01*
X162762701Y-61428370D01*
X162779112Y-61595000D01*
X162762701Y-61761630D01*
X162714097Y-61921855D01*
X162635169Y-62069520D01*
X162528949Y-62198949D01*
X162399520Y-62305169D01*
X162251855Y-62384097D01*
X162091630Y-62432701D01*
X161966752Y-62445000D01*
X161883248Y-62445000D01*
X161758370Y-62432701D01*
X161598145Y-62384097D01*
X161450480Y-62305169D01*
X161321051Y-62198949D01*
X161214831Y-62069520D01*
X161135903Y-61921855D01*
X161087299Y-61761630D01*
X161070888Y-61595000D01*
X161087299Y-61428370D01*
X161135903Y-61268145D01*
X161214831Y-61120480D01*
X161321051Y-60991051D01*
X161450480Y-60884831D01*
X161598145Y-60805903D01*
X161758370Y-60757299D01*
X161883248Y-60745000D01*
X161966752Y-60745000D01*
X162091630Y-60757299D01*
X162091630Y-60757299D01*
G37*
G36*
X199546826Y-59771576D02*
X199622226Y-59794448D01*
X199697628Y-59817321D01*
X199836604Y-59891606D01*
X199836606Y-59891607D01*
X199836605Y-59891607D01*
X199958422Y-59991578D01*
X199958423Y-59991580D01*
X199958425Y-59991581D01*
X200058392Y-60113392D01*
X200132679Y-60252371D01*
X200153783Y-60321944D01*
X200178424Y-60403173D01*
X200190000Y-60520707D01*
X200190000Y-61399293D01*
X200178424Y-61516827D01*
X200155552Y-61592227D01*
X200132679Y-61667629D01*
X200058392Y-61806608D01*
X199958422Y-61928422D01*
X199836608Y-62028392D01*
X199697629Y-62102679D01*
X199622227Y-62125552D01*
X199546827Y-62148424D01*
X199390000Y-62163870D01*
X199233174Y-62148424D01*
X199157774Y-62125552D01*
X199082372Y-62102679D01*
X198943393Y-62028392D01*
X198821579Y-61928422D01*
X198721609Y-61806608D01*
X198647322Y-61667629D01*
X198624449Y-61592227D01*
X198601577Y-61516827D01*
X198590000Y-61399293D01*
X198590000Y-60520708D01*
X198591939Y-60501025D01*
X198601576Y-60403175D01*
X198601577Y-60403173D01*
X198647321Y-60252373D01*
X198647321Y-60252372D01*
X198721606Y-60113396D01*
X198821576Y-59991581D01*
X198821578Y-59991578D01*
X198821580Y-59991577D01*
X198821581Y-59991575D01*
X198943392Y-59891608D01*
X199082371Y-59817321D01*
X199157772Y-59794449D01*
X199233173Y-59771576D01*
X199390000Y-59756130D01*
X199546826Y-59771576D01*
X199546826Y-59771576D01*
G37*
G36*
X197006826Y-59771576D02*
X197082226Y-59794448D01*
X197157628Y-59817321D01*
X197296604Y-59891606D01*
X197296606Y-59891607D01*
X197296605Y-59891607D01*
X197418422Y-59991578D01*
X197418423Y-59991580D01*
X197418425Y-59991581D01*
X197518392Y-60113392D01*
X197592679Y-60252371D01*
X197613783Y-60321944D01*
X197638424Y-60403173D01*
X197650000Y-60520707D01*
X197650000Y-61399293D01*
X197638424Y-61516827D01*
X197615552Y-61592227D01*
X197592679Y-61667629D01*
X197518392Y-61806608D01*
X197418422Y-61928422D01*
X197296608Y-62028392D01*
X197157629Y-62102679D01*
X197082227Y-62125552D01*
X197006827Y-62148424D01*
X196850000Y-62163870D01*
X196693174Y-62148424D01*
X196617774Y-62125552D01*
X196542372Y-62102679D01*
X196403393Y-62028392D01*
X196281579Y-61928422D01*
X196181609Y-61806608D01*
X196107322Y-61667629D01*
X196084449Y-61592227D01*
X196061577Y-61516827D01*
X196050000Y-61399293D01*
X196050000Y-60520708D01*
X196051939Y-60501025D01*
X196061576Y-60403175D01*
X196061577Y-60403173D01*
X196107321Y-60252373D01*
X196107321Y-60252372D01*
X196181606Y-60113396D01*
X196281576Y-59991581D01*
X196281578Y-59991578D01*
X196281580Y-59991577D01*
X196281581Y-59991575D01*
X196403392Y-59891608D01*
X196542371Y-59817321D01*
X196617772Y-59794449D01*
X196693173Y-59771576D01*
X196850000Y-59756130D01*
X197006826Y-59771576D01*
X197006826Y-59771576D01*
G37*
G36*
X202086826Y-59771576D02*
X202162226Y-59794448D01*
X202237628Y-59817321D01*
X202376604Y-59891606D01*
X202376606Y-59891607D01*
X202376605Y-59891607D01*
X202498422Y-59991578D01*
X202498423Y-59991580D01*
X202498425Y-59991581D01*
X202598392Y-60113392D01*
X202672679Y-60252371D01*
X202693783Y-60321944D01*
X202718424Y-60403173D01*
X202730000Y-60520707D01*
X202730000Y-61399293D01*
X202718424Y-61516827D01*
X202695552Y-61592227D01*
X202672679Y-61667629D01*
X202598392Y-61806608D01*
X202498422Y-61928422D01*
X202376608Y-62028392D01*
X202237629Y-62102679D01*
X202162227Y-62125552D01*
X202086827Y-62148424D01*
X201930000Y-62163870D01*
X201773174Y-62148424D01*
X201697774Y-62125552D01*
X201622372Y-62102679D01*
X201483393Y-62028392D01*
X201361579Y-61928422D01*
X201261609Y-61806608D01*
X201187322Y-61667629D01*
X201164449Y-61592227D01*
X201141577Y-61516827D01*
X201130000Y-61399293D01*
X201130000Y-60520708D01*
X201131939Y-60501025D01*
X201141576Y-60403175D01*
X201141577Y-60403173D01*
X201187321Y-60252373D01*
X201187321Y-60252372D01*
X201261606Y-60113396D01*
X201361576Y-59991581D01*
X201361578Y-59991578D01*
X201361580Y-59991577D01*
X201361581Y-59991575D01*
X201483392Y-59891608D01*
X201622371Y-59817321D01*
X201697772Y-59794449D01*
X201773173Y-59771576D01*
X201930000Y-59756130D01*
X202086826Y-59771576D01*
X202086826Y-59771576D01*
G37*
G36*
X204626826Y-59771576D02*
X204702226Y-59794448D01*
X204777628Y-59817321D01*
X204916604Y-59891606D01*
X204916606Y-59891607D01*
X204916605Y-59891607D01*
X205038422Y-59991578D01*
X205038423Y-59991580D01*
X205038425Y-59991581D01*
X205138392Y-60113392D01*
X205212679Y-60252371D01*
X205233783Y-60321944D01*
X205258424Y-60403173D01*
X205270000Y-60520707D01*
X205270000Y-61399293D01*
X205258424Y-61516827D01*
X205235552Y-61592227D01*
X205212679Y-61667629D01*
X205138392Y-61806608D01*
X205038422Y-61928422D01*
X204916608Y-62028392D01*
X204777629Y-62102679D01*
X204702227Y-62125552D01*
X204626827Y-62148424D01*
X204470000Y-62163870D01*
X204313174Y-62148424D01*
X204237774Y-62125552D01*
X204162372Y-62102679D01*
X204023393Y-62028392D01*
X203901579Y-61928422D01*
X203801609Y-61806608D01*
X203727322Y-61667629D01*
X203704449Y-61592227D01*
X203681577Y-61516827D01*
X203670000Y-61399293D01*
X203670000Y-60520708D01*
X203671939Y-60501025D01*
X203681576Y-60403175D01*
X203681577Y-60403173D01*
X203727321Y-60252373D01*
X203727321Y-60252372D01*
X203801606Y-60113396D01*
X203901576Y-59991581D01*
X203901578Y-59991578D01*
X203901580Y-59991577D01*
X203901581Y-59991575D01*
X204023392Y-59891608D01*
X204162371Y-59817321D01*
X204237772Y-59794449D01*
X204313173Y-59771576D01*
X204470000Y-59756130D01*
X204626826Y-59771576D01*
X204626826Y-59771576D01*
G37*
G36*
X207166826Y-59771576D02*
X207242226Y-59794448D01*
X207317628Y-59817321D01*
X207456604Y-59891606D01*
X207456606Y-59891607D01*
X207456605Y-59891607D01*
X207578422Y-59991578D01*
X207578423Y-59991580D01*
X207578425Y-59991581D01*
X207678392Y-60113392D01*
X207752679Y-60252371D01*
X207773783Y-60321944D01*
X207798424Y-60403173D01*
X207810000Y-60520707D01*
X207810000Y-61399293D01*
X207798424Y-61516827D01*
X207775552Y-61592227D01*
X207752679Y-61667629D01*
X207678392Y-61806608D01*
X207578422Y-61928422D01*
X207456608Y-62028392D01*
X207317629Y-62102679D01*
X207242227Y-62125552D01*
X207166827Y-62148424D01*
X207010000Y-62163870D01*
X206853174Y-62148424D01*
X206777774Y-62125552D01*
X206702372Y-62102679D01*
X206563393Y-62028392D01*
X206441579Y-61928422D01*
X206341609Y-61806608D01*
X206267322Y-61667629D01*
X206244449Y-61592227D01*
X206221577Y-61516827D01*
X206210000Y-61399293D01*
X206210000Y-60520708D01*
X206211939Y-60501025D01*
X206221576Y-60403175D01*
X206221577Y-60403173D01*
X206267321Y-60252373D01*
X206267321Y-60252372D01*
X206341606Y-60113396D01*
X206441576Y-59991581D01*
X206441578Y-59991578D01*
X206441580Y-59991577D01*
X206441581Y-59991575D01*
X206563392Y-59891608D01*
X206702371Y-59817321D01*
X206777772Y-59794449D01*
X206853173Y-59771576D01*
X207010000Y-59756130D01*
X207166826Y-59771576D01*
X207166826Y-59771576D01*
G37*
G36*
X194466826Y-59771576D02*
X194542226Y-59794448D01*
X194617628Y-59817321D01*
X194756604Y-59891606D01*
X194756606Y-59891607D01*
X194756605Y-59891607D01*
X194878422Y-59991578D01*
X194878423Y-59991580D01*
X194878425Y-59991581D01*
X194978392Y-60113392D01*
X195052679Y-60252371D01*
X195073783Y-60321944D01*
X195098424Y-60403173D01*
X195110000Y-60520707D01*
X195110000Y-61399293D01*
X195098424Y-61516827D01*
X195075552Y-61592227D01*
X195052679Y-61667629D01*
X194978392Y-61806608D01*
X194878422Y-61928422D01*
X194756608Y-62028392D01*
X194617629Y-62102679D01*
X194542227Y-62125552D01*
X194466827Y-62148424D01*
X194310000Y-62163870D01*
X194153174Y-62148424D01*
X194077774Y-62125552D01*
X194002372Y-62102679D01*
X193863393Y-62028392D01*
X193741579Y-61928422D01*
X193641609Y-61806608D01*
X193567322Y-61667629D01*
X193544449Y-61592227D01*
X193521577Y-61516827D01*
X193510000Y-61399293D01*
X193510000Y-60520708D01*
X193511939Y-60501025D01*
X193521576Y-60403175D01*
X193521577Y-60403173D01*
X193567321Y-60252373D01*
X193567321Y-60252372D01*
X193641606Y-60113396D01*
X193741576Y-59991581D01*
X193741578Y-59991578D01*
X193741580Y-59991577D01*
X193741581Y-59991575D01*
X193863392Y-59891608D01*
X194002371Y-59817321D01*
X194077772Y-59794449D01*
X194153173Y-59771576D01*
X194310000Y-59756130D01*
X194466826Y-59771576D01*
X194466826Y-59771576D01*
G37*
G36*
X192570000Y-62160000D02*
X190970000Y-62160000D01*
X190970000Y-59760000D01*
X192570000Y-59760000D01*
X192570000Y-62160000D01*
X192570000Y-62160000D01*
G37*
G36*
X217380015Y-60267668D02*
X217511049Y-60321944D01*
X217628975Y-60400740D01*
X217729260Y-60501025D01*
X217808056Y-60618951D01*
X217862332Y-60749985D01*
X217890000Y-60889085D01*
X217890000Y-61030915D01*
X217862332Y-61170015D01*
X217808056Y-61301049D01*
X217729260Y-61418975D01*
X217628975Y-61519260D01*
X217511049Y-61598056D01*
X217380015Y-61652332D01*
X217240915Y-61680000D01*
X217099085Y-61680000D01*
X216959985Y-61652332D01*
X216828951Y-61598056D01*
X216711025Y-61519260D01*
X216610740Y-61418975D01*
X216531944Y-61301049D01*
X216477668Y-61170015D01*
X216450000Y-61030915D01*
X216450000Y-60889085D01*
X216477668Y-60749985D01*
X216531944Y-60618951D01*
X216610740Y-60501025D01*
X216711025Y-60400740D01*
X216828951Y-60321944D01*
X216959985Y-60267668D01*
X217099085Y-60240000D01*
X217240915Y-60240000D01*
X217380015Y-60267668D01*
X217380015Y-60267668D01*
G37*
G36*
X219920015Y-60267668D02*
X220051049Y-60321944D01*
X220168975Y-60400740D01*
X220269260Y-60501025D01*
X220348056Y-60618951D01*
X220402332Y-60749985D01*
X220430000Y-60889085D01*
X220430000Y-61030915D01*
X220402332Y-61170015D01*
X220348056Y-61301049D01*
X220269260Y-61418975D01*
X220168975Y-61519260D01*
X220051049Y-61598056D01*
X219920015Y-61652332D01*
X219780915Y-61680000D01*
X219639085Y-61680000D01*
X219499985Y-61652332D01*
X219368951Y-61598056D01*
X219251025Y-61519260D01*
X219150740Y-61418975D01*
X219071944Y-61301049D01*
X219017668Y-61170015D01*
X218990000Y-61030915D01*
X218990000Y-60889085D01*
X219017668Y-60749985D01*
X219071944Y-60618951D01*
X219150740Y-60501025D01*
X219251025Y-60400740D01*
X219368951Y-60321944D01*
X219499985Y-60267668D01*
X219639085Y-60240000D01*
X219780915Y-60240000D01*
X219920015Y-60267668D01*
X219920015Y-60267668D01*
G37*
G36*
X214840015Y-60267668D02*
X214971049Y-60321944D01*
X215088975Y-60400740D01*
X215189260Y-60501025D01*
X215268056Y-60618951D01*
X215322332Y-60749985D01*
X215350000Y-60889085D01*
X215350000Y-61030915D01*
X215322332Y-61170015D01*
X215268056Y-61301049D01*
X215189260Y-61418975D01*
X215088975Y-61519260D01*
X214971049Y-61598056D01*
X214840015Y-61652332D01*
X214700915Y-61680000D01*
X214559085Y-61680000D01*
X214419985Y-61652332D01*
X214288951Y-61598056D01*
X214171025Y-61519260D01*
X214070740Y-61418975D01*
X213991944Y-61301049D01*
X213937668Y-61170015D01*
X213910000Y-61030915D01*
X213910000Y-60889085D01*
X213937668Y-60749985D01*
X213991944Y-60618951D01*
X214070740Y-60501025D01*
X214171025Y-60400740D01*
X214288951Y-60321944D01*
X214419985Y-60267668D01*
X214559085Y-60240000D01*
X214700915Y-60240000D01*
X214840015Y-60267668D01*
X214840015Y-60267668D01*
G37*
G36*
X162091630Y-58217299D02*
X162251855Y-58265903D01*
X162399520Y-58344831D01*
X162528949Y-58451051D01*
X162635169Y-58580480D01*
X162714097Y-58728145D01*
X162762701Y-58888370D01*
X162779112Y-59055000D01*
X162762701Y-59221630D01*
X162714097Y-59381855D01*
X162635169Y-59529520D01*
X162528949Y-59658949D01*
X162399520Y-59765169D01*
X162251855Y-59844097D01*
X162091630Y-59892701D01*
X161966752Y-59905000D01*
X161883248Y-59905000D01*
X161758370Y-59892701D01*
X161598145Y-59844097D01*
X161450480Y-59765169D01*
X161321051Y-59658949D01*
X161214831Y-59529520D01*
X161135903Y-59381855D01*
X161087299Y-59221630D01*
X161070888Y-59055000D01*
X161087299Y-58888370D01*
X161135903Y-58728145D01*
X161214831Y-58580480D01*
X161321051Y-58451051D01*
X161450480Y-58344831D01*
X161598145Y-58265903D01*
X161758370Y-58217299D01*
X161883248Y-58205000D01*
X161966752Y-58205000D01*
X162091630Y-58217299D01*
X162091630Y-58217299D01*
G37*
G36*
X173588352Y-58285743D02*
X173733941Y-58346048D01*
X173864973Y-58433601D01*
X173976399Y-58545027D01*
X174063952Y-58676059D01*
X174124257Y-58821648D01*
X174155000Y-58976205D01*
X174155000Y-59133795D01*
X174124257Y-59288352D01*
X174063952Y-59433941D01*
X173976399Y-59564973D01*
X173864973Y-59676399D01*
X173733941Y-59763952D01*
X173588352Y-59824257D01*
X173433795Y-59855000D01*
X173276205Y-59855000D01*
X173121648Y-59824257D01*
X172976059Y-59763952D01*
X172845027Y-59676399D01*
X172733601Y-59564973D01*
X172646048Y-59433941D01*
X172585743Y-59288352D01*
X172555000Y-59133795D01*
X172555000Y-58976205D01*
X172585743Y-58821648D01*
X172646048Y-58676059D01*
X172733601Y-58545027D01*
X172845027Y-58433601D01*
X172976059Y-58346048D01*
X173121648Y-58285743D01*
X173276205Y-58255000D01*
X173433795Y-58255000D01*
X173588352Y-58285743D01*
X173588352Y-58285743D01*
G37*
G36*
X162091630Y-55677299D02*
X162251855Y-55725903D01*
X162399520Y-55804831D01*
X162528949Y-55911051D01*
X162635169Y-56040480D01*
X162714097Y-56188145D01*
X162762701Y-56348370D01*
X162779112Y-56515000D01*
X162762701Y-56681630D01*
X162714097Y-56841855D01*
X162635169Y-56989520D01*
X162528949Y-57118949D01*
X162399520Y-57225169D01*
X162251855Y-57304097D01*
X162091630Y-57352701D01*
X161966752Y-57365000D01*
X161883248Y-57365000D01*
X161758370Y-57352701D01*
X161598145Y-57304097D01*
X161450480Y-57225169D01*
X161321051Y-57118949D01*
X161214831Y-56989520D01*
X161135903Y-56841855D01*
X161087299Y-56681630D01*
X161070888Y-56515000D01*
X161087299Y-56348370D01*
X161135903Y-56188145D01*
X161214831Y-56040480D01*
X161321051Y-55911051D01*
X161450480Y-55804831D01*
X161598145Y-55725903D01*
X161758370Y-55677299D01*
X161883248Y-55665000D01*
X161966752Y-55665000D01*
X162091630Y-55677299D01*
X162091630Y-55677299D01*
G37*
G36*
X223730015Y-54552668D02*
X223861049Y-54606944D01*
X223978975Y-54685740D01*
X224079260Y-54786025D01*
X224158056Y-54903951D01*
X224212332Y-55034985D01*
X224240000Y-55174085D01*
X224240000Y-55315915D01*
X224212332Y-55455015D01*
X224158056Y-55586049D01*
X224079260Y-55703975D01*
X223978975Y-55804260D01*
X223861049Y-55883056D01*
X223730015Y-55937332D01*
X223590915Y-55965000D01*
X223449085Y-55965000D01*
X223309985Y-55937332D01*
X223178951Y-55883056D01*
X223061025Y-55804260D01*
X222960740Y-55703975D01*
X222881944Y-55586049D01*
X222827668Y-55455015D01*
X222800000Y-55315915D01*
X222800000Y-55174085D01*
X222827668Y-55034985D01*
X222881944Y-54903951D01*
X222960740Y-54786025D01*
X223061025Y-54685740D01*
X223178951Y-54606944D01*
X223309985Y-54552668D01*
X223449085Y-54525000D01*
X223590915Y-54525000D01*
X223730015Y-54552668D01*
X223730015Y-54552668D01*
G37*
G36*
X221190015Y-54552668D02*
X221321049Y-54606944D01*
X221438975Y-54685740D01*
X221539260Y-54786025D01*
X221618056Y-54903951D01*
X221672332Y-55034985D01*
X221700000Y-55174085D01*
X221700000Y-55315915D01*
X221672332Y-55455015D01*
X221618056Y-55586049D01*
X221539260Y-55703975D01*
X221438975Y-55804260D01*
X221321049Y-55883056D01*
X221190015Y-55937332D01*
X221050915Y-55965000D01*
X220909085Y-55965000D01*
X220769985Y-55937332D01*
X220638951Y-55883056D01*
X220521025Y-55804260D01*
X220420740Y-55703975D01*
X220341944Y-55586049D01*
X220287668Y-55455015D01*
X220260000Y-55315915D01*
X220260000Y-55174085D01*
X220287668Y-55034985D01*
X220341944Y-54903951D01*
X220420740Y-54786025D01*
X220521025Y-54685740D01*
X220638951Y-54606944D01*
X220769985Y-54552668D01*
X220909085Y-54525000D01*
X221050915Y-54525000D01*
X221190015Y-54552668D01*
X221190015Y-54552668D01*
G37*
G36*
X226270015Y-54552668D02*
X226401049Y-54606944D01*
X226518975Y-54685740D01*
X226619260Y-54786025D01*
X226698056Y-54903951D01*
X226752332Y-55034985D01*
X226780000Y-55174085D01*
X226780000Y-55315915D01*
X226752332Y-55455015D01*
X226698056Y-55586049D01*
X226619260Y-55703975D01*
X226518975Y-55804260D01*
X226401049Y-55883056D01*
X226270015Y-55937332D01*
X226130915Y-55965000D01*
X225989085Y-55965000D01*
X225849985Y-55937332D01*
X225718951Y-55883056D01*
X225601025Y-55804260D01*
X225500740Y-55703975D01*
X225421944Y-55586049D01*
X225367668Y-55455015D01*
X225340000Y-55315915D01*
X225340000Y-55174085D01*
X225367668Y-55034985D01*
X225421944Y-54903951D01*
X225500740Y-54786025D01*
X225601025Y-54685740D01*
X225718951Y-54606944D01*
X225849985Y-54552668D01*
X225989085Y-54525000D01*
X226130915Y-54525000D01*
X226270015Y-54552668D01*
X226270015Y-54552668D01*
G37*
G36*
X174155000Y-55410000D02*
X172555000Y-55410000D01*
X172555000Y-53810000D01*
X174155000Y-53810000D01*
X174155000Y-55410000D01*
X174155000Y-55410000D01*
G37*
G36*
X162091630Y-53137299D02*
X162251855Y-53185903D01*
X162399520Y-53264831D01*
X162528949Y-53371051D01*
X162635169Y-53500480D01*
X162714097Y-53648145D01*
X162762701Y-53808370D01*
X162779112Y-53975000D01*
X162762701Y-54141630D01*
X162714097Y-54301855D01*
X162635169Y-54449520D01*
X162528949Y-54578949D01*
X162399520Y-54685169D01*
X162251855Y-54764097D01*
X162091630Y-54812701D01*
X161966752Y-54825000D01*
X161883248Y-54825000D01*
X161758370Y-54812701D01*
X161598145Y-54764097D01*
X161450480Y-54685169D01*
X161321051Y-54578949D01*
X161214831Y-54449520D01*
X161135903Y-54301855D01*
X161087299Y-54141630D01*
X161070888Y-53975000D01*
X161087299Y-53808370D01*
X161135903Y-53648145D01*
X161214831Y-53500480D01*
X161321051Y-53371051D01*
X161450480Y-53264831D01*
X161598145Y-53185903D01*
X161758370Y-53137299D01*
X161883248Y-53125000D01*
X161966752Y-53125000D01*
X162091630Y-53137299D01*
X162091630Y-53137299D01*
G37*
G36*
X191926826Y-52151576D02*
X192002227Y-52174449D01*
X192077628Y-52197321D01*
X192216604Y-52271606D01*
X192216606Y-52271607D01*
X192216605Y-52271607D01*
X192338422Y-52371578D01*
X192338423Y-52371580D01*
X192338425Y-52371581D01*
X192438392Y-52493392D01*
X192512679Y-52632371D01*
X192558424Y-52783174D01*
X192570000Y-52900705D01*
X192570000Y-53779295D01*
X192558424Y-53896826D01*
X192512679Y-54047629D01*
X192438392Y-54186608D01*
X192338422Y-54308422D01*
X192216608Y-54408392D01*
X192077629Y-54482679D01*
X192002227Y-54505552D01*
X191926827Y-54528424D01*
X191770000Y-54543870D01*
X191613174Y-54528424D01*
X191537774Y-54505552D01*
X191462372Y-54482679D01*
X191323393Y-54408392D01*
X191201579Y-54308422D01*
X191101609Y-54186608D01*
X191027322Y-54047629D01*
X190981577Y-53896826D01*
X190970000Y-53779294D01*
X190970000Y-52900706D01*
X190981576Y-52783175D01*
X190981577Y-52783173D01*
X191027321Y-52632373D01*
X191027321Y-52632372D01*
X191101606Y-52493396D01*
X191201576Y-52371581D01*
X191201578Y-52371578D01*
X191201580Y-52371577D01*
X191201581Y-52371575D01*
X191323392Y-52271608D01*
X191462371Y-52197321D01*
X191537773Y-52174448D01*
X191613173Y-52151576D01*
X191770000Y-52136130D01*
X191926826Y-52151576D01*
X191926826Y-52151576D01*
G37*
G36*
X194466826Y-52151576D02*
X194542227Y-52174449D01*
X194617628Y-52197321D01*
X194756604Y-52271606D01*
X194756606Y-52271607D01*
X194756605Y-52271607D01*
X194878422Y-52371578D01*
X194878423Y-52371580D01*
X194878425Y-52371581D01*
X194978392Y-52493392D01*
X195052679Y-52632371D01*
X195098424Y-52783174D01*
X195110000Y-52900705D01*
X195110000Y-53779295D01*
X195098424Y-53896826D01*
X195052679Y-54047629D01*
X194978392Y-54186608D01*
X194878422Y-54308422D01*
X194756608Y-54408392D01*
X194617629Y-54482679D01*
X194542227Y-54505552D01*
X194466827Y-54528424D01*
X194310000Y-54543870D01*
X194153174Y-54528424D01*
X194077774Y-54505552D01*
X194002372Y-54482679D01*
X193863393Y-54408392D01*
X193741579Y-54308422D01*
X193641609Y-54186608D01*
X193567322Y-54047629D01*
X193521577Y-53896826D01*
X193510000Y-53779294D01*
X193510000Y-52900706D01*
X193521576Y-52783175D01*
X193521577Y-52783173D01*
X193567321Y-52632373D01*
X193567321Y-52632372D01*
X193641606Y-52493396D01*
X193741576Y-52371581D01*
X193741578Y-52371578D01*
X193741580Y-52371577D01*
X193741581Y-52371575D01*
X193863392Y-52271608D01*
X194002371Y-52197321D01*
X194077773Y-52174448D01*
X194153173Y-52151576D01*
X194310000Y-52136130D01*
X194466826Y-52151576D01*
X194466826Y-52151576D01*
G37*
G36*
X202086826Y-52151576D02*
X202162227Y-52174449D01*
X202237628Y-52197321D01*
X202376604Y-52271606D01*
X202376606Y-52271607D01*
X202376605Y-52271607D01*
X202498422Y-52371578D01*
X202498423Y-52371580D01*
X202498425Y-52371581D01*
X202598392Y-52493392D01*
X202672679Y-52632371D01*
X202718424Y-52783174D01*
X202730000Y-52900705D01*
X202730000Y-53779295D01*
X202718424Y-53896826D01*
X202672679Y-54047629D01*
X202598392Y-54186608D01*
X202498422Y-54308422D01*
X202376608Y-54408392D01*
X202237629Y-54482679D01*
X202162227Y-54505552D01*
X202086827Y-54528424D01*
X201930000Y-54543870D01*
X201773174Y-54528424D01*
X201697774Y-54505552D01*
X201622372Y-54482679D01*
X201483393Y-54408392D01*
X201361579Y-54308422D01*
X201261609Y-54186608D01*
X201187322Y-54047629D01*
X201141577Y-53896826D01*
X201130000Y-53779294D01*
X201130000Y-52900706D01*
X201141576Y-52783175D01*
X201141577Y-52783173D01*
X201187321Y-52632373D01*
X201187321Y-52632372D01*
X201261606Y-52493396D01*
X201361576Y-52371581D01*
X201361578Y-52371578D01*
X201361580Y-52371577D01*
X201361581Y-52371575D01*
X201483392Y-52271608D01*
X201622371Y-52197321D01*
X201697773Y-52174448D01*
X201773173Y-52151576D01*
X201930000Y-52136130D01*
X202086826Y-52151576D01*
X202086826Y-52151576D01*
G37*
G36*
X197006826Y-52151576D02*
X197082227Y-52174449D01*
X197157628Y-52197321D01*
X197296604Y-52271606D01*
X197296606Y-52271607D01*
X197296605Y-52271607D01*
X197418422Y-52371578D01*
X197418423Y-52371580D01*
X197418425Y-52371581D01*
X197518392Y-52493392D01*
X197592679Y-52632371D01*
X197638424Y-52783174D01*
X197650000Y-52900705D01*
X197650000Y-53779295D01*
X197638424Y-53896826D01*
X197592679Y-54047629D01*
X197518392Y-54186608D01*
X197418422Y-54308422D01*
X197296608Y-54408392D01*
X197157629Y-54482679D01*
X197082227Y-54505552D01*
X197006827Y-54528424D01*
X196850000Y-54543870D01*
X196693174Y-54528424D01*
X196617774Y-54505552D01*
X196542372Y-54482679D01*
X196403393Y-54408392D01*
X196281579Y-54308422D01*
X196181609Y-54186608D01*
X196107322Y-54047629D01*
X196061577Y-53896826D01*
X196050000Y-53779294D01*
X196050000Y-52900706D01*
X196061576Y-52783175D01*
X196061577Y-52783173D01*
X196107321Y-52632373D01*
X196107321Y-52632372D01*
X196181606Y-52493396D01*
X196281576Y-52371581D01*
X196281578Y-52371578D01*
X196281580Y-52371577D01*
X196281581Y-52371575D01*
X196403392Y-52271608D01*
X196542371Y-52197321D01*
X196617773Y-52174448D01*
X196693173Y-52151576D01*
X196850000Y-52136130D01*
X197006826Y-52151576D01*
X197006826Y-52151576D01*
G37*
G36*
X207166826Y-52151576D02*
X207242227Y-52174449D01*
X207317628Y-52197321D01*
X207456604Y-52271606D01*
X207456606Y-52271607D01*
X207456605Y-52271607D01*
X207578422Y-52371578D01*
X207578423Y-52371580D01*
X207578425Y-52371581D01*
X207678392Y-52493392D01*
X207752679Y-52632371D01*
X207798424Y-52783174D01*
X207810000Y-52900705D01*
X207810000Y-53779295D01*
X207798424Y-53896826D01*
X207752679Y-54047629D01*
X207678392Y-54186608D01*
X207578422Y-54308422D01*
X207456608Y-54408392D01*
X207317629Y-54482679D01*
X207242227Y-54505552D01*
X207166827Y-54528424D01*
X207010000Y-54543870D01*
X206853174Y-54528424D01*
X206777774Y-54505552D01*
X206702372Y-54482679D01*
X206563393Y-54408392D01*
X206441579Y-54308422D01*
X206341609Y-54186608D01*
X206267322Y-54047629D01*
X206221577Y-53896826D01*
X206210000Y-53779294D01*
X206210000Y-52900706D01*
X206221576Y-52783175D01*
X206221577Y-52783173D01*
X206267321Y-52632373D01*
X206267321Y-52632372D01*
X206341606Y-52493396D01*
X206441576Y-52371581D01*
X206441578Y-52371578D01*
X206441580Y-52371577D01*
X206441581Y-52371575D01*
X206563392Y-52271608D01*
X206702371Y-52197321D01*
X206777773Y-52174448D01*
X206853173Y-52151576D01*
X207010000Y-52136130D01*
X207166826Y-52151576D01*
X207166826Y-52151576D01*
G37*
G36*
X204626826Y-52151576D02*
X204702227Y-52174449D01*
X204777628Y-52197321D01*
X204916604Y-52271606D01*
X204916606Y-52271607D01*
X204916605Y-52271607D01*
X205038422Y-52371578D01*
X205038423Y-52371580D01*
X205038425Y-52371581D01*
X205138392Y-52493392D01*
X205212679Y-52632371D01*
X205258424Y-52783174D01*
X205270000Y-52900705D01*
X205270000Y-53779295D01*
X205258424Y-53896826D01*
X205212679Y-54047629D01*
X205138392Y-54186608D01*
X205038422Y-54308422D01*
X204916608Y-54408392D01*
X204777629Y-54482679D01*
X204702227Y-54505552D01*
X204626827Y-54528424D01*
X204470000Y-54543870D01*
X204313174Y-54528424D01*
X204237774Y-54505552D01*
X204162372Y-54482679D01*
X204023393Y-54408392D01*
X203901579Y-54308422D01*
X203801609Y-54186608D01*
X203727322Y-54047629D01*
X203681577Y-53896826D01*
X203670000Y-53779294D01*
X203670000Y-52900706D01*
X203681576Y-52783175D01*
X203681577Y-52783173D01*
X203727321Y-52632373D01*
X203727321Y-52632372D01*
X203801606Y-52493396D01*
X203901576Y-52371581D01*
X203901578Y-52371578D01*
X203901580Y-52371577D01*
X203901581Y-52371575D01*
X204023392Y-52271608D01*
X204162371Y-52197321D01*
X204237773Y-52174448D01*
X204313173Y-52151576D01*
X204470000Y-52136130D01*
X204626826Y-52151576D01*
X204626826Y-52151576D01*
G37*
G36*
X199546826Y-52151576D02*
X199622227Y-52174449D01*
X199697628Y-52197321D01*
X199836604Y-52271606D01*
X199836606Y-52271607D01*
X199836605Y-52271607D01*
X199958422Y-52371578D01*
X199958423Y-52371580D01*
X199958425Y-52371581D01*
X200058392Y-52493392D01*
X200132679Y-52632371D01*
X200178424Y-52783174D01*
X200190000Y-52900705D01*
X200190000Y-53779295D01*
X200178424Y-53896826D01*
X200132679Y-54047629D01*
X200058392Y-54186608D01*
X199958422Y-54308422D01*
X199836608Y-54408392D01*
X199697629Y-54482679D01*
X199622227Y-54505552D01*
X199546827Y-54528424D01*
X199390000Y-54543870D01*
X199233174Y-54528424D01*
X199157774Y-54505552D01*
X199082372Y-54482679D01*
X198943393Y-54408392D01*
X198821579Y-54308422D01*
X198721609Y-54186608D01*
X198647322Y-54047629D01*
X198601577Y-53896826D01*
X198590000Y-53779294D01*
X198590000Y-52900706D01*
X198601576Y-52783175D01*
X198601577Y-52783173D01*
X198647321Y-52632373D01*
X198647321Y-52632372D01*
X198721606Y-52493396D01*
X198821576Y-52371581D01*
X198821578Y-52371578D01*
X198821580Y-52371577D01*
X198821581Y-52371575D01*
X198943392Y-52271608D01*
X199082371Y-52197321D01*
X199157773Y-52174448D01*
X199233173Y-52151576D01*
X199390000Y-52136130D01*
X199546826Y-52151576D01*
X199546826Y-52151576D01*
G37*
G36*
X162775000Y-52285000D02*
X161075000Y-52285000D01*
X161075000Y-50585000D01*
X162775000Y-50585000D01*
X162775000Y-52285000D01*
X162775000Y-52285000D01*
G37*
G36*
X187558352Y-49395743D02*
X187703941Y-49456048D01*
X187834973Y-49543601D01*
X187946399Y-49655027D01*
X188033952Y-49786059D01*
X188094257Y-49931648D01*
X188125000Y-50086205D01*
X188125000Y-50243795D01*
X188094257Y-50398352D01*
X188033952Y-50543941D01*
X187946399Y-50674973D01*
X187834973Y-50786399D01*
X187703941Y-50873952D01*
X187558352Y-50934257D01*
X187403795Y-50965000D01*
X187246205Y-50965000D01*
X187091648Y-50934257D01*
X186946059Y-50873952D01*
X186815027Y-50786399D01*
X186703601Y-50674973D01*
X186616048Y-50543941D01*
X186555743Y-50398352D01*
X186525000Y-50243795D01*
X186525000Y-50086205D01*
X186555743Y-49931648D01*
X186616048Y-49786059D01*
X186703601Y-49655027D01*
X186815027Y-49543601D01*
X186946059Y-49456048D01*
X187091648Y-49395743D01*
X187246205Y-49365000D01*
X187403795Y-49365000D01*
X187558352Y-49395743D01*
X187558352Y-49395743D01*
G37*
G36*
X173588352Y-48840743D02*
X173733941Y-48901048D01*
X173864973Y-48988601D01*
X173976399Y-49100027D01*
X174063952Y-49231059D01*
X174124257Y-49376648D01*
X174155000Y-49531205D01*
X174155000Y-49688795D01*
X174124257Y-49843352D01*
X174063952Y-49988941D01*
X173976399Y-50119973D01*
X173864973Y-50231399D01*
X173733941Y-50318952D01*
X173588352Y-50379257D01*
X173433795Y-50410000D01*
X173276205Y-50410000D01*
X173121648Y-50379257D01*
X172976059Y-50318952D01*
X172845027Y-50231399D01*
X172733601Y-50119973D01*
X172646048Y-49988941D01*
X172585743Y-49843352D01*
X172555000Y-49688795D01*
X172555000Y-49531205D01*
X172585743Y-49376648D01*
X172646048Y-49231059D01*
X172733601Y-49100027D01*
X172845027Y-48988601D01*
X172976059Y-48901048D01*
X173121648Y-48840743D01*
X173276205Y-48810000D01*
X173433795Y-48810000D01*
X173588352Y-48840743D01*
X173588352Y-48840743D01*
G37*
G36*
X223002649Y-48737717D02*
X223041827Y-48741576D01*
X223105012Y-48760743D01*
X223192629Y-48787321D01*
X223331608Y-48861608D01*
X223453422Y-48961578D01*
X223553392Y-49083392D01*
X223627679Y-49222371D01*
X223627679Y-49222372D01*
X223673424Y-49373173D01*
X223688870Y-49530000D01*
X223673424Y-49686827D01*
X223672827Y-49688795D01*
X223627679Y-49837629D01*
X223553392Y-49976608D01*
X223453422Y-50098422D01*
X223331608Y-50198392D01*
X223192629Y-50272679D01*
X223117227Y-50295552D01*
X223041827Y-50318424D01*
X223002649Y-50322283D01*
X222924295Y-50330000D01*
X222845705Y-50330000D01*
X222767351Y-50322283D01*
X222728173Y-50318424D01*
X222652773Y-50295552D01*
X222577371Y-50272679D01*
X222438392Y-50198392D01*
X222316578Y-50098422D01*
X222216608Y-49976608D01*
X222142321Y-49837629D01*
X222097173Y-49688795D01*
X222096576Y-49686827D01*
X222081130Y-49530000D01*
X222096576Y-49373173D01*
X222142321Y-49222372D01*
X222142321Y-49222371D01*
X222216608Y-49083392D01*
X222316578Y-48961578D01*
X222438392Y-48861608D01*
X222577371Y-48787321D01*
X222664988Y-48760743D01*
X222728173Y-48741576D01*
X222767351Y-48737717D01*
X222845705Y-48730000D01*
X222924295Y-48730000D01*
X223002649Y-48737717D01*
X223002649Y-48737717D01*
G37*
G36*
X238358352Y-48760743D02*
X238503941Y-48821048D01*
X238634973Y-48908601D01*
X238746399Y-49020027D01*
X238833952Y-49151059D01*
X238894257Y-49296648D01*
X238925000Y-49451205D01*
X238925000Y-49608795D01*
X238894257Y-49763352D01*
X238833952Y-49908941D01*
X238746399Y-50039973D01*
X238634973Y-50151399D01*
X238503941Y-50238952D01*
X238358352Y-50299257D01*
X238203795Y-50330000D01*
X238046205Y-50330000D01*
X237891648Y-50299257D01*
X237746059Y-50238952D01*
X237615027Y-50151399D01*
X237503601Y-50039973D01*
X237416048Y-49908941D01*
X237355743Y-49763352D01*
X237325000Y-49608795D01*
X237325000Y-49451205D01*
X237355743Y-49296648D01*
X237416048Y-49151059D01*
X237503601Y-49020027D01*
X237615027Y-48908601D01*
X237746059Y-48821048D01*
X237891648Y-48760743D01*
X238046205Y-48730000D01*
X238203795Y-48730000D01*
X238358352Y-48760743D01*
X238358352Y-48760743D01*
G37*
G36*
X207243352Y-46855743D02*
X207388941Y-46916048D01*
X207519973Y-47003601D01*
X207631399Y-47115027D01*
X207718952Y-47246059D01*
X207779257Y-47391648D01*
X207810000Y-47546205D01*
X207810000Y-47703795D01*
X207779257Y-47858352D01*
X207718952Y-48003941D01*
X207631399Y-48134973D01*
X207519973Y-48246399D01*
X207388941Y-48333952D01*
X207243352Y-48394257D01*
X207088795Y-48425000D01*
X206931205Y-48425000D01*
X206776648Y-48394257D01*
X206631059Y-48333952D01*
X206500027Y-48246399D01*
X206388601Y-48134973D01*
X206301048Y-48003941D01*
X206240743Y-47858352D01*
X206210000Y-47703795D01*
X206210000Y-47546205D01*
X206240743Y-47391648D01*
X206301048Y-47246059D01*
X206388601Y-47115027D01*
X206500027Y-47003601D01*
X206631059Y-46916048D01*
X206776648Y-46855743D01*
X206931205Y-46825000D01*
X207088795Y-46825000D01*
X207243352Y-46855743D01*
X207243352Y-46855743D01*
G37*
G36*
X191887649Y-46832717D02*
X191926827Y-46836576D01*
X191990012Y-46855743D01*
X192077629Y-46882321D01*
X192216608Y-46956608D01*
X192338422Y-47056578D01*
X192438392Y-47178392D01*
X192512679Y-47317371D01*
X192558424Y-47468174D01*
X192573870Y-47625000D01*
X192558424Y-47781826D01*
X192512679Y-47932629D01*
X192438392Y-48071608D01*
X192338422Y-48193422D01*
X192216608Y-48293392D01*
X192077629Y-48367679D01*
X192002228Y-48390551D01*
X191926827Y-48413424D01*
X191887649Y-48417283D01*
X191809295Y-48425000D01*
X191730705Y-48425000D01*
X191652351Y-48417283D01*
X191613173Y-48413424D01*
X191537772Y-48390551D01*
X191462371Y-48367679D01*
X191323392Y-48293392D01*
X191201578Y-48193422D01*
X191101608Y-48071608D01*
X191027321Y-47932629D01*
X190981576Y-47781826D01*
X190966130Y-47625000D01*
X190981576Y-47468174D01*
X191027321Y-47317371D01*
X191101608Y-47178392D01*
X191201578Y-47056578D01*
X191323392Y-46956608D01*
X191462371Y-46882321D01*
X191549988Y-46855743D01*
X191613173Y-46836576D01*
X191652351Y-46832717D01*
X191730705Y-46825000D01*
X191809295Y-46825000D01*
X191887649Y-46832717D01*
X191887649Y-46832717D01*
G37*
G36*
X177398352Y-44950743D02*
X177543941Y-45011048D01*
X177674973Y-45098601D01*
X177786399Y-45210027D01*
X177873952Y-45341059D01*
X177934257Y-45486648D01*
X177965000Y-45641205D01*
X177965000Y-45798795D01*
X177934257Y-45953352D01*
X177873952Y-46098941D01*
X177786399Y-46229973D01*
X177674973Y-46341399D01*
X177543941Y-46428952D01*
X177398352Y-46489257D01*
X177243795Y-46520000D01*
X177086205Y-46520000D01*
X176931648Y-46489257D01*
X176786059Y-46428952D01*
X176655027Y-46341399D01*
X176543601Y-46229973D01*
X176456048Y-46098941D01*
X176395743Y-45953352D01*
X176365000Y-45798795D01*
X176365000Y-45641205D01*
X176395743Y-45486648D01*
X176456048Y-45341059D01*
X176543601Y-45210027D01*
X176655027Y-45098601D01*
X176786059Y-45011048D01*
X176931648Y-44950743D01*
X177086205Y-44920000D01*
X177243795Y-44920000D01*
X177398352Y-44950743D01*
X177398352Y-44950743D01*
G37*
G36*
X162042649Y-44927717D02*
X162081827Y-44931576D01*
X162145012Y-44950743D01*
X162232629Y-44977321D01*
X162371608Y-45051608D01*
X162493422Y-45151578D01*
X162593392Y-45273392D01*
X162667679Y-45412371D01*
X162713424Y-45563174D01*
X162728870Y-45720000D01*
X162713424Y-45876826D01*
X162667679Y-46027629D01*
X162593392Y-46166608D01*
X162493422Y-46288422D01*
X162371608Y-46388392D01*
X162232629Y-46462679D01*
X162157227Y-46485552D01*
X162081827Y-46508424D01*
X162042649Y-46512283D01*
X161964295Y-46520000D01*
X161885705Y-46520000D01*
X161807351Y-46512283D01*
X161768173Y-46508424D01*
X161692772Y-46485551D01*
X161617371Y-46462679D01*
X161478392Y-46388392D01*
X161356578Y-46288422D01*
X161256608Y-46166608D01*
X161182321Y-46027629D01*
X161136576Y-45876826D01*
X161121130Y-45720000D01*
X161136576Y-45563174D01*
X161182321Y-45412371D01*
X161256608Y-45273392D01*
X161356578Y-45151578D01*
X161478392Y-45051608D01*
X161617371Y-44977321D01*
X161704988Y-44950743D01*
X161768173Y-44931576D01*
X161807351Y-44927717D01*
X161885705Y-44920000D01*
X161964295Y-44920000D01*
X162042649Y-44927717D01*
X162042649Y-44927717D01*
G37*
G36*
X220462649Y-41752717D02*
X220501827Y-41756576D01*
X220565012Y-41775743D01*
X220652629Y-41802321D01*
X220791608Y-41876608D01*
X220913422Y-41976578D01*
X221013392Y-42098392D01*
X221087679Y-42237371D01*
X221087679Y-42237372D01*
X221133424Y-42388173D01*
X221148870Y-42545000D01*
X221133424Y-42701827D01*
X221119059Y-42749182D01*
X221087679Y-42852629D01*
X221013392Y-42991608D01*
X220913422Y-43113422D01*
X220791608Y-43213392D01*
X220652629Y-43287679D01*
X220577228Y-43310551D01*
X220501827Y-43333424D01*
X220462649Y-43337283D01*
X220384295Y-43345000D01*
X220305705Y-43345000D01*
X220227351Y-43337283D01*
X220188173Y-43333424D01*
X220112772Y-43310551D01*
X220037371Y-43287679D01*
X219898392Y-43213392D01*
X219776578Y-43113422D01*
X219676608Y-42991608D01*
X219602321Y-42852629D01*
X219570941Y-42749182D01*
X219556576Y-42701827D01*
X219541130Y-42545000D01*
X219556576Y-42388173D01*
X219602321Y-42237372D01*
X219602321Y-42237371D01*
X219676608Y-42098392D01*
X219776578Y-41976578D01*
X219898392Y-41876608D01*
X220037371Y-41802321D01*
X220124988Y-41775743D01*
X220188173Y-41756576D01*
X220227351Y-41752717D01*
X220305705Y-41745000D01*
X220384295Y-41745000D01*
X220462649Y-41752717D01*
X220462649Y-41752717D01*
G37*
G36*
X205338352Y-41775743D02*
X205483941Y-41836048D01*
X205614973Y-41923601D01*
X205726399Y-42035027D01*
X205813952Y-42166059D01*
X205874257Y-42311648D01*
X205905000Y-42466205D01*
X205905000Y-42623795D01*
X205874257Y-42778352D01*
X205813952Y-42923941D01*
X205726399Y-43054973D01*
X205614973Y-43166399D01*
X205483941Y-43253952D01*
X205338352Y-43314257D01*
X205183795Y-43345000D01*
X205026205Y-43345000D01*
X204871648Y-43314257D01*
X204726059Y-43253952D01*
X204595027Y-43166399D01*
X204483601Y-43054973D01*
X204396048Y-42923941D01*
X204335743Y-42778352D01*
X204305000Y-42623795D01*
X204305000Y-42466205D01*
X204335743Y-42311648D01*
X204396048Y-42166059D01*
X204483601Y-42035027D01*
X204595027Y-41923601D01*
X204726059Y-41836048D01*
X204871648Y-41775743D01*
X205026205Y-41745000D01*
X205183795Y-41745000D01*
X205338352Y-41775743D01*
X205338352Y-41775743D01*
G37*
G36*
X198868352Y-41775743D02*
X199013941Y-41836048D01*
X199144973Y-41923601D01*
X199256399Y-42035027D01*
X199343952Y-42166059D01*
X199404257Y-42311648D01*
X199435000Y-42466205D01*
X199435000Y-42623795D01*
X199404257Y-42778352D01*
X199343952Y-42923941D01*
X199256399Y-43054973D01*
X199144973Y-43166399D01*
X199013941Y-43253952D01*
X198868352Y-43314257D01*
X198713795Y-43345000D01*
X198556205Y-43345000D01*
X198401648Y-43314257D01*
X198256059Y-43253952D01*
X198125027Y-43166399D01*
X198013601Y-43054973D01*
X197926048Y-42923941D01*
X197865743Y-42778352D01*
X197835000Y-42623795D01*
X197835000Y-42466205D01*
X197865743Y-42311648D01*
X197926048Y-42166059D01*
X198013601Y-42035027D01*
X198125027Y-41923601D01*
X198256059Y-41836048D01*
X198401648Y-41775743D01*
X198556205Y-41745000D01*
X198713795Y-41745000D01*
X198868352Y-41775743D01*
X198868352Y-41775743D01*
G37*
G36*
X196368352Y-41775743D02*
X196513941Y-41836048D01*
X196644973Y-41923601D01*
X196756399Y-42035027D01*
X196843952Y-42166059D01*
X196904257Y-42311648D01*
X196935000Y-42466205D01*
X196935000Y-42623795D01*
X196904257Y-42778352D01*
X196843952Y-42923941D01*
X196756399Y-43054973D01*
X196644973Y-43166399D01*
X196513941Y-43253952D01*
X196368352Y-43314257D01*
X196213795Y-43345000D01*
X196056205Y-43345000D01*
X195901648Y-43314257D01*
X195756059Y-43253952D01*
X195625027Y-43166399D01*
X195513601Y-43054973D01*
X195426048Y-42923941D01*
X195365743Y-42778352D01*
X195335000Y-42623795D01*
X195335000Y-42466205D01*
X195365743Y-42311648D01*
X195426048Y-42166059D01*
X195513601Y-42035027D01*
X195625027Y-41923601D01*
X195756059Y-41836048D01*
X195901648Y-41775743D01*
X196056205Y-41745000D01*
X196213795Y-41745000D01*
X196368352Y-41775743D01*
X196368352Y-41775743D01*
G37*
G36*
X191368352Y-41775743D02*
X191513941Y-41836048D01*
X191644973Y-41923601D01*
X191756399Y-42035027D01*
X191843952Y-42166059D01*
X191904257Y-42311648D01*
X191935000Y-42466205D01*
X191935000Y-42623795D01*
X191904257Y-42778352D01*
X191843952Y-42923941D01*
X191756399Y-43054973D01*
X191644973Y-43166399D01*
X191513941Y-43253952D01*
X191368352Y-43314257D01*
X191213795Y-43345000D01*
X191056205Y-43345000D01*
X190901648Y-43314257D01*
X190756059Y-43253952D01*
X190625027Y-43166399D01*
X190513601Y-43054973D01*
X190426048Y-42923941D01*
X190365743Y-42778352D01*
X190335000Y-42623795D01*
X190335000Y-42466205D01*
X190365743Y-42311648D01*
X190426048Y-42166059D01*
X190513601Y-42035027D01*
X190625027Y-41923601D01*
X190756059Y-41836048D01*
X190901648Y-41775743D01*
X191056205Y-41745000D01*
X191213795Y-41745000D01*
X191368352Y-41775743D01*
X191368352Y-41775743D01*
G37*
G36*
X193839183Y-41871900D02*
X193963993Y-41923599D01*
X193966574Y-41924668D01*
X194062548Y-41988795D01*
X194081225Y-42001275D01*
X194178725Y-42098775D01*
X194255332Y-42213426D01*
X194308100Y-42340817D01*
X194335000Y-42476055D01*
X194335000Y-42613945D01*
X194308100Y-42749183D01*
X194255332Y-42876574D01*
X194178725Y-42991225D01*
X194081225Y-43088725D01*
X193966574Y-43165332D01*
X193839183Y-43218100D01*
X193703945Y-43245000D01*
X193566055Y-43245000D01*
X193430817Y-43218100D01*
X193303426Y-43165332D01*
X193188775Y-43088725D01*
X193091275Y-42991225D01*
X193014668Y-42876574D01*
X192961900Y-42749183D01*
X192935000Y-42613945D01*
X192935000Y-42476055D01*
X192961900Y-42340817D01*
X193014668Y-42213426D01*
X193091275Y-42098775D01*
X193188775Y-42001275D01*
X193207453Y-41988795D01*
X193303426Y-41924668D01*
X193306007Y-41923599D01*
X193430817Y-41871900D01*
X193566055Y-41845000D01*
X193703945Y-41845000D01*
X193839183Y-41871900D01*
X193839183Y-41871900D01*
G37*
G36*
X180573352Y-41220743D02*
X180718941Y-41281048D01*
X180849973Y-41368601D01*
X180961399Y-41480027D01*
X181048952Y-41611059D01*
X181109257Y-41756648D01*
X181140000Y-41911205D01*
X181140000Y-42068795D01*
X181109257Y-42223352D01*
X181048952Y-42368941D01*
X180961399Y-42499973D01*
X180849973Y-42611399D01*
X180718941Y-42698952D01*
X180573352Y-42759257D01*
X180418795Y-42790000D01*
X180261205Y-42790000D01*
X180106648Y-42759257D01*
X179961059Y-42698952D01*
X179830027Y-42611399D01*
X179718601Y-42499973D01*
X179631048Y-42368941D01*
X179570743Y-42223352D01*
X179540000Y-42068795D01*
X179540000Y-41911205D01*
X179570743Y-41756648D01*
X179631048Y-41611059D01*
X179718601Y-41480027D01*
X179830027Y-41368601D01*
X179961059Y-41281048D01*
X180106648Y-41220743D01*
X180261205Y-41190000D01*
X180418795Y-41190000D01*
X180573352Y-41220743D01*
X180573352Y-41220743D01*
G37*
G36*
X185573352Y-41220743D02*
X185718941Y-41281048D01*
X185849973Y-41368601D01*
X185961399Y-41480027D01*
X186048952Y-41611059D01*
X186109257Y-41756648D01*
X186140000Y-41911205D01*
X186140000Y-42068795D01*
X186109257Y-42223352D01*
X186048952Y-42368941D01*
X185961399Y-42499973D01*
X185849973Y-42611399D01*
X185718941Y-42698952D01*
X185573352Y-42759257D01*
X185418795Y-42790000D01*
X185261205Y-42790000D01*
X185106648Y-42759257D01*
X184961059Y-42698952D01*
X184830027Y-42611399D01*
X184718601Y-42499973D01*
X184631048Y-42368941D01*
X184570743Y-42223352D01*
X184540000Y-42068795D01*
X184540000Y-41911205D01*
X184570743Y-41756648D01*
X184631048Y-41611059D01*
X184718601Y-41480027D01*
X184830027Y-41368601D01*
X184961059Y-41281048D01*
X185106648Y-41220743D01*
X185261205Y-41190000D01*
X185418795Y-41190000D01*
X185573352Y-41220743D01*
X185573352Y-41220743D01*
G37*
G36*
X162158352Y-41140743D02*
X162303941Y-41201048D01*
X162434973Y-41288601D01*
X162546399Y-41400027D01*
X162633952Y-41531059D01*
X162694257Y-41676648D01*
X162725000Y-41831205D01*
X162725000Y-41988795D01*
X162694257Y-42143352D01*
X162633952Y-42288941D01*
X162546399Y-42419973D01*
X162434973Y-42531399D01*
X162303941Y-42618952D01*
X162158352Y-42679257D01*
X162003795Y-42710000D01*
X161846205Y-42710000D01*
X161691648Y-42679257D01*
X161546059Y-42618952D01*
X161415027Y-42531399D01*
X161303601Y-42419973D01*
X161216048Y-42288941D01*
X161155743Y-42143352D01*
X161125000Y-41988795D01*
X161125000Y-41831205D01*
X161155743Y-41676648D01*
X161216048Y-41531059D01*
X161303601Y-41400027D01*
X161415027Y-41288601D01*
X161546059Y-41201048D01*
X161691648Y-41140743D01*
X161846205Y-41110000D01*
X162003795Y-41110000D01*
X162158352Y-41140743D01*
X162158352Y-41140743D01*
G37*
G36*
X177282649Y-41117717D02*
X177321827Y-41121576D01*
X177385012Y-41140743D01*
X177472629Y-41167321D01*
X177611608Y-41241608D01*
X177733422Y-41341578D01*
X177833392Y-41463392D01*
X177907679Y-41602371D01*
X177907679Y-41602372D01*
X177953424Y-41753173D01*
X177968870Y-41910000D01*
X177953424Y-42066827D01*
X177952827Y-42068795D01*
X177907679Y-42217629D01*
X177833392Y-42356608D01*
X177733422Y-42478422D01*
X177611608Y-42578392D01*
X177472629Y-42652679D01*
X177397228Y-42675551D01*
X177321827Y-42698424D01*
X177287286Y-42701826D01*
X177204295Y-42710000D01*
X177125705Y-42710000D01*
X177042714Y-42701826D01*
X177008173Y-42698424D01*
X176932772Y-42675551D01*
X176857371Y-42652679D01*
X176718392Y-42578392D01*
X176596578Y-42478422D01*
X176496608Y-42356608D01*
X176422321Y-42217629D01*
X176377173Y-42068795D01*
X176376576Y-42066827D01*
X176361130Y-41910000D01*
X176376576Y-41753173D01*
X176422321Y-41602372D01*
X176422321Y-41602371D01*
X176496608Y-41463392D01*
X176596578Y-41341578D01*
X176718392Y-41241608D01*
X176857371Y-41167321D01*
X176944988Y-41140743D01*
X177008173Y-41121576D01*
X177047351Y-41117717D01*
X177125705Y-41110000D01*
X177204295Y-41110000D01*
X177282649Y-41117717D01*
X177282649Y-41117717D01*
G37*
G36*
X206492649Y-36037717D02*
X206531827Y-36041576D01*
X206595012Y-36060743D01*
X206682629Y-36087321D01*
X206821608Y-36161608D01*
X206943422Y-36261578D01*
X207043392Y-36383392D01*
X207117679Y-36522371D01*
X207163424Y-36673174D01*
X207178870Y-36830000D01*
X207163424Y-36986826D01*
X207117679Y-37137629D01*
X207043392Y-37276608D01*
X206943422Y-37398422D01*
X206821608Y-37498392D01*
X206682629Y-37572679D01*
X206607228Y-37595551D01*
X206531827Y-37618424D01*
X206492649Y-37622283D01*
X206414295Y-37630000D01*
X206335705Y-37630000D01*
X206257351Y-37622283D01*
X206218173Y-37618424D01*
X206142773Y-37595552D01*
X206067371Y-37572679D01*
X205928392Y-37498392D01*
X205806578Y-37398422D01*
X205706608Y-37276608D01*
X205632321Y-37137629D01*
X205586576Y-36986826D01*
X205571130Y-36830000D01*
X205586576Y-36673174D01*
X205632321Y-36522371D01*
X205706608Y-36383392D01*
X205806578Y-36261578D01*
X205928392Y-36161608D01*
X206067371Y-36087321D01*
X206154988Y-36060743D01*
X206218173Y-36041576D01*
X206257351Y-36037717D01*
X206335705Y-36030000D01*
X206414295Y-36030000D01*
X206492649Y-36037717D01*
X206492649Y-36037717D01*
G37*
G36*
X221848352Y-36060743D02*
X221993941Y-36121048D01*
X222124973Y-36208601D01*
X222236399Y-36320027D01*
X222323952Y-36451059D01*
X222384257Y-36596648D01*
X222415000Y-36751205D01*
X222415000Y-36908795D01*
X222384257Y-37063352D01*
X222323952Y-37208941D01*
X222236399Y-37339973D01*
X222124973Y-37451399D01*
X221993941Y-37538952D01*
X221848352Y-37599257D01*
X221693795Y-37630000D01*
X221536205Y-37630000D01*
X221381648Y-37599257D01*
X221236059Y-37538952D01*
X221105027Y-37451399D01*
X220993601Y-37339973D01*
X220906048Y-37208941D01*
X220845743Y-37063352D01*
X220815000Y-36908795D01*
X220815000Y-36751205D01*
X220845743Y-36596648D01*
X220906048Y-36451059D01*
X220993601Y-36320027D01*
X221105027Y-36208601D01*
X221236059Y-36121048D01*
X221381648Y-36060743D01*
X221536205Y-36030000D01*
X221693795Y-36030000D01*
X221848352Y-36060743D01*
X221848352Y-36060743D01*
G37*
G36*
X200813352Y-36060743D02*
X200958941Y-36121048D01*
X201089973Y-36208601D01*
X201201399Y-36320027D01*
X201288952Y-36451059D01*
X201349257Y-36596648D01*
X201380000Y-36751205D01*
X201380000Y-36908795D01*
X201349257Y-37063352D01*
X201288952Y-37208941D01*
X201201399Y-37339973D01*
X201089973Y-37451399D01*
X200958941Y-37538952D01*
X200813352Y-37599257D01*
X200658795Y-37630000D01*
X200501205Y-37630000D01*
X200346648Y-37599257D01*
X200201059Y-37538952D01*
X200070027Y-37451399D01*
X199958601Y-37339973D01*
X199871048Y-37208941D01*
X199810743Y-37063352D01*
X199780000Y-36908795D01*
X199780000Y-36751205D01*
X199810743Y-36596648D01*
X199871048Y-36451059D01*
X199958601Y-36320027D01*
X200070027Y-36208601D01*
X200201059Y-36121048D01*
X200346648Y-36060743D01*
X200501205Y-36030000D01*
X200658795Y-36030000D01*
X200813352Y-36060743D01*
X200813352Y-36060743D01*
G37*
G36*
X198353352Y-36060743D02*
X198498941Y-36121048D01*
X198629973Y-36208601D01*
X198741399Y-36320027D01*
X198828952Y-36451059D01*
X198889257Y-36596648D01*
X198920000Y-36751205D01*
X198920000Y-36908795D01*
X198889257Y-37063352D01*
X198828952Y-37208941D01*
X198741399Y-37339973D01*
X198629973Y-37451399D01*
X198498941Y-37538952D01*
X198353352Y-37599257D01*
X198198795Y-37630000D01*
X198041205Y-37630000D01*
X197886648Y-37599257D01*
X197741059Y-37538952D01*
X197610027Y-37451399D01*
X197498601Y-37339973D01*
X197411048Y-37208941D01*
X197350743Y-37063352D01*
X197320000Y-36908795D01*
X197320000Y-36751205D01*
X197350743Y-36596648D01*
X197411048Y-36451059D01*
X197498601Y-36320027D01*
X197610027Y-36208601D01*
X197741059Y-36121048D01*
X197886648Y-36060743D01*
X198041205Y-36030000D01*
X198198795Y-36030000D01*
X198353352Y-36060743D01*
X198353352Y-36060743D01*
G37*
G36*
X193353352Y-36060743D02*
X193498941Y-36121048D01*
X193629973Y-36208601D01*
X193741399Y-36320027D01*
X193828952Y-36451059D01*
X193889257Y-36596648D01*
X193920000Y-36751205D01*
X193920000Y-36908795D01*
X193889257Y-37063352D01*
X193828952Y-37208941D01*
X193741399Y-37339973D01*
X193629973Y-37451399D01*
X193498941Y-37538952D01*
X193353352Y-37599257D01*
X193198795Y-37630000D01*
X193001205Y-37630000D01*
X192846648Y-37599257D01*
X192701059Y-37538952D01*
X192570027Y-37451399D01*
X192458601Y-37339973D01*
X192371048Y-37208941D01*
X192310743Y-37063352D01*
X192280000Y-36908795D01*
X192280000Y-36751205D01*
X192310743Y-36596648D01*
X192371048Y-36451059D01*
X192458601Y-36320027D01*
X192570027Y-36208601D01*
X192701059Y-36121048D01*
X192846648Y-36060743D01*
X193001205Y-36030000D01*
X193198795Y-36030000D01*
X193353352Y-36060743D01*
X193353352Y-36060743D01*
G37*
G36*
X195784183Y-36156900D02*
X195911574Y-36209668D01*
X196026225Y-36286275D01*
X196123725Y-36383775D01*
X196200332Y-36498426D01*
X196253100Y-36625817D01*
X196280000Y-36761055D01*
X196280000Y-36898945D01*
X196253100Y-37034183D01*
X196200332Y-37161574D01*
X196123725Y-37276225D01*
X196026225Y-37373725D01*
X195911574Y-37450332D01*
X195784183Y-37503100D01*
X195648945Y-37530000D01*
X195511055Y-37530000D01*
X195375817Y-37503100D01*
X195248426Y-37450332D01*
X195133775Y-37373725D01*
X195036275Y-37276225D01*
X194959668Y-37161574D01*
X194906900Y-37034183D01*
X194880000Y-36898945D01*
X194880000Y-36761055D01*
X194906900Y-36625817D01*
X194959668Y-36498426D01*
X195036275Y-36383775D01*
X195133775Y-36286275D01*
X195248426Y-36209668D01*
X195375817Y-36156900D01*
X195511055Y-36130000D01*
X195648945Y-36130000D01*
X195784183Y-36156900D01*
X195784183Y-36156900D01*
G37*
M02*
