G04 #@! TF.GenerationSoftware,KiCad,Pcbnew,(5.0.1)-4*
G04 #@! TF.CreationDate,2023-12-05T16:50:23+01:00*
G04 #@! TF.ProjectId,AetS_Spectrum_1way,416574535F537065637472756D5F3177,rev?*
G04 #@! TF.SameCoordinates,Original*
G04 #@! TF.FileFunction,Legend,Top*
G04 #@! TF.FilePolarity,Positive*
%FSLAX46Y46*%
G04 Gerber Fmt 4.6, Leading zero omitted, Abs format (unit mm)*
G04 Created by KiCad (PCBNEW (5.0.1)-4) date 05/12/2023 16:50:23*
%MOMM*%
%LPD*%
G01*
G04 APERTURE LIST*
%ADD10C,0.150000*%
%ADD11C,0.120000*%
G04 APERTURE END LIST*
D10*
X229061142Y-40965333D02*
X229013523Y-40917714D01*
X228918285Y-40774857D01*
X228870666Y-40679619D01*
X228823047Y-40536761D01*
X228775428Y-40298666D01*
X228775428Y-40108190D01*
X228823047Y-39870095D01*
X228870666Y-39727238D01*
X228918285Y-39632000D01*
X229013523Y-39489142D01*
X229061142Y-39441523D01*
X229870666Y-40536761D02*
X229775428Y-40584380D01*
X229584952Y-40584380D01*
X229489714Y-40536761D01*
X229442095Y-40489142D01*
X229394476Y-40393904D01*
X229394476Y-40108190D01*
X229442095Y-40012952D01*
X229489714Y-39965333D01*
X229584952Y-39917714D01*
X229775428Y-39917714D01*
X229870666Y-39965333D01*
X230204000Y-40965333D02*
X230251619Y-40917714D01*
X230346857Y-40774857D01*
X230394476Y-40679619D01*
X230442095Y-40536761D01*
X230489714Y-40298666D01*
X230489714Y-40108190D01*
X230442095Y-39870095D01*
X230394476Y-39727238D01*
X230346857Y-39632000D01*
X230251619Y-39489142D01*
X230204000Y-39441523D01*
X232204000Y-40584380D02*
X231727809Y-40584380D01*
X231727809Y-39584380D01*
X232537333Y-40060571D02*
X232870666Y-40060571D01*
X233013523Y-40584380D02*
X232537333Y-40584380D01*
X232537333Y-39584380D01*
X233013523Y-39584380D01*
X233442095Y-39917714D02*
X233442095Y-40584380D01*
X233442095Y-40012952D02*
X233489714Y-39965333D01*
X233584952Y-39917714D01*
X233727809Y-39917714D01*
X233823047Y-39965333D01*
X233870666Y-40060571D01*
X233870666Y-40584380D01*
X234299238Y-40536761D02*
X234394476Y-40584380D01*
X234584952Y-40584380D01*
X234680190Y-40536761D01*
X234727809Y-40441523D01*
X234727809Y-40393904D01*
X234680190Y-40298666D01*
X234584952Y-40251047D01*
X234442095Y-40251047D01*
X234346857Y-40203428D01*
X234299238Y-40108190D01*
X234299238Y-40060571D01*
X234346857Y-39965333D01*
X234442095Y-39917714D01*
X234584952Y-39917714D01*
X234680190Y-39965333D01*
X235156380Y-40060571D02*
X235489714Y-40060571D01*
X235632571Y-40584380D02*
X235156380Y-40584380D01*
X235156380Y-39584380D01*
X235632571Y-39584380D01*
X237537333Y-39536761D02*
X236680190Y-40822476D01*
X238632571Y-40584380D02*
X238632571Y-39584380D01*
X239299238Y-39584380D02*
X239489714Y-39584380D01*
X239584952Y-39632000D01*
X239680190Y-39727238D01*
X239727809Y-39917714D01*
X239727809Y-40251047D01*
X239680190Y-40441523D01*
X239584952Y-40536761D01*
X239489714Y-40584380D01*
X239299238Y-40584380D01*
X239204000Y-40536761D01*
X239108761Y-40441523D01*
X239061142Y-40251047D01*
X239061142Y-39917714D01*
X239108761Y-39727238D01*
X239204000Y-39632000D01*
X239299238Y-39584380D01*
X240680190Y-39632000D02*
X240584952Y-39584380D01*
X240442095Y-39584380D01*
X240299238Y-39632000D01*
X240204000Y-39727238D01*
X240156380Y-39822476D01*
X240108761Y-40012952D01*
X240108761Y-40155809D01*
X240156380Y-40346285D01*
X240204000Y-40441523D01*
X240299238Y-40536761D01*
X240442095Y-40584380D01*
X240537333Y-40584380D01*
X240680190Y-40536761D01*
X240727809Y-40489142D01*
X240727809Y-40155809D01*
X240537333Y-40155809D01*
X241108761Y-40536761D02*
X241251619Y-40584380D01*
X241489714Y-40584380D01*
X241584952Y-40536761D01*
X241632571Y-40489142D01*
X241680190Y-40393904D01*
X241680190Y-40298666D01*
X241632571Y-40203428D01*
X241584952Y-40155809D01*
X241489714Y-40108190D01*
X241299238Y-40060571D01*
X241204000Y-40012952D01*
X241156380Y-39965333D01*
X241108761Y-39870095D01*
X241108761Y-39774857D01*
X241156380Y-39679619D01*
X241204000Y-39632000D01*
X241299238Y-39584380D01*
X241537333Y-39584380D01*
X241680190Y-39632000D01*
X229180190Y-33885666D02*
X229656380Y-33885666D01*
X229084952Y-34171380D02*
X229418285Y-33171380D01*
X229751619Y-34171380D01*
X230084952Y-34171380D02*
X230084952Y-33504714D01*
X230084952Y-33695190D02*
X230132571Y-33599952D01*
X230180190Y-33552333D01*
X230275428Y-33504714D01*
X230370666Y-33504714D01*
X230561142Y-33504714D02*
X230942095Y-33504714D01*
X230704000Y-33171380D02*
X230704000Y-34028523D01*
X230751619Y-34123761D01*
X230846857Y-34171380D01*
X230942095Y-34171380D01*
X231227809Y-34123761D02*
X231323047Y-34171380D01*
X231513523Y-34171380D01*
X231608761Y-34123761D01*
X231656380Y-34028523D01*
X231656380Y-33980904D01*
X231608761Y-33885666D01*
X231513523Y-33838047D01*
X231370666Y-33838047D01*
X231275428Y-33790428D01*
X231227809Y-33695190D01*
X231227809Y-33647571D01*
X231275428Y-33552333D01*
X231370666Y-33504714D01*
X231513523Y-33504714D01*
X231608761Y-33552333D01*
X232846857Y-33647571D02*
X233180190Y-33647571D01*
X233323047Y-34171380D02*
X232846857Y-34171380D01*
X232846857Y-33171380D01*
X233323047Y-33171380D01*
X233608761Y-33504714D02*
X233989714Y-33504714D01*
X233751619Y-33171380D02*
X233751619Y-34028523D01*
X233799238Y-34123761D01*
X233894476Y-34171380D01*
X233989714Y-34171380D01*
X235037333Y-34123761D02*
X235180190Y-34171380D01*
X235418285Y-34171380D01*
X235513523Y-34123761D01*
X235561142Y-34076142D01*
X235608761Y-33980904D01*
X235608761Y-33885666D01*
X235561142Y-33790428D01*
X235513523Y-33742809D01*
X235418285Y-33695190D01*
X235227809Y-33647571D01*
X235132571Y-33599952D01*
X235084952Y-33552333D01*
X235037333Y-33457095D01*
X235037333Y-33361857D01*
X235084952Y-33266619D01*
X235132571Y-33219000D01*
X235227809Y-33171380D01*
X235465904Y-33171380D01*
X235608761Y-33219000D01*
X236465904Y-34123761D02*
X236370666Y-34171380D01*
X236180190Y-34171380D01*
X236084952Y-34123761D01*
X236037333Y-34076142D01*
X235989714Y-33980904D01*
X235989714Y-33695190D01*
X236037333Y-33599952D01*
X236084952Y-33552333D01*
X236180190Y-33504714D01*
X236370666Y-33504714D01*
X236465904Y-33552333D01*
X236894476Y-34171380D02*
X236894476Y-33504714D01*
X236894476Y-33171380D02*
X236846857Y-33219000D01*
X236894476Y-33266619D01*
X236942095Y-33219000D01*
X236894476Y-33171380D01*
X236894476Y-33266619D01*
X237751619Y-34123761D02*
X237656380Y-34171380D01*
X237465904Y-34171380D01*
X237370666Y-34123761D01*
X237323047Y-34028523D01*
X237323047Y-33647571D01*
X237370666Y-33552333D01*
X237465904Y-33504714D01*
X237656380Y-33504714D01*
X237751619Y-33552333D01*
X237799238Y-33647571D01*
X237799238Y-33742809D01*
X237323047Y-33838047D01*
X238227809Y-33504714D02*
X238227809Y-34171380D01*
X238227809Y-33599952D02*
X238275428Y-33552333D01*
X238370666Y-33504714D01*
X238513523Y-33504714D01*
X238608761Y-33552333D01*
X238656380Y-33647571D01*
X238656380Y-34171380D01*
X239561142Y-34123761D02*
X239465904Y-34171380D01*
X239275428Y-34171380D01*
X239180190Y-34123761D01*
X239132571Y-34076142D01*
X239084952Y-33980904D01*
X239084952Y-33695190D01*
X239132571Y-33599952D01*
X239180190Y-33552333D01*
X239275428Y-33504714D01*
X239465904Y-33504714D01*
X239561142Y-33552333D01*
X240370666Y-34123761D02*
X240275428Y-34171380D01*
X240084952Y-34171380D01*
X239989714Y-34123761D01*
X239942095Y-34028523D01*
X239942095Y-33647571D01*
X239989714Y-33552333D01*
X240084952Y-33504714D01*
X240275428Y-33504714D01*
X240370666Y-33552333D01*
X240418285Y-33647571D01*
X240418285Y-33742809D01*
X239942095Y-33838047D01*
X240799238Y-34123761D02*
X240894476Y-34171380D01*
X241084952Y-34171380D01*
X241180190Y-34123761D01*
X241227809Y-34028523D01*
X241227809Y-33980904D01*
X241180190Y-33885666D01*
X241084952Y-33838047D01*
X240942095Y-33838047D01*
X240846857Y-33790428D01*
X240799238Y-33695190D01*
X240799238Y-33647571D01*
X240846857Y-33552333D01*
X240942095Y-33504714D01*
X241084952Y-33504714D01*
X241180190Y-33552333D01*
X228704000Y-34916619D02*
X228751619Y-34869000D01*
X228846857Y-34821380D01*
X229084952Y-34821380D01*
X229180190Y-34869000D01*
X229227809Y-34916619D01*
X229275428Y-35011857D01*
X229275428Y-35107095D01*
X229227809Y-35249952D01*
X228656380Y-35821380D01*
X229275428Y-35821380D01*
X229894476Y-34821380D02*
X229989714Y-34821380D01*
X230084952Y-34869000D01*
X230132571Y-34916619D01*
X230180190Y-35011857D01*
X230227809Y-35202333D01*
X230227809Y-35440428D01*
X230180190Y-35630904D01*
X230132571Y-35726142D01*
X230084952Y-35773761D01*
X229989714Y-35821380D01*
X229894476Y-35821380D01*
X229799238Y-35773761D01*
X229751619Y-35726142D01*
X229704000Y-35630904D01*
X229656380Y-35440428D01*
X229656380Y-35202333D01*
X229704000Y-35011857D01*
X229751619Y-34916619D01*
X229799238Y-34869000D01*
X229894476Y-34821380D01*
X230608761Y-34916619D02*
X230656380Y-34869000D01*
X230751619Y-34821380D01*
X230989714Y-34821380D01*
X231084952Y-34869000D01*
X231132571Y-34916619D01*
X231180190Y-35011857D01*
X231180190Y-35107095D01*
X231132571Y-35249952D01*
X230561142Y-35821380D01*
X231180190Y-35821380D01*
X231513523Y-34821380D02*
X232132571Y-34821380D01*
X231799238Y-35202333D01*
X231942095Y-35202333D01*
X232037333Y-35249952D01*
X232084952Y-35297571D01*
X232132571Y-35392809D01*
X232132571Y-35630904D01*
X232084952Y-35726142D01*
X232037333Y-35773761D01*
X231942095Y-35821380D01*
X231656380Y-35821380D01*
X231561142Y-35773761D01*
X231513523Y-35726142D01*
X234037333Y-34773761D02*
X233180190Y-36059476D01*
X235084952Y-35773761D02*
X235227809Y-35821380D01*
X235465904Y-35821380D01*
X235561142Y-35773761D01*
X235608761Y-35726142D01*
X235656380Y-35630904D01*
X235656380Y-35535666D01*
X235608761Y-35440428D01*
X235561142Y-35392809D01*
X235465904Y-35345190D01*
X235275428Y-35297571D01*
X235180190Y-35249952D01*
X235132571Y-35202333D01*
X235084952Y-35107095D01*
X235084952Y-35011857D01*
X235132571Y-34916619D01*
X235180190Y-34869000D01*
X235275428Y-34821380D01*
X235513523Y-34821380D01*
X235656380Y-34869000D01*
X236084952Y-35154714D02*
X236084952Y-36154714D01*
X236084952Y-35202333D02*
X236180190Y-35154714D01*
X236370666Y-35154714D01*
X236465904Y-35202333D01*
X236513523Y-35249952D01*
X236561142Y-35345190D01*
X236561142Y-35630904D01*
X236513523Y-35726142D01*
X236465904Y-35773761D01*
X236370666Y-35821380D01*
X236180190Y-35821380D01*
X236084952Y-35773761D01*
X237370666Y-35773761D02*
X237275428Y-35821380D01*
X237084952Y-35821380D01*
X236989714Y-35773761D01*
X236942095Y-35678523D01*
X236942095Y-35297571D01*
X236989714Y-35202333D01*
X237084952Y-35154714D01*
X237275428Y-35154714D01*
X237370666Y-35202333D01*
X237418285Y-35297571D01*
X237418285Y-35392809D01*
X236942095Y-35488047D01*
X238275428Y-35773761D02*
X238180190Y-35821380D01*
X237989714Y-35821380D01*
X237894476Y-35773761D01*
X237846857Y-35726142D01*
X237799238Y-35630904D01*
X237799238Y-35345190D01*
X237846857Y-35249952D01*
X237894476Y-35202333D01*
X237989714Y-35154714D01*
X238180190Y-35154714D01*
X238275428Y-35202333D01*
X238561142Y-35154714D02*
X238942095Y-35154714D01*
X238704000Y-34821380D02*
X238704000Y-35678523D01*
X238751619Y-35773761D01*
X238846857Y-35821380D01*
X238942095Y-35821380D01*
X239275428Y-35821380D02*
X239275428Y-35154714D01*
X239275428Y-35345190D02*
X239323047Y-35249952D01*
X239370666Y-35202333D01*
X239465904Y-35154714D01*
X239561142Y-35154714D01*
X240323047Y-35154714D02*
X240323047Y-35821380D01*
X239894476Y-35154714D02*
X239894476Y-35678523D01*
X239942095Y-35773761D01*
X240037333Y-35821380D01*
X240180190Y-35821380D01*
X240275428Y-35773761D01*
X240323047Y-35726142D01*
X240799238Y-35821380D02*
X240799238Y-35154714D01*
X240799238Y-35249952D02*
X240846857Y-35202333D01*
X240942095Y-35154714D01*
X241084952Y-35154714D01*
X241180190Y-35202333D01*
X241227809Y-35297571D01*
X241227809Y-35821380D01*
X241227809Y-35297571D02*
X241275428Y-35202333D01*
X241370666Y-35154714D01*
X241513523Y-35154714D01*
X241608761Y-35202333D01*
X241656380Y-35297571D01*
X241656380Y-35821380D01*
X161179238Y-67000380D02*
X161179238Y-66000380D01*
X161512571Y-66714666D01*
X161845904Y-66000380D01*
X161845904Y-67000380D01*
X162322095Y-67000380D02*
X162322095Y-66333714D01*
X162322095Y-66000380D02*
X162274476Y-66048000D01*
X162322095Y-66095619D01*
X162369714Y-66048000D01*
X162322095Y-66000380D01*
X162322095Y-66095619D01*
X163226857Y-66952761D02*
X163131619Y-67000380D01*
X162941142Y-67000380D01*
X162845904Y-66952761D01*
X162798285Y-66905142D01*
X162750666Y-66809904D01*
X162750666Y-66524190D01*
X162798285Y-66428952D01*
X162845904Y-66381333D01*
X162941142Y-66333714D01*
X163131619Y-66333714D01*
X163226857Y-66381333D01*
X163655428Y-67000380D02*
X163655428Y-66333714D01*
X163655428Y-66524190D02*
X163703047Y-66428952D01*
X163750666Y-66381333D01*
X163845904Y-66333714D01*
X163941142Y-66333714D01*
X164417333Y-67000380D02*
X164322095Y-66952761D01*
X164274476Y-66905142D01*
X164226857Y-66809904D01*
X164226857Y-66524190D01*
X164274476Y-66428952D01*
X164322095Y-66381333D01*
X164417333Y-66333714D01*
X164560190Y-66333714D01*
X164655428Y-66381333D01*
X164703047Y-66428952D01*
X164750666Y-66524190D01*
X164750666Y-66809904D01*
X164703047Y-66905142D01*
X164655428Y-66952761D01*
X164560190Y-67000380D01*
X164417333Y-67000380D01*
X164941142Y-67095619D02*
X165703047Y-67095619D01*
X165941142Y-67000380D02*
X165941142Y-66000380D01*
X166417333Y-67000380D02*
X166417333Y-66000380D01*
X166988761Y-67000380D01*
X166988761Y-66000380D01*
X163655619Y-62444380D02*
X163988952Y-63444380D01*
X164322285Y-62444380D01*
X165227047Y-63349142D02*
X165179428Y-63396761D01*
X165036571Y-63444380D01*
X164941333Y-63444380D01*
X164798476Y-63396761D01*
X164703238Y-63301523D01*
X164655619Y-63206285D01*
X164608000Y-63015809D01*
X164608000Y-62872952D01*
X164655619Y-62682476D01*
X164703238Y-62587238D01*
X164798476Y-62492000D01*
X164941333Y-62444380D01*
X165036571Y-62444380D01*
X165179428Y-62492000D01*
X165227047Y-62539619D01*
X166227047Y-63349142D02*
X166179428Y-63396761D01*
X166036571Y-63444380D01*
X165941333Y-63444380D01*
X165798476Y-63396761D01*
X165703238Y-63301523D01*
X165655619Y-63206285D01*
X165608000Y-63015809D01*
X165608000Y-62872952D01*
X165655619Y-62682476D01*
X165703238Y-62587238D01*
X165798476Y-62492000D01*
X165941333Y-62444380D01*
X166036571Y-62444380D01*
X166179428Y-62492000D01*
X166227047Y-62539619D01*
X166655619Y-63063428D02*
X167417523Y-63063428D01*
X167036571Y-63444380D02*
X167036571Y-62682476D01*
X164131809Y-50760380D02*
X164750857Y-50760380D01*
X164417523Y-51141333D01*
X164560380Y-51141333D01*
X164655619Y-51188952D01*
X164703238Y-51236571D01*
X164750857Y-51331809D01*
X164750857Y-51569904D01*
X164703238Y-51665142D01*
X164655619Y-51712761D01*
X164560380Y-51760380D01*
X164274666Y-51760380D01*
X164179428Y-51712761D01*
X164131809Y-51665142D01*
X165179428Y-51665142D02*
X165227047Y-51712761D01*
X165179428Y-51760380D01*
X165131809Y-51712761D01*
X165179428Y-51665142D01*
X165179428Y-51760380D01*
X165560380Y-50760380D02*
X166179428Y-50760380D01*
X165846095Y-51141333D01*
X165988952Y-51141333D01*
X166084190Y-51188952D01*
X166131809Y-51236571D01*
X166179428Y-51331809D01*
X166179428Y-51569904D01*
X166131809Y-51665142D01*
X166084190Y-51712761D01*
X165988952Y-51760380D01*
X165703238Y-51760380D01*
X165608000Y-51712761D01*
X165560380Y-51665142D01*
X166465142Y-50760380D02*
X166798476Y-51760380D01*
X167131809Y-50760380D01*
X164314476Y-54300380D02*
X164314476Y-53300380D01*
X164885904Y-54300380D01*
X164885904Y-53300380D01*
X165790666Y-53633714D02*
X165790666Y-54300380D01*
X165362095Y-53633714D02*
X165362095Y-54157523D01*
X165409714Y-54252761D01*
X165504952Y-54300380D01*
X165647809Y-54300380D01*
X165743047Y-54252761D01*
X165790666Y-54205142D01*
X166695428Y-54252761D02*
X166600190Y-54300380D01*
X166409714Y-54300380D01*
X166314476Y-54252761D01*
X166266857Y-54205142D01*
X166219238Y-54109904D01*
X166219238Y-53824190D01*
X166266857Y-53728952D01*
X166314476Y-53681333D01*
X166409714Y-53633714D01*
X166600190Y-53633714D01*
X166695428Y-53681333D01*
X166885904Y-54395619D02*
X167647809Y-54395619D01*
X167885904Y-54300380D02*
X167885904Y-53300380D01*
X168362095Y-54300380D02*
X168362095Y-53300380D01*
X168933523Y-54300380D01*
X168933523Y-53300380D01*
X164163619Y-55840380D02*
X164496952Y-56840380D01*
X164830285Y-55840380D01*
X165735047Y-56745142D02*
X165687428Y-56792761D01*
X165544571Y-56840380D01*
X165449333Y-56840380D01*
X165306476Y-56792761D01*
X165211238Y-56697523D01*
X165163619Y-56602285D01*
X165116000Y-56411809D01*
X165116000Y-56268952D01*
X165163619Y-56078476D01*
X165211238Y-55983238D01*
X165306476Y-55888000D01*
X165449333Y-55840380D01*
X165544571Y-55840380D01*
X165687428Y-55888000D01*
X165735047Y-55935619D01*
X166735047Y-56745142D02*
X166687428Y-56792761D01*
X166544571Y-56840380D01*
X166449333Y-56840380D01*
X166306476Y-56792761D01*
X166211238Y-56697523D01*
X166163619Y-56602285D01*
X166116000Y-56411809D01*
X166116000Y-56268952D01*
X166163619Y-56078476D01*
X166211238Y-55983238D01*
X166306476Y-55888000D01*
X166449333Y-55840380D01*
X166544571Y-55840380D01*
X166687428Y-55888000D01*
X166735047Y-55935619D01*
X167163619Y-56459428D02*
X167925523Y-56459428D01*
X164846095Y-58428000D02*
X164750857Y-58380380D01*
X164608000Y-58380380D01*
X164465142Y-58428000D01*
X164369904Y-58523238D01*
X164322285Y-58618476D01*
X164274666Y-58808952D01*
X164274666Y-58951809D01*
X164322285Y-59142285D01*
X164369904Y-59237523D01*
X164465142Y-59332761D01*
X164608000Y-59380380D01*
X164703238Y-59380380D01*
X164846095Y-59332761D01*
X164893714Y-59285142D01*
X164893714Y-58951809D01*
X164703238Y-58951809D01*
X165322285Y-59380380D02*
X165322285Y-58380380D01*
X165893714Y-59380380D01*
X165893714Y-58380380D01*
X166369904Y-59380380D02*
X166369904Y-58380380D01*
X166608000Y-58380380D01*
X166750857Y-58428000D01*
X166846095Y-58523238D01*
X166893714Y-58618476D01*
X166941333Y-58808952D01*
X166941333Y-58951809D01*
X166893714Y-59142285D01*
X166846095Y-59237523D01*
X166750857Y-59332761D01*
X166608000Y-59380380D01*
X166369904Y-59380380D01*
D11*
G04 #@! TO.C,J1*
X163770000Y-74990000D02*
X163770000Y-73660000D01*
X165100000Y-74990000D02*
X163770000Y-74990000D01*
X166370000Y-74990000D02*
X166370000Y-72330000D01*
X166370000Y-72330000D02*
X171510000Y-72330000D01*
X166370000Y-74990000D02*
X171510000Y-74990000D01*
X171510000Y-74990000D02*
X171510000Y-72330000D01*
G04 #@! TO.C,C1*
X177940000Y-75715000D02*
X182780000Y-75715000D01*
X177940000Y-77955000D02*
X182780000Y-77955000D01*
X177940000Y-75715000D02*
X177940000Y-77955000D01*
X182780000Y-75715000D02*
X182780000Y-77955000D01*
G04 #@! TO.C,C2*
X178030000Y-78705000D02*
X178030000Y-74965000D01*
X185270000Y-78705000D02*
X185270000Y-74965000D01*
X185270000Y-74965000D02*
X178030000Y-74965000D01*
X185270000Y-78705000D02*
X178030000Y-78705000D01*
G04 #@! TO.C,C3*
X177475000Y-61555000D02*
G75*
G03X177475000Y-61555000I-4120000J0D01*
G01*
X169275000Y-61555000D02*
X177435000Y-61555000D01*
X169275000Y-61515000D02*
X177435000Y-61515000D01*
X169275000Y-61475000D02*
X177435000Y-61475000D01*
X169276000Y-61435000D02*
X177434000Y-61435000D01*
X169278000Y-61395000D02*
X177432000Y-61395000D01*
X169279000Y-61355000D02*
X177431000Y-61355000D01*
X169281000Y-61315000D02*
X177429000Y-61315000D01*
X169284000Y-61275000D02*
X177426000Y-61275000D01*
X169287000Y-61235000D02*
X177423000Y-61235000D01*
X169290000Y-61195000D02*
X177420000Y-61195000D01*
X169294000Y-61155000D02*
X177416000Y-61155000D01*
X169298000Y-61115000D02*
X177412000Y-61115000D01*
X169303000Y-61075000D02*
X177407000Y-61075000D01*
X169307000Y-61035000D02*
X177403000Y-61035000D01*
X169313000Y-60995000D02*
X177397000Y-60995000D01*
X169318000Y-60955000D02*
X177392000Y-60955000D01*
X169325000Y-60915000D02*
X177385000Y-60915000D01*
X169331000Y-60875000D02*
X177379000Y-60875000D01*
X169338000Y-60834000D02*
X177372000Y-60834000D01*
X169345000Y-60794000D02*
X177365000Y-60794000D01*
X169353000Y-60754000D02*
X177357000Y-60754000D01*
X169361000Y-60714000D02*
X177349000Y-60714000D01*
X169370000Y-60674000D02*
X177340000Y-60674000D01*
X169379000Y-60634000D02*
X177331000Y-60634000D01*
X169388000Y-60594000D02*
X177322000Y-60594000D01*
X169398000Y-60554000D02*
X177312000Y-60554000D01*
X169408000Y-60514000D02*
X177302000Y-60514000D01*
X169419000Y-60474000D02*
X177291000Y-60474000D01*
X169430000Y-60434000D02*
X177280000Y-60434000D01*
X169441000Y-60394000D02*
X177269000Y-60394000D01*
X169453000Y-60354000D02*
X177257000Y-60354000D01*
X169466000Y-60314000D02*
X177244000Y-60314000D01*
X169478000Y-60274000D02*
X177232000Y-60274000D01*
X169492000Y-60234000D02*
X177218000Y-60234000D01*
X169505000Y-60194000D02*
X177205000Y-60194000D01*
X169520000Y-60154000D02*
X177190000Y-60154000D01*
X169534000Y-60114000D02*
X177176000Y-60114000D01*
X169550000Y-60074000D02*
X172315000Y-60074000D01*
X174395000Y-60074000D02*
X177160000Y-60074000D01*
X169565000Y-60034000D02*
X172315000Y-60034000D01*
X174395000Y-60034000D02*
X177145000Y-60034000D01*
X169581000Y-59994000D02*
X172315000Y-59994000D01*
X174395000Y-59994000D02*
X177129000Y-59994000D01*
X169598000Y-59954000D02*
X172315000Y-59954000D01*
X174395000Y-59954000D02*
X177112000Y-59954000D01*
X169615000Y-59914000D02*
X172315000Y-59914000D01*
X174395000Y-59914000D02*
X177095000Y-59914000D01*
X169633000Y-59874000D02*
X172315000Y-59874000D01*
X174395000Y-59874000D02*
X177077000Y-59874000D01*
X169651000Y-59834000D02*
X172315000Y-59834000D01*
X174395000Y-59834000D02*
X177059000Y-59834000D01*
X169669000Y-59794000D02*
X172315000Y-59794000D01*
X174395000Y-59794000D02*
X177041000Y-59794000D01*
X169689000Y-59754000D02*
X172315000Y-59754000D01*
X174395000Y-59754000D02*
X177021000Y-59754000D01*
X169708000Y-59714000D02*
X172315000Y-59714000D01*
X174395000Y-59714000D02*
X177002000Y-59714000D01*
X169728000Y-59674000D02*
X172315000Y-59674000D01*
X174395000Y-59674000D02*
X176982000Y-59674000D01*
X169749000Y-59634000D02*
X172315000Y-59634000D01*
X174395000Y-59634000D02*
X176961000Y-59634000D01*
X169771000Y-59594000D02*
X172315000Y-59594000D01*
X174395000Y-59594000D02*
X176939000Y-59594000D01*
X169793000Y-59554000D02*
X172315000Y-59554000D01*
X174395000Y-59554000D02*
X176917000Y-59554000D01*
X169815000Y-59514000D02*
X172315000Y-59514000D01*
X174395000Y-59514000D02*
X176895000Y-59514000D01*
X169838000Y-59474000D02*
X172315000Y-59474000D01*
X174395000Y-59474000D02*
X176872000Y-59474000D01*
X169862000Y-59434000D02*
X172315000Y-59434000D01*
X174395000Y-59434000D02*
X176848000Y-59434000D01*
X169886000Y-59394000D02*
X172315000Y-59394000D01*
X174395000Y-59394000D02*
X176824000Y-59394000D01*
X169911000Y-59354000D02*
X172315000Y-59354000D01*
X174395000Y-59354000D02*
X176799000Y-59354000D01*
X169937000Y-59314000D02*
X172315000Y-59314000D01*
X174395000Y-59314000D02*
X176773000Y-59314000D01*
X169963000Y-59274000D02*
X172315000Y-59274000D01*
X174395000Y-59274000D02*
X176747000Y-59274000D01*
X169990000Y-59234000D02*
X172315000Y-59234000D01*
X174395000Y-59234000D02*
X176720000Y-59234000D01*
X170017000Y-59194000D02*
X172315000Y-59194000D01*
X174395000Y-59194000D02*
X176693000Y-59194000D01*
X170046000Y-59154000D02*
X172315000Y-59154000D01*
X174395000Y-59154000D02*
X176664000Y-59154000D01*
X170075000Y-59114000D02*
X172315000Y-59114000D01*
X174395000Y-59114000D02*
X176635000Y-59114000D01*
X170105000Y-59074000D02*
X172315000Y-59074000D01*
X174395000Y-59074000D02*
X176605000Y-59074000D01*
X170135000Y-59034000D02*
X172315000Y-59034000D01*
X174395000Y-59034000D02*
X176575000Y-59034000D01*
X170166000Y-58994000D02*
X172315000Y-58994000D01*
X174395000Y-58994000D02*
X176544000Y-58994000D01*
X170199000Y-58954000D02*
X172315000Y-58954000D01*
X174395000Y-58954000D02*
X176511000Y-58954000D01*
X170231000Y-58914000D02*
X172315000Y-58914000D01*
X174395000Y-58914000D02*
X176479000Y-58914000D01*
X170265000Y-58874000D02*
X172315000Y-58874000D01*
X174395000Y-58874000D02*
X176445000Y-58874000D01*
X170300000Y-58834000D02*
X172315000Y-58834000D01*
X174395000Y-58834000D02*
X176410000Y-58834000D01*
X170336000Y-58794000D02*
X172315000Y-58794000D01*
X174395000Y-58794000D02*
X176374000Y-58794000D01*
X170372000Y-58754000D02*
X172315000Y-58754000D01*
X174395000Y-58754000D02*
X176338000Y-58754000D01*
X170410000Y-58714000D02*
X172315000Y-58714000D01*
X174395000Y-58714000D02*
X176300000Y-58714000D01*
X170448000Y-58674000D02*
X172315000Y-58674000D01*
X174395000Y-58674000D02*
X176262000Y-58674000D01*
X170488000Y-58634000D02*
X172315000Y-58634000D01*
X174395000Y-58634000D02*
X176222000Y-58634000D01*
X170529000Y-58594000D02*
X172315000Y-58594000D01*
X174395000Y-58594000D02*
X176181000Y-58594000D01*
X170571000Y-58554000D02*
X172315000Y-58554000D01*
X174395000Y-58554000D02*
X176139000Y-58554000D01*
X170614000Y-58514000D02*
X172315000Y-58514000D01*
X174395000Y-58514000D02*
X176096000Y-58514000D01*
X170658000Y-58474000D02*
X172315000Y-58474000D01*
X174395000Y-58474000D02*
X176052000Y-58474000D01*
X170704000Y-58434000D02*
X172315000Y-58434000D01*
X174395000Y-58434000D02*
X176006000Y-58434000D01*
X170751000Y-58394000D02*
X172315000Y-58394000D01*
X174395000Y-58394000D02*
X175959000Y-58394000D01*
X170799000Y-58354000D02*
X172315000Y-58354000D01*
X174395000Y-58354000D02*
X175911000Y-58354000D01*
X170850000Y-58314000D02*
X172315000Y-58314000D01*
X174395000Y-58314000D02*
X175860000Y-58314000D01*
X170901000Y-58274000D02*
X172315000Y-58274000D01*
X174395000Y-58274000D02*
X175809000Y-58274000D01*
X170955000Y-58234000D02*
X172315000Y-58234000D01*
X174395000Y-58234000D02*
X175755000Y-58234000D01*
X171010000Y-58194000D02*
X172315000Y-58194000D01*
X174395000Y-58194000D02*
X175700000Y-58194000D01*
X171068000Y-58154000D02*
X172315000Y-58154000D01*
X174395000Y-58154000D02*
X175642000Y-58154000D01*
X171127000Y-58114000D02*
X172315000Y-58114000D01*
X174395000Y-58114000D02*
X175583000Y-58114000D01*
X171189000Y-58074000D02*
X172315000Y-58074000D01*
X174395000Y-58074000D02*
X175521000Y-58074000D01*
X171253000Y-58034000D02*
X172315000Y-58034000D01*
X174395000Y-58034000D02*
X175457000Y-58034000D01*
X171321000Y-57994000D02*
X175389000Y-57994000D01*
X171391000Y-57954000D02*
X175319000Y-57954000D01*
X171465000Y-57914000D02*
X175245000Y-57914000D01*
X171542000Y-57874000D02*
X175168000Y-57874000D01*
X171624000Y-57834000D02*
X175086000Y-57834000D01*
X171710000Y-57794000D02*
X175000000Y-57794000D01*
X171803000Y-57754000D02*
X174907000Y-57754000D01*
X171902000Y-57714000D02*
X174808000Y-57714000D01*
X172009000Y-57674000D02*
X174701000Y-57674000D01*
X172126000Y-57634000D02*
X174584000Y-57634000D01*
X172257000Y-57594000D02*
X174453000Y-57594000D01*
X172407000Y-57554000D02*
X174303000Y-57554000D01*
X172587000Y-57514000D02*
X174123000Y-57514000D01*
X172822000Y-57474000D02*
X173888000Y-57474000D01*
X171040000Y-65964698D02*
X171040000Y-65164698D01*
X170640000Y-65564698D02*
X171440000Y-65564698D01*
G04 #@! TO.C,C4*
X197585000Y-73510000D02*
X197585000Y-71270000D01*
X202425000Y-73510000D02*
X202425000Y-71270000D01*
X202425000Y-71270000D02*
X197585000Y-71270000D01*
X202425000Y-73510000D02*
X197585000Y-73510000D01*
G04 #@! TO.C,C5*
X204955000Y-74260000D02*
X197715000Y-74260000D01*
X204955000Y-70520000D02*
X197715000Y-70520000D01*
X204955000Y-74260000D02*
X204955000Y-70520000D01*
X197715000Y-74260000D02*
X197715000Y-70520000D01*
G04 #@! TO.C,C6*
X170640000Y-56119698D02*
X171440000Y-56119698D01*
X171040000Y-56519698D02*
X171040000Y-55719698D01*
X172822000Y-48029000D02*
X173888000Y-48029000D01*
X172587000Y-48069000D02*
X174123000Y-48069000D01*
X172407000Y-48109000D02*
X174303000Y-48109000D01*
X172257000Y-48149000D02*
X174453000Y-48149000D01*
X172126000Y-48189000D02*
X174584000Y-48189000D01*
X172009000Y-48229000D02*
X174701000Y-48229000D01*
X171902000Y-48269000D02*
X174808000Y-48269000D01*
X171803000Y-48309000D02*
X174907000Y-48309000D01*
X171710000Y-48349000D02*
X175000000Y-48349000D01*
X171624000Y-48389000D02*
X175086000Y-48389000D01*
X171542000Y-48429000D02*
X175168000Y-48429000D01*
X171465000Y-48469000D02*
X175245000Y-48469000D01*
X171391000Y-48509000D02*
X175319000Y-48509000D01*
X171321000Y-48549000D02*
X175389000Y-48549000D01*
X174395000Y-48589000D02*
X175457000Y-48589000D01*
X171253000Y-48589000D02*
X172315000Y-48589000D01*
X174395000Y-48629000D02*
X175521000Y-48629000D01*
X171189000Y-48629000D02*
X172315000Y-48629000D01*
X174395000Y-48669000D02*
X175583000Y-48669000D01*
X171127000Y-48669000D02*
X172315000Y-48669000D01*
X174395000Y-48709000D02*
X175642000Y-48709000D01*
X171068000Y-48709000D02*
X172315000Y-48709000D01*
X174395000Y-48749000D02*
X175700000Y-48749000D01*
X171010000Y-48749000D02*
X172315000Y-48749000D01*
X174395000Y-48789000D02*
X175755000Y-48789000D01*
X170955000Y-48789000D02*
X172315000Y-48789000D01*
X174395000Y-48829000D02*
X175809000Y-48829000D01*
X170901000Y-48829000D02*
X172315000Y-48829000D01*
X174395000Y-48869000D02*
X175860000Y-48869000D01*
X170850000Y-48869000D02*
X172315000Y-48869000D01*
X174395000Y-48909000D02*
X175911000Y-48909000D01*
X170799000Y-48909000D02*
X172315000Y-48909000D01*
X174395000Y-48949000D02*
X175959000Y-48949000D01*
X170751000Y-48949000D02*
X172315000Y-48949000D01*
X174395000Y-48989000D02*
X176006000Y-48989000D01*
X170704000Y-48989000D02*
X172315000Y-48989000D01*
X174395000Y-49029000D02*
X176052000Y-49029000D01*
X170658000Y-49029000D02*
X172315000Y-49029000D01*
X174395000Y-49069000D02*
X176096000Y-49069000D01*
X170614000Y-49069000D02*
X172315000Y-49069000D01*
X174395000Y-49109000D02*
X176139000Y-49109000D01*
X170571000Y-49109000D02*
X172315000Y-49109000D01*
X174395000Y-49149000D02*
X176181000Y-49149000D01*
X170529000Y-49149000D02*
X172315000Y-49149000D01*
X174395000Y-49189000D02*
X176222000Y-49189000D01*
X170488000Y-49189000D02*
X172315000Y-49189000D01*
X174395000Y-49229000D02*
X176262000Y-49229000D01*
X170448000Y-49229000D02*
X172315000Y-49229000D01*
X174395000Y-49269000D02*
X176300000Y-49269000D01*
X170410000Y-49269000D02*
X172315000Y-49269000D01*
X174395000Y-49309000D02*
X176338000Y-49309000D01*
X170372000Y-49309000D02*
X172315000Y-49309000D01*
X174395000Y-49349000D02*
X176374000Y-49349000D01*
X170336000Y-49349000D02*
X172315000Y-49349000D01*
X174395000Y-49389000D02*
X176410000Y-49389000D01*
X170300000Y-49389000D02*
X172315000Y-49389000D01*
X174395000Y-49429000D02*
X176445000Y-49429000D01*
X170265000Y-49429000D02*
X172315000Y-49429000D01*
X174395000Y-49469000D02*
X176479000Y-49469000D01*
X170231000Y-49469000D02*
X172315000Y-49469000D01*
X174395000Y-49509000D02*
X176511000Y-49509000D01*
X170199000Y-49509000D02*
X172315000Y-49509000D01*
X174395000Y-49549000D02*
X176544000Y-49549000D01*
X170166000Y-49549000D02*
X172315000Y-49549000D01*
X174395000Y-49589000D02*
X176575000Y-49589000D01*
X170135000Y-49589000D02*
X172315000Y-49589000D01*
X174395000Y-49629000D02*
X176605000Y-49629000D01*
X170105000Y-49629000D02*
X172315000Y-49629000D01*
X174395000Y-49669000D02*
X176635000Y-49669000D01*
X170075000Y-49669000D02*
X172315000Y-49669000D01*
X174395000Y-49709000D02*
X176664000Y-49709000D01*
X170046000Y-49709000D02*
X172315000Y-49709000D01*
X174395000Y-49749000D02*
X176693000Y-49749000D01*
X170017000Y-49749000D02*
X172315000Y-49749000D01*
X174395000Y-49789000D02*
X176720000Y-49789000D01*
X169990000Y-49789000D02*
X172315000Y-49789000D01*
X174395000Y-49829000D02*
X176747000Y-49829000D01*
X169963000Y-49829000D02*
X172315000Y-49829000D01*
X174395000Y-49869000D02*
X176773000Y-49869000D01*
X169937000Y-49869000D02*
X172315000Y-49869000D01*
X174395000Y-49909000D02*
X176799000Y-49909000D01*
X169911000Y-49909000D02*
X172315000Y-49909000D01*
X174395000Y-49949000D02*
X176824000Y-49949000D01*
X169886000Y-49949000D02*
X172315000Y-49949000D01*
X174395000Y-49989000D02*
X176848000Y-49989000D01*
X169862000Y-49989000D02*
X172315000Y-49989000D01*
X174395000Y-50029000D02*
X176872000Y-50029000D01*
X169838000Y-50029000D02*
X172315000Y-50029000D01*
X174395000Y-50069000D02*
X176895000Y-50069000D01*
X169815000Y-50069000D02*
X172315000Y-50069000D01*
X174395000Y-50109000D02*
X176917000Y-50109000D01*
X169793000Y-50109000D02*
X172315000Y-50109000D01*
X174395000Y-50149000D02*
X176939000Y-50149000D01*
X169771000Y-50149000D02*
X172315000Y-50149000D01*
X174395000Y-50189000D02*
X176961000Y-50189000D01*
X169749000Y-50189000D02*
X172315000Y-50189000D01*
X174395000Y-50229000D02*
X176982000Y-50229000D01*
X169728000Y-50229000D02*
X172315000Y-50229000D01*
X174395000Y-50269000D02*
X177002000Y-50269000D01*
X169708000Y-50269000D02*
X172315000Y-50269000D01*
X174395000Y-50309000D02*
X177021000Y-50309000D01*
X169689000Y-50309000D02*
X172315000Y-50309000D01*
X174395000Y-50349000D02*
X177041000Y-50349000D01*
X169669000Y-50349000D02*
X172315000Y-50349000D01*
X174395000Y-50389000D02*
X177059000Y-50389000D01*
X169651000Y-50389000D02*
X172315000Y-50389000D01*
X174395000Y-50429000D02*
X177077000Y-50429000D01*
X169633000Y-50429000D02*
X172315000Y-50429000D01*
X174395000Y-50469000D02*
X177095000Y-50469000D01*
X169615000Y-50469000D02*
X172315000Y-50469000D01*
X174395000Y-50509000D02*
X177112000Y-50509000D01*
X169598000Y-50509000D02*
X172315000Y-50509000D01*
X174395000Y-50549000D02*
X177129000Y-50549000D01*
X169581000Y-50549000D02*
X172315000Y-50549000D01*
X174395000Y-50589000D02*
X177145000Y-50589000D01*
X169565000Y-50589000D02*
X172315000Y-50589000D01*
X174395000Y-50629000D02*
X177160000Y-50629000D01*
X169550000Y-50629000D02*
X172315000Y-50629000D01*
X169534000Y-50669000D02*
X177176000Y-50669000D01*
X169520000Y-50709000D02*
X177190000Y-50709000D01*
X169505000Y-50749000D02*
X177205000Y-50749000D01*
X169492000Y-50789000D02*
X177218000Y-50789000D01*
X169478000Y-50829000D02*
X177232000Y-50829000D01*
X169466000Y-50869000D02*
X177244000Y-50869000D01*
X169453000Y-50909000D02*
X177257000Y-50909000D01*
X169441000Y-50949000D02*
X177269000Y-50949000D01*
X169430000Y-50989000D02*
X177280000Y-50989000D01*
X169419000Y-51029000D02*
X177291000Y-51029000D01*
X169408000Y-51069000D02*
X177302000Y-51069000D01*
X169398000Y-51109000D02*
X177312000Y-51109000D01*
X169388000Y-51149000D02*
X177322000Y-51149000D01*
X169379000Y-51189000D02*
X177331000Y-51189000D01*
X169370000Y-51229000D02*
X177340000Y-51229000D01*
X169361000Y-51269000D02*
X177349000Y-51269000D01*
X169353000Y-51309000D02*
X177357000Y-51309000D01*
X169345000Y-51349000D02*
X177365000Y-51349000D01*
X169338000Y-51389000D02*
X177372000Y-51389000D01*
X169331000Y-51430000D02*
X177379000Y-51430000D01*
X169325000Y-51470000D02*
X177385000Y-51470000D01*
X169318000Y-51510000D02*
X177392000Y-51510000D01*
X169313000Y-51550000D02*
X177397000Y-51550000D01*
X169307000Y-51590000D02*
X177403000Y-51590000D01*
X169303000Y-51630000D02*
X177407000Y-51630000D01*
X169298000Y-51670000D02*
X177412000Y-51670000D01*
X169294000Y-51710000D02*
X177416000Y-51710000D01*
X169290000Y-51750000D02*
X177420000Y-51750000D01*
X169287000Y-51790000D02*
X177423000Y-51790000D01*
X169284000Y-51830000D02*
X177426000Y-51830000D01*
X169281000Y-51870000D02*
X177429000Y-51870000D01*
X169279000Y-51910000D02*
X177431000Y-51910000D01*
X169278000Y-51950000D02*
X177432000Y-51950000D01*
X169276000Y-51990000D02*
X177434000Y-51990000D01*
X169275000Y-52030000D02*
X177435000Y-52030000D01*
X169275000Y-52070000D02*
X177435000Y-52070000D01*
X169275000Y-52110000D02*
X177435000Y-52110000D01*
X177475000Y-52110000D02*
G75*
G03X177475000Y-52110000I-4120000J0D01*
G01*
G04 #@! TO.C,C7*
X191910000Y-35710000D02*
X196750000Y-35710000D01*
X191910000Y-37950000D02*
X196750000Y-37950000D01*
X191910000Y-35710000D02*
X191910000Y-37950000D01*
X196750000Y-35710000D02*
X196750000Y-37950000D01*
G04 #@! TO.C,C8*
X192000000Y-38700000D02*
X192000000Y-34960000D01*
X199240000Y-38700000D02*
X199240000Y-34960000D01*
X199240000Y-34960000D02*
X192000000Y-34960000D01*
X199240000Y-38700000D02*
X192000000Y-38700000D01*
G04 #@! TO.C,C9*
X189965000Y-43665000D02*
X189965000Y-41425000D01*
X194805000Y-43665000D02*
X194805000Y-41425000D01*
X194805000Y-41425000D02*
X189965000Y-41425000D01*
X194805000Y-43665000D02*
X189965000Y-43665000D01*
G04 #@! TO.C,C10*
X197255000Y-44415000D02*
X190015000Y-44415000D01*
X197255000Y-40675000D02*
X190015000Y-40675000D01*
X197255000Y-44415000D02*
X197255000Y-40675000D01*
X190015000Y-44415000D02*
X190015000Y-40675000D01*
G04 #@! TO.C,C11*
X186460000Y-40620000D02*
X186460000Y-43360000D01*
X179220000Y-40620000D02*
X179220000Y-43360000D01*
X179220000Y-43360000D02*
X186460000Y-43360000D01*
X179220000Y-40620000D02*
X186460000Y-40620000D01*
G04 #@! TO.C,C12*
X187520000Y-78306000D02*
X178280000Y-78306000D01*
X187520000Y-75364000D02*
X178280000Y-75364000D01*
X187520000Y-78306000D02*
X187520000Y-77500000D01*
X187520000Y-76170000D02*
X187520000Y-75364000D01*
X178280000Y-78306000D02*
X178280000Y-77500000D01*
X178280000Y-76170000D02*
X178280000Y-75364000D01*
G04 #@! TO.C,C13*
X198005000Y-71725000D02*
X198005000Y-70919000D01*
X198005000Y-73861000D02*
X198005000Y-73055000D01*
X207245000Y-71725000D02*
X207245000Y-70919000D01*
X207245000Y-73861000D02*
X207245000Y-73055000D01*
X207245000Y-70919000D02*
X198005000Y-70919000D01*
X207245000Y-73861000D02*
X198005000Y-73861000D01*
G04 #@! TO.C,C14*
X201450000Y-38301000D02*
X192210000Y-38301000D01*
X201450000Y-35359000D02*
X192210000Y-35359000D01*
X201450000Y-38301000D02*
X201450000Y-37495000D01*
X201450000Y-36165000D02*
X201450000Y-35359000D01*
X192210000Y-38301000D02*
X192210000Y-37495000D01*
X192210000Y-36165000D02*
X192210000Y-35359000D01*
G04 #@! TO.C,C15*
X190265000Y-41880000D02*
X190265000Y-41074000D01*
X190265000Y-44016000D02*
X190265000Y-43210000D01*
X199505000Y-41880000D02*
X199505000Y-41074000D01*
X199505000Y-44016000D02*
X199505000Y-43210000D01*
X199505000Y-41074000D02*
X190265000Y-41074000D01*
X199505000Y-44016000D02*
X190265000Y-44016000D01*
G04 #@! TO.C,J2*
X160595000Y-50105000D02*
X161925000Y-50105000D01*
X160595000Y-51435000D02*
X160595000Y-50105000D01*
X160595000Y-52705000D02*
X163255000Y-52705000D01*
X163255000Y-52705000D02*
X163255000Y-65465000D01*
X160595000Y-52705000D02*
X160595000Y-65465000D01*
X160595000Y-65465000D02*
X163255000Y-65465000D01*
G04 #@! TO.C,R1*
X205970000Y-76835000D02*
X202660000Y-76835000D01*
X192810000Y-76835000D02*
X196120000Y-76835000D01*
X202660000Y-75465000D02*
X196120000Y-75465000D01*
X202660000Y-78205000D02*
X202660000Y-75465000D01*
X196120000Y-78205000D02*
X202660000Y-78205000D01*
X196120000Y-75465000D02*
X196120000Y-78205000D01*
G04 #@! TO.C,R2*
X215035000Y-74295000D02*
X218345000Y-74295000D01*
X228195000Y-74295000D02*
X224885000Y-74295000D01*
X218345000Y-75665000D02*
X224885000Y-75665000D01*
X218345000Y-72925000D02*
X218345000Y-75665000D01*
X224885000Y-72925000D02*
X218345000Y-72925000D01*
X224885000Y-75665000D02*
X224885000Y-72925000D01*
G04 #@! TO.C,R3*
X193445000Y-67310000D02*
X196755000Y-67310000D01*
X206605000Y-67310000D02*
X203295000Y-67310000D01*
X196755000Y-68680000D02*
X203295000Y-68680000D01*
X196755000Y-65940000D02*
X196755000Y-68680000D01*
X203295000Y-65940000D02*
X196755000Y-65940000D01*
X203295000Y-68680000D02*
X203295000Y-65940000D01*
G04 #@! TO.C,R4*
X189960000Y-73760000D02*
X189960000Y-71020000D01*
X189960000Y-71020000D02*
X183420000Y-71020000D01*
X183420000Y-71020000D02*
X183420000Y-73760000D01*
X183420000Y-73760000D02*
X189960000Y-73760000D01*
X193270000Y-72390000D02*
X189960000Y-72390000D01*
X180110000Y-72390000D02*
X183420000Y-72390000D01*
G04 #@! TO.C,R5*
X224885000Y-68045000D02*
X224885000Y-65305000D01*
X224885000Y-65305000D02*
X218345000Y-65305000D01*
X218345000Y-65305000D02*
X218345000Y-68045000D01*
X218345000Y-68045000D02*
X224885000Y-68045000D01*
X228195000Y-66675000D02*
X224885000Y-66675000D01*
X215035000Y-66675000D02*
X218345000Y-66675000D01*
G04 #@! TO.C,R6*
X188695000Y-54515000D02*
X185955000Y-54515000D01*
X185955000Y-54515000D02*
X185955000Y-61055000D01*
X185955000Y-61055000D02*
X188695000Y-61055000D01*
X188695000Y-61055000D02*
X188695000Y-54515000D01*
X187325000Y-51205000D02*
X187325000Y-54515000D01*
X187325000Y-64365000D02*
X187325000Y-61055000D01*
G04 #@! TO.C,R7*
X217265000Y-38200000D02*
X217265000Y-35460000D01*
X217265000Y-35460000D02*
X210725000Y-35460000D01*
X210725000Y-35460000D02*
X210725000Y-38200000D01*
X210725000Y-38200000D02*
X217265000Y-38200000D01*
X220575000Y-36830000D02*
X217265000Y-36830000D01*
X207415000Y-36830000D02*
X210725000Y-36830000D01*
G04 #@! TO.C,R8*
X219305000Y-42545000D02*
X215995000Y-42545000D01*
X206145000Y-42545000D02*
X209455000Y-42545000D01*
X215995000Y-41175000D02*
X209455000Y-41175000D01*
X215995000Y-43915000D02*
X215995000Y-41175000D01*
X209455000Y-43915000D02*
X215995000Y-43915000D01*
X209455000Y-41175000D02*
X209455000Y-43915000D01*
G04 #@! TO.C,R9*
X192810000Y-47625000D02*
X196120000Y-47625000D01*
X205970000Y-47625000D02*
X202660000Y-47625000D01*
X196120000Y-48995000D02*
X202660000Y-48995000D01*
X196120000Y-46255000D02*
X196120000Y-48995000D01*
X202660000Y-46255000D02*
X196120000Y-46255000D01*
X202660000Y-48995000D02*
X202660000Y-46255000D01*
G04 #@! TO.C,R10*
X233775000Y-50900000D02*
X233775000Y-48160000D01*
X233775000Y-48160000D02*
X227235000Y-48160000D01*
X227235000Y-48160000D02*
X227235000Y-50900000D01*
X227235000Y-50900000D02*
X233775000Y-50900000D01*
X237085000Y-49530000D02*
X233775000Y-49530000D01*
X223925000Y-49530000D02*
X227235000Y-49530000D01*
G04 #@! TO.C,R11*
X172815000Y-47090000D02*
X172815000Y-44350000D01*
X172815000Y-44350000D02*
X166275000Y-44350000D01*
X166275000Y-44350000D02*
X166275000Y-47090000D01*
X166275000Y-47090000D02*
X172815000Y-47090000D01*
X176125000Y-45720000D02*
X172815000Y-45720000D01*
X162965000Y-45720000D02*
X166275000Y-45720000D01*
G04 #@! TO.C,R12*
X176125000Y-41910000D02*
X172815000Y-41910000D01*
X162965000Y-41910000D02*
X166275000Y-41910000D01*
X172815000Y-40540000D02*
X166275000Y-40540000D01*
X172815000Y-43280000D02*
X172815000Y-40540000D01*
X166275000Y-43280000D02*
X172815000Y-43280000D01*
X166275000Y-40540000D02*
X166275000Y-43280000D01*
G04 #@! TO.C,RV1*
X222055000Y-58430000D02*
X222055000Y-63500000D01*
X212285000Y-58430000D02*
X212285000Y-63500000D01*
X212285000Y-63500000D02*
X222055000Y-63500000D01*
X212285000Y-58430000D02*
X222055000Y-58430000D01*
G04 #@! TO.C,RV2*
X218635000Y-52715000D02*
X228405000Y-52715000D01*
X218635000Y-57785000D02*
X228405000Y-57785000D01*
X218635000Y-52715000D02*
X218635000Y-57785000D01*
X228405000Y-52715000D02*
X228405000Y-57785000D01*
G04 #@! TO.C,U1*
X190380000Y-51900000D02*
X190380000Y-62400000D01*
X208400000Y-51900000D02*
X190380000Y-51900000D01*
X208400000Y-62400000D02*
X208400000Y-51900000D01*
X190380000Y-62400000D02*
X208400000Y-62400000D01*
X190440000Y-54900000D02*
X190440000Y-56150000D01*
X208340000Y-54900000D02*
X190440000Y-54900000D01*
X208340000Y-59400000D02*
X208340000Y-54900000D01*
X190440000Y-59400000D02*
X208340000Y-59400000D01*
X190440000Y-58150000D02*
X190440000Y-59400000D01*
X190440000Y-56150000D02*
G75*
G02X190440000Y-58150000I0J-1000000D01*
G01*
G04 #@! TO.C,J1*
D10*
X162222380Y-73993333D02*
X162936666Y-73993333D01*
X163079523Y-74040952D01*
X163174761Y-74136190D01*
X163222380Y-74279047D01*
X163222380Y-74374285D01*
X163222380Y-72993333D02*
X163222380Y-73564761D01*
X163222380Y-73279047D02*
X162222380Y-73279047D01*
X162365238Y-73374285D01*
X162460476Y-73469523D01*
X162508095Y-73564761D01*
G04 #@! TO.C,C1*
X180193333Y-74942142D02*
X180145714Y-74989761D01*
X180002857Y-75037380D01*
X179907619Y-75037380D01*
X179764761Y-74989761D01*
X179669523Y-74894523D01*
X179621904Y-74799285D01*
X179574285Y-74608809D01*
X179574285Y-74465952D01*
X179621904Y-74275476D01*
X179669523Y-74180238D01*
X179764761Y-74085000D01*
X179907619Y-74037380D01*
X180002857Y-74037380D01*
X180145714Y-74085000D01*
X180193333Y-74132619D01*
X181145714Y-75037380D02*
X180574285Y-75037380D01*
X180860000Y-75037380D02*
X180860000Y-74037380D01*
X180764761Y-74180238D01*
X180669523Y-74275476D01*
X180574285Y-74323095D01*
G04 #@! TO.C,C2*
X181483333Y-80192142D02*
X181435714Y-80239761D01*
X181292857Y-80287380D01*
X181197619Y-80287380D01*
X181054761Y-80239761D01*
X180959523Y-80144523D01*
X180911904Y-80049285D01*
X180864285Y-79858809D01*
X180864285Y-79715952D01*
X180911904Y-79525476D01*
X180959523Y-79430238D01*
X181054761Y-79335000D01*
X181197619Y-79287380D01*
X181292857Y-79287380D01*
X181435714Y-79335000D01*
X181483333Y-79382619D01*
X181864285Y-79382619D02*
X181911904Y-79335000D01*
X182007142Y-79287380D01*
X182245238Y-79287380D01*
X182340476Y-79335000D01*
X182388095Y-79382619D01*
X182435714Y-79477857D01*
X182435714Y-79573095D01*
X182388095Y-79715952D01*
X181816666Y-80287380D01*
X182435714Y-80287380D01*
G04 #@! TO.C,C3*
X179173142Y-58586666D02*
X179220761Y-58634285D01*
X179268380Y-58777142D01*
X179268380Y-58872380D01*
X179220761Y-59015238D01*
X179125523Y-59110476D01*
X179030285Y-59158095D01*
X178839809Y-59205714D01*
X178696952Y-59205714D01*
X178506476Y-59158095D01*
X178411238Y-59110476D01*
X178316000Y-59015238D01*
X178268380Y-58872380D01*
X178268380Y-58777142D01*
X178316000Y-58634285D01*
X178363619Y-58586666D01*
X178268380Y-58253333D02*
X178268380Y-57634285D01*
X178649333Y-57967619D01*
X178649333Y-57824761D01*
X178696952Y-57729523D01*
X178744571Y-57681904D01*
X178839809Y-57634285D01*
X179077904Y-57634285D01*
X179173142Y-57681904D01*
X179220761Y-57729523D01*
X179268380Y-57824761D01*
X179268380Y-58110476D01*
X179220761Y-58205714D01*
X179173142Y-58253333D01*
G04 #@! TO.C,C4*
X199838333Y-74997142D02*
X199790714Y-75044761D01*
X199647857Y-75092380D01*
X199552619Y-75092380D01*
X199409761Y-75044761D01*
X199314523Y-74949523D01*
X199266904Y-74854285D01*
X199219285Y-74663809D01*
X199219285Y-74520952D01*
X199266904Y-74330476D01*
X199314523Y-74235238D01*
X199409761Y-74140000D01*
X199552619Y-74092380D01*
X199647857Y-74092380D01*
X199790714Y-74140000D01*
X199838333Y-74187619D01*
X200695476Y-74425714D02*
X200695476Y-75092380D01*
X200457380Y-74044761D02*
X200219285Y-74759047D01*
X200838333Y-74759047D01*
G04 #@! TO.C,C5*
X201168333Y-75747142D02*
X201120714Y-75794761D01*
X200977857Y-75842380D01*
X200882619Y-75842380D01*
X200739761Y-75794761D01*
X200644523Y-75699523D01*
X200596904Y-75604285D01*
X200549285Y-75413809D01*
X200549285Y-75270952D01*
X200596904Y-75080476D01*
X200644523Y-74985238D01*
X200739761Y-74890000D01*
X200882619Y-74842380D01*
X200977857Y-74842380D01*
X201120714Y-74890000D01*
X201168333Y-74937619D01*
X202073095Y-74842380D02*
X201596904Y-74842380D01*
X201549285Y-75318571D01*
X201596904Y-75270952D01*
X201692142Y-75223333D01*
X201930238Y-75223333D01*
X202025476Y-75270952D01*
X202073095Y-75318571D01*
X202120714Y-75413809D01*
X202120714Y-75651904D01*
X202073095Y-75747142D01*
X202025476Y-75794761D01*
X201930238Y-75842380D01*
X201692142Y-75842380D01*
X201596904Y-75794761D01*
X201549285Y-75747142D01*
G04 #@! TO.C,C6*
X178665142Y-48934666D02*
X178712761Y-48982285D01*
X178760380Y-49125142D01*
X178760380Y-49220380D01*
X178712761Y-49363238D01*
X178617523Y-49458476D01*
X178522285Y-49506095D01*
X178331809Y-49553714D01*
X178188952Y-49553714D01*
X177998476Y-49506095D01*
X177903238Y-49458476D01*
X177808000Y-49363238D01*
X177760380Y-49220380D01*
X177760380Y-49125142D01*
X177808000Y-48982285D01*
X177855619Y-48934666D01*
X177760380Y-48077523D02*
X177760380Y-48268000D01*
X177808000Y-48363238D01*
X177855619Y-48410857D01*
X177998476Y-48506095D01*
X178188952Y-48553714D01*
X178569904Y-48553714D01*
X178665142Y-48506095D01*
X178712761Y-48458476D01*
X178760380Y-48363238D01*
X178760380Y-48172761D01*
X178712761Y-48077523D01*
X178665142Y-48029904D01*
X178569904Y-47982285D01*
X178331809Y-47982285D01*
X178236571Y-48029904D01*
X178188952Y-48077523D01*
X178141333Y-48172761D01*
X178141333Y-48363238D01*
X178188952Y-48458476D01*
X178236571Y-48506095D01*
X178331809Y-48553714D01*
G04 #@! TO.C,C7*
X194163333Y-34937142D02*
X194115714Y-34984761D01*
X193972857Y-35032380D01*
X193877619Y-35032380D01*
X193734761Y-34984761D01*
X193639523Y-34889523D01*
X193591904Y-34794285D01*
X193544285Y-34603809D01*
X193544285Y-34460952D01*
X193591904Y-34270476D01*
X193639523Y-34175238D01*
X193734761Y-34080000D01*
X193877619Y-34032380D01*
X193972857Y-34032380D01*
X194115714Y-34080000D01*
X194163333Y-34127619D01*
X194496666Y-34032380D02*
X195163333Y-34032380D01*
X194734761Y-35032380D01*
G04 #@! TO.C,C8*
X195453333Y-40187142D02*
X195405714Y-40234761D01*
X195262857Y-40282380D01*
X195167619Y-40282380D01*
X195024761Y-40234761D01*
X194929523Y-40139523D01*
X194881904Y-40044285D01*
X194834285Y-39853809D01*
X194834285Y-39710952D01*
X194881904Y-39520476D01*
X194929523Y-39425238D01*
X195024761Y-39330000D01*
X195167619Y-39282380D01*
X195262857Y-39282380D01*
X195405714Y-39330000D01*
X195453333Y-39377619D01*
X196024761Y-39710952D02*
X195929523Y-39663333D01*
X195881904Y-39615714D01*
X195834285Y-39520476D01*
X195834285Y-39472857D01*
X195881904Y-39377619D01*
X195929523Y-39330000D01*
X196024761Y-39282380D01*
X196215238Y-39282380D01*
X196310476Y-39330000D01*
X196358095Y-39377619D01*
X196405714Y-39472857D01*
X196405714Y-39520476D01*
X196358095Y-39615714D01*
X196310476Y-39663333D01*
X196215238Y-39710952D01*
X196024761Y-39710952D01*
X195929523Y-39758571D01*
X195881904Y-39806190D01*
X195834285Y-39901428D01*
X195834285Y-40091904D01*
X195881904Y-40187142D01*
X195929523Y-40234761D01*
X196024761Y-40282380D01*
X196215238Y-40282380D01*
X196310476Y-40234761D01*
X196358095Y-40187142D01*
X196405714Y-40091904D01*
X196405714Y-39901428D01*
X196358095Y-39806190D01*
X196310476Y-39758571D01*
X196215238Y-39710952D01*
G04 #@! TO.C,C9*
X192218333Y-45152142D02*
X192170714Y-45199761D01*
X192027857Y-45247380D01*
X191932619Y-45247380D01*
X191789761Y-45199761D01*
X191694523Y-45104523D01*
X191646904Y-45009285D01*
X191599285Y-44818809D01*
X191599285Y-44675952D01*
X191646904Y-44485476D01*
X191694523Y-44390238D01*
X191789761Y-44295000D01*
X191932619Y-44247380D01*
X192027857Y-44247380D01*
X192170714Y-44295000D01*
X192218333Y-44342619D01*
X192694523Y-45247380D02*
X192885000Y-45247380D01*
X192980238Y-45199761D01*
X193027857Y-45152142D01*
X193123095Y-45009285D01*
X193170714Y-44818809D01*
X193170714Y-44437857D01*
X193123095Y-44342619D01*
X193075476Y-44295000D01*
X192980238Y-44247380D01*
X192789761Y-44247380D01*
X192694523Y-44295000D01*
X192646904Y-44342619D01*
X192599285Y-44437857D01*
X192599285Y-44675952D01*
X192646904Y-44771190D01*
X192694523Y-44818809D01*
X192789761Y-44866428D01*
X192980238Y-44866428D01*
X193075476Y-44818809D01*
X193123095Y-44771190D01*
X193170714Y-44675952D01*
G04 #@! TO.C,C10*
X192992142Y-45902142D02*
X192944523Y-45949761D01*
X192801666Y-45997380D01*
X192706428Y-45997380D01*
X192563571Y-45949761D01*
X192468333Y-45854523D01*
X192420714Y-45759285D01*
X192373095Y-45568809D01*
X192373095Y-45425952D01*
X192420714Y-45235476D01*
X192468333Y-45140238D01*
X192563571Y-45045000D01*
X192706428Y-44997380D01*
X192801666Y-44997380D01*
X192944523Y-45045000D01*
X192992142Y-45092619D01*
X193944523Y-45997380D02*
X193373095Y-45997380D01*
X193658809Y-45997380D02*
X193658809Y-44997380D01*
X193563571Y-45140238D01*
X193468333Y-45235476D01*
X193373095Y-45283095D01*
X194563571Y-44997380D02*
X194658809Y-44997380D01*
X194754047Y-45045000D01*
X194801666Y-45092619D01*
X194849285Y-45187857D01*
X194896904Y-45378333D01*
X194896904Y-45616428D01*
X194849285Y-45806904D01*
X194801666Y-45902142D01*
X194754047Y-45949761D01*
X194658809Y-45997380D01*
X194563571Y-45997380D01*
X194468333Y-45949761D01*
X194420714Y-45902142D01*
X194373095Y-45806904D01*
X194325476Y-45616428D01*
X194325476Y-45378333D01*
X194373095Y-45187857D01*
X194420714Y-45092619D01*
X194468333Y-45045000D01*
X194563571Y-44997380D01*
G04 #@! TO.C,C11*
X182197142Y-39847142D02*
X182149523Y-39894761D01*
X182006666Y-39942380D01*
X181911428Y-39942380D01*
X181768571Y-39894761D01*
X181673333Y-39799523D01*
X181625714Y-39704285D01*
X181578095Y-39513809D01*
X181578095Y-39370952D01*
X181625714Y-39180476D01*
X181673333Y-39085238D01*
X181768571Y-38990000D01*
X181911428Y-38942380D01*
X182006666Y-38942380D01*
X182149523Y-38990000D01*
X182197142Y-39037619D01*
X183149523Y-39942380D02*
X182578095Y-39942380D01*
X182863809Y-39942380D02*
X182863809Y-38942380D01*
X182768571Y-39085238D01*
X182673333Y-39180476D01*
X182578095Y-39228095D01*
X184101904Y-39942380D02*
X183530476Y-39942380D01*
X183816190Y-39942380D02*
X183816190Y-38942380D01*
X183720952Y-39085238D01*
X183625714Y-39180476D01*
X183530476Y-39228095D01*
G04 #@! TO.C,C12*
X182257142Y-79792142D02*
X182209523Y-79839761D01*
X182066666Y-79887380D01*
X181971428Y-79887380D01*
X181828571Y-79839761D01*
X181733333Y-79744523D01*
X181685714Y-79649285D01*
X181638095Y-79458809D01*
X181638095Y-79315952D01*
X181685714Y-79125476D01*
X181733333Y-79030238D01*
X181828571Y-78935000D01*
X181971428Y-78887380D01*
X182066666Y-78887380D01*
X182209523Y-78935000D01*
X182257142Y-78982619D01*
X183209523Y-79887380D02*
X182638095Y-79887380D01*
X182923809Y-79887380D02*
X182923809Y-78887380D01*
X182828571Y-79030238D01*
X182733333Y-79125476D01*
X182638095Y-79173095D01*
X183590476Y-78982619D02*
X183638095Y-78935000D01*
X183733333Y-78887380D01*
X183971428Y-78887380D01*
X184066666Y-78935000D01*
X184114285Y-78982619D01*
X184161904Y-79077857D01*
X184161904Y-79173095D01*
X184114285Y-79315952D01*
X183542857Y-79887380D01*
X184161904Y-79887380D01*
G04 #@! TO.C,C13*
X201982142Y-75347142D02*
X201934523Y-75394761D01*
X201791666Y-75442380D01*
X201696428Y-75442380D01*
X201553571Y-75394761D01*
X201458333Y-75299523D01*
X201410714Y-75204285D01*
X201363095Y-75013809D01*
X201363095Y-74870952D01*
X201410714Y-74680476D01*
X201458333Y-74585238D01*
X201553571Y-74490000D01*
X201696428Y-74442380D01*
X201791666Y-74442380D01*
X201934523Y-74490000D01*
X201982142Y-74537619D01*
X202934523Y-75442380D02*
X202363095Y-75442380D01*
X202648809Y-75442380D02*
X202648809Y-74442380D01*
X202553571Y-74585238D01*
X202458333Y-74680476D01*
X202363095Y-74728095D01*
X203267857Y-74442380D02*
X203886904Y-74442380D01*
X203553571Y-74823333D01*
X203696428Y-74823333D01*
X203791666Y-74870952D01*
X203839285Y-74918571D01*
X203886904Y-75013809D01*
X203886904Y-75251904D01*
X203839285Y-75347142D01*
X203791666Y-75394761D01*
X203696428Y-75442380D01*
X203410714Y-75442380D01*
X203315476Y-75394761D01*
X203267857Y-75347142D01*
G04 #@! TO.C,C14*
X196187142Y-39787142D02*
X196139523Y-39834761D01*
X195996666Y-39882380D01*
X195901428Y-39882380D01*
X195758571Y-39834761D01*
X195663333Y-39739523D01*
X195615714Y-39644285D01*
X195568095Y-39453809D01*
X195568095Y-39310952D01*
X195615714Y-39120476D01*
X195663333Y-39025238D01*
X195758571Y-38930000D01*
X195901428Y-38882380D01*
X195996666Y-38882380D01*
X196139523Y-38930000D01*
X196187142Y-38977619D01*
X197139523Y-39882380D02*
X196568095Y-39882380D01*
X196853809Y-39882380D02*
X196853809Y-38882380D01*
X196758571Y-39025238D01*
X196663333Y-39120476D01*
X196568095Y-39168095D01*
X197996666Y-39215714D02*
X197996666Y-39882380D01*
X197758571Y-38834761D02*
X197520476Y-39549047D01*
X198139523Y-39549047D01*
G04 #@! TO.C,C15*
X194242142Y-45502142D02*
X194194523Y-45549761D01*
X194051666Y-45597380D01*
X193956428Y-45597380D01*
X193813571Y-45549761D01*
X193718333Y-45454523D01*
X193670714Y-45359285D01*
X193623095Y-45168809D01*
X193623095Y-45025952D01*
X193670714Y-44835476D01*
X193718333Y-44740238D01*
X193813571Y-44645000D01*
X193956428Y-44597380D01*
X194051666Y-44597380D01*
X194194523Y-44645000D01*
X194242142Y-44692619D01*
X195194523Y-45597380D02*
X194623095Y-45597380D01*
X194908809Y-45597380D02*
X194908809Y-44597380D01*
X194813571Y-44740238D01*
X194718333Y-44835476D01*
X194623095Y-44883095D01*
X196099285Y-44597380D02*
X195623095Y-44597380D01*
X195575476Y-45073571D01*
X195623095Y-45025952D01*
X195718333Y-44978333D01*
X195956428Y-44978333D01*
X196051666Y-45025952D01*
X196099285Y-45073571D01*
X196146904Y-45168809D01*
X196146904Y-45406904D01*
X196099285Y-45502142D01*
X196051666Y-45549761D01*
X195956428Y-45597380D01*
X195718333Y-45597380D01*
X195623095Y-45549761D01*
X195575476Y-45502142D01*
G04 #@! TO.C,J2*
X161591666Y-48557380D02*
X161591666Y-49271666D01*
X161544047Y-49414523D01*
X161448809Y-49509761D01*
X161305952Y-49557380D01*
X161210714Y-49557380D01*
X162020238Y-48652619D02*
X162067857Y-48605000D01*
X162163095Y-48557380D01*
X162401190Y-48557380D01*
X162496428Y-48605000D01*
X162544047Y-48652619D01*
X162591666Y-48747857D01*
X162591666Y-48843095D01*
X162544047Y-48985952D01*
X161972619Y-49557380D01*
X162591666Y-49557380D01*
G04 #@! TO.C,R1*
X199223333Y-74917380D02*
X198890000Y-74441190D01*
X198651904Y-74917380D02*
X198651904Y-73917380D01*
X199032857Y-73917380D01*
X199128095Y-73965000D01*
X199175714Y-74012619D01*
X199223333Y-74107857D01*
X199223333Y-74250714D01*
X199175714Y-74345952D01*
X199128095Y-74393571D01*
X199032857Y-74441190D01*
X198651904Y-74441190D01*
X200175714Y-74917380D02*
X199604285Y-74917380D01*
X199890000Y-74917380D02*
X199890000Y-73917380D01*
X199794761Y-74060238D01*
X199699523Y-74155476D01*
X199604285Y-74203095D01*
G04 #@! TO.C,R2*
X221448333Y-77117380D02*
X221115000Y-76641190D01*
X220876904Y-77117380D02*
X220876904Y-76117380D01*
X221257857Y-76117380D01*
X221353095Y-76165000D01*
X221400714Y-76212619D01*
X221448333Y-76307857D01*
X221448333Y-76450714D01*
X221400714Y-76545952D01*
X221353095Y-76593571D01*
X221257857Y-76641190D01*
X220876904Y-76641190D01*
X221829285Y-76212619D02*
X221876904Y-76165000D01*
X221972142Y-76117380D01*
X222210238Y-76117380D01*
X222305476Y-76165000D01*
X222353095Y-76212619D01*
X222400714Y-76307857D01*
X222400714Y-76403095D01*
X222353095Y-76545952D01*
X221781666Y-77117380D01*
X222400714Y-77117380D01*
G04 #@! TO.C,R3*
X199858333Y-70132380D02*
X199525000Y-69656190D01*
X199286904Y-70132380D02*
X199286904Y-69132380D01*
X199667857Y-69132380D01*
X199763095Y-69180000D01*
X199810714Y-69227619D01*
X199858333Y-69322857D01*
X199858333Y-69465714D01*
X199810714Y-69560952D01*
X199763095Y-69608571D01*
X199667857Y-69656190D01*
X199286904Y-69656190D01*
X200191666Y-69132380D02*
X200810714Y-69132380D01*
X200477380Y-69513333D01*
X200620238Y-69513333D01*
X200715476Y-69560952D01*
X200763095Y-69608571D01*
X200810714Y-69703809D01*
X200810714Y-69941904D01*
X200763095Y-70037142D01*
X200715476Y-70084761D01*
X200620238Y-70132380D01*
X200334523Y-70132380D01*
X200239285Y-70084761D01*
X200191666Y-70037142D01*
G04 #@! TO.C,R4*
X186523333Y-75212380D02*
X186190000Y-74736190D01*
X185951904Y-75212380D02*
X185951904Y-74212380D01*
X186332857Y-74212380D01*
X186428095Y-74260000D01*
X186475714Y-74307619D01*
X186523333Y-74402857D01*
X186523333Y-74545714D01*
X186475714Y-74640952D01*
X186428095Y-74688571D01*
X186332857Y-74736190D01*
X185951904Y-74736190D01*
X187380476Y-74545714D02*
X187380476Y-75212380D01*
X187142380Y-74164761D02*
X186904285Y-74879047D01*
X187523333Y-74879047D01*
G04 #@! TO.C,R5*
X221448333Y-69497380D02*
X221115000Y-69021190D01*
X220876904Y-69497380D02*
X220876904Y-68497380D01*
X221257857Y-68497380D01*
X221353095Y-68545000D01*
X221400714Y-68592619D01*
X221448333Y-68687857D01*
X221448333Y-68830714D01*
X221400714Y-68925952D01*
X221353095Y-68973571D01*
X221257857Y-69021190D01*
X220876904Y-69021190D01*
X222353095Y-68497380D02*
X221876904Y-68497380D01*
X221829285Y-68973571D01*
X221876904Y-68925952D01*
X221972142Y-68878333D01*
X222210238Y-68878333D01*
X222305476Y-68925952D01*
X222353095Y-68973571D01*
X222400714Y-69068809D01*
X222400714Y-69306904D01*
X222353095Y-69402142D01*
X222305476Y-69449761D01*
X222210238Y-69497380D01*
X221972142Y-69497380D01*
X221876904Y-69449761D01*
X221829285Y-69402142D01*
G04 #@! TO.C,R6*
X190147380Y-57951666D02*
X189671190Y-58285000D01*
X190147380Y-58523095D02*
X189147380Y-58523095D01*
X189147380Y-58142142D01*
X189195000Y-58046904D01*
X189242619Y-57999285D01*
X189337857Y-57951666D01*
X189480714Y-57951666D01*
X189575952Y-57999285D01*
X189623571Y-58046904D01*
X189671190Y-58142142D01*
X189671190Y-58523095D01*
X189147380Y-57094523D02*
X189147380Y-57285000D01*
X189195000Y-57380238D01*
X189242619Y-57427857D01*
X189385476Y-57523095D01*
X189575952Y-57570714D01*
X189956904Y-57570714D01*
X190052142Y-57523095D01*
X190099761Y-57475476D01*
X190147380Y-57380238D01*
X190147380Y-57189761D01*
X190099761Y-57094523D01*
X190052142Y-57046904D01*
X189956904Y-56999285D01*
X189718809Y-56999285D01*
X189623571Y-57046904D01*
X189575952Y-57094523D01*
X189528333Y-57189761D01*
X189528333Y-57380238D01*
X189575952Y-57475476D01*
X189623571Y-57523095D01*
X189718809Y-57570714D01*
G04 #@! TO.C,R7*
X213828333Y-39652380D02*
X213495000Y-39176190D01*
X213256904Y-39652380D02*
X213256904Y-38652380D01*
X213637857Y-38652380D01*
X213733095Y-38700000D01*
X213780714Y-38747619D01*
X213828333Y-38842857D01*
X213828333Y-38985714D01*
X213780714Y-39080952D01*
X213733095Y-39128571D01*
X213637857Y-39176190D01*
X213256904Y-39176190D01*
X214161666Y-38652380D02*
X214828333Y-38652380D01*
X214399761Y-39652380D01*
G04 #@! TO.C,R8*
X212558333Y-40627380D02*
X212225000Y-40151190D01*
X211986904Y-40627380D02*
X211986904Y-39627380D01*
X212367857Y-39627380D01*
X212463095Y-39675000D01*
X212510714Y-39722619D01*
X212558333Y-39817857D01*
X212558333Y-39960714D01*
X212510714Y-40055952D01*
X212463095Y-40103571D01*
X212367857Y-40151190D01*
X211986904Y-40151190D01*
X213129761Y-40055952D02*
X213034523Y-40008333D01*
X212986904Y-39960714D01*
X212939285Y-39865476D01*
X212939285Y-39817857D01*
X212986904Y-39722619D01*
X213034523Y-39675000D01*
X213129761Y-39627380D01*
X213320238Y-39627380D01*
X213415476Y-39675000D01*
X213463095Y-39722619D01*
X213510714Y-39817857D01*
X213510714Y-39865476D01*
X213463095Y-39960714D01*
X213415476Y-40008333D01*
X213320238Y-40055952D01*
X213129761Y-40055952D01*
X213034523Y-40103571D01*
X212986904Y-40151190D01*
X212939285Y-40246428D01*
X212939285Y-40436904D01*
X212986904Y-40532142D01*
X213034523Y-40579761D01*
X213129761Y-40627380D01*
X213320238Y-40627380D01*
X213415476Y-40579761D01*
X213463095Y-40532142D01*
X213510714Y-40436904D01*
X213510714Y-40246428D01*
X213463095Y-40151190D01*
X213415476Y-40103571D01*
X213320238Y-40055952D01*
G04 #@! TO.C,R9*
X199223333Y-50447380D02*
X198890000Y-49971190D01*
X198651904Y-50447380D02*
X198651904Y-49447380D01*
X199032857Y-49447380D01*
X199128095Y-49495000D01*
X199175714Y-49542619D01*
X199223333Y-49637857D01*
X199223333Y-49780714D01*
X199175714Y-49875952D01*
X199128095Y-49923571D01*
X199032857Y-49971190D01*
X198651904Y-49971190D01*
X199699523Y-50447380D02*
X199890000Y-50447380D01*
X199985238Y-50399761D01*
X200032857Y-50352142D01*
X200128095Y-50209285D01*
X200175714Y-50018809D01*
X200175714Y-49637857D01*
X200128095Y-49542619D01*
X200080476Y-49495000D01*
X199985238Y-49447380D01*
X199794761Y-49447380D01*
X199699523Y-49495000D01*
X199651904Y-49542619D01*
X199604285Y-49637857D01*
X199604285Y-49875952D01*
X199651904Y-49971190D01*
X199699523Y-50018809D01*
X199794761Y-50066428D01*
X199985238Y-50066428D01*
X200080476Y-50018809D01*
X200128095Y-49971190D01*
X200175714Y-49875952D01*
G04 #@! TO.C,R10*
X229862142Y-52352380D02*
X229528809Y-51876190D01*
X229290714Y-52352380D02*
X229290714Y-51352380D01*
X229671666Y-51352380D01*
X229766904Y-51400000D01*
X229814523Y-51447619D01*
X229862142Y-51542857D01*
X229862142Y-51685714D01*
X229814523Y-51780952D01*
X229766904Y-51828571D01*
X229671666Y-51876190D01*
X229290714Y-51876190D01*
X230814523Y-52352380D02*
X230243095Y-52352380D01*
X230528809Y-52352380D02*
X230528809Y-51352380D01*
X230433571Y-51495238D01*
X230338333Y-51590476D01*
X230243095Y-51638095D01*
X231433571Y-51352380D02*
X231528809Y-51352380D01*
X231624047Y-51400000D01*
X231671666Y-51447619D01*
X231719285Y-51542857D01*
X231766904Y-51733333D01*
X231766904Y-51971428D01*
X231719285Y-52161904D01*
X231671666Y-52257142D01*
X231624047Y-52304761D01*
X231528809Y-52352380D01*
X231433571Y-52352380D01*
X231338333Y-52304761D01*
X231290714Y-52257142D01*
X231243095Y-52161904D01*
X231195476Y-51971428D01*
X231195476Y-51733333D01*
X231243095Y-51542857D01*
X231290714Y-51447619D01*
X231338333Y-51400000D01*
X231433571Y-51352380D01*
G04 #@! TO.C,R11*
X168902142Y-48542380D02*
X168568809Y-48066190D01*
X168330714Y-48542380D02*
X168330714Y-47542380D01*
X168711666Y-47542380D01*
X168806904Y-47590000D01*
X168854523Y-47637619D01*
X168902142Y-47732857D01*
X168902142Y-47875714D01*
X168854523Y-47970952D01*
X168806904Y-48018571D01*
X168711666Y-48066190D01*
X168330714Y-48066190D01*
X169854523Y-48542380D02*
X169283095Y-48542380D01*
X169568809Y-48542380D02*
X169568809Y-47542380D01*
X169473571Y-47685238D01*
X169378333Y-47780476D01*
X169283095Y-47828095D01*
X170806904Y-48542380D02*
X170235476Y-48542380D01*
X170521190Y-48542380D02*
X170521190Y-47542380D01*
X170425952Y-47685238D01*
X170330714Y-47780476D01*
X170235476Y-47828095D01*
G04 #@! TO.C,R12*
X168902142Y-39992380D02*
X168568809Y-39516190D01*
X168330714Y-39992380D02*
X168330714Y-38992380D01*
X168711666Y-38992380D01*
X168806904Y-39040000D01*
X168854523Y-39087619D01*
X168902142Y-39182857D01*
X168902142Y-39325714D01*
X168854523Y-39420952D01*
X168806904Y-39468571D01*
X168711666Y-39516190D01*
X168330714Y-39516190D01*
X169854523Y-39992380D02*
X169283095Y-39992380D01*
X169568809Y-39992380D02*
X169568809Y-38992380D01*
X169473571Y-39135238D01*
X169378333Y-39230476D01*
X169283095Y-39278095D01*
X170235476Y-39087619D02*
X170283095Y-39040000D01*
X170378333Y-38992380D01*
X170616428Y-38992380D01*
X170711666Y-39040000D01*
X170759285Y-39087619D01*
X170806904Y-39182857D01*
X170806904Y-39278095D01*
X170759285Y-39420952D01*
X170187857Y-39992380D01*
X170806904Y-39992380D01*
G04 #@! TO.C,RV1*
X216574761Y-57752380D02*
X216241428Y-57276190D01*
X216003333Y-57752380D02*
X216003333Y-56752380D01*
X216384285Y-56752380D01*
X216479523Y-56800000D01*
X216527142Y-56847619D01*
X216574761Y-56942857D01*
X216574761Y-57085714D01*
X216527142Y-57180952D01*
X216479523Y-57228571D01*
X216384285Y-57276190D01*
X216003333Y-57276190D01*
X216860476Y-56752380D02*
X217193809Y-57752380D01*
X217527142Y-56752380D01*
X218384285Y-57752380D02*
X217812857Y-57752380D01*
X218098571Y-57752380D02*
X218098571Y-56752380D01*
X218003333Y-56895238D01*
X217908095Y-56990476D01*
X217812857Y-57038095D01*
G04 #@! TO.C,RV2*
X222924761Y-52037380D02*
X222591428Y-51561190D01*
X222353333Y-52037380D02*
X222353333Y-51037380D01*
X222734285Y-51037380D01*
X222829523Y-51085000D01*
X222877142Y-51132619D01*
X222924761Y-51227857D01*
X222924761Y-51370714D01*
X222877142Y-51465952D01*
X222829523Y-51513571D01*
X222734285Y-51561190D01*
X222353333Y-51561190D01*
X223210476Y-51037380D02*
X223543809Y-52037380D01*
X223877142Y-51037380D01*
X224162857Y-51132619D02*
X224210476Y-51085000D01*
X224305714Y-51037380D01*
X224543809Y-51037380D01*
X224639047Y-51085000D01*
X224686666Y-51132619D01*
X224734285Y-51227857D01*
X224734285Y-51323095D01*
X224686666Y-51465952D01*
X224115238Y-52037380D01*
X224734285Y-52037380D01*
G04 #@! TO.C,U1*
X188892380Y-57911904D02*
X189701904Y-57911904D01*
X189797142Y-57864285D01*
X189844761Y-57816666D01*
X189892380Y-57721428D01*
X189892380Y-57530952D01*
X189844761Y-57435714D01*
X189797142Y-57388095D01*
X189701904Y-57340476D01*
X188892380Y-57340476D01*
X189892380Y-56340476D02*
X189892380Y-56911904D01*
X189892380Y-56626190D02*
X188892380Y-56626190D01*
X189035238Y-56721428D01*
X189130476Y-56816666D01*
X189178095Y-56911904D01*
G04 #@! TD*
M02*
