G04 #@! TF.GenerationSoftware,KiCad,Pcbnew,(5.1.6)-1*
G04 #@! TF.CreationDate,2024-02-15T07:59:17+01:00*
G04 #@! TF.ProjectId,AetS_Spectrum_1way,41657453-5f53-4706-9563-7472756d5f31,rev?*
G04 #@! TF.SameCoordinates,Original*
G04 #@! TF.FileFunction,Copper,L2,Bot*
G04 #@! TF.FilePolarity,Positive*
%FSLAX46Y46*%
G04 Gerber Fmt 4.6, Leading zero omitted, Abs format (unit mm)*
G04 Created by KiCad (PCBNEW (5.1.6)-1) date 2024-02-15 07:59:17*
%MOMM*%
%LPD*%
G01*
G04 APERTURE LIST*
G04 #@! TA.AperFunction,ComponentPad*
%ADD10R,1.700000X1.700000*%
G04 #@! TD*
G04 #@! TA.AperFunction,ComponentPad*
%ADD11O,1.700000X1.700000*%
G04 #@! TD*
G04 #@! TA.AperFunction,ComponentPad*
%ADD12C,1.400000*%
G04 #@! TD*
G04 #@! TA.AperFunction,ComponentPad*
%ADD13C,1.600000*%
G04 #@! TD*
G04 #@! TA.AperFunction,ComponentPad*
%ADD14R,1.600000X1.600000*%
G04 #@! TD*
G04 #@! TA.AperFunction,ComponentPad*
%ADD15O,1.600000X1.600000*%
G04 #@! TD*
G04 #@! TA.AperFunction,ComponentPad*
%ADD16C,1.440000*%
G04 #@! TD*
G04 #@! TA.AperFunction,ComponentPad*
%ADD17R,1.600000X2.400000*%
G04 #@! TD*
G04 #@! TA.AperFunction,ComponentPad*
%ADD18O,1.600000X2.400000*%
G04 #@! TD*
G04 #@! TA.AperFunction,ViaPad*
%ADD19C,1.400000*%
G04 #@! TD*
G04 #@! TA.AperFunction,Conductor*
%ADD20C,0.900000*%
G04 #@! TD*
G04 #@! TA.AperFunction,Conductor*
%ADD21C,0.508000*%
G04 #@! TD*
G04 APERTURE END LIST*
D10*
X165100000Y-73660000D03*
D11*
X167640000Y-73660000D03*
X170180000Y-73660000D03*
D12*
X181610000Y-76835000D03*
X179110000Y-76835000D03*
D13*
X184150000Y-76835000D03*
X179150000Y-76835000D03*
X175768000Y-59516000D03*
D14*
X175768000Y-64516000D03*
D12*
X201255000Y-72390000D03*
X198755000Y-72390000D03*
D13*
X198835000Y-72390000D03*
X203835000Y-72390000D03*
D14*
X175768000Y-55372000D03*
D13*
X175768000Y-50372000D03*
D12*
X195580000Y-36830000D03*
X193080000Y-36830000D03*
D13*
X198120000Y-36830000D03*
X193120000Y-36830000D03*
D12*
X193635000Y-42545000D03*
X191135000Y-42545000D03*
D13*
X191135000Y-42545000D03*
X196135000Y-42545000D03*
X180340000Y-41990000D03*
X185340000Y-41990000D03*
X179150000Y-76835000D03*
X186650000Y-76835000D03*
X206375000Y-72390000D03*
X198875000Y-72390000D03*
X193080000Y-36830000D03*
X200580000Y-36830000D03*
X198635000Y-42545000D03*
X191135000Y-42545000D03*
D10*
X161925000Y-51435000D03*
D11*
X161925000Y-53975000D03*
X161925000Y-56515000D03*
X161925000Y-59055000D03*
X161925000Y-61595000D03*
X161925000Y-64135000D03*
D13*
X191770000Y-76835000D03*
D15*
X207010000Y-76835000D03*
D13*
X229235000Y-74295000D03*
D15*
X213995000Y-74295000D03*
D13*
X207645000Y-67310000D03*
D15*
X192405000Y-67310000D03*
X179070000Y-72390000D03*
D13*
X194310000Y-72390000D03*
D15*
X213995000Y-66675000D03*
D13*
X229235000Y-66675000D03*
D15*
X187325000Y-65405000D03*
D13*
X187325000Y-50165000D03*
D15*
X206375000Y-36830000D03*
D13*
X221615000Y-36830000D03*
X205105000Y-42545000D03*
D15*
X220345000Y-42545000D03*
D13*
X207010000Y-47625000D03*
D15*
X191770000Y-47625000D03*
X222885000Y-49530000D03*
D13*
X238125000Y-49530000D03*
D15*
X161925000Y-45720000D03*
D13*
X177165000Y-45720000D03*
X161925000Y-41910000D03*
D15*
X177165000Y-41910000D03*
D16*
X219710000Y-60960000D03*
X217170000Y-60960000D03*
X214630000Y-60960000D03*
X220980000Y-55245000D03*
X223520000Y-55245000D03*
X226060000Y-55245000D03*
D17*
X191770000Y-60960000D03*
D18*
X207010000Y-53340000D03*
X194310000Y-60960000D03*
X204470000Y-53340000D03*
X196850000Y-60960000D03*
X201930000Y-53340000D03*
X199390000Y-60960000D03*
X199390000Y-53340000D03*
X201930000Y-60960000D03*
X196850000Y-53340000D03*
X204470000Y-60960000D03*
X194310000Y-53340000D03*
X207010000Y-60960000D03*
X191770000Y-53340000D03*
D19*
X165100000Y-70611986D03*
X170180004Y-61468000D03*
D20*
X198755000Y-74295000D02*
X198755000Y-72390000D01*
X213995000Y-74295000D02*
X198755000Y-74295000D01*
X191770000Y-76835000D02*
X186650000Y-76835000D01*
X181610000Y-76835000D02*
X184150000Y-76835000D01*
X186650000Y-76835000D02*
X184150000Y-76835000D01*
X198120000Y-74930000D02*
X198755000Y-74295000D01*
X194310000Y-74930000D02*
X198120000Y-74930000D01*
X191770000Y-76835000D02*
X192405000Y-76835000D01*
X192405000Y-76835000D02*
X194310000Y-74930000D01*
X179150000Y-72470000D02*
X179070000Y-72390000D01*
X179150000Y-76835000D02*
X179150000Y-72470000D01*
X187325000Y-65405000D02*
X187325000Y-67945000D01*
X185420000Y-72390000D02*
X179070000Y-72390000D01*
X187325000Y-67945000D02*
X187325000Y-70485000D01*
X187325000Y-70485000D02*
X185420000Y-72390000D01*
X191770000Y-63060000D02*
X191770000Y-60960000D01*
X187325000Y-69850000D02*
X193675000Y-69850000D01*
X193675000Y-69850000D02*
X194310000Y-69215000D01*
X194310000Y-69215000D02*
X194310000Y-65405000D01*
X187325000Y-67945000D02*
X187325000Y-69850000D01*
X194310000Y-65405000D02*
X194115000Y-65405000D01*
X194115000Y-65405000D02*
X191770000Y-63060000D01*
X165100000Y-73660000D02*
X165100000Y-70611986D01*
X178816000Y-64516000D02*
X182372000Y-60960000D01*
X175768000Y-64516000D02*
X178816000Y-64516000D01*
X187960000Y-60960000D02*
X190500000Y-58420000D01*
X199390000Y-58860000D02*
X199390000Y-60960000D01*
X198950000Y-58420000D02*
X199390000Y-58860000D01*
X182372000Y-60960000D02*
X187960000Y-60960000D01*
X190500000Y-58420000D02*
X198950000Y-58420000D01*
X161925000Y-61595000D02*
X170053004Y-61595000D01*
X175768000Y-64516000D02*
X173228004Y-64516000D01*
X170053004Y-61595000D02*
X170180004Y-61468000D01*
X173228004Y-64516000D02*
X170180004Y-61468000D01*
X201255000Y-72390000D02*
X203835000Y-72390000D01*
X203835000Y-72390000D02*
X206375000Y-72390000D01*
X201255000Y-71400051D02*
X200339949Y-70485000D01*
X201255000Y-72390000D02*
X201255000Y-71400051D01*
X200339949Y-70485000D02*
X196215000Y-70485000D01*
X196215000Y-70485000D02*
X194310000Y-72390000D01*
X196215000Y-64965000D02*
X196215000Y-70485000D01*
X194310000Y-63060000D02*
X196215000Y-64965000D01*
X194310000Y-60960000D02*
X194310000Y-63060000D01*
X198950000Y-55880000D02*
X199390000Y-55440000D01*
X181038500Y-55880000D02*
X198950000Y-55880000D01*
X168910000Y-56515000D02*
X174585000Y-50840000D01*
X199390000Y-55440000D02*
X199390000Y-53340000D01*
X174154999Y-50409999D02*
X175568499Y-50409999D01*
X161925000Y-56515000D02*
X168910000Y-56515000D01*
X174585000Y-50840000D02*
X174154999Y-50409999D01*
X175568499Y-50409999D02*
X181038500Y-55880000D01*
X200660000Y-36750000D02*
X200580000Y-36830000D01*
X195580000Y-36830000D02*
X198120000Y-36830000D01*
X200580000Y-36830000D02*
X198120000Y-36830000D01*
X200580000Y-36830000D02*
X206375000Y-36830000D01*
X220345000Y-39370000D02*
X211455000Y-39370000D01*
X211455000Y-39370000D02*
X208915000Y-36830000D01*
X222885000Y-41910000D02*
X220345000Y-39370000D01*
X222885000Y-43180000D02*
X222885000Y-41910000D01*
X191135000Y-41910000D02*
X192405000Y-40640000D01*
X191135000Y-42545000D02*
X191135000Y-41910000D01*
X192405000Y-40640000D02*
X207010000Y-40640000D01*
X207010000Y-40640000D02*
X210820000Y-44450000D01*
X208915000Y-36830000D02*
X206375000Y-36830000D01*
X210820000Y-44450000D02*
X221615000Y-44450000D01*
X221615000Y-44450000D02*
X222885000Y-43180000D01*
X191135000Y-45085000D02*
X191135000Y-42545000D01*
X189230000Y-46990000D02*
X191135000Y-45085000D01*
X189230000Y-49530000D02*
X189230000Y-46990000D01*
X187325000Y-50165000D02*
X188595000Y-50165000D01*
X188595000Y-50165000D02*
X189230000Y-49530000D01*
X193635000Y-42545000D02*
X196135000Y-42545000D01*
X196135000Y-42545000D02*
X198635000Y-42545000D01*
X198635000Y-42545000D02*
X205105000Y-42545000D01*
X194310000Y-42545000D02*
X196135000Y-42545000D01*
X194310000Y-53340000D02*
X194310000Y-42545000D01*
X177165000Y-41910000D02*
X177165000Y-45720000D01*
X177245000Y-41990000D02*
X177165000Y-41910000D01*
X180340000Y-41990000D02*
X177245000Y-41990000D01*
X172720000Y-45720000D02*
X177165000Y-45720000D01*
X161925000Y-53975000D02*
X164465000Y-53975000D01*
X164465000Y-53975000D02*
X172720000Y-45720000D01*
X208915000Y-55245000D02*
X220980000Y-55245000D01*
X207010000Y-53340000D02*
X208915000Y-55245000D01*
X188595000Y-38735000D02*
X185340000Y-41990000D01*
X188595000Y-36195000D02*
X188595000Y-38735000D01*
X191135000Y-33655000D02*
X188595000Y-36195000D01*
X223520000Y-33655000D02*
X191135000Y-33655000D01*
X220980000Y-53975000D02*
X222250000Y-52705000D01*
X220980000Y-55245000D02*
X220980000Y-53975000D01*
X222250000Y-52705000D02*
X225425000Y-52705000D01*
X225425000Y-52705000D02*
X226695000Y-51435000D01*
X226695000Y-51435000D02*
X226695000Y-36830000D01*
X226695000Y-36830000D02*
X223520000Y-33655000D01*
X170180000Y-65532000D02*
X170180000Y-73660000D01*
X161925000Y-64135000D02*
X168783000Y-64135000D01*
X168783000Y-64135000D02*
X170180000Y-65532000D01*
X170180000Y-67056000D02*
X178816000Y-67056000D01*
X170180000Y-73660000D02*
X170180000Y-67056000D01*
X192405000Y-66929000D02*
X192405000Y-67310000D01*
X178816000Y-67056000D02*
X183007000Y-62865000D01*
X183007000Y-62865000D02*
X188341000Y-62865000D01*
X188341000Y-62865000D02*
X192405000Y-66929000D01*
X161925000Y-51435000D02*
X161925000Y-49685000D01*
X161925000Y-49685000D02*
X161925000Y-45720000D01*
X207010000Y-60960000D02*
X214630000Y-60960000D01*
X208280000Y-78105000D02*
X207010000Y-76835000D01*
X219075000Y-78105000D02*
X208280000Y-78105000D01*
X219075000Y-66423233D02*
X219075000Y-78105000D01*
X214630000Y-60960000D02*
X214630000Y-61978233D01*
X214630000Y-61978233D02*
X219075000Y-66423233D01*
X204470000Y-64135000D02*
X207645000Y-67310000D01*
X204470000Y-60960000D02*
X204470000Y-64135000D01*
X213360000Y-67310000D02*
X213995000Y-66675000D01*
X207645000Y-67310000D02*
X213360000Y-67310000D01*
X217170000Y-60960000D02*
X219710000Y-60960000D01*
X219710000Y-60960000D02*
X227330000Y-60960000D01*
X229235000Y-62865000D02*
X229235000Y-66675000D01*
X227330000Y-60960000D02*
X229235000Y-62865000D01*
X207010000Y-47625000D02*
X207010000Y-50165000D01*
X220980000Y-49530000D02*
X222885000Y-49530000D01*
X220345000Y-50165000D02*
X220980000Y-49530000D01*
X207010000Y-50165000D02*
X220345000Y-50165000D01*
X206375000Y-50165000D02*
X207010000Y-50165000D01*
X204470000Y-53340000D02*
X204470000Y-52070000D01*
X204470000Y-52070000D02*
X206375000Y-50165000D01*
X191770000Y-53340000D02*
X191770000Y-50800000D01*
X191770000Y-50800000D02*
X191770000Y-47625000D01*
X193120000Y-38180000D02*
X193120000Y-36830000D01*
X193675000Y-38735000D02*
X193120000Y-38180000D01*
X208280000Y-38735000D02*
X193675000Y-38735000D01*
X211290001Y-41745001D02*
X208280000Y-38735000D01*
X220345000Y-42545000D02*
X219545001Y-41745001D01*
X219545001Y-41745001D02*
X211290001Y-41745001D01*
X186690000Y-53340000D02*
X191770000Y-53340000D01*
X193120000Y-37385000D02*
X187325000Y-43180000D01*
X193120000Y-36830000D02*
X193120000Y-37385000D01*
X187325000Y-43180000D02*
X187325000Y-46990000D01*
X187325000Y-46990000D02*
X185420000Y-48895000D01*
X185420000Y-48895000D02*
X185420000Y-52070000D01*
X185420000Y-52070000D02*
X186690000Y-53340000D01*
X238125000Y-49530000D02*
X234315000Y-53340000D01*
X223520000Y-55245000D02*
X226060000Y-55245000D01*
X232410000Y-55245000D02*
X234315000Y-53340000D01*
X226060000Y-55245000D02*
X232410000Y-55245000D01*
D21*
G36*
X242786001Y-81496000D02*
G01*
X158534000Y-81496000D01*
X158534000Y-72810000D01*
X163291385Y-72810000D01*
X163291385Y-74510000D01*
X163309805Y-74697017D01*
X163364355Y-74876846D01*
X163452941Y-75042578D01*
X163572157Y-75187843D01*
X163717422Y-75307059D01*
X163883154Y-75395645D01*
X164062983Y-75450195D01*
X164250000Y-75468615D01*
X165950000Y-75468615D01*
X166137017Y-75450195D01*
X166316846Y-75395645D01*
X166482578Y-75307059D01*
X166627843Y-75187843D01*
X166747059Y-75042578D01*
X166763549Y-75011727D01*
X166771836Y-75018251D01*
X167053499Y-75161523D01*
X167293457Y-75234310D01*
X167544000Y-75078255D01*
X167544000Y-73756000D01*
X167524000Y-73756000D01*
X167524000Y-73564000D01*
X167544000Y-73564000D01*
X167544000Y-72241745D01*
X167293457Y-72085690D01*
X167053499Y-72158477D01*
X166771836Y-72301749D01*
X166763549Y-72308273D01*
X166747059Y-72277422D01*
X166627843Y-72132157D01*
X166504000Y-72030522D01*
X166504000Y-71487874D01*
X166565756Y-71395449D01*
X166690438Y-71094440D01*
X166754000Y-70774891D01*
X166754000Y-70449081D01*
X166690438Y-70129532D01*
X166565756Y-69828523D01*
X166384746Y-69557622D01*
X166154364Y-69327240D01*
X165883463Y-69146230D01*
X165582454Y-69021548D01*
X165262905Y-68957986D01*
X164937095Y-68957986D01*
X164617546Y-69021548D01*
X164316537Y-69146230D01*
X164045636Y-69327240D01*
X163815254Y-69557622D01*
X163634244Y-69828523D01*
X163509562Y-70129532D01*
X163446000Y-70449081D01*
X163446000Y-70774891D01*
X163509562Y-71094440D01*
X163634244Y-71395449D01*
X163696001Y-71487875D01*
X163696001Y-72030521D01*
X163572157Y-72132157D01*
X163452941Y-72277422D01*
X163364355Y-72443154D01*
X163309805Y-72622983D01*
X163291385Y-72810000D01*
X158534000Y-72810000D01*
X158534000Y-50585000D01*
X160116385Y-50585000D01*
X160116385Y-52285000D01*
X160134805Y-52472017D01*
X160189355Y-52651846D01*
X160277941Y-52817578D01*
X160397157Y-52962843D01*
X160419434Y-52981125D01*
X160326316Y-53120485D01*
X160190327Y-53448793D01*
X160121000Y-53797321D01*
X160121000Y-54152679D01*
X160190327Y-54501207D01*
X160326316Y-54829515D01*
X160523742Y-55124983D01*
X160643759Y-55245000D01*
X160523742Y-55365017D01*
X160326316Y-55660485D01*
X160190327Y-55988793D01*
X160121000Y-56337321D01*
X160121000Y-56692679D01*
X160190327Y-57041207D01*
X160326316Y-57369515D01*
X160523742Y-57664983D01*
X160775017Y-57916258D01*
X160782455Y-57921228D01*
X160762218Y-57938536D01*
X160566749Y-58186836D01*
X160423477Y-58468499D01*
X160350690Y-58708457D01*
X160506745Y-58959000D01*
X161829000Y-58959000D01*
X161829000Y-58939000D01*
X162021000Y-58939000D01*
X162021000Y-58959000D01*
X163343255Y-58959000D01*
X163499310Y-58708457D01*
X163428599Y-58475342D01*
X174863106Y-58475342D01*
X175768000Y-59380235D01*
X176672894Y-58475342D01*
X176611170Y-58192151D01*
X176336699Y-58053094D01*
X176040373Y-57970255D01*
X175733579Y-57946819D01*
X175428108Y-57983685D01*
X175135699Y-58079438D01*
X174924830Y-58192151D01*
X174863106Y-58475342D01*
X163428599Y-58475342D01*
X163426523Y-58468499D01*
X163283251Y-58186836D01*
X163087782Y-57938536D01*
X163067545Y-57921228D01*
X163070879Y-57919000D01*
X168841037Y-57919000D01*
X168910000Y-57925792D01*
X168978963Y-57919000D01*
X168978970Y-57919000D01*
X169185232Y-57898685D01*
X169449887Y-57818403D01*
X169693795Y-57688032D01*
X169907581Y-57512581D01*
X169951550Y-57459005D01*
X171238555Y-56172000D01*
X174202313Y-56172000D01*
X174217025Y-56321378D01*
X174260597Y-56465016D01*
X174331355Y-56597393D01*
X174426578Y-56713422D01*
X174542607Y-56808645D01*
X174674984Y-56879403D01*
X174818622Y-56922975D01*
X174968000Y-56937687D01*
X175481500Y-56934000D01*
X175672000Y-56743500D01*
X175672000Y-55468000D01*
X175864000Y-55468000D01*
X175864000Y-56743500D01*
X176054500Y-56934000D01*
X176568000Y-56937687D01*
X176717378Y-56922975D01*
X176861016Y-56879403D01*
X176993393Y-56808645D01*
X177109422Y-56713422D01*
X177204645Y-56597393D01*
X177275403Y-56465016D01*
X177318975Y-56321378D01*
X177333687Y-56172000D01*
X177330000Y-55658500D01*
X177139500Y-55468000D01*
X175864000Y-55468000D01*
X175672000Y-55468000D01*
X174396500Y-55468000D01*
X174206000Y-55658500D01*
X174202313Y-56172000D01*
X171238555Y-56172000D01*
X172838555Y-54572000D01*
X174202313Y-54572000D01*
X174206000Y-55085500D01*
X174396500Y-55276000D01*
X175672000Y-55276000D01*
X175672000Y-54000500D01*
X175864000Y-54000500D01*
X175864000Y-55276000D01*
X177139500Y-55276000D01*
X177330000Y-55085500D01*
X177333687Y-54572000D01*
X177318975Y-54422622D01*
X177275403Y-54278984D01*
X177204645Y-54146607D01*
X177109422Y-54030578D01*
X176993393Y-53935355D01*
X176861016Y-53864597D01*
X176717378Y-53821025D01*
X176568000Y-53806313D01*
X176054500Y-53810000D01*
X175864000Y-54000500D01*
X175672000Y-54000500D01*
X175481500Y-53810000D01*
X174968000Y-53806313D01*
X174818622Y-53821025D01*
X174674984Y-53864597D01*
X174542607Y-53935355D01*
X174426578Y-54030578D01*
X174331355Y-54146607D01*
X174260597Y-54278984D01*
X174217025Y-54422622D01*
X174202313Y-54572000D01*
X172838555Y-54572000D01*
X175291750Y-52118806D01*
X179996954Y-56824010D01*
X180040919Y-56877581D01*
X180254705Y-57053032D01*
X180413653Y-57137991D01*
X180498612Y-57183403D01*
X180763268Y-57263685D01*
X180969530Y-57284000D01*
X180969537Y-57284000D01*
X181038500Y-57290792D01*
X181107463Y-57284000D01*
X189671082Y-57284000D01*
X189502419Y-57422419D01*
X189458454Y-57475990D01*
X187378445Y-59556000D01*
X182440962Y-59556000D01*
X182371999Y-59549208D01*
X182303036Y-59556000D01*
X182303030Y-59556000D01*
X182125581Y-59573477D01*
X182096767Y-59576315D01*
X182041659Y-59593032D01*
X181832113Y-59656597D01*
X181588205Y-59786968D01*
X181374419Y-59962419D01*
X181330454Y-60015990D01*
X178234445Y-63112000D01*
X177306444Y-63112000D01*
X177245843Y-63038157D01*
X177100578Y-62918941D01*
X176934846Y-62830355D01*
X176755017Y-62775805D01*
X176568000Y-62757385D01*
X174968000Y-62757385D01*
X174780983Y-62775805D01*
X174601154Y-62830355D01*
X174435422Y-62918941D01*
X174290157Y-63038157D01*
X174229556Y-63112000D01*
X173809560Y-63112000D01*
X171792128Y-61094569D01*
X171770442Y-60985546D01*
X171645760Y-60684537D01*
X171560315Y-60556658D01*
X174863106Y-60556658D01*
X174924830Y-60839849D01*
X175199301Y-60978906D01*
X175495627Y-61061745D01*
X175802421Y-61085181D01*
X176107892Y-61048315D01*
X176400301Y-60952562D01*
X176611170Y-60839849D01*
X176672894Y-60556658D01*
X175768000Y-59651765D01*
X174863106Y-60556658D01*
X171560315Y-60556658D01*
X171464750Y-60413636D01*
X171234368Y-60183254D01*
X170963467Y-60002244D01*
X170662458Y-59877562D01*
X170342909Y-59814000D01*
X170017099Y-59814000D01*
X169697550Y-59877562D01*
X169396541Y-60002244D01*
X169125640Y-60183254D01*
X169117894Y-60191000D01*
X163070879Y-60191000D01*
X163067545Y-60188772D01*
X163087782Y-60171464D01*
X163283251Y-59923164D01*
X163426523Y-59641501D01*
X163454150Y-59550421D01*
X174198819Y-59550421D01*
X174235685Y-59855892D01*
X174331438Y-60148301D01*
X174444151Y-60359170D01*
X174727342Y-60420894D01*
X175632235Y-59516000D01*
X175903765Y-59516000D01*
X176808658Y-60420894D01*
X177091849Y-60359170D01*
X177230906Y-60084699D01*
X177313745Y-59788373D01*
X177337181Y-59481579D01*
X177300315Y-59176108D01*
X177204562Y-58883699D01*
X177091849Y-58672830D01*
X176808658Y-58611106D01*
X175903765Y-59516000D01*
X175632235Y-59516000D01*
X174727342Y-58611106D01*
X174444151Y-58672830D01*
X174305094Y-58947301D01*
X174222255Y-59243627D01*
X174198819Y-59550421D01*
X163454150Y-59550421D01*
X163499310Y-59401543D01*
X163343255Y-59151000D01*
X162021000Y-59151000D01*
X162021000Y-59171000D01*
X161829000Y-59171000D01*
X161829000Y-59151000D01*
X160506745Y-59151000D01*
X160350690Y-59401543D01*
X160423477Y-59641501D01*
X160566749Y-59923164D01*
X160762218Y-60171464D01*
X160782455Y-60188772D01*
X160775017Y-60193742D01*
X160523742Y-60445017D01*
X160326316Y-60740485D01*
X160190327Y-61068793D01*
X160121000Y-61417321D01*
X160121000Y-61772679D01*
X160190327Y-62121207D01*
X160326316Y-62449515D01*
X160523742Y-62744983D01*
X160643759Y-62865000D01*
X160523742Y-62985017D01*
X160326316Y-63280485D01*
X160190327Y-63608793D01*
X160121000Y-63957321D01*
X160121000Y-64312679D01*
X160190327Y-64661207D01*
X160326316Y-64989515D01*
X160523742Y-65284983D01*
X160775017Y-65536258D01*
X161070485Y-65733684D01*
X161398793Y-65869673D01*
X161747321Y-65939000D01*
X162102679Y-65939000D01*
X162451207Y-65869673D01*
X162779515Y-65733684D01*
X163070879Y-65539000D01*
X168201445Y-65539000D01*
X168776000Y-66113556D01*
X168776000Y-66987028D01*
X168769207Y-67056000D01*
X168776000Y-67124972D01*
X168776001Y-69614405D01*
X168776000Y-72514120D01*
X168773772Y-72517455D01*
X168756464Y-72497218D01*
X168508164Y-72301749D01*
X168226501Y-72158477D01*
X167986543Y-72085690D01*
X167736000Y-72241745D01*
X167736000Y-73564000D01*
X167756000Y-73564000D01*
X167756000Y-73756000D01*
X167736000Y-73756000D01*
X167736000Y-75078255D01*
X167986543Y-75234310D01*
X168226501Y-75161523D01*
X168508164Y-75018251D01*
X168756464Y-74822782D01*
X168773772Y-74802545D01*
X168778742Y-74809983D01*
X169030017Y-75061258D01*
X169325485Y-75258684D01*
X169653793Y-75394673D01*
X170002321Y-75464000D01*
X170357679Y-75464000D01*
X170706207Y-75394673D01*
X171034515Y-75258684D01*
X171329983Y-75061258D01*
X171581258Y-74809983D01*
X171778684Y-74514515D01*
X171914673Y-74186207D01*
X171984000Y-73837679D01*
X171984000Y-73482321D01*
X171914673Y-73133793D01*
X171778684Y-72805485D01*
X171584000Y-72514121D01*
X171584000Y-68460000D01*
X178747037Y-68460000D01*
X178816000Y-68466792D01*
X178884963Y-68460000D01*
X178884970Y-68460000D01*
X179091232Y-68439685D01*
X179355887Y-68359403D01*
X179599795Y-68229032D01*
X179813581Y-68053581D01*
X179857550Y-68000005D01*
X183588556Y-64269000D01*
X185980469Y-64269000D01*
X185962579Y-64286890D01*
X185770625Y-64574169D01*
X185638405Y-64893377D01*
X185571000Y-65232246D01*
X185571000Y-65577754D01*
X185638405Y-65916623D01*
X185770625Y-66235831D01*
X185921000Y-66460883D01*
X185921001Y-67876021D01*
X185921000Y-67876031D01*
X185921001Y-69781022D01*
X185914207Y-69850000D01*
X185919608Y-69904836D01*
X184838445Y-70986000D01*
X180125883Y-70986000D01*
X179900831Y-70835625D01*
X179581623Y-70703405D01*
X179242754Y-70636000D01*
X178897246Y-70636000D01*
X178558377Y-70703405D01*
X178239169Y-70835625D01*
X177951890Y-71027579D01*
X177707579Y-71271890D01*
X177515625Y-71559169D01*
X177383405Y-71878377D01*
X177316000Y-72217246D01*
X177316000Y-72562754D01*
X177383405Y-72901623D01*
X177515625Y-73220831D01*
X177707579Y-73508110D01*
X177746001Y-73546532D01*
X177746000Y-75779117D01*
X177595625Y-76004169D01*
X177463405Y-76323377D01*
X177396000Y-76662246D01*
X177396000Y-77007754D01*
X177463405Y-77346623D01*
X177595625Y-77665831D01*
X177787579Y-77953110D01*
X178031890Y-78197421D01*
X178319169Y-78389375D01*
X178638377Y-78521595D01*
X178977246Y-78589000D01*
X179322754Y-78589000D01*
X179661623Y-78521595D01*
X179980831Y-78389375D01*
X180268110Y-78197421D01*
X180450711Y-78014821D01*
X180555636Y-78119746D01*
X180826537Y-78300756D01*
X181127546Y-78425438D01*
X181447095Y-78489000D01*
X181772905Y-78489000D01*
X182092454Y-78425438D01*
X182393463Y-78300756D01*
X182485888Y-78239000D01*
X183094117Y-78239000D01*
X183319169Y-78389375D01*
X183638377Y-78521595D01*
X183977246Y-78589000D01*
X184322754Y-78589000D01*
X184661623Y-78521595D01*
X184980831Y-78389375D01*
X185205883Y-78239000D01*
X185594117Y-78239000D01*
X185819169Y-78389375D01*
X186138377Y-78521595D01*
X186477246Y-78589000D01*
X186822754Y-78589000D01*
X187161623Y-78521595D01*
X187480831Y-78389375D01*
X187705883Y-78239000D01*
X190714117Y-78239000D01*
X190939169Y-78389375D01*
X191258377Y-78521595D01*
X191597246Y-78589000D01*
X191942754Y-78589000D01*
X192281623Y-78521595D01*
X192600831Y-78389375D01*
X192888110Y-78197421D01*
X192949701Y-78135830D01*
X193188795Y-78008032D01*
X193402581Y-77832581D01*
X193446550Y-77779005D01*
X194891556Y-76334000D01*
X198051037Y-76334000D01*
X198120000Y-76340792D01*
X198188963Y-76334000D01*
X198188970Y-76334000D01*
X198395232Y-76313685D01*
X198659887Y-76233403D01*
X198903795Y-76103032D01*
X199117581Y-75927581D01*
X199161550Y-75874005D01*
X199336555Y-75699000D01*
X205665469Y-75699000D01*
X205647579Y-75716890D01*
X205455625Y-76004169D01*
X205323405Y-76323377D01*
X205256000Y-76662246D01*
X205256000Y-77007754D01*
X205323405Y-77346623D01*
X205455625Y-77665831D01*
X205647579Y-77953110D01*
X205891890Y-78197421D01*
X206179169Y-78389375D01*
X206498377Y-78521595D01*
X206763845Y-78574400D01*
X207238450Y-79049005D01*
X207282419Y-79102581D01*
X207496205Y-79278032D01*
X207740113Y-79408403D01*
X207924485Y-79464331D01*
X208004767Y-79488685D01*
X208033581Y-79491523D01*
X208211030Y-79509000D01*
X208211036Y-79509000D01*
X208279999Y-79515792D01*
X208348962Y-79509000D01*
X219006030Y-79509000D01*
X219075000Y-79515793D01*
X219143970Y-79509000D01*
X219350232Y-79488685D01*
X219614887Y-79408403D01*
X219858795Y-79278032D01*
X220072581Y-79102581D01*
X220248032Y-78888795D01*
X220378403Y-78644887D01*
X220458685Y-78380232D01*
X220485793Y-78105000D01*
X220479000Y-78036030D01*
X220479000Y-75335658D01*
X228330106Y-75335658D01*
X228391830Y-75618849D01*
X228666301Y-75757906D01*
X228962627Y-75840745D01*
X229269421Y-75864181D01*
X229574892Y-75827315D01*
X229867301Y-75731562D01*
X230078170Y-75618849D01*
X230139894Y-75335658D01*
X229235000Y-74430765D01*
X228330106Y-75335658D01*
X220479000Y-75335658D01*
X220479000Y-74329421D01*
X227665819Y-74329421D01*
X227702685Y-74634892D01*
X227798438Y-74927301D01*
X227911151Y-75138170D01*
X228194342Y-75199894D01*
X229099235Y-74295000D01*
X229370765Y-74295000D01*
X230275658Y-75199894D01*
X230558849Y-75138170D01*
X230697906Y-74863699D01*
X230780745Y-74567373D01*
X230804181Y-74260579D01*
X230767315Y-73955108D01*
X230671562Y-73662699D01*
X230558849Y-73451830D01*
X230275658Y-73390106D01*
X229370765Y-74295000D01*
X229099235Y-74295000D01*
X228194342Y-73390106D01*
X227911151Y-73451830D01*
X227772094Y-73726301D01*
X227689255Y-74022627D01*
X227665819Y-74329421D01*
X220479000Y-74329421D01*
X220479000Y-73254342D01*
X228330106Y-73254342D01*
X229235000Y-74159235D01*
X230139894Y-73254342D01*
X230078170Y-72971151D01*
X229803699Y-72832094D01*
X229507373Y-72749255D01*
X229200579Y-72725819D01*
X228895108Y-72762685D01*
X228602699Y-72858438D01*
X228391830Y-72971151D01*
X228330106Y-73254342D01*
X220479000Y-73254342D01*
X220479000Y-66492195D01*
X220485792Y-66423232D01*
X220479000Y-66354269D01*
X220479000Y-66354263D01*
X220458685Y-66148001D01*
X220454776Y-66135113D01*
X220431511Y-66058419D01*
X220378403Y-65883346D01*
X220248032Y-65639438D01*
X220072580Y-65425652D01*
X220019009Y-65381687D01*
X217271322Y-62634000D01*
X217334875Y-62634000D01*
X217658288Y-62569669D01*
X217962936Y-62443480D01*
X218081886Y-62364000D01*
X218798114Y-62364000D01*
X218917064Y-62443480D01*
X219221712Y-62569669D01*
X219545125Y-62634000D01*
X219874875Y-62634000D01*
X220198288Y-62569669D01*
X220502936Y-62443480D01*
X220621886Y-62364000D01*
X226748445Y-62364000D01*
X227831000Y-63446556D01*
X227831001Y-65619116D01*
X227680625Y-65844169D01*
X227548405Y-66163377D01*
X227481000Y-66502246D01*
X227481000Y-66847754D01*
X227548405Y-67186623D01*
X227680625Y-67505831D01*
X227872579Y-67793110D01*
X228116890Y-68037421D01*
X228404169Y-68229375D01*
X228723377Y-68361595D01*
X229062246Y-68429000D01*
X229407754Y-68429000D01*
X229746623Y-68361595D01*
X230065831Y-68229375D01*
X230353110Y-68037421D01*
X230597421Y-67793110D01*
X230789375Y-67505831D01*
X230921595Y-67186623D01*
X230989000Y-66847754D01*
X230989000Y-66502246D01*
X230921595Y-66163377D01*
X230789375Y-65844169D01*
X230639000Y-65619117D01*
X230639000Y-62933963D01*
X230645792Y-62865000D01*
X230639000Y-62796037D01*
X230639000Y-62796030D01*
X230618685Y-62589768D01*
X230601278Y-62532383D01*
X230564762Y-62412008D01*
X230538403Y-62325113D01*
X230408032Y-62081205D01*
X230323524Y-61978233D01*
X230276547Y-61920991D01*
X230276541Y-61920985D01*
X230232580Y-61867419D01*
X230179015Y-61823459D01*
X228371550Y-60015995D01*
X228327581Y-59962419D01*
X228113795Y-59786968D01*
X227869887Y-59656597D01*
X227605232Y-59576315D01*
X227398970Y-59556000D01*
X227398963Y-59556000D01*
X227330000Y-59549208D01*
X227261037Y-59556000D01*
X220621886Y-59556000D01*
X220502936Y-59476520D01*
X220198288Y-59350331D01*
X219874875Y-59286000D01*
X219545125Y-59286000D01*
X219221712Y-59350331D01*
X218917064Y-59476520D01*
X218798114Y-59556000D01*
X218081886Y-59556000D01*
X217962936Y-59476520D01*
X217658288Y-59350331D01*
X217334875Y-59286000D01*
X217005125Y-59286000D01*
X216681712Y-59350331D01*
X216377064Y-59476520D01*
X216102887Y-59659719D01*
X215900000Y-59862606D01*
X215697113Y-59659719D01*
X215422936Y-59476520D01*
X215118288Y-59350331D01*
X214794875Y-59286000D01*
X214465125Y-59286000D01*
X214141712Y-59350331D01*
X213837064Y-59476520D01*
X213718114Y-59556000D01*
X208455089Y-59556000D01*
X208256266Y-59313734D01*
X207989184Y-59094546D01*
X207684473Y-58931675D01*
X207353843Y-58831380D01*
X207010000Y-58797514D01*
X206666156Y-58831380D01*
X206335526Y-58931675D01*
X206030815Y-59094546D01*
X205763734Y-59313734D01*
X205740000Y-59342654D01*
X205716266Y-59313734D01*
X205449184Y-59094546D01*
X205144473Y-58931675D01*
X204813843Y-58831380D01*
X204470000Y-58797514D01*
X204126156Y-58831380D01*
X203795526Y-58931675D01*
X203490815Y-59094546D01*
X203223734Y-59313734D01*
X203070941Y-59499913D01*
X202966619Y-59387617D01*
X202717980Y-59207910D01*
X202439060Y-59080163D01*
X202268707Y-59035165D01*
X202026000Y-59191864D01*
X202026000Y-60864000D01*
X202046000Y-60864000D01*
X202046000Y-61056000D01*
X202026000Y-61056000D01*
X202026000Y-62728136D01*
X202268707Y-62884835D01*
X202439060Y-62839837D01*
X202717980Y-62712090D01*
X202966619Y-62532383D01*
X203066000Y-62425406D01*
X203066001Y-64066027D01*
X203059208Y-64135000D01*
X203086315Y-64410232D01*
X203140238Y-64587990D01*
X203166598Y-64674887D01*
X203296969Y-64918795D01*
X203472420Y-65132581D01*
X203525990Y-65176545D01*
X205905601Y-67556156D01*
X205958405Y-67821623D01*
X206090625Y-68140831D01*
X206282579Y-68428110D01*
X206526890Y-68672421D01*
X206814169Y-68864375D01*
X207133377Y-68996595D01*
X207472246Y-69064000D01*
X207817754Y-69064000D01*
X208156623Y-68996595D01*
X208475831Y-68864375D01*
X208700883Y-68714000D01*
X213291037Y-68714000D01*
X213360000Y-68720792D01*
X213428963Y-68714000D01*
X213428970Y-68714000D01*
X213635232Y-68693685D01*
X213899887Y-68613403D01*
X214143795Y-68483032D01*
X214223030Y-68418005D01*
X214506623Y-68361595D01*
X214825831Y-68229375D01*
X215113110Y-68037421D01*
X215357421Y-67793110D01*
X215549375Y-67505831D01*
X215681595Y-67186623D01*
X215749000Y-66847754D01*
X215749000Y-66502246D01*
X215681595Y-66163377D01*
X215549375Y-65844169D01*
X215357421Y-65556890D01*
X215113110Y-65312579D01*
X214825831Y-65120625D01*
X214506623Y-64988405D01*
X214167754Y-64921000D01*
X213822246Y-64921000D01*
X213483377Y-64988405D01*
X213164169Y-65120625D01*
X212876890Y-65312579D01*
X212632579Y-65556890D01*
X212440625Y-65844169D01*
X212415014Y-65906000D01*
X208700883Y-65906000D01*
X208475831Y-65755625D01*
X208156623Y-65623405D01*
X207891156Y-65570601D01*
X205874000Y-63553445D01*
X205874000Y-62696758D01*
X206030816Y-62825454D01*
X206335527Y-62988325D01*
X206666157Y-63088620D01*
X207010000Y-63122486D01*
X207353844Y-63088620D01*
X207684474Y-62988325D01*
X207989185Y-62825454D01*
X208256266Y-62606266D01*
X208455089Y-62364000D01*
X213279845Y-62364000D01*
X213326597Y-62518120D01*
X213456968Y-62762028D01*
X213632420Y-62975814D01*
X213685991Y-63019779D01*
X217671000Y-67004788D01*
X217671001Y-76701000D01*
X208861555Y-76701000D01*
X208749400Y-76588845D01*
X208696595Y-76323377D01*
X208564375Y-76004169D01*
X208372421Y-75716890D01*
X208354531Y-75699000D01*
X212939117Y-75699000D01*
X213164169Y-75849375D01*
X213483377Y-75981595D01*
X213822246Y-76049000D01*
X214167754Y-76049000D01*
X214506623Y-75981595D01*
X214825831Y-75849375D01*
X215113110Y-75657421D01*
X215357421Y-75413110D01*
X215549375Y-75125831D01*
X215681595Y-74806623D01*
X215749000Y-74467754D01*
X215749000Y-74122246D01*
X215681595Y-73783377D01*
X215549375Y-73464169D01*
X215357421Y-73176890D01*
X215113110Y-72932579D01*
X214825831Y-72740625D01*
X214506623Y-72608405D01*
X214167754Y-72541000D01*
X213822246Y-72541000D01*
X213483377Y-72608405D01*
X213164169Y-72740625D01*
X212939117Y-72891000D01*
X208063708Y-72891000D01*
X208129000Y-72562754D01*
X208129000Y-72217246D01*
X208061595Y-71878377D01*
X207929375Y-71559169D01*
X207737421Y-71271890D01*
X207493110Y-71027579D01*
X207205831Y-70835625D01*
X206886623Y-70703405D01*
X206547754Y-70636000D01*
X206202246Y-70636000D01*
X205863377Y-70703405D01*
X205544169Y-70835625D01*
X205319117Y-70986000D01*
X204890883Y-70986000D01*
X204665831Y-70835625D01*
X204346623Y-70703405D01*
X204007754Y-70636000D01*
X203662246Y-70636000D01*
X203323377Y-70703405D01*
X203004169Y-70835625D01*
X202779117Y-70986000D01*
X202596575Y-70986000D01*
X202594514Y-70979207D01*
X202558403Y-70860163D01*
X202492036Y-70736000D01*
X202428032Y-70616256D01*
X202252581Y-70402470D01*
X202199005Y-70358501D01*
X201381499Y-69540995D01*
X201337530Y-69487419D01*
X201123744Y-69311968D01*
X200879836Y-69181597D01*
X200615181Y-69101315D01*
X200408919Y-69081000D01*
X200408912Y-69081000D01*
X200339949Y-69074208D01*
X200270986Y-69081000D01*
X197619000Y-69081000D01*
X197619000Y-65033963D01*
X197625792Y-64965000D01*
X197619000Y-64896037D01*
X197619000Y-64896030D01*
X197598685Y-64689768D01*
X197518403Y-64425113D01*
X197388032Y-64181205D01*
X197322401Y-64101235D01*
X197256547Y-64020991D01*
X197256541Y-64020985D01*
X197212580Y-63967419D01*
X197159015Y-63923459D01*
X195714000Y-62478445D01*
X195714000Y-62425406D01*
X195813381Y-62532383D01*
X196062020Y-62712090D01*
X196340940Y-62839837D01*
X196511293Y-62884835D01*
X196754000Y-62728136D01*
X196754000Y-61056000D01*
X196734000Y-61056000D01*
X196734000Y-60864000D01*
X196754000Y-60864000D01*
X196754000Y-60844000D01*
X196946000Y-60844000D01*
X196946000Y-60864000D01*
X196966000Y-60864000D01*
X196966000Y-61056000D01*
X196946000Y-61056000D01*
X196946000Y-62728136D01*
X197188707Y-62884835D01*
X197359060Y-62839837D01*
X197637980Y-62712090D01*
X197886619Y-62532383D01*
X197990941Y-62420087D01*
X198143735Y-62606266D01*
X198410816Y-62825454D01*
X198715527Y-62988325D01*
X199046157Y-63088620D01*
X199390000Y-63122486D01*
X199733844Y-63088620D01*
X200064474Y-62988325D01*
X200369185Y-62825454D01*
X200636266Y-62606266D01*
X200789059Y-62420087D01*
X200893381Y-62532383D01*
X201142020Y-62712090D01*
X201420940Y-62839837D01*
X201591293Y-62884835D01*
X201834000Y-62728136D01*
X201834000Y-61056000D01*
X201814000Y-61056000D01*
X201814000Y-60864000D01*
X201834000Y-60864000D01*
X201834000Y-59191864D01*
X201591293Y-59035165D01*
X201420940Y-59080163D01*
X201142020Y-59207910D01*
X200893381Y-59387617D01*
X200794000Y-59494594D01*
X200794000Y-58928963D01*
X200800792Y-58860000D01*
X200794000Y-58791037D01*
X200794000Y-58791030D01*
X200773685Y-58584768D01*
X200693403Y-58320113D01*
X200563032Y-58076205D01*
X200439590Y-57925792D01*
X200431547Y-57915992D01*
X200431546Y-57915991D01*
X200387580Y-57862419D01*
X200334009Y-57818454D01*
X199991550Y-57475995D01*
X199947581Y-57422419D01*
X199733795Y-57246968D01*
X199552380Y-57150000D01*
X199733795Y-57053032D01*
X199947581Y-56877581D01*
X199991550Y-56824005D01*
X200334009Y-56481546D01*
X200387580Y-56437581D01*
X200563032Y-56223795D01*
X200693403Y-55979887D01*
X200768208Y-55733288D01*
X200773685Y-55715233D01*
X200779077Y-55660485D01*
X200794000Y-55508970D01*
X200794000Y-55508963D01*
X200800792Y-55440000D01*
X200794000Y-55371037D01*
X200794000Y-54805406D01*
X200893381Y-54912383D01*
X201142020Y-55092090D01*
X201420940Y-55219837D01*
X201591293Y-55264835D01*
X201834000Y-55108136D01*
X201834000Y-53436000D01*
X201814000Y-53436000D01*
X201814000Y-53244000D01*
X201834000Y-53244000D01*
X201834000Y-51571864D01*
X201591293Y-51415165D01*
X201420940Y-51460163D01*
X201142020Y-51587910D01*
X200893381Y-51767617D01*
X200789059Y-51879913D01*
X200636266Y-51693734D01*
X200369184Y-51474546D01*
X200064473Y-51311675D01*
X199733843Y-51211380D01*
X199390000Y-51177514D01*
X199046156Y-51211380D01*
X198715526Y-51311675D01*
X198410815Y-51474546D01*
X198143734Y-51693734D01*
X197990941Y-51879913D01*
X197886619Y-51767617D01*
X197637980Y-51587910D01*
X197359060Y-51460163D01*
X197188707Y-51415165D01*
X196946000Y-51571864D01*
X196946000Y-53244000D01*
X196966000Y-53244000D01*
X196966000Y-53436000D01*
X196946000Y-53436000D01*
X196946000Y-53456000D01*
X196754000Y-53456000D01*
X196754000Y-53436000D01*
X196734000Y-53436000D01*
X196734000Y-53244000D01*
X196754000Y-53244000D01*
X196754000Y-51571864D01*
X196511293Y-51415165D01*
X196340940Y-51460163D01*
X196062020Y-51587910D01*
X195813381Y-51767617D01*
X195714000Y-51874594D01*
X195714000Y-44249621D01*
X195962246Y-44299000D01*
X196307754Y-44299000D01*
X196646623Y-44231595D01*
X196965831Y-44099375D01*
X197190883Y-43949000D01*
X197579117Y-43949000D01*
X197804169Y-44099375D01*
X198123377Y-44231595D01*
X198462246Y-44299000D01*
X198807754Y-44299000D01*
X199146623Y-44231595D01*
X199465831Y-44099375D01*
X199690883Y-43949000D01*
X204049117Y-43949000D01*
X204274169Y-44099375D01*
X204593377Y-44231595D01*
X204932246Y-44299000D01*
X205277754Y-44299000D01*
X205616623Y-44231595D01*
X205935831Y-44099375D01*
X206223110Y-43907421D01*
X206467421Y-43663110D01*
X206659375Y-43375831D01*
X206791595Y-43056623D01*
X206859000Y-42717754D01*
X206859000Y-42474555D01*
X209778454Y-45394010D01*
X209822419Y-45447581D01*
X210036205Y-45623032D01*
X210195153Y-45707991D01*
X210280112Y-45753403D01*
X210544768Y-45833685D01*
X210751030Y-45854000D01*
X210751037Y-45854000D01*
X210820000Y-45860792D01*
X210888963Y-45854000D01*
X221546037Y-45854000D01*
X221615000Y-45860792D01*
X221683963Y-45854000D01*
X221683970Y-45854000D01*
X221890232Y-45833685D01*
X222154887Y-45753403D01*
X222398795Y-45623032D01*
X222612581Y-45447581D01*
X222656550Y-45394005D01*
X223829009Y-44221546D01*
X223882580Y-44177581D01*
X224058032Y-43963795D01*
X224188403Y-43719887D01*
X224253287Y-43505992D01*
X224268685Y-43455233D01*
X224276505Y-43375831D01*
X224289000Y-43248970D01*
X224289000Y-43248964D01*
X224295792Y-43180001D01*
X224289000Y-43111038D01*
X224289000Y-41978962D01*
X224295792Y-41909999D01*
X224289000Y-41841036D01*
X224289000Y-41841030D01*
X224268685Y-41634768D01*
X224253288Y-41584009D01*
X224218633Y-41469768D01*
X224188403Y-41370113D01*
X224058032Y-41126205D01*
X223882581Y-40912419D01*
X223829009Y-40868453D01*
X221386550Y-38425995D01*
X221345490Y-38375964D01*
X221649421Y-38399181D01*
X221954892Y-38362315D01*
X222247301Y-38266562D01*
X222458170Y-38153849D01*
X222519894Y-37870658D01*
X221615000Y-36965765D01*
X220710106Y-37870658D01*
X220743462Y-38023696D01*
X220620232Y-37986315D01*
X220413970Y-37966000D01*
X220413963Y-37966000D01*
X220345000Y-37959208D01*
X220276037Y-37966000D01*
X212036556Y-37966000D01*
X210934977Y-36864421D01*
X220045819Y-36864421D01*
X220082685Y-37169892D01*
X220178438Y-37462301D01*
X220291151Y-37673170D01*
X220574342Y-37734894D01*
X221479235Y-36830000D01*
X221750765Y-36830000D01*
X222655658Y-37734894D01*
X222938849Y-37673170D01*
X223077906Y-37398699D01*
X223160745Y-37102373D01*
X223184181Y-36795579D01*
X223147315Y-36490108D01*
X223051562Y-36197699D01*
X222938849Y-35986830D01*
X222655658Y-35925106D01*
X221750765Y-36830000D01*
X221479235Y-36830000D01*
X220574342Y-35925106D01*
X220291151Y-35986830D01*
X220152094Y-36261301D01*
X220069255Y-36557627D01*
X220045819Y-36864421D01*
X210934977Y-36864421D01*
X209956550Y-35885995D01*
X209912581Y-35832419D01*
X209860092Y-35789342D01*
X220710106Y-35789342D01*
X221615000Y-36694235D01*
X222519894Y-35789342D01*
X222458170Y-35506151D01*
X222183699Y-35367094D01*
X221887373Y-35284255D01*
X221580579Y-35260819D01*
X221275108Y-35297685D01*
X220982699Y-35393438D01*
X220771830Y-35506151D01*
X220710106Y-35789342D01*
X209860092Y-35789342D01*
X209698795Y-35656968D01*
X209454887Y-35526597D01*
X209190232Y-35446315D01*
X208983970Y-35426000D01*
X208983963Y-35426000D01*
X208915000Y-35419208D01*
X208846037Y-35426000D01*
X207430883Y-35426000D01*
X207205831Y-35275625D01*
X206886623Y-35143405D01*
X206547754Y-35076000D01*
X206202246Y-35076000D01*
X205863377Y-35143405D01*
X205544169Y-35275625D01*
X205319117Y-35426000D01*
X201635883Y-35426000D01*
X201410831Y-35275625D01*
X201091623Y-35143405D01*
X200752754Y-35076000D01*
X200407246Y-35076000D01*
X200068377Y-35143405D01*
X199749169Y-35275625D01*
X199524117Y-35426000D01*
X199175883Y-35426000D01*
X198950831Y-35275625D01*
X198631623Y-35143405D01*
X198292754Y-35076000D01*
X197947246Y-35076000D01*
X197608377Y-35143405D01*
X197289169Y-35275625D01*
X197064117Y-35426000D01*
X196455888Y-35426000D01*
X196363463Y-35364244D01*
X196062454Y-35239562D01*
X195742905Y-35176000D01*
X195417095Y-35176000D01*
X195097546Y-35239562D01*
X194796537Y-35364244D01*
X194525636Y-35545254D01*
X194420711Y-35650180D01*
X194238110Y-35467579D01*
X193950831Y-35275625D01*
X193631623Y-35143405D01*
X193292754Y-35076000D01*
X192907246Y-35076000D01*
X192568377Y-35143405D01*
X192249169Y-35275625D01*
X191961890Y-35467579D01*
X191717579Y-35711890D01*
X191525625Y-35999169D01*
X191393405Y-36318377D01*
X191326000Y-36657246D01*
X191326000Y-37002754D01*
X191357637Y-37161807D01*
X189999000Y-38520444D01*
X189999000Y-36776555D01*
X191716556Y-35059000D01*
X222938445Y-35059000D01*
X225291001Y-37411557D01*
X225291000Y-50853445D01*
X224843445Y-51301000D01*
X222318962Y-51301000D01*
X222249999Y-51294208D01*
X222181036Y-51301000D01*
X222181030Y-51301000D01*
X222003581Y-51318477D01*
X221974767Y-51321315D01*
X221919659Y-51338032D01*
X221710113Y-51401597D01*
X221466205Y-51531968D01*
X221252419Y-51707419D01*
X221208450Y-51760995D01*
X220035991Y-52933454D01*
X219982420Y-52977419D01*
X219938455Y-53030990D01*
X219938453Y-53030992D01*
X219893018Y-53086354D01*
X219806969Y-53191205D01*
X219676597Y-53435113D01*
X219596315Y-53699768D01*
X219582405Y-53841000D01*
X209496556Y-53841000D01*
X208764000Y-53108445D01*
X208764000Y-52853841D01*
X208738620Y-52596156D01*
X208638325Y-52265526D01*
X208475454Y-51960815D01*
X208256266Y-51693734D01*
X208104277Y-51569000D01*
X220276037Y-51569000D01*
X220345000Y-51575792D01*
X220413963Y-51569000D01*
X220413970Y-51569000D01*
X220620232Y-51548685D01*
X220884887Y-51468403D01*
X221128795Y-51338032D01*
X221342581Y-51162581D01*
X221386550Y-51109005D01*
X221561555Y-50934000D01*
X221829117Y-50934000D01*
X222054169Y-51084375D01*
X222373377Y-51216595D01*
X222712246Y-51284000D01*
X223057754Y-51284000D01*
X223396623Y-51216595D01*
X223715831Y-51084375D01*
X224003110Y-50892421D01*
X224247421Y-50648110D01*
X224439375Y-50360831D01*
X224571595Y-50041623D01*
X224639000Y-49702754D01*
X224639000Y-49357246D01*
X224571595Y-49018377D01*
X224439375Y-48699169D01*
X224247421Y-48411890D01*
X224003110Y-48167579D01*
X223715831Y-47975625D01*
X223396623Y-47843405D01*
X223057754Y-47776000D01*
X222712246Y-47776000D01*
X222373377Y-47843405D01*
X222054169Y-47975625D01*
X221829117Y-48126000D01*
X221048963Y-48126000D01*
X220980000Y-48119208D01*
X220911037Y-48126000D01*
X220911030Y-48126000D01*
X220704768Y-48146315D01*
X220440112Y-48226597D01*
X220377101Y-48260277D01*
X220196205Y-48356968D01*
X219982419Y-48532419D01*
X219938450Y-48585995D01*
X219763445Y-48761000D01*
X208414000Y-48761000D01*
X208414000Y-48680883D01*
X208564375Y-48455831D01*
X208696595Y-48136623D01*
X208764000Y-47797754D01*
X208764000Y-47452246D01*
X208696595Y-47113377D01*
X208564375Y-46794169D01*
X208372421Y-46506890D01*
X208128110Y-46262579D01*
X207840831Y-46070625D01*
X207521623Y-45938405D01*
X207182754Y-45871000D01*
X206837246Y-45871000D01*
X206498377Y-45938405D01*
X206179169Y-46070625D01*
X205891890Y-46262579D01*
X205647579Y-46506890D01*
X205455625Y-46794169D01*
X205323405Y-47113377D01*
X205256000Y-47452246D01*
X205256000Y-47797754D01*
X205323405Y-48136623D01*
X205455625Y-48455831D01*
X205606000Y-48680883D01*
X205606001Y-48984060D01*
X205591205Y-48991968D01*
X205377419Y-49167419D01*
X205333454Y-49220990D01*
X203525992Y-51028453D01*
X203472420Y-51072419D01*
X203296969Y-51286205D01*
X203166597Y-51530113D01*
X203086315Y-51794768D01*
X203078882Y-51870237D01*
X203070941Y-51879913D01*
X202966619Y-51767617D01*
X202717980Y-51587910D01*
X202439060Y-51460163D01*
X202268707Y-51415165D01*
X202026000Y-51571864D01*
X202026000Y-53244000D01*
X202046000Y-53244000D01*
X202046000Y-53436000D01*
X202026000Y-53436000D01*
X202026000Y-55108136D01*
X202268707Y-55264835D01*
X202439060Y-55219837D01*
X202717980Y-55092090D01*
X202966619Y-54912383D01*
X203070941Y-54800087D01*
X203223735Y-54986266D01*
X203490816Y-55205454D01*
X203795527Y-55368325D01*
X204126157Y-55468620D01*
X204470000Y-55502486D01*
X204813844Y-55468620D01*
X205144474Y-55368325D01*
X205449185Y-55205454D01*
X205716266Y-54986266D01*
X205740000Y-54957346D01*
X205763735Y-54986266D01*
X206030816Y-55205454D01*
X206335527Y-55368325D01*
X206666157Y-55468620D01*
X207010000Y-55502486D01*
X207171067Y-55486622D01*
X207873454Y-56189010D01*
X207917419Y-56242581D01*
X208131205Y-56418032D01*
X208375113Y-56548403D01*
X208536612Y-56597393D01*
X208639767Y-56628685D01*
X208665851Y-56631254D01*
X208846030Y-56649000D01*
X208846037Y-56649000D01*
X208915000Y-56655792D01*
X208983963Y-56649000D01*
X220068114Y-56649000D01*
X220187064Y-56728480D01*
X220491712Y-56854669D01*
X220815125Y-56919000D01*
X221144875Y-56919000D01*
X221468288Y-56854669D01*
X221772936Y-56728480D01*
X222047113Y-56545281D01*
X222250000Y-56342394D01*
X222452887Y-56545281D01*
X222727064Y-56728480D01*
X223031712Y-56854669D01*
X223355125Y-56919000D01*
X223684875Y-56919000D01*
X224008288Y-56854669D01*
X224312936Y-56728480D01*
X224431886Y-56649000D01*
X225148114Y-56649000D01*
X225267064Y-56728480D01*
X225571712Y-56854669D01*
X225895125Y-56919000D01*
X226224875Y-56919000D01*
X226548288Y-56854669D01*
X226852936Y-56728480D01*
X226971886Y-56649000D01*
X232341037Y-56649000D01*
X232410000Y-56655792D01*
X232478963Y-56649000D01*
X232478970Y-56649000D01*
X232685232Y-56628685D01*
X232949887Y-56548403D01*
X233193795Y-56418032D01*
X233407581Y-56242581D01*
X233451550Y-56189005D01*
X235356547Y-54284009D01*
X235356551Y-54284004D01*
X238371156Y-51269399D01*
X238636623Y-51216595D01*
X238955831Y-51084375D01*
X239243110Y-50892421D01*
X239487421Y-50648110D01*
X239679375Y-50360831D01*
X239811595Y-50041623D01*
X239879000Y-49702754D01*
X239879000Y-49357246D01*
X239811595Y-49018377D01*
X239679375Y-48699169D01*
X239487421Y-48411890D01*
X239243110Y-48167579D01*
X238955831Y-47975625D01*
X238636623Y-47843405D01*
X238297754Y-47776000D01*
X237952246Y-47776000D01*
X237613377Y-47843405D01*
X237294169Y-47975625D01*
X237006890Y-48167579D01*
X236762579Y-48411890D01*
X236570625Y-48699169D01*
X236438405Y-49018377D01*
X236385601Y-49283844D01*
X233370996Y-52298449D01*
X233370991Y-52298453D01*
X231828445Y-53841000D01*
X226971886Y-53841000D01*
X226852936Y-53761520D01*
X226548288Y-53635331D01*
X226491517Y-53624038D01*
X227639009Y-52476546D01*
X227692580Y-52432581D01*
X227868032Y-52218795D01*
X227998403Y-51974887D01*
X228056305Y-51784009D01*
X228078685Y-51710233D01*
X228087198Y-51623794D01*
X228099000Y-51503970D01*
X228099000Y-51503964D01*
X228105792Y-51435001D01*
X228099000Y-51366038D01*
X228099000Y-36898962D01*
X228105792Y-36829999D01*
X228099000Y-36761036D01*
X228099000Y-36761030D01*
X228078685Y-36554768D01*
X227998403Y-36290113D01*
X227868032Y-36046205D01*
X227692581Y-35832419D01*
X227639009Y-35788453D01*
X224561550Y-32710995D01*
X224517581Y-32657419D01*
X224303795Y-32481968D01*
X224059887Y-32351597D01*
X223795232Y-32271315D01*
X223588970Y-32251000D01*
X223588963Y-32251000D01*
X223520000Y-32244208D01*
X223451037Y-32251000D01*
X191203962Y-32251000D01*
X191134999Y-32244208D01*
X191066036Y-32251000D01*
X191066030Y-32251000D01*
X190888581Y-32268477D01*
X190859767Y-32271315D01*
X190779485Y-32295669D01*
X190595113Y-32351597D01*
X190351205Y-32481968D01*
X190137419Y-32657419D01*
X190093454Y-32710990D01*
X187650991Y-35153454D01*
X187597419Y-35197420D01*
X187421968Y-35411206D01*
X187291597Y-35655114D01*
X187211315Y-35919769D01*
X187191000Y-36126031D01*
X187191000Y-36126037D01*
X187184208Y-36195000D01*
X187191000Y-36263963D01*
X187191001Y-38153444D01*
X185093845Y-40250600D01*
X184828377Y-40303405D01*
X184509169Y-40435625D01*
X184221890Y-40627579D01*
X183977579Y-40871890D01*
X183785625Y-41159169D01*
X183653405Y-41478377D01*
X183586000Y-41817246D01*
X183586000Y-42162754D01*
X183653405Y-42501623D01*
X183785625Y-42820831D01*
X183977579Y-43108110D01*
X184221890Y-43352421D01*
X184509169Y-43544375D01*
X184828377Y-43676595D01*
X185167246Y-43744000D01*
X185512754Y-43744000D01*
X185851623Y-43676595D01*
X185921000Y-43647858D01*
X185921001Y-46408443D01*
X184475991Y-47853454D01*
X184422419Y-47897420D01*
X184246968Y-48111206D01*
X184116597Y-48355114D01*
X184086045Y-48455831D01*
X184036852Y-48618000D01*
X184036315Y-48619769D01*
X184016000Y-48826031D01*
X184016000Y-48826037D01*
X184009208Y-48895000D01*
X184016000Y-48963963D01*
X184016001Y-52001027D01*
X184009208Y-52070000D01*
X184036315Y-52345232D01*
X184110964Y-52591315D01*
X184116598Y-52609887D01*
X184246969Y-52853795D01*
X184422420Y-53067581D01*
X184475991Y-53111546D01*
X185648450Y-54284005D01*
X185692419Y-54337581D01*
X185861082Y-54476000D01*
X181620056Y-54476000D01*
X177522000Y-50377945D01*
X177522000Y-50199246D01*
X177454595Y-49860377D01*
X177322375Y-49541169D01*
X177130421Y-49253890D01*
X176886110Y-49009579D01*
X176598831Y-48817625D01*
X176279623Y-48685405D01*
X175940754Y-48618000D01*
X175595246Y-48618000D01*
X175256377Y-48685405D01*
X174937169Y-48817625D01*
X174655248Y-49005999D01*
X174223962Y-49005999D01*
X174154999Y-48999207D01*
X174086036Y-49005999D01*
X174086029Y-49005999D01*
X173879767Y-49026314D01*
X173615112Y-49106596D01*
X173371204Y-49236967D01*
X173157418Y-49412418D01*
X172981967Y-49626204D01*
X172851596Y-49870112D01*
X172771314Y-50134767D01*
X172744206Y-50409999D01*
X172769781Y-50669663D01*
X168328445Y-55111000D01*
X165293918Y-55111000D01*
X165462581Y-54972581D01*
X165506550Y-54919005D01*
X173301556Y-47124000D01*
X176109117Y-47124000D01*
X176334169Y-47274375D01*
X176653377Y-47406595D01*
X176992246Y-47474000D01*
X177337754Y-47474000D01*
X177676623Y-47406595D01*
X177995831Y-47274375D01*
X178283110Y-47082421D01*
X178527421Y-46838110D01*
X178719375Y-46550831D01*
X178851595Y-46231623D01*
X178919000Y-45892754D01*
X178919000Y-45547246D01*
X178851595Y-45208377D01*
X178719375Y-44889169D01*
X178569000Y-44664117D01*
X178569000Y-43394000D01*
X179284117Y-43394000D01*
X179509169Y-43544375D01*
X179828377Y-43676595D01*
X180167246Y-43744000D01*
X180512754Y-43744000D01*
X180851623Y-43676595D01*
X181170831Y-43544375D01*
X181458110Y-43352421D01*
X181702421Y-43108110D01*
X181894375Y-42820831D01*
X182026595Y-42501623D01*
X182094000Y-42162754D01*
X182094000Y-41817246D01*
X182026595Y-41478377D01*
X181894375Y-41159169D01*
X181702421Y-40871890D01*
X181458110Y-40627579D01*
X181170831Y-40435625D01*
X180851623Y-40303405D01*
X180512754Y-40236000D01*
X180167246Y-40236000D01*
X179828377Y-40303405D01*
X179509169Y-40435625D01*
X179284117Y-40586000D01*
X178321531Y-40586000D01*
X178283110Y-40547579D01*
X177995831Y-40355625D01*
X177676623Y-40223405D01*
X177337754Y-40156000D01*
X176992246Y-40156000D01*
X176653377Y-40223405D01*
X176334169Y-40355625D01*
X176046890Y-40547579D01*
X175802579Y-40791890D01*
X175610625Y-41079169D01*
X175478405Y-41398377D01*
X175411000Y-41737246D01*
X175411000Y-42082754D01*
X175478405Y-42421623D01*
X175610625Y-42740831D01*
X175761000Y-42965883D01*
X175761001Y-44316000D01*
X172788963Y-44316000D01*
X172720000Y-44309208D01*
X172651037Y-44316000D01*
X172651030Y-44316000D01*
X172470851Y-44333746D01*
X172444767Y-44336315D01*
X172389659Y-44353032D01*
X172180113Y-44416597D01*
X171936205Y-44546968D01*
X171722419Y-44722419D01*
X171678454Y-44775990D01*
X163883445Y-52571000D01*
X163685169Y-52571000D01*
X163715195Y-52472017D01*
X163733615Y-52285000D01*
X163733615Y-50585000D01*
X163715195Y-50397983D01*
X163660645Y-50218154D01*
X163572059Y-50052422D01*
X163452843Y-49907157D01*
X163329000Y-49805522D01*
X163329000Y-46775883D01*
X163479375Y-46550831D01*
X163611595Y-46231623D01*
X163679000Y-45892754D01*
X163679000Y-45547246D01*
X163611595Y-45208377D01*
X163479375Y-44889169D01*
X163287421Y-44601890D01*
X163043110Y-44357579D01*
X162755831Y-44165625D01*
X162436623Y-44033405D01*
X162097754Y-43966000D01*
X161752246Y-43966000D01*
X161413377Y-44033405D01*
X161094169Y-44165625D01*
X160806890Y-44357579D01*
X160562579Y-44601890D01*
X160370625Y-44889169D01*
X160238405Y-45208377D01*
X160171000Y-45547246D01*
X160171000Y-45892754D01*
X160238405Y-46231623D01*
X160370625Y-46550831D01*
X160521001Y-46775884D01*
X160521000Y-49616030D01*
X160521000Y-49805522D01*
X160397157Y-49907157D01*
X160277941Y-50052422D01*
X160189355Y-50218154D01*
X160134805Y-50397983D01*
X160116385Y-50585000D01*
X158534000Y-50585000D01*
X158534000Y-42950658D01*
X161020106Y-42950658D01*
X161081830Y-43233849D01*
X161356301Y-43372906D01*
X161652627Y-43455745D01*
X161959421Y-43479181D01*
X162264892Y-43442315D01*
X162557301Y-43346562D01*
X162768170Y-43233849D01*
X162829894Y-42950658D01*
X161925000Y-42045765D01*
X161020106Y-42950658D01*
X158534000Y-42950658D01*
X158534000Y-41944421D01*
X160355819Y-41944421D01*
X160392685Y-42249892D01*
X160488438Y-42542301D01*
X160601151Y-42753170D01*
X160884342Y-42814894D01*
X161789235Y-41910000D01*
X162060765Y-41910000D01*
X162965658Y-42814894D01*
X163248849Y-42753170D01*
X163387906Y-42478699D01*
X163470745Y-42182373D01*
X163494181Y-41875579D01*
X163457315Y-41570108D01*
X163361562Y-41277699D01*
X163248849Y-41066830D01*
X162965658Y-41005106D01*
X162060765Y-41910000D01*
X161789235Y-41910000D01*
X160884342Y-41005106D01*
X160601151Y-41066830D01*
X160462094Y-41341301D01*
X160379255Y-41637627D01*
X160355819Y-41944421D01*
X158534000Y-41944421D01*
X158534000Y-40869342D01*
X161020106Y-40869342D01*
X161925000Y-41774235D01*
X162829894Y-40869342D01*
X162768170Y-40586151D01*
X162493699Y-40447094D01*
X162197373Y-40364255D01*
X161890579Y-40340819D01*
X161585108Y-40377685D01*
X161292699Y-40473438D01*
X161081830Y-40586151D01*
X161020106Y-40869342D01*
X158534000Y-40869342D01*
X158534000Y-31534000D01*
X242786000Y-31534000D01*
X242786001Y-81496000D01*
G37*
X242786001Y-81496000D02*
X158534000Y-81496000D01*
X158534000Y-72810000D01*
X163291385Y-72810000D01*
X163291385Y-74510000D01*
X163309805Y-74697017D01*
X163364355Y-74876846D01*
X163452941Y-75042578D01*
X163572157Y-75187843D01*
X163717422Y-75307059D01*
X163883154Y-75395645D01*
X164062983Y-75450195D01*
X164250000Y-75468615D01*
X165950000Y-75468615D01*
X166137017Y-75450195D01*
X166316846Y-75395645D01*
X166482578Y-75307059D01*
X166627843Y-75187843D01*
X166747059Y-75042578D01*
X166763549Y-75011727D01*
X166771836Y-75018251D01*
X167053499Y-75161523D01*
X167293457Y-75234310D01*
X167544000Y-75078255D01*
X167544000Y-73756000D01*
X167524000Y-73756000D01*
X167524000Y-73564000D01*
X167544000Y-73564000D01*
X167544000Y-72241745D01*
X167293457Y-72085690D01*
X167053499Y-72158477D01*
X166771836Y-72301749D01*
X166763549Y-72308273D01*
X166747059Y-72277422D01*
X166627843Y-72132157D01*
X166504000Y-72030522D01*
X166504000Y-71487874D01*
X166565756Y-71395449D01*
X166690438Y-71094440D01*
X166754000Y-70774891D01*
X166754000Y-70449081D01*
X166690438Y-70129532D01*
X166565756Y-69828523D01*
X166384746Y-69557622D01*
X166154364Y-69327240D01*
X165883463Y-69146230D01*
X165582454Y-69021548D01*
X165262905Y-68957986D01*
X164937095Y-68957986D01*
X164617546Y-69021548D01*
X164316537Y-69146230D01*
X164045636Y-69327240D01*
X163815254Y-69557622D01*
X163634244Y-69828523D01*
X163509562Y-70129532D01*
X163446000Y-70449081D01*
X163446000Y-70774891D01*
X163509562Y-71094440D01*
X163634244Y-71395449D01*
X163696001Y-71487875D01*
X163696001Y-72030521D01*
X163572157Y-72132157D01*
X163452941Y-72277422D01*
X163364355Y-72443154D01*
X163309805Y-72622983D01*
X163291385Y-72810000D01*
X158534000Y-72810000D01*
X158534000Y-50585000D01*
X160116385Y-50585000D01*
X160116385Y-52285000D01*
X160134805Y-52472017D01*
X160189355Y-52651846D01*
X160277941Y-52817578D01*
X160397157Y-52962843D01*
X160419434Y-52981125D01*
X160326316Y-53120485D01*
X160190327Y-53448793D01*
X160121000Y-53797321D01*
X160121000Y-54152679D01*
X160190327Y-54501207D01*
X160326316Y-54829515D01*
X160523742Y-55124983D01*
X160643759Y-55245000D01*
X160523742Y-55365017D01*
X160326316Y-55660485D01*
X160190327Y-55988793D01*
X160121000Y-56337321D01*
X160121000Y-56692679D01*
X160190327Y-57041207D01*
X160326316Y-57369515D01*
X160523742Y-57664983D01*
X160775017Y-57916258D01*
X160782455Y-57921228D01*
X160762218Y-57938536D01*
X160566749Y-58186836D01*
X160423477Y-58468499D01*
X160350690Y-58708457D01*
X160506745Y-58959000D01*
X161829000Y-58959000D01*
X161829000Y-58939000D01*
X162021000Y-58939000D01*
X162021000Y-58959000D01*
X163343255Y-58959000D01*
X163499310Y-58708457D01*
X163428599Y-58475342D01*
X174863106Y-58475342D01*
X175768000Y-59380235D01*
X176672894Y-58475342D01*
X176611170Y-58192151D01*
X176336699Y-58053094D01*
X176040373Y-57970255D01*
X175733579Y-57946819D01*
X175428108Y-57983685D01*
X175135699Y-58079438D01*
X174924830Y-58192151D01*
X174863106Y-58475342D01*
X163428599Y-58475342D01*
X163426523Y-58468499D01*
X163283251Y-58186836D01*
X163087782Y-57938536D01*
X163067545Y-57921228D01*
X163070879Y-57919000D01*
X168841037Y-57919000D01*
X168910000Y-57925792D01*
X168978963Y-57919000D01*
X168978970Y-57919000D01*
X169185232Y-57898685D01*
X169449887Y-57818403D01*
X169693795Y-57688032D01*
X169907581Y-57512581D01*
X169951550Y-57459005D01*
X171238555Y-56172000D01*
X174202313Y-56172000D01*
X174217025Y-56321378D01*
X174260597Y-56465016D01*
X174331355Y-56597393D01*
X174426578Y-56713422D01*
X174542607Y-56808645D01*
X174674984Y-56879403D01*
X174818622Y-56922975D01*
X174968000Y-56937687D01*
X175481500Y-56934000D01*
X175672000Y-56743500D01*
X175672000Y-55468000D01*
X175864000Y-55468000D01*
X175864000Y-56743500D01*
X176054500Y-56934000D01*
X176568000Y-56937687D01*
X176717378Y-56922975D01*
X176861016Y-56879403D01*
X176993393Y-56808645D01*
X177109422Y-56713422D01*
X177204645Y-56597393D01*
X177275403Y-56465016D01*
X177318975Y-56321378D01*
X177333687Y-56172000D01*
X177330000Y-55658500D01*
X177139500Y-55468000D01*
X175864000Y-55468000D01*
X175672000Y-55468000D01*
X174396500Y-55468000D01*
X174206000Y-55658500D01*
X174202313Y-56172000D01*
X171238555Y-56172000D01*
X172838555Y-54572000D01*
X174202313Y-54572000D01*
X174206000Y-55085500D01*
X174396500Y-55276000D01*
X175672000Y-55276000D01*
X175672000Y-54000500D01*
X175864000Y-54000500D01*
X175864000Y-55276000D01*
X177139500Y-55276000D01*
X177330000Y-55085500D01*
X177333687Y-54572000D01*
X177318975Y-54422622D01*
X177275403Y-54278984D01*
X177204645Y-54146607D01*
X177109422Y-54030578D01*
X176993393Y-53935355D01*
X176861016Y-53864597D01*
X176717378Y-53821025D01*
X176568000Y-53806313D01*
X176054500Y-53810000D01*
X175864000Y-54000500D01*
X175672000Y-54000500D01*
X175481500Y-53810000D01*
X174968000Y-53806313D01*
X174818622Y-53821025D01*
X174674984Y-53864597D01*
X174542607Y-53935355D01*
X174426578Y-54030578D01*
X174331355Y-54146607D01*
X174260597Y-54278984D01*
X174217025Y-54422622D01*
X174202313Y-54572000D01*
X172838555Y-54572000D01*
X175291750Y-52118806D01*
X179996954Y-56824010D01*
X180040919Y-56877581D01*
X180254705Y-57053032D01*
X180413653Y-57137991D01*
X180498612Y-57183403D01*
X180763268Y-57263685D01*
X180969530Y-57284000D01*
X180969537Y-57284000D01*
X181038500Y-57290792D01*
X181107463Y-57284000D01*
X189671082Y-57284000D01*
X189502419Y-57422419D01*
X189458454Y-57475990D01*
X187378445Y-59556000D01*
X182440962Y-59556000D01*
X182371999Y-59549208D01*
X182303036Y-59556000D01*
X182303030Y-59556000D01*
X182125581Y-59573477D01*
X182096767Y-59576315D01*
X182041659Y-59593032D01*
X181832113Y-59656597D01*
X181588205Y-59786968D01*
X181374419Y-59962419D01*
X181330454Y-60015990D01*
X178234445Y-63112000D01*
X177306444Y-63112000D01*
X177245843Y-63038157D01*
X177100578Y-62918941D01*
X176934846Y-62830355D01*
X176755017Y-62775805D01*
X176568000Y-62757385D01*
X174968000Y-62757385D01*
X174780983Y-62775805D01*
X174601154Y-62830355D01*
X174435422Y-62918941D01*
X174290157Y-63038157D01*
X174229556Y-63112000D01*
X173809560Y-63112000D01*
X171792128Y-61094569D01*
X171770442Y-60985546D01*
X171645760Y-60684537D01*
X171560315Y-60556658D01*
X174863106Y-60556658D01*
X174924830Y-60839849D01*
X175199301Y-60978906D01*
X175495627Y-61061745D01*
X175802421Y-61085181D01*
X176107892Y-61048315D01*
X176400301Y-60952562D01*
X176611170Y-60839849D01*
X176672894Y-60556658D01*
X175768000Y-59651765D01*
X174863106Y-60556658D01*
X171560315Y-60556658D01*
X171464750Y-60413636D01*
X171234368Y-60183254D01*
X170963467Y-60002244D01*
X170662458Y-59877562D01*
X170342909Y-59814000D01*
X170017099Y-59814000D01*
X169697550Y-59877562D01*
X169396541Y-60002244D01*
X169125640Y-60183254D01*
X169117894Y-60191000D01*
X163070879Y-60191000D01*
X163067545Y-60188772D01*
X163087782Y-60171464D01*
X163283251Y-59923164D01*
X163426523Y-59641501D01*
X163454150Y-59550421D01*
X174198819Y-59550421D01*
X174235685Y-59855892D01*
X174331438Y-60148301D01*
X174444151Y-60359170D01*
X174727342Y-60420894D01*
X175632235Y-59516000D01*
X175903765Y-59516000D01*
X176808658Y-60420894D01*
X177091849Y-60359170D01*
X177230906Y-60084699D01*
X177313745Y-59788373D01*
X177337181Y-59481579D01*
X177300315Y-59176108D01*
X177204562Y-58883699D01*
X177091849Y-58672830D01*
X176808658Y-58611106D01*
X175903765Y-59516000D01*
X175632235Y-59516000D01*
X174727342Y-58611106D01*
X174444151Y-58672830D01*
X174305094Y-58947301D01*
X174222255Y-59243627D01*
X174198819Y-59550421D01*
X163454150Y-59550421D01*
X163499310Y-59401543D01*
X163343255Y-59151000D01*
X162021000Y-59151000D01*
X162021000Y-59171000D01*
X161829000Y-59171000D01*
X161829000Y-59151000D01*
X160506745Y-59151000D01*
X160350690Y-59401543D01*
X160423477Y-59641501D01*
X160566749Y-59923164D01*
X160762218Y-60171464D01*
X160782455Y-60188772D01*
X160775017Y-60193742D01*
X160523742Y-60445017D01*
X160326316Y-60740485D01*
X160190327Y-61068793D01*
X160121000Y-61417321D01*
X160121000Y-61772679D01*
X160190327Y-62121207D01*
X160326316Y-62449515D01*
X160523742Y-62744983D01*
X160643759Y-62865000D01*
X160523742Y-62985017D01*
X160326316Y-63280485D01*
X160190327Y-63608793D01*
X160121000Y-63957321D01*
X160121000Y-64312679D01*
X160190327Y-64661207D01*
X160326316Y-64989515D01*
X160523742Y-65284983D01*
X160775017Y-65536258D01*
X161070485Y-65733684D01*
X161398793Y-65869673D01*
X161747321Y-65939000D01*
X162102679Y-65939000D01*
X162451207Y-65869673D01*
X162779515Y-65733684D01*
X163070879Y-65539000D01*
X168201445Y-65539000D01*
X168776000Y-66113556D01*
X168776000Y-66987028D01*
X168769207Y-67056000D01*
X168776000Y-67124972D01*
X168776001Y-69614405D01*
X168776000Y-72514120D01*
X168773772Y-72517455D01*
X168756464Y-72497218D01*
X168508164Y-72301749D01*
X168226501Y-72158477D01*
X167986543Y-72085690D01*
X167736000Y-72241745D01*
X167736000Y-73564000D01*
X167756000Y-73564000D01*
X167756000Y-73756000D01*
X167736000Y-73756000D01*
X167736000Y-75078255D01*
X167986543Y-75234310D01*
X168226501Y-75161523D01*
X168508164Y-75018251D01*
X168756464Y-74822782D01*
X168773772Y-74802545D01*
X168778742Y-74809983D01*
X169030017Y-75061258D01*
X169325485Y-75258684D01*
X169653793Y-75394673D01*
X170002321Y-75464000D01*
X170357679Y-75464000D01*
X170706207Y-75394673D01*
X171034515Y-75258684D01*
X171329983Y-75061258D01*
X171581258Y-74809983D01*
X171778684Y-74514515D01*
X171914673Y-74186207D01*
X171984000Y-73837679D01*
X171984000Y-73482321D01*
X171914673Y-73133793D01*
X171778684Y-72805485D01*
X171584000Y-72514121D01*
X171584000Y-68460000D01*
X178747037Y-68460000D01*
X178816000Y-68466792D01*
X178884963Y-68460000D01*
X178884970Y-68460000D01*
X179091232Y-68439685D01*
X179355887Y-68359403D01*
X179599795Y-68229032D01*
X179813581Y-68053581D01*
X179857550Y-68000005D01*
X183588556Y-64269000D01*
X185980469Y-64269000D01*
X185962579Y-64286890D01*
X185770625Y-64574169D01*
X185638405Y-64893377D01*
X185571000Y-65232246D01*
X185571000Y-65577754D01*
X185638405Y-65916623D01*
X185770625Y-66235831D01*
X185921000Y-66460883D01*
X185921001Y-67876021D01*
X185921000Y-67876031D01*
X185921001Y-69781022D01*
X185914207Y-69850000D01*
X185919608Y-69904836D01*
X184838445Y-70986000D01*
X180125883Y-70986000D01*
X179900831Y-70835625D01*
X179581623Y-70703405D01*
X179242754Y-70636000D01*
X178897246Y-70636000D01*
X178558377Y-70703405D01*
X178239169Y-70835625D01*
X177951890Y-71027579D01*
X177707579Y-71271890D01*
X177515625Y-71559169D01*
X177383405Y-71878377D01*
X177316000Y-72217246D01*
X177316000Y-72562754D01*
X177383405Y-72901623D01*
X177515625Y-73220831D01*
X177707579Y-73508110D01*
X177746001Y-73546532D01*
X177746000Y-75779117D01*
X177595625Y-76004169D01*
X177463405Y-76323377D01*
X177396000Y-76662246D01*
X177396000Y-77007754D01*
X177463405Y-77346623D01*
X177595625Y-77665831D01*
X177787579Y-77953110D01*
X178031890Y-78197421D01*
X178319169Y-78389375D01*
X178638377Y-78521595D01*
X178977246Y-78589000D01*
X179322754Y-78589000D01*
X179661623Y-78521595D01*
X179980831Y-78389375D01*
X180268110Y-78197421D01*
X180450711Y-78014821D01*
X180555636Y-78119746D01*
X180826537Y-78300756D01*
X181127546Y-78425438D01*
X181447095Y-78489000D01*
X181772905Y-78489000D01*
X182092454Y-78425438D01*
X182393463Y-78300756D01*
X182485888Y-78239000D01*
X183094117Y-78239000D01*
X183319169Y-78389375D01*
X183638377Y-78521595D01*
X183977246Y-78589000D01*
X184322754Y-78589000D01*
X184661623Y-78521595D01*
X184980831Y-78389375D01*
X185205883Y-78239000D01*
X185594117Y-78239000D01*
X185819169Y-78389375D01*
X186138377Y-78521595D01*
X186477246Y-78589000D01*
X186822754Y-78589000D01*
X187161623Y-78521595D01*
X187480831Y-78389375D01*
X187705883Y-78239000D01*
X190714117Y-78239000D01*
X190939169Y-78389375D01*
X191258377Y-78521595D01*
X191597246Y-78589000D01*
X191942754Y-78589000D01*
X192281623Y-78521595D01*
X192600831Y-78389375D01*
X192888110Y-78197421D01*
X192949701Y-78135830D01*
X193188795Y-78008032D01*
X193402581Y-77832581D01*
X193446550Y-77779005D01*
X194891556Y-76334000D01*
X198051037Y-76334000D01*
X198120000Y-76340792D01*
X198188963Y-76334000D01*
X198188970Y-76334000D01*
X198395232Y-76313685D01*
X198659887Y-76233403D01*
X198903795Y-76103032D01*
X199117581Y-75927581D01*
X199161550Y-75874005D01*
X199336555Y-75699000D01*
X205665469Y-75699000D01*
X205647579Y-75716890D01*
X205455625Y-76004169D01*
X205323405Y-76323377D01*
X205256000Y-76662246D01*
X205256000Y-77007754D01*
X205323405Y-77346623D01*
X205455625Y-77665831D01*
X205647579Y-77953110D01*
X205891890Y-78197421D01*
X206179169Y-78389375D01*
X206498377Y-78521595D01*
X206763845Y-78574400D01*
X207238450Y-79049005D01*
X207282419Y-79102581D01*
X207496205Y-79278032D01*
X207740113Y-79408403D01*
X207924485Y-79464331D01*
X208004767Y-79488685D01*
X208033581Y-79491523D01*
X208211030Y-79509000D01*
X208211036Y-79509000D01*
X208279999Y-79515792D01*
X208348962Y-79509000D01*
X219006030Y-79509000D01*
X219075000Y-79515793D01*
X219143970Y-79509000D01*
X219350232Y-79488685D01*
X219614887Y-79408403D01*
X219858795Y-79278032D01*
X220072581Y-79102581D01*
X220248032Y-78888795D01*
X220378403Y-78644887D01*
X220458685Y-78380232D01*
X220485793Y-78105000D01*
X220479000Y-78036030D01*
X220479000Y-75335658D01*
X228330106Y-75335658D01*
X228391830Y-75618849D01*
X228666301Y-75757906D01*
X228962627Y-75840745D01*
X229269421Y-75864181D01*
X229574892Y-75827315D01*
X229867301Y-75731562D01*
X230078170Y-75618849D01*
X230139894Y-75335658D01*
X229235000Y-74430765D01*
X228330106Y-75335658D01*
X220479000Y-75335658D01*
X220479000Y-74329421D01*
X227665819Y-74329421D01*
X227702685Y-74634892D01*
X227798438Y-74927301D01*
X227911151Y-75138170D01*
X228194342Y-75199894D01*
X229099235Y-74295000D01*
X229370765Y-74295000D01*
X230275658Y-75199894D01*
X230558849Y-75138170D01*
X230697906Y-74863699D01*
X230780745Y-74567373D01*
X230804181Y-74260579D01*
X230767315Y-73955108D01*
X230671562Y-73662699D01*
X230558849Y-73451830D01*
X230275658Y-73390106D01*
X229370765Y-74295000D01*
X229099235Y-74295000D01*
X228194342Y-73390106D01*
X227911151Y-73451830D01*
X227772094Y-73726301D01*
X227689255Y-74022627D01*
X227665819Y-74329421D01*
X220479000Y-74329421D01*
X220479000Y-73254342D01*
X228330106Y-73254342D01*
X229235000Y-74159235D01*
X230139894Y-73254342D01*
X230078170Y-72971151D01*
X229803699Y-72832094D01*
X229507373Y-72749255D01*
X229200579Y-72725819D01*
X228895108Y-72762685D01*
X228602699Y-72858438D01*
X228391830Y-72971151D01*
X228330106Y-73254342D01*
X220479000Y-73254342D01*
X220479000Y-66492195D01*
X220485792Y-66423232D01*
X220479000Y-66354269D01*
X220479000Y-66354263D01*
X220458685Y-66148001D01*
X220454776Y-66135113D01*
X220431511Y-66058419D01*
X220378403Y-65883346D01*
X220248032Y-65639438D01*
X220072580Y-65425652D01*
X220019009Y-65381687D01*
X217271322Y-62634000D01*
X217334875Y-62634000D01*
X217658288Y-62569669D01*
X217962936Y-62443480D01*
X218081886Y-62364000D01*
X218798114Y-62364000D01*
X218917064Y-62443480D01*
X219221712Y-62569669D01*
X219545125Y-62634000D01*
X219874875Y-62634000D01*
X220198288Y-62569669D01*
X220502936Y-62443480D01*
X220621886Y-62364000D01*
X226748445Y-62364000D01*
X227831000Y-63446556D01*
X227831001Y-65619116D01*
X227680625Y-65844169D01*
X227548405Y-66163377D01*
X227481000Y-66502246D01*
X227481000Y-66847754D01*
X227548405Y-67186623D01*
X227680625Y-67505831D01*
X227872579Y-67793110D01*
X228116890Y-68037421D01*
X228404169Y-68229375D01*
X228723377Y-68361595D01*
X229062246Y-68429000D01*
X229407754Y-68429000D01*
X229746623Y-68361595D01*
X230065831Y-68229375D01*
X230353110Y-68037421D01*
X230597421Y-67793110D01*
X230789375Y-67505831D01*
X230921595Y-67186623D01*
X230989000Y-66847754D01*
X230989000Y-66502246D01*
X230921595Y-66163377D01*
X230789375Y-65844169D01*
X230639000Y-65619117D01*
X230639000Y-62933963D01*
X230645792Y-62865000D01*
X230639000Y-62796037D01*
X230639000Y-62796030D01*
X230618685Y-62589768D01*
X230601278Y-62532383D01*
X230564762Y-62412008D01*
X230538403Y-62325113D01*
X230408032Y-62081205D01*
X230323524Y-61978233D01*
X230276547Y-61920991D01*
X230276541Y-61920985D01*
X230232580Y-61867419D01*
X230179015Y-61823459D01*
X228371550Y-60015995D01*
X228327581Y-59962419D01*
X228113795Y-59786968D01*
X227869887Y-59656597D01*
X227605232Y-59576315D01*
X227398970Y-59556000D01*
X227398963Y-59556000D01*
X227330000Y-59549208D01*
X227261037Y-59556000D01*
X220621886Y-59556000D01*
X220502936Y-59476520D01*
X220198288Y-59350331D01*
X219874875Y-59286000D01*
X219545125Y-59286000D01*
X219221712Y-59350331D01*
X218917064Y-59476520D01*
X218798114Y-59556000D01*
X218081886Y-59556000D01*
X217962936Y-59476520D01*
X217658288Y-59350331D01*
X217334875Y-59286000D01*
X217005125Y-59286000D01*
X216681712Y-59350331D01*
X216377064Y-59476520D01*
X216102887Y-59659719D01*
X215900000Y-59862606D01*
X215697113Y-59659719D01*
X215422936Y-59476520D01*
X215118288Y-59350331D01*
X214794875Y-59286000D01*
X214465125Y-59286000D01*
X214141712Y-59350331D01*
X213837064Y-59476520D01*
X213718114Y-59556000D01*
X208455089Y-59556000D01*
X208256266Y-59313734D01*
X207989184Y-59094546D01*
X207684473Y-58931675D01*
X207353843Y-58831380D01*
X207010000Y-58797514D01*
X206666156Y-58831380D01*
X206335526Y-58931675D01*
X206030815Y-59094546D01*
X205763734Y-59313734D01*
X205740000Y-59342654D01*
X205716266Y-59313734D01*
X205449184Y-59094546D01*
X205144473Y-58931675D01*
X204813843Y-58831380D01*
X204470000Y-58797514D01*
X204126156Y-58831380D01*
X203795526Y-58931675D01*
X203490815Y-59094546D01*
X203223734Y-59313734D01*
X203070941Y-59499913D01*
X202966619Y-59387617D01*
X202717980Y-59207910D01*
X202439060Y-59080163D01*
X202268707Y-59035165D01*
X202026000Y-59191864D01*
X202026000Y-60864000D01*
X202046000Y-60864000D01*
X202046000Y-61056000D01*
X202026000Y-61056000D01*
X202026000Y-62728136D01*
X202268707Y-62884835D01*
X202439060Y-62839837D01*
X202717980Y-62712090D01*
X202966619Y-62532383D01*
X203066000Y-62425406D01*
X203066001Y-64066027D01*
X203059208Y-64135000D01*
X203086315Y-64410232D01*
X203140238Y-64587990D01*
X203166598Y-64674887D01*
X203296969Y-64918795D01*
X203472420Y-65132581D01*
X203525990Y-65176545D01*
X205905601Y-67556156D01*
X205958405Y-67821623D01*
X206090625Y-68140831D01*
X206282579Y-68428110D01*
X206526890Y-68672421D01*
X206814169Y-68864375D01*
X207133377Y-68996595D01*
X207472246Y-69064000D01*
X207817754Y-69064000D01*
X208156623Y-68996595D01*
X208475831Y-68864375D01*
X208700883Y-68714000D01*
X213291037Y-68714000D01*
X213360000Y-68720792D01*
X213428963Y-68714000D01*
X213428970Y-68714000D01*
X213635232Y-68693685D01*
X213899887Y-68613403D01*
X214143795Y-68483032D01*
X214223030Y-68418005D01*
X214506623Y-68361595D01*
X214825831Y-68229375D01*
X215113110Y-68037421D01*
X215357421Y-67793110D01*
X215549375Y-67505831D01*
X215681595Y-67186623D01*
X215749000Y-66847754D01*
X215749000Y-66502246D01*
X215681595Y-66163377D01*
X215549375Y-65844169D01*
X215357421Y-65556890D01*
X215113110Y-65312579D01*
X214825831Y-65120625D01*
X214506623Y-64988405D01*
X214167754Y-64921000D01*
X213822246Y-64921000D01*
X213483377Y-64988405D01*
X213164169Y-65120625D01*
X212876890Y-65312579D01*
X212632579Y-65556890D01*
X212440625Y-65844169D01*
X212415014Y-65906000D01*
X208700883Y-65906000D01*
X208475831Y-65755625D01*
X208156623Y-65623405D01*
X207891156Y-65570601D01*
X205874000Y-63553445D01*
X205874000Y-62696758D01*
X206030816Y-62825454D01*
X206335527Y-62988325D01*
X206666157Y-63088620D01*
X207010000Y-63122486D01*
X207353844Y-63088620D01*
X207684474Y-62988325D01*
X207989185Y-62825454D01*
X208256266Y-62606266D01*
X208455089Y-62364000D01*
X213279845Y-62364000D01*
X213326597Y-62518120D01*
X213456968Y-62762028D01*
X213632420Y-62975814D01*
X213685991Y-63019779D01*
X217671000Y-67004788D01*
X217671001Y-76701000D01*
X208861555Y-76701000D01*
X208749400Y-76588845D01*
X208696595Y-76323377D01*
X208564375Y-76004169D01*
X208372421Y-75716890D01*
X208354531Y-75699000D01*
X212939117Y-75699000D01*
X213164169Y-75849375D01*
X213483377Y-75981595D01*
X213822246Y-76049000D01*
X214167754Y-76049000D01*
X214506623Y-75981595D01*
X214825831Y-75849375D01*
X215113110Y-75657421D01*
X215357421Y-75413110D01*
X215549375Y-75125831D01*
X215681595Y-74806623D01*
X215749000Y-74467754D01*
X215749000Y-74122246D01*
X215681595Y-73783377D01*
X215549375Y-73464169D01*
X215357421Y-73176890D01*
X215113110Y-72932579D01*
X214825831Y-72740625D01*
X214506623Y-72608405D01*
X214167754Y-72541000D01*
X213822246Y-72541000D01*
X213483377Y-72608405D01*
X213164169Y-72740625D01*
X212939117Y-72891000D01*
X208063708Y-72891000D01*
X208129000Y-72562754D01*
X208129000Y-72217246D01*
X208061595Y-71878377D01*
X207929375Y-71559169D01*
X207737421Y-71271890D01*
X207493110Y-71027579D01*
X207205831Y-70835625D01*
X206886623Y-70703405D01*
X206547754Y-70636000D01*
X206202246Y-70636000D01*
X205863377Y-70703405D01*
X205544169Y-70835625D01*
X205319117Y-70986000D01*
X204890883Y-70986000D01*
X204665831Y-70835625D01*
X204346623Y-70703405D01*
X204007754Y-70636000D01*
X203662246Y-70636000D01*
X203323377Y-70703405D01*
X203004169Y-70835625D01*
X202779117Y-70986000D01*
X202596575Y-70986000D01*
X202594514Y-70979207D01*
X202558403Y-70860163D01*
X202492036Y-70736000D01*
X202428032Y-70616256D01*
X202252581Y-70402470D01*
X202199005Y-70358501D01*
X201381499Y-69540995D01*
X201337530Y-69487419D01*
X201123744Y-69311968D01*
X200879836Y-69181597D01*
X200615181Y-69101315D01*
X200408919Y-69081000D01*
X200408912Y-69081000D01*
X200339949Y-69074208D01*
X200270986Y-69081000D01*
X197619000Y-69081000D01*
X197619000Y-65033963D01*
X197625792Y-64965000D01*
X197619000Y-64896037D01*
X197619000Y-64896030D01*
X197598685Y-64689768D01*
X197518403Y-64425113D01*
X197388032Y-64181205D01*
X197322401Y-64101235D01*
X197256547Y-64020991D01*
X197256541Y-64020985D01*
X197212580Y-63967419D01*
X197159015Y-63923459D01*
X195714000Y-62478445D01*
X195714000Y-62425406D01*
X195813381Y-62532383D01*
X196062020Y-62712090D01*
X196340940Y-62839837D01*
X196511293Y-62884835D01*
X196754000Y-62728136D01*
X196754000Y-61056000D01*
X196734000Y-61056000D01*
X196734000Y-60864000D01*
X196754000Y-60864000D01*
X196754000Y-60844000D01*
X196946000Y-60844000D01*
X196946000Y-60864000D01*
X196966000Y-60864000D01*
X196966000Y-61056000D01*
X196946000Y-61056000D01*
X196946000Y-62728136D01*
X197188707Y-62884835D01*
X197359060Y-62839837D01*
X197637980Y-62712090D01*
X197886619Y-62532383D01*
X197990941Y-62420087D01*
X198143735Y-62606266D01*
X198410816Y-62825454D01*
X198715527Y-62988325D01*
X199046157Y-63088620D01*
X199390000Y-63122486D01*
X199733844Y-63088620D01*
X200064474Y-62988325D01*
X200369185Y-62825454D01*
X200636266Y-62606266D01*
X200789059Y-62420087D01*
X200893381Y-62532383D01*
X201142020Y-62712090D01*
X201420940Y-62839837D01*
X201591293Y-62884835D01*
X201834000Y-62728136D01*
X201834000Y-61056000D01*
X201814000Y-61056000D01*
X201814000Y-60864000D01*
X201834000Y-60864000D01*
X201834000Y-59191864D01*
X201591293Y-59035165D01*
X201420940Y-59080163D01*
X201142020Y-59207910D01*
X200893381Y-59387617D01*
X200794000Y-59494594D01*
X200794000Y-58928963D01*
X200800792Y-58860000D01*
X200794000Y-58791037D01*
X200794000Y-58791030D01*
X200773685Y-58584768D01*
X200693403Y-58320113D01*
X200563032Y-58076205D01*
X200439590Y-57925792D01*
X200431547Y-57915992D01*
X200431546Y-57915991D01*
X200387580Y-57862419D01*
X200334009Y-57818454D01*
X199991550Y-57475995D01*
X199947581Y-57422419D01*
X199733795Y-57246968D01*
X199552380Y-57150000D01*
X199733795Y-57053032D01*
X199947581Y-56877581D01*
X199991550Y-56824005D01*
X200334009Y-56481546D01*
X200387580Y-56437581D01*
X200563032Y-56223795D01*
X200693403Y-55979887D01*
X200768208Y-55733288D01*
X200773685Y-55715233D01*
X200779077Y-55660485D01*
X200794000Y-55508970D01*
X200794000Y-55508963D01*
X200800792Y-55440000D01*
X200794000Y-55371037D01*
X200794000Y-54805406D01*
X200893381Y-54912383D01*
X201142020Y-55092090D01*
X201420940Y-55219837D01*
X201591293Y-55264835D01*
X201834000Y-55108136D01*
X201834000Y-53436000D01*
X201814000Y-53436000D01*
X201814000Y-53244000D01*
X201834000Y-53244000D01*
X201834000Y-51571864D01*
X201591293Y-51415165D01*
X201420940Y-51460163D01*
X201142020Y-51587910D01*
X200893381Y-51767617D01*
X200789059Y-51879913D01*
X200636266Y-51693734D01*
X200369184Y-51474546D01*
X200064473Y-51311675D01*
X199733843Y-51211380D01*
X199390000Y-51177514D01*
X199046156Y-51211380D01*
X198715526Y-51311675D01*
X198410815Y-51474546D01*
X198143734Y-51693734D01*
X197990941Y-51879913D01*
X197886619Y-51767617D01*
X197637980Y-51587910D01*
X197359060Y-51460163D01*
X197188707Y-51415165D01*
X196946000Y-51571864D01*
X196946000Y-53244000D01*
X196966000Y-53244000D01*
X196966000Y-53436000D01*
X196946000Y-53436000D01*
X196946000Y-53456000D01*
X196754000Y-53456000D01*
X196754000Y-53436000D01*
X196734000Y-53436000D01*
X196734000Y-53244000D01*
X196754000Y-53244000D01*
X196754000Y-51571864D01*
X196511293Y-51415165D01*
X196340940Y-51460163D01*
X196062020Y-51587910D01*
X195813381Y-51767617D01*
X195714000Y-51874594D01*
X195714000Y-44249621D01*
X195962246Y-44299000D01*
X196307754Y-44299000D01*
X196646623Y-44231595D01*
X196965831Y-44099375D01*
X197190883Y-43949000D01*
X197579117Y-43949000D01*
X197804169Y-44099375D01*
X198123377Y-44231595D01*
X198462246Y-44299000D01*
X198807754Y-44299000D01*
X199146623Y-44231595D01*
X199465831Y-44099375D01*
X199690883Y-43949000D01*
X204049117Y-43949000D01*
X204274169Y-44099375D01*
X204593377Y-44231595D01*
X204932246Y-44299000D01*
X205277754Y-44299000D01*
X205616623Y-44231595D01*
X205935831Y-44099375D01*
X206223110Y-43907421D01*
X206467421Y-43663110D01*
X206659375Y-43375831D01*
X206791595Y-43056623D01*
X206859000Y-42717754D01*
X206859000Y-42474555D01*
X209778454Y-45394010D01*
X209822419Y-45447581D01*
X210036205Y-45623032D01*
X210195153Y-45707991D01*
X210280112Y-45753403D01*
X210544768Y-45833685D01*
X210751030Y-45854000D01*
X210751037Y-45854000D01*
X210820000Y-45860792D01*
X210888963Y-45854000D01*
X221546037Y-45854000D01*
X221615000Y-45860792D01*
X221683963Y-45854000D01*
X221683970Y-45854000D01*
X221890232Y-45833685D01*
X222154887Y-45753403D01*
X222398795Y-45623032D01*
X222612581Y-45447581D01*
X222656550Y-45394005D01*
X223829009Y-44221546D01*
X223882580Y-44177581D01*
X224058032Y-43963795D01*
X224188403Y-43719887D01*
X224253287Y-43505992D01*
X224268685Y-43455233D01*
X224276505Y-43375831D01*
X224289000Y-43248970D01*
X224289000Y-43248964D01*
X224295792Y-43180001D01*
X224289000Y-43111038D01*
X224289000Y-41978962D01*
X224295792Y-41909999D01*
X224289000Y-41841036D01*
X224289000Y-41841030D01*
X224268685Y-41634768D01*
X224253288Y-41584009D01*
X224218633Y-41469768D01*
X224188403Y-41370113D01*
X224058032Y-41126205D01*
X223882581Y-40912419D01*
X223829009Y-40868453D01*
X221386550Y-38425995D01*
X221345490Y-38375964D01*
X221649421Y-38399181D01*
X221954892Y-38362315D01*
X222247301Y-38266562D01*
X222458170Y-38153849D01*
X222519894Y-37870658D01*
X221615000Y-36965765D01*
X220710106Y-37870658D01*
X220743462Y-38023696D01*
X220620232Y-37986315D01*
X220413970Y-37966000D01*
X220413963Y-37966000D01*
X220345000Y-37959208D01*
X220276037Y-37966000D01*
X212036556Y-37966000D01*
X210934977Y-36864421D01*
X220045819Y-36864421D01*
X220082685Y-37169892D01*
X220178438Y-37462301D01*
X220291151Y-37673170D01*
X220574342Y-37734894D01*
X221479235Y-36830000D01*
X221750765Y-36830000D01*
X222655658Y-37734894D01*
X222938849Y-37673170D01*
X223077906Y-37398699D01*
X223160745Y-37102373D01*
X223184181Y-36795579D01*
X223147315Y-36490108D01*
X223051562Y-36197699D01*
X222938849Y-35986830D01*
X222655658Y-35925106D01*
X221750765Y-36830000D01*
X221479235Y-36830000D01*
X220574342Y-35925106D01*
X220291151Y-35986830D01*
X220152094Y-36261301D01*
X220069255Y-36557627D01*
X220045819Y-36864421D01*
X210934977Y-36864421D01*
X209956550Y-35885995D01*
X209912581Y-35832419D01*
X209860092Y-35789342D01*
X220710106Y-35789342D01*
X221615000Y-36694235D01*
X222519894Y-35789342D01*
X222458170Y-35506151D01*
X222183699Y-35367094D01*
X221887373Y-35284255D01*
X221580579Y-35260819D01*
X221275108Y-35297685D01*
X220982699Y-35393438D01*
X220771830Y-35506151D01*
X220710106Y-35789342D01*
X209860092Y-35789342D01*
X209698795Y-35656968D01*
X209454887Y-35526597D01*
X209190232Y-35446315D01*
X208983970Y-35426000D01*
X208983963Y-35426000D01*
X208915000Y-35419208D01*
X208846037Y-35426000D01*
X207430883Y-35426000D01*
X207205831Y-35275625D01*
X206886623Y-35143405D01*
X206547754Y-35076000D01*
X206202246Y-35076000D01*
X205863377Y-35143405D01*
X205544169Y-35275625D01*
X205319117Y-35426000D01*
X201635883Y-35426000D01*
X201410831Y-35275625D01*
X201091623Y-35143405D01*
X200752754Y-35076000D01*
X200407246Y-35076000D01*
X200068377Y-35143405D01*
X199749169Y-35275625D01*
X199524117Y-35426000D01*
X199175883Y-35426000D01*
X198950831Y-35275625D01*
X198631623Y-35143405D01*
X198292754Y-35076000D01*
X197947246Y-35076000D01*
X197608377Y-35143405D01*
X197289169Y-35275625D01*
X197064117Y-35426000D01*
X196455888Y-35426000D01*
X196363463Y-35364244D01*
X196062454Y-35239562D01*
X195742905Y-35176000D01*
X195417095Y-35176000D01*
X195097546Y-35239562D01*
X194796537Y-35364244D01*
X194525636Y-35545254D01*
X194420711Y-35650180D01*
X194238110Y-35467579D01*
X193950831Y-35275625D01*
X193631623Y-35143405D01*
X193292754Y-35076000D01*
X192907246Y-35076000D01*
X192568377Y-35143405D01*
X192249169Y-35275625D01*
X191961890Y-35467579D01*
X191717579Y-35711890D01*
X191525625Y-35999169D01*
X191393405Y-36318377D01*
X191326000Y-36657246D01*
X191326000Y-37002754D01*
X191357637Y-37161807D01*
X189999000Y-38520444D01*
X189999000Y-36776555D01*
X191716556Y-35059000D01*
X222938445Y-35059000D01*
X225291001Y-37411557D01*
X225291000Y-50853445D01*
X224843445Y-51301000D01*
X222318962Y-51301000D01*
X222249999Y-51294208D01*
X222181036Y-51301000D01*
X222181030Y-51301000D01*
X222003581Y-51318477D01*
X221974767Y-51321315D01*
X221919659Y-51338032D01*
X221710113Y-51401597D01*
X221466205Y-51531968D01*
X221252419Y-51707419D01*
X221208450Y-51760995D01*
X220035991Y-52933454D01*
X219982420Y-52977419D01*
X219938455Y-53030990D01*
X219938453Y-53030992D01*
X219893018Y-53086354D01*
X219806969Y-53191205D01*
X219676597Y-53435113D01*
X219596315Y-53699768D01*
X219582405Y-53841000D01*
X209496556Y-53841000D01*
X208764000Y-53108445D01*
X208764000Y-52853841D01*
X208738620Y-52596156D01*
X208638325Y-52265526D01*
X208475454Y-51960815D01*
X208256266Y-51693734D01*
X208104277Y-51569000D01*
X220276037Y-51569000D01*
X220345000Y-51575792D01*
X220413963Y-51569000D01*
X220413970Y-51569000D01*
X220620232Y-51548685D01*
X220884887Y-51468403D01*
X221128795Y-51338032D01*
X221342581Y-51162581D01*
X221386550Y-51109005D01*
X221561555Y-50934000D01*
X221829117Y-50934000D01*
X222054169Y-51084375D01*
X222373377Y-51216595D01*
X222712246Y-51284000D01*
X223057754Y-51284000D01*
X223396623Y-51216595D01*
X223715831Y-51084375D01*
X224003110Y-50892421D01*
X224247421Y-50648110D01*
X224439375Y-50360831D01*
X224571595Y-50041623D01*
X224639000Y-49702754D01*
X224639000Y-49357246D01*
X224571595Y-49018377D01*
X224439375Y-48699169D01*
X224247421Y-48411890D01*
X224003110Y-48167579D01*
X223715831Y-47975625D01*
X223396623Y-47843405D01*
X223057754Y-47776000D01*
X222712246Y-47776000D01*
X222373377Y-47843405D01*
X222054169Y-47975625D01*
X221829117Y-48126000D01*
X221048963Y-48126000D01*
X220980000Y-48119208D01*
X220911037Y-48126000D01*
X220911030Y-48126000D01*
X220704768Y-48146315D01*
X220440112Y-48226597D01*
X220377101Y-48260277D01*
X220196205Y-48356968D01*
X219982419Y-48532419D01*
X219938450Y-48585995D01*
X219763445Y-48761000D01*
X208414000Y-48761000D01*
X208414000Y-48680883D01*
X208564375Y-48455831D01*
X208696595Y-48136623D01*
X208764000Y-47797754D01*
X208764000Y-47452246D01*
X208696595Y-47113377D01*
X208564375Y-46794169D01*
X208372421Y-46506890D01*
X208128110Y-46262579D01*
X207840831Y-46070625D01*
X207521623Y-45938405D01*
X207182754Y-45871000D01*
X206837246Y-45871000D01*
X206498377Y-45938405D01*
X206179169Y-46070625D01*
X205891890Y-46262579D01*
X205647579Y-46506890D01*
X205455625Y-46794169D01*
X205323405Y-47113377D01*
X205256000Y-47452246D01*
X205256000Y-47797754D01*
X205323405Y-48136623D01*
X205455625Y-48455831D01*
X205606000Y-48680883D01*
X205606001Y-48984060D01*
X205591205Y-48991968D01*
X205377419Y-49167419D01*
X205333454Y-49220990D01*
X203525992Y-51028453D01*
X203472420Y-51072419D01*
X203296969Y-51286205D01*
X203166597Y-51530113D01*
X203086315Y-51794768D01*
X203078882Y-51870237D01*
X203070941Y-51879913D01*
X202966619Y-51767617D01*
X202717980Y-51587910D01*
X202439060Y-51460163D01*
X202268707Y-51415165D01*
X202026000Y-51571864D01*
X202026000Y-53244000D01*
X202046000Y-53244000D01*
X202046000Y-53436000D01*
X202026000Y-53436000D01*
X202026000Y-55108136D01*
X202268707Y-55264835D01*
X202439060Y-55219837D01*
X202717980Y-55092090D01*
X202966619Y-54912383D01*
X203070941Y-54800087D01*
X203223735Y-54986266D01*
X203490816Y-55205454D01*
X203795527Y-55368325D01*
X204126157Y-55468620D01*
X204470000Y-55502486D01*
X204813844Y-55468620D01*
X205144474Y-55368325D01*
X205449185Y-55205454D01*
X205716266Y-54986266D01*
X205740000Y-54957346D01*
X205763735Y-54986266D01*
X206030816Y-55205454D01*
X206335527Y-55368325D01*
X206666157Y-55468620D01*
X207010000Y-55502486D01*
X207171067Y-55486622D01*
X207873454Y-56189010D01*
X207917419Y-56242581D01*
X208131205Y-56418032D01*
X208375113Y-56548403D01*
X208536612Y-56597393D01*
X208639767Y-56628685D01*
X208665851Y-56631254D01*
X208846030Y-56649000D01*
X208846037Y-56649000D01*
X208915000Y-56655792D01*
X208983963Y-56649000D01*
X220068114Y-56649000D01*
X220187064Y-56728480D01*
X220491712Y-56854669D01*
X220815125Y-56919000D01*
X221144875Y-56919000D01*
X221468288Y-56854669D01*
X221772936Y-56728480D01*
X222047113Y-56545281D01*
X222250000Y-56342394D01*
X222452887Y-56545281D01*
X222727064Y-56728480D01*
X223031712Y-56854669D01*
X223355125Y-56919000D01*
X223684875Y-56919000D01*
X224008288Y-56854669D01*
X224312936Y-56728480D01*
X224431886Y-56649000D01*
X225148114Y-56649000D01*
X225267064Y-56728480D01*
X225571712Y-56854669D01*
X225895125Y-56919000D01*
X226224875Y-56919000D01*
X226548288Y-56854669D01*
X226852936Y-56728480D01*
X226971886Y-56649000D01*
X232341037Y-56649000D01*
X232410000Y-56655792D01*
X232478963Y-56649000D01*
X232478970Y-56649000D01*
X232685232Y-56628685D01*
X232949887Y-56548403D01*
X233193795Y-56418032D01*
X233407581Y-56242581D01*
X233451550Y-56189005D01*
X235356547Y-54284009D01*
X235356551Y-54284004D01*
X238371156Y-51269399D01*
X238636623Y-51216595D01*
X238955831Y-51084375D01*
X239243110Y-50892421D01*
X239487421Y-50648110D01*
X239679375Y-50360831D01*
X239811595Y-50041623D01*
X239879000Y-49702754D01*
X239879000Y-49357246D01*
X239811595Y-49018377D01*
X239679375Y-48699169D01*
X239487421Y-48411890D01*
X239243110Y-48167579D01*
X238955831Y-47975625D01*
X238636623Y-47843405D01*
X238297754Y-47776000D01*
X237952246Y-47776000D01*
X237613377Y-47843405D01*
X237294169Y-47975625D01*
X237006890Y-48167579D01*
X236762579Y-48411890D01*
X236570625Y-48699169D01*
X236438405Y-49018377D01*
X236385601Y-49283844D01*
X233370996Y-52298449D01*
X233370991Y-52298453D01*
X231828445Y-53841000D01*
X226971886Y-53841000D01*
X226852936Y-53761520D01*
X226548288Y-53635331D01*
X226491517Y-53624038D01*
X227639009Y-52476546D01*
X227692580Y-52432581D01*
X227868032Y-52218795D01*
X227998403Y-51974887D01*
X228056305Y-51784009D01*
X228078685Y-51710233D01*
X228087198Y-51623794D01*
X228099000Y-51503970D01*
X228099000Y-51503964D01*
X228105792Y-51435001D01*
X228099000Y-51366038D01*
X228099000Y-36898962D01*
X228105792Y-36829999D01*
X228099000Y-36761036D01*
X228099000Y-36761030D01*
X228078685Y-36554768D01*
X227998403Y-36290113D01*
X227868032Y-36046205D01*
X227692581Y-35832419D01*
X227639009Y-35788453D01*
X224561550Y-32710995D01*
X224517581Y-32657419D01*
X224303795Y-32481968D01*
X224059887Y-32351597D01*
X223795232Y-32271315D01*
X223588970Y-32251000D01*
X223588963Y-32251000D01*
X223520000Y-32244208D01*
X223451037Y-32251000D01*
X191203962Y-32251000D01*
X191134999Y-32244208D01*
X191066036Y-32251000D01*
X191066030Y-32251000D01*
X190888581Y-32268477D01*
X190859767Y-32271315D01*
X190779485Y-32295669D01*
X190595113Y-32351597D01*
X190351205Y-32481968D01*
X190137419Y-32657419D01*
X190093454Y-32710990D01*
X187650991Y-35153454D01*
X187597419Y-35197420D01*
X187421968Y-35411206D01*
X187291597Y-35655114D01*
X187211315Y-35919769D01*
X187191000Y-36126031D01*
X187191000Y-36126037D01*
X187184208Y-36195000D01*
X187191000Y-36263963D01*
X187191001Y-38153444D01*
X185093845Y-40250600D01*
X184828377Y-40303405D01*
X184509169Y-40435625D01*
X184221890Y-40627579D01*
X183977579Y-40871890D01*
X183785625Y-41159169D01*
X183653405Y-41478377D01*
X183586000Y-41817246D01*
X183586000Y-42162754D01*
X183653405Y-42501623D01*
X183785625Y-42820831D01*
X183977579Y-43108110D01*
X184221890Y-43352421D01*
X184509169Y-43544375D01*
X184828377Y-43676595D01*
X185167246Y-43744000D01*
X185512754Y-43744000D01*
X185851623Y-43676595D01*
X185921000Y-43647858D01*
X185921001Y-46408443D01*
X184475991Y-47853454D01*
X184422419Y-47897420D01*
X184246968Y-48111206D01*
X184116597Y-48355114D01*
X184086045Y-48455831D01*
X184036852Y-48618000D01*
X184036315Y-48619769D01*
X184016000Y-48826031D01*
X184016000Y-48826037D01*
X184009208Y-48895000D01*
X184016000Y-48963963D01*
X184016001Y-52001027D01*
X184009208Y-52070000D01*
X184036315Y-52345232D01*
X184110964Y-52591315D01*
X184116598Y-52609887D01*
X184246969Y-52853795D01*
X184422420Y-53067581D01*
X184475991Y-53111546D01*
X185648450Y-54284005D01*
X185692419Y-54337581D01*
X185861082Y-54476000D01*
X181620056Y-54476000D01*
X177522000Y-50377945D01*
X177522000Y-50199246D01*
X177454595Y-49860377D01*
X177322375Y-49541169D01*
X177130421Y-49253890D01*
X176886110Y-49009579D01*
X176598831Y-48817625D01*
X176279623Y-48685405D01*
X175940754Y-48618000D01*
X175595246Y-48618000D01*
X175256377Y-48685405D01*
X174937169Y-48817625D01*
X174655248Y-49005999D01*
X174223962Y-49005999D01*
X174154999Y-48999207D01*
X174086036Y-49005999D01*
X174086029Y-49005999D01*
X173879767Y-49026314D01*
X173615112Y-49106596D01*
X173371204Y-49236967D01*
X173157418Y-49412418D01*
X172981967Y-49626204D01*
X172851596Y-49870112D01*
X172771314Y-50134767D01*
X172744206Y-50409999D01*
X172769781Y-50669663D01*
X168328445Y-55111000D01*
X165293918Y-55111000D01*
X165462581Y-54972581D01*
X165506550Y-54919005D01*
X173301556Y-47124000D01*
X176109117Y-47124000D01*
X176334169Y-47274375D01*
X176653377Y-47406595D01*
X176992246Y-47474000D01*
X177337754Y-47474000D01*
X177676623Y-47406595D01*
X177995831Y-47274375D01*
X178283110Y-47082421D01*
X178527421Y-46838110D01*
X178719375Y-46550831D01*
X178851595Y-46231623D01*
X178919000Y-45892754D01*
X178919000Y-45547246D01*
X178851595Y-45208377D01*
X178719375Y-44889169D01*
X178569000Y-44664117D01*
X178569000Y-43394000D01*
X179284117Y-43394000D01*
X179509169Y-43544375D01*
X179828377Y-43676595D01*
X180167246Y-43744000D01*
X180512754Y-43744000D01*
X180851623Y-43676595D01*
X181170831Y-43544375D01*
X181458110Y-43352421D01*
X181702421Y-43108110D01*
X181894375Y-42820831D01*
X182026595Y-42501623D01*
X182094000Y-42162754D01*
X182094000Y-41817246D01*
X182026595Y-41478377D01*
X181894375Y-41159169D01*
X181702421Y-40871890D01*
X181458110Y-40627579D01*
X181170831Y-40435625D01*
X180851623Y-40303405D01*
X180512754Y-40236000D01*
X180167246Y-40236000D01*
X179828377Y-40303405D01*
X179509169Y-40435625D01*
X179284117Y-40586000D01*
X178321531Y-40586000D01*
X178283110Y-40547579D01*
X177995831Y-40355625D01*
X177676623Y-40223405D01*
X177337754Y-40156000D01*
X176992246Y-40156000D01*
X176653377Y-40223405D01*
X176334169Y-40355625D01*
X176046890Y-40547579D01*
X175802579Y-40791890D01*
X175610625Y-41079169D01*
X175478405Y-41398377D01*
X175411000Y-41737246D01*
X175411000Y-42082754D01*
X175478405Y-42421623D01*
X175610625Y-42740831D01*
X175761000Y-42965883D01*
X175761001Y-44316000D01*
X172788963Y-44316000D01*
X172720000Y-44309208D01*
X172651037Y-44316000D01*
X172651030Y-44316000D01*
X172470851Y-44333746D01*
X172444767Y-44336315D01*
X172389659Y-44353032D01*
X172180113Y-44416597D01*
X171936205Y-44546968D01*
X171722419Y-44722419D01*
X171678454Y-44775990D01*
X163883445Y-52571000D01*
X163685169Y-52571000D01*
X163715195Y-52472017D01*
X163733615Y-52285000D01*
X163733615Y-50585000D01*
X163715195Y-50397983D01*
X163660645Y-50218154D01*
X163572059Y-50052422D01*
X163452843Y-49907157D01*
X163329000Y-49805522D01*
X163329000Y-46775883D01*
X163479375Y-46550831D01*
X163611595Y-46231623D01*
X163679000Y-45892754D01*
X163679000Y-45547246D01*
X163611595Y-45208377D01*
X163479375Y-44889169D01*
X163287421Y-44601890D01*
X163043110Y-44357579D01*
X162755831Y-44165625D01*
X162436623Y-44033405D01*
X162097754Y-43966000D01*
X161752246Y-43966000D01*
X161413377Y-44033405D01*
X161094169Y-44165625D01*
X160806890Y-44357579D01*
X160562579Y-44601890D01*
X160370625Y-44889169D01*
X160238405Y-45208377D01*
X160171000Y-45547246D01*
X160171000Y-45892754D01*
X160238405Y-46231623D01*
X160370625Y-46550831D01*
X160521001Y-46775884D01*
X160521000Y-49616030D01*
X160521000Y-49805522D01*
X160397157Y-49907157D01*
X160277941Y-50052422D01*
X160189355Y-50218154D01*
X160134805Y-50397983D01*
X160116385Y-50585000D01*
X158534000Y-50585000D01*
X158534000Y-42950658D01*
X161020106Y-42950658D01*
X161081830Y-43233849D01*
X161356301Y-43372906D01*
X161652627Y-43455745D01*
X161959421Y-43479181D01*
X162264892Y-43442315D01*
X162557301Y-43346562D01*
X162768170Y-43233849D01*
X162829894Y-42950658D01*
X161925000Y-42045765D01*
X161020106Y-42950658D01*
X158534000Y-42950658D01*
X158534000Y-41944421D01*
X160355819Y-41944421D01*
X160392685Y-42249892D01*
X160488438Y-42542301D01*
X160601151Y-42753170D01*
X160884342Y-42814894D01*
X161789235Y-41910000D01*
X162060765Y-41910000D01*
X162965658Y-42814894D01*
X163248849Y-42753170D01*
X163387906Y-42478699D01*
X163470745Y-42182373D01*
X163494181Y-41875579D01*
X163457315Y-41570108D01*
X163361562Y-41277699D01*
X163248849Y-41066830D01*
X162965658Y-41005106D01*
X162060765Y-41910000D01*
X161789235Y-41910000D01*
X160884342Y-41005106D01*
X160601151Y-41066830D01*
X160462094Y-41341301D01*
X160379255Y-41637627D01*
X160355819Y-41944421D01*
X158534000Y-41944421D01*
X158534000Y-40869342D01*
X161020106Y-40869342D01*
X161925000Y-41774235D01*
X162829894Y-40869342D01*
X162768170Y-40586151D01*
X162493699Y-40447094D01*
X162197373Y-40364255D01*
X161890579Y-40340819D01*
X161585108Y-40377685D01*
X161292699Y-40473438D01*
X161081830Y-40586151D01*
X161020106Y-40869342D01*
X158534000Y-40869342D01*
X158534000Y-31534000D01*
X242786000Y-31534000D01*
X242786001Y-81496000D01*
M02*
