M48
; DRILL file {KiCad (5.1.6)-1} date 02/15/24 07:59:20
; FORMAT={-:-/ absolute / inch / decimal}
; #@! TF.CreationDate,2024-02-15T07:59:20+01:00
; #@! TF.GenerationSoftware,Kicad,Pcbnew,(5.1.6)-1
; #@! TF.FileFunction,Plated,1,2,PTH
FMAT,2
INCH
T1C0.0276
T2C0.0315
T3C0.0394
%
G90
G05
T1
X6.5Y-2.78
X6.7Y-2.42
X7.0516Y-3.025
X7.15Y-3.025
X7.525Y-1.675
X7.6234Y-1.675
X7.6016Y-1.45
X7.7Y-1.45
X7.825Y-2.85
X7.9234Y-2.85
T2
X7.55Y-1.875
X8.15Y-1.875
X8.775Y-1.95
X9.375Y-1.95
X7.375Y-1.975
X7.375Y-2.575
X7.8281Y-2.85
X8.025Y-2.85
X7.0531Y-3.025
X7.3484Y-3.025
X7.6016Y-1.45
X7.8969Y-1.45
X8.125Y-1.45
X8.725Y-1.45
X6.92Y-1.9831
X6.92Y-2.18
X8.425Y-2.925
X9.025Y-2.925
X7.1Y-1.6531
X7.2969Y-1.6531
X6.375Y-1.65
X6.975Y-1.65
X8.425Y-2.625
X9.025Y-2.625
X6.375Y-1.8
X6.975Y-1.8
X7.55Y-3.025
X8.15Y-3.025
X7.55Y-2.1
X7.55Y-2.4
X7.65Y-2.1
X7.65Y-2.4
X7.75Y-2.1
X7.75Y-2.4
X7.85Y-2.1
X7.85Y-2.4
X7.95Y-2.1
X7.95Y-2.4
X8.05Y-2.1
X8.05Y-2.4
X8.15Y-2.1
X8.15Y-2.4
X7.05Y-2.85
X7.65Y-2.85
X7.525Y-1.675
X7.7219Y-1.675
X6.92Y-2.3431
X6.92Y-2.54
X8.7Y-2.175
X8.8Y-2.175
X8.9Y-2.175
X7.575Y-2.65
X8.175Y-2.65
X7.6031Y-1.45
X7.8Y-1.45
X7.0531Y-3.025
X7.25Y-3.025
X8.45Y-2.4
X8.55Y-2.4
X8.65Y-2.4
X8.075Y-1.675
X8.675Y-1.675
X7.525Y-1.675
X7.8203Y-1.675
X7.8297Y-2.85
X8.125Y-2.85
T3
X6.5Y-2.9
X6.6Y-2.9
X6.7Y-2.9
X6.375Y-2.025
X6.375Y-2.125
X6.375Y-2.225
X6.375Y-2.325
X6.375Y-2.425
X6.375Y-2.525
T0
M30
