G04 #@! TF.GenerationSoftware,KiCad,Pcbnew,(5.1.6)-1*
G04 #@! TF.CreationDate,2024-02-15T07:59:17+01:00*
G04 #@! TF.ProjectId,AetS_Spectrum_1way,41657453-5f53-4706-9563-7472756d5f31,rev?*
G04 #@! TF.SameCoordinates,Original*
G04 #@! TF.FileFunction,Copper,L1,Top*
G04 #@! TF.FilePolarity,Positive*
%FSLAX46Y46*%
G04 Gerber Fmt 4.6, Leading zero omitted, Abs format (unit mm)*
G04 Created by KiCad (PCBNEW (5.1.6)-1) date 2024-02-15 07:59:17*
%MOMM*%
%LPD*%
G01*
G04 APERTURE LIST*
G04 #@! TA.AperFunction,ComponentPad*
%ADD10R,1.700000X1.700000*%
G04 #@! TD*
G04 #@! TA.AperFunction,ComponentPad*
%ADD11O,1.700000X1.700000*%
G04 #@! TD*
G04 #@! TA.AperFunction,ComponentPad*
%ADD12C,1.400000*%
G04 #@! TD*
G04 #@! TA.AperFunction,ComponentPad*
%ADD13C,1.600000*%
G04 #@! TD*
G04 #@! TA.AperFunction,ComponentPad*
%ADD14R,1.600000X1.600000*%
G04 #@! TD*
G04 #@! TA.AperFunction,ComponentPad*
%ADD15O,1.600000X1.600000*%
G04 #@! TD*
G04 #@! TA.AperFunction,ComponentPad*
%ADD16C,1.440000*%
G04 #@! TD*
G04 #@! TA.AperFunction,ComponentPad*
%ADD17R,1.600000X2.400000*%
G04 #@! TD*
G04 #@! TA.AperFunction,ComponentPad*
%ADD18O,1.600000X2.400000*%
G04 #@! TD*
G04 #@! TA.AperFunction,ViaPad*
%ADD19C,1.400000*%
G04 #@! TD*
G04 #@! TA.AperFunction,Conductor*
%ADD20C,0.900000*%
G04 #@! TD*
G04 APERTURE END LIST*
D10*
X165100000Y-73660000D03*
D11*
X167640000Y-73660000D03*
X170180000Y-73660000D03*
D12*
X181610000Y-76835000D03*
X179110000Y-76835000D03*
D13*
X184150000Y-76835000D03*
X179150000Y-76835000D03*
X175768000Y-59516000D03*
D14*
X175768000Y-64516000D03*
D12*
X201255000Y-72390000D03*
X198755000Y-72390000D03*
D13*
X198835000Y-72390000D03*
X203835000Y-72390000D03*
D14*
X175768000Y-55372000D03*
D13*
X175768000Y-50372000D03*
D12*
X195580000Y-36830000D03*
X193080000Y-36830000D03*
D13*
X198120000Y-36830000D03*
X193120000Y-36830000D03*
D12*
X193635000Y-42545000D03*
X191135000Y-42545000D03*
D13*
X191135000Y-42545000D03*
X196135000Y-42545000D03*
X180340000Y-41990000D03*
X185340000Y-41990000D03*
X179150000Y-76835000D03*
X186650000Y-76835000D03*
X206375000Y-72390000D03*
X198875000Y-72390000D03*
X193080000Y-36830000D03*
X200580000Y-36830000D03*
X198635000Y-42545000D03*
X191135000Y-42545000D03*
D10*
X161925000Y-51435000D03*
D11*
X161925000Y-53975000D03*
X161925000Y-56515000D03*
X161925000Y-59055000D03*
X161925000Y-61595000D03*
X161925000Y-64135000D03*
D13*
X191770000Y-76835000D03*
D15*
X207010000Y-76835000D03*
D13*
X229235000Y-74295000D03*
D15*
X213995000Y-74295000D03*
D13*
X207645000Y-67310000D03*
D15*
X192405000Y-67310000D03*
X179070000Y-72390000D03*
D13*
X194310000Y-72390000D03*
D15*
X213995000Y-66675000D03*
D13*
X229235000Y-66675000D03*
D15*
X187325000Y-65405000D03*
D13*
X187325000Y-50165000D03*
D15*
X206375000Y-36830000D03*
D13*
X221615000Y-36830000D03*
X205105000Y-42545000D03*
D15*
X220345000Y-42545000D03*
D13*
X207010000Y-47625000D03*
D15*
X191770000Y-47625000D03*
X222885000Y-49530000D03*
D13*
X238125000Y-49530000D03*
D15*
X161925000Y-45720000D03*
D13*
X177165000Y-45720000D03*
X161925000Y-41910000D03*
D15*
X177165000Y-41910000D03*
D16*
X219710000Y-60960000D03*
X217170000Y-60960000D03*
X214630000Y-60960000D03*
X220980000Y-55245000D03*
X223520000Y-55245000D03*
X226060000Y-55245000D03*
D17*
X191770000Y-60960000D03*
D18*
X207010000Y-53340000D03*
X194310000Y-60960000D03*
X204470000Y-53340000D03*
X196850000Y-60960000D03*
X201930000Y-53340000D03*
X199390000Y-60960000D03*
X199390000Y-53340000D03*
X201930000Y-60960000D03*
X196850000Y-53340000D03*
X204470000Y-60960000D03*
X194310000Y-53340000D03*
X207010000Y-60960000D03*
X191770000Y-53340000D03*
D19*
X165100000Y-70611986D03*
X170180004Y-61468000D03*
D20*
X170180000Y-61468004D02*
X170180004Y-61468000D01*
X170180000Y-65532000D02*
X170180000Y-61468004D01*
X165100000Y-70611986D02*
X165100014Y-70611986D01*
X165100014Y-70611986D02*
X170180000Y-65532000D01*
M02*
