M48
;DRILL file {KiCad (5.0.1)-4} date 05/12/2023 16:50:32
;FORMAT={-:-/ absolute / metric / decimal}
FMAT,2
METRIC,TZ
T1C0.700
T2C0.800
T3C1.000
%
G90
G05
M71
T1
X166.37Y-61.595
X166.37Y-69.215
X191.135Y-42.545
X193.635Y-42.545
X198.755Y-72.39
X201.255Y-72.39
X179.11Y-76.835
X181.61Y-76.835
X193.08Y-36.83
X195.58Y-36.83
T2
X213.995Y-66.675
X229.235Y-66.675
X161.925Y-41.91
X177.165Y-41.91
X161.925Y-45.72
X177.165Y-45.72
X191.135Y-42.545
X196.135Y-42.545
X179.07Y-72.39
X194.31Y-72.39
X206.375Y-36.83
X221.615Y-36.83
X192.405Y-67.31
X207.645Y-67.31
X187.325Y-50.165
X187.325Y-65.405
X193.12Y-36.83
X198.12Y-36.83
X198.875Y-72.39
X206.375Y-72.39
X191.77Y-76.835
X207.01Y-76.835
X191.77Y-53.34
X191.77Y-60.96
X194.31Y-53.34
X194.31Y-60.96
X196.85Y-53.34
X196.85Y-60.96
X199.39Y-53.34
X199.39Y-60.96
X201.93Y-53.34
X201.93Y-60.96
X204.47Y-53.34
X204.47Y-60.96
X207.01Y-53.34
X207.01Y-60.96
X173.355Y-59.055
X173.355Y-64.055
X222.885Y-49.53
X238.125Y-49.53
X191.135Y-42.545
X198.635Y-42.545
X220.98Y-55.245
X223.52Y-55.245
X226.06Y-55.245
X198.835Y-72.39
X203.835Y-72.39
X173.355Y-49.61
X173.355Y-54.61
X191.77Y-47.625
X207.01Y-47.625
X214.63Y-60.96
X217.17Y-60.96
X219.71Y-60.96
X179.15Y-76.835
X186.65Y-76.835
X179.15Y-76.835
X184.15Y-76.835
X205.105Y-42.545
X220.345Y-42.545
X193.08Y-36.83
X200.58Y-36.83
X213.995Y-74.295
X229.235Y-74.295
X180.34Y-41.99
X185.34Y-41.99
T3
X161.925Y-51.435
X161.925Y-53.975
X161.925Y-56.515
X161.925Y-59.055
X161.925Y-61.595
X161.925Y-64.135
X165.1Y-73.66
X167.64Y-73.66
X170.18Y-73.66
T0
M30
