M48
;DRILL file {KiCad (5.0.1)-4} date 15/02/2024 09:49:55
;FORMAT={-:-/ absolute / metric / decimal}
FMAT,2
METRIC,TZ
T1C0.600
T2C0.800
T3C0.900
T4C1.000
T5C1.300
T6C3.200
%
G90
G05
M71
T1
X65.458Y-92.456
X65.532Y-134.62
X65.532Y-73.152
X66.548Y-154.432
X68.072Y-92.456
X68.072Y-73.152
X72.644Y-73.152
X72.644Y-92.964
X79.747Y-56.388
X79.756Y-61.468
X80.088Y-58.42
X81.28Y-92.964
X88.392Y-156.464
X99.568Y-56.388
X100.076Y-58.42
X102.616Y-60.452
X105.156Y-156.464
X107.696Y-116.332
X107.696Y-142.24
X110.744Y-127.508
X115.316Y-156.464
X118.364Y-163.068
X120.396Y-165.608
X136.652Y-56.388
X138.176Y-142.24
X141.224Y-173.736
X141.558Y-89.582
X143.256Y-140.208
X151.384Y-94.996
X151.384Y-113.792
X151.384Y-121.92
X152.908Y-173.736
X154.258Y-116.332
X154.258Y-121.586
X155.448Y-56.388
X155.956Y-59.436
X175.768Y-156.464
X180.34Y-97.536
X180.34Y-97.536
X180.34Y-133.604
X180.34Y-139.192
X182.372Y-161.544
X188.468Y-158.496
X192.532Y-158.496
X196.088Y-77.724
X206.756Y-135.636
X209.296Y-77.724
X209.296Y-77.724
X212.344Y-62.992
X222.504Y-151.892
X224.028Y-68.072
X226.06Y-87.376
X226.06Y-131.572
X228.092Y-151.384
X228.6Y-87.376
X228.6Y-68.072
X228.6Y-131.572
T2
X190.5Y-163.576
X190.5Y-173.736
X203.708Y-138.176
X203.708Y-145.796
X84.328Y-79.248
X84.328Y-86.868
X78.232Y-138.684
X78.232Y-148.844
X198.628Y-70.612
X206.248Y-70.612
X81.28Y-79.248
X81.28Y-86.868
X206.756Y-138.176
X206.756Y-145.796
X77.216Y-76.708
X77.216Y-86.868
X66.04Y-125.73
X76.2Y-125.73
X99.06Y-158.115
X99.06Y-168.275
X163.83Y-56.261
X163.83Y-58.261
X163.83Y-60.261
X163.83Y-62.261
X163.83Y-64.261
X163.83Y-66.261
X163.83Y-68.261
X163.83Y-70.261
X163.83Y-72.261
X163.83Y-74.261
X85.852Y-70.612
X93.472Y-70.612
X142.24Y-73.66
X149.86Y-73.66
X85.852Y-141.224
X85.852Y-148.844
X198.628Y-67.056
X208.788Y-67.056
X85.852Y-67.056
X96.012Y-67.056
X181.61Y-63.881
X181.61Y-74.041
X211.836Y-74.168
X211.836Y-81.788
X210.312Y-138.176
X210.312Y-148.336
X198.628Y-73.66
X206.248Y-73.66
X221.996Y-163.576
X221.996Y-173.736
X218.44Y-74.168
X218.44Y-84.328
X186.055Y-56.261
X186.055Y-58.261
X186.055Y-60.261
X186.055Y-62.261
X186.055Y-64.261
X186.055Y-66.261
X186.055Y-68.261
X186.055Y-70.261
X186.055Y-72.261
X186.055Y-74.261
X214.884Y-74.168
X214.884Y-81.788
X82.296Y-141.224
X82.296Y-148.844
X142.24Y-67.056
X152.4Y-67.056
X64.135Y-130.175
X74.295Y-130.175
X142.24Y-70.612
X149.86Y-70.612
X85.852Y-73.66
X93.472Y-73.66
T3
X99.06Y-149.86
X99.06Y-152.4
X76.2Y-109.855
X76.2Y-112.395
X76.2Y-118.11
X76.2Y-120.65
T4
X192.532Y-158.496
X195.072Y-158.496
X197.612Y-158.496
X92.456Y-165.608
X92.456Y-168.148
X92.456Y-170.688
X222.504Y-71.628
X222.504Y-74.168
X222.504Y-76.708
X222.504Y-79.248
X222.504Y-81.788
X222.504Y-84.328
X105.156Y-165.608
X105.156Y-168.148
X105.156Y-170.688
X78.82Y-157.988
X83.82Y-157.988
X72.644Y-138.684
X72.644Y-141.224
X72.644Y-143.764
X72.644Y-146.304
X72.644Y-148.844
X72.644Y-151.384
X198.12Y-167.64
X198.12Y-172.64
X83.312Y-62.992
X85.852Y-62.992
X88.392Y-62.992
X90.932Y-62.992
X93.472Y-62.992
X96.012Y-62.992
X115.316Y-163.068
X115.316Y-165.608
X115.316Y-168.148
X115.316Y-170.688
X123.778Y-84.375
X123.778Y-86.915
X126.318Y-84.375
X126.318Y-86.915
X128.858Y-84.375
X128.858Y-86.915
X131.398Y-84.375
X131.398Y-86.915
X133.938Y-84.375
X133.938Y-86.915
X136.478Y-84.375
X136.478Y-86.915
X139.018Y-84.375
X139.018Y-86.915
X141.558Y-84.375
X141.558Y-86.915
X144.098Y-84.375
X144.098Y-86.915
X146.638Y-84.375
X146.638Y-86.915
X149.178Y-84.375
X149.178Y-86.915
X151.718Y-84.375
X151.718Y-86.915
X154.258Y-84.375
X154.258Y-86.915
X156.798Y-84.375
X156.798Y-86.915
X159.338Y-84.375
X159.338Y-86.915
X161.878Y-84.375
X161.878Y-86.915
X164.418Y-84.375
X164.418Y-86.915
X166.958Y-84.375
X166.958Y-86.915
X169.498Y-84.375
X169.498Y-86.915
X172.038Y-84.375
X172.038Y-86.915
X215.9Y-102.235
X215.9Y-104.775
X215.9Y-107.315
X139.7Y-62.992
X142.24Y-62.992
X144.78Y-62.992
X147.32Y-62.992
X149.86Y-62.992
X152.4Y-62.992
X204.724Y-158.496
X207.264Y-158.496
X209.804Y-158.496
X216.916Y-158.496
X219.456Y-158.496
X221.996Y-158.496
X123.778Y-145.415
X123.778Y-147.955
X126.318Y-145.415
X126.318Y-147.955
X128.858Y-145.415
X128.858Y-147.955
X131.398Y-145.415
X131.398Y-147.955
X133.938Y-145.415
X133.938Y-147.955
X136.478Y-145.415
X136.478Y-147.955
X139.018Y-145.415
X139.018Y-147.955
X141.558Y-145.415
X141.558Y-147.955
X144.098Y-145.415
X144.098Y-147.955
X146.638Y-145.415
X146.638Y-147.955
X149.178Y-145.415
X149.178Y-147.955
X151.718Y-145.415
X151.718Y-147.955
X154.258Y-145.415
X154.258Y-147.955
X156.798Y-145.415
X156.798Y-147.955
X159.338Y-145.415
X159.338Y-147.955
X161.878Y-145.415
X161.878Y-147.955
X164.418Y-145.415
X164.418Y-147.955
X166.958Y-145.415
X166.958Y-147.955
X169.498Y-145.415
X169.498Y-147.955
X172.038Y-145.415
X172.038Y-147.955
X214.376Y-167.72
X214.376Y-172.72
X163.576Y-153.924
X163.576Y-156.464
X163.576Y-159.004
X146.812Y-166.196
X146.812Y-171.196
X175.768Y-166.704
X175.768Y-171.704
X72.644Y-76.708
X72.644Y-79.248
X72.644Y-81.788
X72.644Y-84.328
X72.644Y-86.868
X72.644Y-89.408
X222.504Y-135.636
X222.504Y-138.176
X222.504Y-140.716
X222.504Y-143.256
X222.504Y-145.796
X222.504Y-148.336
X157.988Y-153.924
X157.988Y-156.464
X157.988Y-159.004
X196.088Y-62.992
X198.628Y-62.992
X201.168Y-62.992
X203.708Y-62.992
X206.248Y-62.992
X208.788Y-62.992
X110.998Y-116.332
X110.998Y-118.872
X110.998Y-121.412
X110.998Y-123.952
X113.538Y-116.332
X113.538Y-118.872
X113.538Y-121.412
X113.538Y-123.952
X206.248Y-167.64
X206.248Y-170.18
X206.248Y-172.72
X151.892Y-153.924
X151.892Y-156.464
X151.892Y-159.004
T5
X78.74Y-170.688
X83.82Y-170.688
X129.54Y-169.672
X134.62Y-169.672
X159.529Y-169.493
X164.609Y-169.493
T6
X69.596Y-168.148
X227.584Y-171.704
X70.612Y-60.452
X222.504Y-61.976
T0
M30
