M48
; DRILL file {KiCad (5.1.6)-1} date 02/14/24 18:37:30
; FORMAT={-:-/ absolute / inch / decimal}
; #@! TF.CreationDate,2024-02-14T18:37:30+01:00
; #@! TF.GenerationSoftware,Kicad,Pcbnew,(5.1.6)-1
; #@! TF.FileFunction,Plated,1,2,PTH
FMAT,2
INCH
T1C0.0236
T2C0.0315
T3C0.0394
T4C0.0512
%
G90
G05
T1
X2.5771Y-3.64
X2.58Y-5.3
X2.58Y-2.88
X2.62Y-6.08
X2.68Y-3.64
X2.68Y-2.88
X2.86Y-2.88
X2.86Y-3.66
X3.1396Y-2.22
X3.14Y-2.42
X3.1531Y-2.3
X3.2Y-3.66
X3.48Y-6.16
X3.92Y-2.22
X3.94Y-2.3
X4.04Y-2.38
X4.14Y-6.16
X4.24Y-4.58
X4.24Y-5.6
X4.36Y-5.02
X4.54Y-6.16
X4.66Y-6.42
X4.74Y-6.52
X5.38Y-2.22
X5.44Y-5.6
X5.56Y-6.84
X5.5731Y-3.5269
X5.64Y-5.52
X5.96Y-3.74
X5.96Y-4.48
X5.96Y-4.8
X6.02Y-6.84
X6.0731Y-4.58
X6.0731Y-4.7869
X6.12Y-2.22
X6.14Y-2.34
X6.92Y-6.16
X7.1Y-3.84
X7.1Y-3.84
X7.1Y-5.26
X7.1Y-5.48
X7.18Y-6.36
X7.42Y-6.24
X7.58Y-6.24
X7.72Y-3.06
X8.14Y-5.34
X8.24Y-3.06
X8.24Y-3.06
X8.36Y-2.48
X8.76Y-5.98
X8.82Y-2.68
X8.9Y-3.44
X8.9Y-5.18
X8.98Y-5.96
X9.0Y-3.44
X9.0Y-2.68
X9.0Y-5.18
T2
X8.46Y-2.92
X8.46Y-3.22
X3.38Y-2.64
X3.78Y-2.64
X5.6Y-2.9
X5.9Y-2.9
X3.24Y-5.56
X3.24Y-5.86
X7.5Y-6.44
X7.5Y-6.84
X7.15Y-2.515
X7.15Y-2.915
X5.6Y-2.78
X5.9Y-2.78
X8.6Y-2.92
X8.6Y-3.32
X8.74Y-6.44
X8.74Y-6.84
X6.45Y-2.215
X6.45Y-2.2937
X6.45Y-2.3725
X6.45Y-2.4512
X6.45Y-2.53
X6.45Y-2.6087
X6.45Y-2.6874
X6.45Y-2.7662
X6.45Y-2.8449
X6.45Y-2.9237
X8.28Y-5.44
X8.28Y-5.84
X3.32Y-3.12
X3.32Y-3.42
X3.2Y-3.12
X3.2Y-3.42
X3.08Y-5.46
X3.08Y-5.86
X8.14Y-5.44
X8.14Y-5.74
X7.82Y-2.78
X8.12Y-2.78
X7.82Y-2.9
X8.12Y-2.9
X3.04Y-3.02
X3.04Y-3.42
X8.34Y-2.92
X8.34Y-3.22
X3.38Y-2.9
X3.68Y-2.9
X3.38Y-5.56
X3.38Y-5.86
X5.6Y-2.64
X6.0Y-2.64
X7.325Y-2.215
X7.325Y-2.2937
X7.325Y-2.3725
X7.325Y-2.4512
X7.325Y-2.53
X7.325Y-2.6087
X7.325Y-2.6874
X7.325Y-2.7662
X7.325Y-2.8449
X7.325Y-2.9237
X3.38Y-2.78
X3.68Y-2.78
X8.02Y-5.44
X8.02Y-5.74
X7.82Y-2.64
X8.22Y-2.64
T3
X8.44Y-6.6031
X8.44Y-6.8
X6.44Y-6.06
X6.44Y-6.16
X6.44Y-6.26
X6.92Y-6.5631
X6.92Y-6.76
X8.06Y-6.24
X8.16Y-6.24
X8.26Y-6.24
X6.22Y-6.06
X6.22Y-6.16
X6.22Y-6.26
X3.64Y-6.52
X3.64Y-6.62
X3.64Y-6.72
X7.58Y-6.24
X7.68Y-6.24
X7.78Y-6.24
X5.5Y-2.48
X5.6Y-2.48
X5.7Y-2.48
X5.8Y-2.48
X5.9Y-2.48
X6.0Y-2.48
X4.8731Y-5.725
X4.8731Y-5.825
X4.9731Y-5.725
X4.9731Y-5.825
X5.0731Y-5.725
X5.0731Y-5.825
X5.1731Y-5.725
X5.1731Y-5.825
X5.2731Y-5.725
X5.2731Y-5.825
X5.3731Y-5.725
X5.3731Y-5.825
X5.4731Y-5.725
X5.4731Y-5.825
X5.5731Y-5.725
X5.5731Y-5.825
X5.6731Y-5.725
X5.6731Y-5.825
X5.7731Y-5.725
X5.7731Y-5.825
X5.8731Y-5.725
X5.8731Y-5.825
X5.9731Y-5.725
X5.9731Y-5.825
X6.0731Y-5.725
X6.0731Y-5.825
X6.1731Y-5.725
X6.1731Y-5.825
X6.2731Y-5.725
X6.2731Y-5.825
X6.3731Y-5.725
X6.3731Y-5.825
X6.4731Y-5.725
X6.4731Y-5.825
X6.5731Y-5.725
X6.5731Y-5.825
X6.6731Y-5.725
X6.6731Y-5.825
X6.7731Y-5.725
X6.7731Y-5.825
X8.12Y-6.6
X8.12Y-6.7
X8.12Y-6.8
X3.28Y-2.48
X3.38Y-2.48
X3.48Y-2.48
X3.58Y-2.48
X3.68Y-2.48
X3.78Y-2.48
X2.86Y-3.02
X2.86Y-3.12
X2.86Y-3.22
X2.86Y-3.32
X2.86Y-3.42
X2.86Y-3.52
X5.78Y-6.5431
X5.78Y-6.74
X3.1031Y-6.22
X3.3Y-6.22
X7.72Y-2.48
X7.82Y-2.48
X7.92Y-2.48
X8.02Y-2.48
X8.12Y-2.48
X8.22Y-2.48
X8.76Y-2.82
X8.76Y-2.92
X8.76Y-3.02
X8.76Y-3.12
X8.76Y-3.22
X8.76Y-3.32
X3.16Y-4.68
X3.16Y-4.78
X3.16Y-4.88
X2.86Y-5.46
X2.86Y-5.56
X2.86Y-5.66
X2.86Y-5.76
X2.86Y-5.86
X2.86Y-5.96
X4.8731Y-3.3219
X4.8731Y-3.4219
X4.9731Y-3.3219
X4.9731Y-3.4219
X5.0731Y-3.3219
X5.0731Y-3.4219
X5.1731Y-3.3219
X5.1731Y-3.4219
X5.2731Y-3.3219
X5.2731Y-3.4219
X5.3731Y-3.3219
X5.3731Y-3.4219
X5.4731Y-3.3219
X5.4731Y-3.4219
X5.5731Y-3.3219
X5.5731Y-3.4219
X5.6731Y-3.3219
X5.6731Y-3.4219
X5.7731Y-3.3219
X5.7731Y-3.4219
X5.8731Y-3.3219
X5.8731Y-3.4219
X5.9731Y-3.3219
X5.9731Y-3.4219
X6.0731Y-3.3219
X6.0731Y-3.4219
X6.1731Y-3.3219
X6.1731Y-3.4219
X6.2731Y-3.3219
X6.2731Y-3.4219
X6.3731Y-3.3219
X6.3731Y-3.4219
X6.4731Y-3.3219
X6.4731Y-3.4219
X6.5731Y-3.3219
X6.5731Y-3.4219
X6.6731Y-3.3219
X6.6731Y-3.4219
X6.7731Y-3.3219
X6.7731Y-3.4219
X4.37Y-4.58
X4.37Y-4.68
X4.37Y-4.78
X4.37Y-4.88
X4.47Y-4.58
X4.47Y-4.68
X4.47Y-4.78
X4.47Y-4.88
X4.14Y-6.52
X4.14Y-6.62
X4.14Y-6.72
X4.54Y-6.42
X4.54Y-6.52
X4.54Y-6.62
X4.54Y-6.72
X8.76Y-5.34
X8.76Y-5.44
X8.76Y-5.54
X8.76Y-5.64
X8.76Y-5.74
X8.76Y-5.84
X5.98Y-6.06
X5.98Y-6.16
X5.98Y-6.26
X7.8Y-6.6
X7.8Y-6.7969
X8.54Y-6.24
X8.64Y-6.24
X8.74Y-6.24
T4
X6.2807Y-6.673
X6.4807Y-6.673
X3.1Y-6.72
X3.3Y-6.72
X5.1Y-6.68
X5.3Y-6.68
T0
M30
